G75*
%MOIN*%
%OFA0B0*%
%FSLAX25Y25*%
%IPPOS*%
%LPD*%
%AMOC8*
5,1,8,0,0,1.08239X$1,22.5*
%
%ADD10C,0.00700*%
%ADD11R,0.09000X0.16000*%
%ADD12C,0.00000*%
%ADD13R,0.05906X0.05118*%
%ADD14R,0.03000X0.06000*%
%ADD15R,0.04000X0.06000*%
%ADD16R,0.06000X0.08000*%
%ADD17R,0.06000X0.06000*%
%ADD18R,0.05906X0.03937*%
%ADD19R,0.05118X0.05906*%
%ADD20R,0.04331X0.03937*%
%ADD21C,0.07600*%
%ADD22R,0.07087X0.06299*%
%ADD23R,0.03937X0.04331*%
%ADD24R,0.02717X0.03898*%
%ADD25R,0.03937X0.05512*%
%ADD26R,0.07087X0.05512*%
%ADD27C,0.07000*%
%ADD28R,0.02362X0.08661*%
%ADD29R,0.00700X0.01000*%
%ADD30R,0.01000X0.00700*%
%ADD31C,0.01000*%
%ADD32C,0.02400*%
%ADD33C,0.02000*%
%ADD34C,0.02400*%
%ADD35C,0.01400*%
%ADD36C,0.00800*%
%ADD37C,0.01600*%
%ADD38R,0.02400X0.02400*%
D10*
X0009830Y0018054D02*
X0179814Y0018054D01*
X0180004Y0018056D01*
X0180194Y0018063D01*
X0180384Y0018075D01*
X0180574Y0018091D01*
X0180763Y0018111D01*
X0180952Y0018137D01*
X0181140Y0018166D01*
X0181327Y0018201D01*
X0181513Y0018240D01*
X0181698Y0018283D01*
X0181883Y0018331D01*
X0182066Y0018383D01*
X0182247Y0018439D01*
X0182427Y0018500D01*
X0182606Y0018566D01*
X0182783Y0018635D01*
X0182959Y0018709D01*
X0183132Y0018787D01*
X0183304Y0018870D01*
X0183473Y0018956D01*
X0183641Y0019046D01*
X0183806Y0019141D01*
X0183969Y0019239D01*
X0184129Y0019342D01*
X0184287Y0019448D01*
X0184442Y0019558D01*
X0184595Y0019671D01*
X0184745Y0019789D01*
X0184891Y0019910D01*
X0185035Y0020034D01*
X0185176Y0020162D01*
X0185314Y0020293D01*
X0185449Y0020428D01*
X0185580Y0020566D01*
X0185708Y0020707D01*
X0185832Y0020851D01*
X0185953Y0020997D01*
X0186071Y0021147D01*
X0186184Y0021300D01*
X0186294Y0021455D01*
X0186400Y0021613D01*
X0186503Y0021773D01*
X0186601Y0021936D01*
X0186696Y0022101D01*
X0186786Y0022269D01*
X0186872Y0022438D01*
X0186955Y0022610D01*
X0187033Y0022783D01*
X0187107Y0022959D01*
X0187176Y0023136D01*
X0187242Y0023315D01*
X0187303Y0023495D01*
X0187359Y0023676D01*
X0187411Y0023859D01*
X0187459Y0024044D01*
X0187502Y0024229D01*
X0187541Y0024415D01*
X0187576Y0024602D01*
X0187605Y0024790D01*
X0187631Y0024979D01*
X0187651Y0025168D01*
X0187667Y0025358D01*
X0187679Y0025548D01*
X0187686Y0025738D01*
X0187688Y0025928D01*
X0187688Y0207030D01*
X0187662Y0207244D01*
X0187631Y0207457D01*
X0187594Y0207669D01*
X0187552Y0207881D01*
X0187505Y0208091D01*
X0187453Y0208300D01*
X0187396Y0208508D01*
X0187334Y0208714D01*
X0187267Y0208919D01*
X0187196Y0209122D01*
X0187119Y0209323D01*
X0187037Y0209522D01*
X0186951Y0209720D01*
X0186860Y0209915D01*
X0186764Y0210108D01*
X0186663Y0210298D01*
X0186558Y0210486D01*
X0186449Y0210672D01*
X0186335Y0210854D01*
X0186216Y0211034D01*
X0186094Y0211211D01*
X0185967Y0211385D01*
X0185836Y0211556D01*
X0185700Y0211724D01*
X0185561Y0211888D01*
X0185418Y0212049D01*
X0185271Y0212207D01*
X0185120Y0212360D01*
X0184966Y0212511D01*
X0184808Y0212657D01*
X0184646Y0212800D01*
X0184482Y0212938D01*
X0184313Y0213073D01*
X0184142Y0213203D01*
X0183968Y0213329D01*
X0183790Y0213451D01*
X0183610Y0213569D01*
X0183426Y0213682D01*
X0183241Y0213791D01*
X0183052Y0213896D01*
X0182861Y0213995D01*
X0182668Y0214090D01*
X0182472Y0214181D01*
X0182275Y0214266D01*
X0182075Y0214347D01*
X0181874Y0214423D01*
X0181670Y0214494D01*
X0181465Y0214560D01*
X0181259Y0214622D01*
X0181051Y0214678D01*
X0180842Y0214729D01*
X0180631Y0214775D01*
X0180420Y0214816D01*
X0180207Y0214852D01*
X0179994Y0214883D01*
X0179780Y0214908D01*
X0179566Y0214929D01*
X0179351Y0214944D01*
X0179136Y0214954D01*
X0178921Y0214959D01*
X0178705Y0214958D01*
X0178490Y0214953D01*
X0178275Y0214942D01*
X0178060Y0214926D01*
X0177846Y0214904D01*
X0177845Y0214904D02*
X0009830Y0214904D01*
X0009640Y0214902D01*
X0009450Y0214895D01*
X0009260Y0214883D01*
X0009070Y0214867D01*
X0008881Y0214847D01*
X0008692Y0214821D01*
X0008504Y0214792D01*
X0008317Y0214757D01*
X0008131Y0214718D01*
X0007946Y0214675D01*
X0007761Y0214627D01*
X0007578Y0214575D01*
X0007397Y0214519D01*
X0007217Y0214458D01*
X0007038Y0214392D01*
X0006861Y0214323D01*
X0006685Y0214249D01*
X0006512Y0214171D01*
X0006340Y0214088D01*
X0006171Y0214002D01*
X0006003Y0213912D01*
X0005838Y0213817D01*
X0005675Y0213719D01*
X0005515Y0213616D01*
X0005357Y0213510D01*
X0005202Y0213400D01*
X0005049Y0213287D01*
X0004899Y0213169D01*
X0004753Y0213048D01*
X0004609Y0212924D01*
X0004468Y0212796D01*
X0004330Y0212665D01*
X0004195Y0212530D01*
X0004064Y0212392D01*
X0003936Y0212251D01*
X0003812Y0212107D01*
X0003691Y0211961D01*
X0003573Y0211811D01*
X0003460Y0211658D01*
X0003350Y0211503D01*
X0003244Y0211345D01*
X0003141Y0211185D01*
X0003043Y0211022D01*
X0002948Y0210857D01*
X0002858Y0210689D01*
X0002772Y0210520D01*
X0002689Y0210348D01*
X0002611Y0210175D01*
X0002537Y0209999D01*
X0002468Y0209822D01*
X0002402Y0209643D01*
X0002341Y0209463D01*
X0002285Y0209282D01*
X0002233Y0209099D01*
X0002185Y0208914D01*
X0002142Y0208729D01*
X0002103Y0208543D01*
X0002068Y0208356D01*
X0002039Y0208168D01*
X0002013Y0207979D01*
X0001993Y0207790D01*
X0001977Y0207600D01*
X0001965Y0207410D01*
X0001958Y0207220D01*
X0001956Y0207030D01*
X0001956Y0025928D01*
X0001958Y0025738D01*
X0001965Y0025548D01*
X0001977Y0025358D01*
X0001993Y0025168D01*
X0002013Y0024979D01*
X0002039Y0024790D01*
X0002068Y0024602D01*
X0002103Y0024415D01*
X0002142Y0024229D01*
X0002185Y0024044D01*
X0002233Y0023859D01*
X0002285Y0023676D01*
X0002341Y0023495D01*
X0002402Y0023315D01*
X0002468Y0023136D01*
X0002537Y0022959D01*
X0002611Y0022783D01*
X0002689Y0022610D01*
X0002772Y0022438D01*
X0002858Y0022269D01*
X0002948Y0022101D01*
X0003043Y0021936D01*
X0003141Y0021773D01*
X0003244Y0021613D01*
X0003350Y0021455D01*
X0003460Y0021300D01*
X0003573Y0021147D01*
X0003691Y0020997D01*
X0003812Y0020851D01*
X0003936Y0020707D01*
X0004064Y0020566D01*
X0004195Y0020428D01*
X0004330Y0020293D01*
X0004468Y0020162D01*
X0004609Y0020034D01*
X0004753Y0019910D01*
X0004899Y0019789D01*
X0005049Y0019671D01*
X0005202Y0019558D01*
X0005357Y0019448D01*
X0005515Y0019342D01*
X0005675Y0019239D01*
X0005838Y0019141D01*
X0006003Y0019046D01*
X0006171Y0018956D01*
X0006340Y0018870D01*
X0006512Y0018787D01*
X0006685Y0018709D01*
X0006861Y0018635D01*
X0007038Y0018566D01*
X0007217Y0018500D01*
X0007397Y0018439D01*
X0007578Y0018383D01*
X0007761Y0018331D01*
X0007946Y0018283D01*
X0008131Y0018240D01*
X0008317Y0018201D01*
X0008504Y0018166D01*
X0008692Y0018137D01*
X0008881Y0018111D01*
X0009070Y0018091D01*
X0009260Y0018075D01*
X0009450Y0018063D01*
X0009640Y0018056D01*
X0009830Y0018054D01*
X0011404Y0031636D02*
X0011601Y0031833D01*
X0013541Y0031833D01*
X0014940Y0032582D01*
X0015341Y0031833D01*
X0014940Y0031084D01*
X0013541Y0031833D01*
X0015341Y0031833D01*
X0017310Y0060361D02*
X0017310Y0062361D01*
X0017310Y0062935D01*
X0011404Y0060770D02*
X0010814Y0061361D01*
X0007861Y0061361D01*
X0006286Y0062935D01*
X0006286Y0071991D01*
X0012192Y0077896D01*
X0012192Y0090494D01*
X0012389Y0090691D01*
X0018491Y0090691D01*
X0018491Y0083998D02*
X0026759Y0083998D01*
X0035026Y0083998D01*
X0037389Y0081636D01*
X0037389Y0075140D01*
X0036207Y0096794D02*
X0035458Y0097195D01*
X0036207Y0098594D01*
X0036957Y0097195D01*
X0036207Y0096794D01*
X0036207Y0098594D01*
X0036207Y0116254D01*
X0035458Y0117652D01*
X0036207Y0118054D01*
X0036957Y0117652D01*
X0036207Y0116254D01*
X0036207Y0118054D01*
X0037021Y0117808D01*
X0037480Y0119326D01*
X0035962Y0118867D01*
X0036207Y0118054D01*
X0037480Y0119326D01*
X0037782Y0119628D01*
X0037782Y0122581D01*
X0036207Y0121006D01*
X0034767Y0121231D02*
X0034767Y0120261D01*
X0035141Y0119886D01*
X0034157Y0118903D01*
X0034157Y0117204D01*
X0034544Y0116818D01*
X0035007Y0115952D01*
X0035007Y0099943D01*
X0026743Y0099943D01*
X0026743Y0104469D01*
X0026245Y0104967D01*
X0019841Y0104967D01*
X0019841Y0111035D01*
X0021168Y0111928D01*
X0026245Y0111928D01*
X0026743Y0112426D01*
X0026743Y0117067D01*
X0026245Y0117565D01*
X0022053Y0117565D01*
X0022053Y0119172D01*
X0024749Y0119172D01*
X0025246Y0119670D01*
X0025246Y0125886D01*
X0024749Y0126384D01*
X0016958Y0126384D01*
X0016460Y0125886D01*
X0016460Y0119670D01*
X0016958Y0119172D01*
X0019653Y0119172D01*
X0019653Y0117565D01*
X0019635Y0117565D01*
X0019137Y0117067D01*
X0019137Y0113816D01*
X0018079Y0113104D01*
X0017932Y0113104D01*
X0017629Y0112802D01*
X0017274Y0112562D01*
X0017245Y0112418D01*
X0017141Y0112314D01*
X0017141Y0111885D01*
X0017059Y0111465D01*
X0017141Y0111343D01*
X0017141Y0105230D01*
X0011514Y0105230D01*
X0008483Y0102199D01*
X0007692Y0101408D01*
X0007692Y0099943D01*
X0006305Y0099943D01*
X0006305Y0101008D01*
X0005807Y0101506D01*
X0004403Y0101506D01*
X0003905Y0101008D01*
X0003905Y0099943D01*
X0003655Y0099943D01*
X0003655Y0164904D01*
X0031936Y0164904D01*
X0034857Y0161983D01*
X0034857Y0155166D01*
X0034475Y0154259D01*
X0034157Y0153942D01*
X0034157Y0153508D01*
X0034101Y0153375D01*
X0034157Y0153237D01*
X0034157Y0152244D01*
X0034560Y0151841D01*
X0034196Y0151476D01*
X0034196Y0142111D01*
X0034694Y0141613D01*
X0034857Y0141613D01*
X0034857Y0141054D01*
X0033286Y0139482D01*
X0025036Y0139482D01*
X0024749Y0139770D01*
X0016958Y0139770D01*
X0016460Y0139272D01*
X0016460Y0137514D01*
X0013042Y0137514D01*
X0013042Y0139272D01*
X0012544Y0139770D01*
X0004753Y0139770D01*
X0004255Y0139272D01*
X0004255Y0132268D01*
X0004753Y0131770D01*
X0012544Y0131770D01*
X0013042Y0132268D01*
X0013042Y0134814D01*
X0016460Y0134814D01*
X0016460Y0133056D01*
X0016958Y0132558D01*
X0024749Y0132558D01*
X0025246Y0133056D01*
X0025246Y0136782D01*
X0030980Y0136782D01*
X0030920Y0136723D01*
X0027771Y0133573D01*
X0027771Y0132093D01*
X0026210Y0132093D01*
X0025712Y0131595D01*
X0025712Y0126953D01*
X0026210Y0126456D01*
X0031245Y0126456D01*
X0031743Y0126953D01*
X0031743Y0131595D01*
X0031245Y0132093D01*
X0030471Y0132093D01*
X0030471Y0132455D01*
X0032830Y0134814D01*
X0035192Y0134814D01*
X0039523Y0139144D01*
X0041491Y0139144D01*
X0041786Y0139440D01*
X0042577Y0140231D01*
X0042577Y0141613D01*
X0042760Y0141613D01*
X0043258Y0142111D01*
X0043258Y0151476D01*
X0042760Y0151974D01*
X0042526Y0151974D01*
X0042526Y0152990D01*
X0049697Y0160161D01*
X0057408Y0160161D01*
X0056281Y0159034D01*
X0055573Y0157325D01*
X0055573Y0155574D01*
X0053654Y0157493D01*
X0047894Y0157493D01*
X0047162Y0156760D01*
X0045194Y0154792D01*
X0045194Y0151974D01*
X0044694Y0151974D01*
X0044196Y0151476D01*
X0044196Y0142111D01*
X0044694Y0141613D01*
X0045094Y0141613D01*
X0045094Y0141447D01*
X0044966Y0141320D01*
X0043915Y0141057D01*
X0043522Y0141057D01*
X0043391Y0140926D01*
X0043212Y0140881D01*
X0043009Y0140544D01*
X0036432Y0133967D01*
X0036432Y0132093D01*
X0035265Y0132093D01*
X0034767Y0131595D01*
X0034767Y0126953D01*
X0035265Y0126456D01*
X0040300Y0126456D01*
X0040798Y0126953D01*
X0040798Y0131595D01*
X0040300Y0132093D01*
X0039132Y0132093D01*
X0039132Y0132849D01*
X0044772Y0138488D01*
X0045822Y0138751D01*
X0046215Y0138751D01*
X0046346Y0138882D01*
X0046526Y0138927D01*
X0046728Y0139264D01*
X0047794Y0140329D01*
X0047794Y0141646D01*
X0048258Y0142111D01*
X0048258Y0151476D01*
X0047760Y0151974D01*
X0047694Y0151974D01*
X0047694Y0153756D01*
X0048930Y0154993D01*
X0052619Y0154993D01*
X0056611Y0151000D01*
X0057343Y0150268D01*
X0057515Y0150268D01*
X0056281Y0149034D01*
X0055573Y0147325D01*
X0055573Y0145475D01*
X0056281Y0143766D01*
X0057415Y0142632D01*
X0054105Y0142632D01*
X0053949Y0142726D01*
X0053564Y0142632D01*
X0053168Y0142632D01*
X0053039Y0142503D01*
X0052863Y0142460D01*
X0052657Y0142121D01*
X0052377Y0141841D01*
X0052377Y0141659D01*
X0046574Y0132093D01*
X0043926Y0132093D01*
X0043428Y0131595D01*
X0043428Y0126953D01*
X0043926Y0126456D01*
X0048961Y0126456D01*
X0049459Y0126953D01*
X0049459Y0131595D01*
X0049441Y0131613D01*
X0054487Y0139932D01*
X0057179Y0139932D01*
X0056281Y0139034D01*
X0055573Y0137325D01*
X0055573Y0135475D01*
X0056281Y0133766D01*
X0057589Y0132458D01*
X0059298Y0131750D01*
X0061148Y0131750D01*
X0062857Y0132458D01*
X0064160Y0133761D01*
X0064160Y0129039D01*
X0062857Y0130342D01*
X0061148Y0131050D01*
X0059298Y0131050D01*
X0057589Y0130342D01*
X0056281Y0129034D01*
X0055573Y0127325D01*
X0055573Y0125475D01*
X0056281Y0123766D01*
X0057589Y0122458D01*
X0059298Y0121750D01*
X0061148Y0121750D01*
X0062857Y0122458D01*
X0064160Y0123761D01*
X0064160Y0119039D01*
X0062857Y0120342D01*
X0061148Y0121050D01*
X0059298Y0121050D01*
X0057589Y0120342D01*
X0056281Y0119034D01*
X0055573Y0117325D01*
X0055573Y0115475D01*
X0056281Y0113766D01*
X0057258Y0112789D01*
X0054286Y0112789D01*
X0051770Y0115306D01*
X0050979Y0116096D01*
X0046034Y0116096D01*
X0046034Y0117067D01*
X0045536Y0117565D01*
X0038926Y0117565D01*
X0038428Y0117067D01*
X0038428Y0112426D01*
X0038926Y0111928D01*
X0045536Y0111928D01*
X0046034Y0112426D01*
X0046034Y0113396D01*
X0049861Y0113396D01*
X0053168Y0110089D01*
X0057337Y0110089D01*
X0056281Y0109034D01*
X0055573Y0107325D01*
X0055573Y0105475D01*
X0056281Y0103766D01*
X0057589Y0102458D01*
X0059298Y0101750D01*
X0061148Y0101750D01*
X0062857Y0102458D01*
X0064160Y0103761D01*
X0064160Y0099943D01*
X0063256Y0099943D01*
X0062857Y0100342D01*
X0061148Y0101050D01*
X0059298Y0101050D01*
X0057589Y0100342D01*
X0057190Y0099943D01*
X0046518Y0099943D01*
X0046534Y0100002D01*
X0046534Y0101798D01*
X0042581Y0101798D01*
X0042581Y0102498D01*
X0041881Y0102498D01*
X0041881Y0101798D01*
X0037928Y0101798D01*
X0037928Y0100002D01*
X0037944Y0099943D01*
X0037407Y0099943D01*
X0037407Y0115952D01*
X0037871Y0116818D01*
X0038257Y0117204D01*
X0038257Y0117750D01*
X0038267Y0117783D01*
X0038542Y0118691D01*
X0038680Y0118829D01*
X0038680Y0118829D01*
X0038982Y0119131D01*
X0038982Y0119763D01*
X0040300Y0119763D01*
X0040798Y0120261D01*
X0040798Y0121231D01*
X0043428Y0121231D01*
X0043428Y0120261D01*
X0043926Y0119763D01*
X0048961Y0119763D01*
X0049459Y0120261D01*
X0049459Y0124902D01*
X0048961Y0125400D01*
X0043926Y0125400D01*
X0043428Y0124902D01*
X0043428Y0123931D01*
X0040798Y0123931D01*
X0040798Y0124902D01*
X0040300Y0125400D01*
X0035265Y0125400D01*
X0034767Y0124902D01*
X0034767Y0123931D01*
X0031743Y0123931D01*
X0031743Y0124902D01*
X0031245Y0125400D01*
X0026210Y0125400D01*
X0025712Y0124902D01*
X0025712Y0120261D01*
X0026210Y0119763D01*
X0031245Y0119763D01*
X0031743Y0120261D01*
X0031743Y0121231D01*
X0034767Y0121231D01*
X0034767Y0120735D02*
X0031743Y0120735D01*
X0031518Y0120036D02*
X0034991Y0120036D01*
X0034592Y0119338D02*
X0024914Y0119338D01*
X0025246Y0120036D02*
X0025936Y0120036D01*
X0025712Y0120735D02*
X0025246Y0120735D01*
X0025246Y0121433D02*
X0025712Y0121433D01*
X0025712Y0122132D02*
X0025246Y0122132D01*
X0025246Y0122830D02*
X0025712Y0122830D01*
X0025712Y0123529D02*
X0025246Y0123529D01*
X0025246Y0124227D02*
X0025712Y0124227D01*
X0025736Y0124926D02*
X0025246Y0124926D01*
X0025246Y0125624D02*
X0055573Y0125624D01*
X0055573Y0126323D02*
X0024810Y0126323D01*
X0025712Y0127021D02*
X0013542Y0127021D01*
X0013542Y0126323D02*
X0016897Y0126323D01*
X0016460Y0125624D02*
X0013542Y0125624D01*
X0013542Y0125096D02*
X0013542Y0128074D01*
X0013450Y0128417D01*
X0013272Y0128725D01*
X0013021Y0128976D01*
X0012713Y0129154D01*
X0012369Y0129246D01*
X0008998Y0129246D01*
X0008998Y0125096D01*
X0013542Y0125096D01*
X0013542Y0124396D02*
X0013542Y0121419D01*
X0013450Y0121076D01*
X0013272Y0120768D01*
X0013021Y0120517D01*
X0012713Y0120339D01*
X0012369Y0120247D01*
X0008998Y0120247D01*
X0008998Y0124396D01*
X0008298Y0124396D01*
X0008298Y0120247D01*
X0004927Y0120247D01*
X0004584Y0120339D01*
X0004276Y0120517D01*
X0004025Y0120768D01*
X0003847Y0121076D01*
X0003755Y0121419D01*
X0003755Y0124396D01*
X0008298Y0124396D01*
X0008298Y0125096D01*
X0003755Y0125096D01*
X0003755Y0128074D01*
X0003847Y0128417D01*
X0004025Y0128725D01*
X0004276Y0128976D01*
X0004584Y0129154D01*
X0004927Y0129246D01*
X0008298Y0129246D01*
X0008298Y0125096D01*
X0008998Y0125096D01*
X0008998Y0124396D01*
X0013542Y0124396D01*
X0013542Y0124227D02*
X0016460Y0124227D01*
X0016460Y0123529D02*
X0013542Y0123529D01*
X0013542Y0122830D02*
X0016460Y0122830D01*
X0016460Y0122132D02*
X0013542Y0122132D01*
X0013542Y0121433D02*
X0016460Y0121433D01*
X0016460Y0120735D02*
X0013239Y0120735D01*
X0016460Y0120036D02*
X0003655Y0120036D01*
X0003655Y0119338D02*
X0016792Y0119338D01*
X0019653Y0118639D02*
X0003655Y0118639D01*
X0003655Y0117941D02*
X0019653Y0117941D01*
X0019312Y0117242D02*
X0003655Y0117242D01*
X0003655Y0116544D02*
X0019137Y0116544D01*
X0019137Y0115845D02*
X0003655Y0115845D01*
X0003655Y0115147D02*
X0019137Y0115147D01*
X0019137Y0114448D02*
X0003655Y0114448D01*
X0003655Y0113750D02*
X0019039Y0113750D01*
X0017879Y0113051D02*
X0003655Y0113051D01*
X0003655Y0112353D02*
X0017180Y0112353D01*
X0017096Y0111654D02*
X0003655Y0111654D01*
X0003655Y0110956D02*
X0017141Y0110956D01*
X0017141Y0110257D02*
X0003655Y0110257D01*
X0003655Y0109559D02*
X0017141Y0109559D01*
X0017141Y0108860D02*
X0003655Y0108860D01*
X0003655Y0108162D02*
X0017141Y0108162D01*
X0017141Y0107463D02*
X0003655Y0107463D01*
X0003655Y0106764D02*
X0017141Y0106764D01*
X0017141Y0106066D02*
X0003655Y0106066D01*
X0003655Y0105367D02*
X0017141Y0105367D01*
X0019841Y0105367D02*
X0035007Y0105367D01*
X0035007Y0104669D02*
X0026542Y0104669D01*
X0026743Y0103970D02*
X0035007Y0103970D01*
X0035007Y0103272D02*
X0026743Y0103272D01*
X0026743Y0102573D02*
X0035007Y0102573D01*
X0035007Y0101875D02*
X0026743Y0101875D01*
X0026743Y0101176D02*
X0035007Y0101176D01*
X0035007Y0100478D02*
X0026743Y0100478D01*
X0019841Y0106066D02*
X0035007Y0106066D01*
X0035007Y0106764D02*
X0019841Y0106764D01*
X0019841Y0107463D02*
X0035007Y0107463D01*
X0035007Y0108162D02*
X0019841Y0108162D01*
X0019841Y0108860D02*
X0035007Y0108860D01*
X0035007Y0109559D02*
X0019841Y0109559D01*
X0019841Y0110257D02*
X0035007Y0110257D01*
X0035007Y0110956D02*
X0019841Y0110956D01*
X0020761Y0111654D02*
X0035007Y0111654D01*
X0035007Y0112353D02*
X0026669Y0112353D01*
X0026743Y0113051D02*
X0035007Y0113051D01*
X0035007Y0113750D02*
X0026743Y0113750D01*
X0026743Y0114448D02*
X0035007Y0114448D01*
X0035007Y0115147D02*
X0026743Y0115147D01*
X0026743Y0115845D02*
X0035007Y0115845D01*
X0034691Y0116544D02*
X0026743Y0116544D01*
X0026567Y0117242D02*
X0034157Y0117242D01*
X0034157Y0117941D02*
X0022053Y0117941D01*
X0022053Y0118639D02*
X0034157Y0118639D01*
X0037724Y0116544D02*
X0038428Y0116544D01*
X0038428Y0115845D02*
X0037407Y0115845D01*
X0037407Y0115147D02*
X0038428Y0115147D01*
X0038428Y0114448D02*
X0037407Y0114448D01*
X0037407Y0113750D02*
X0038428Y0113750D01*
X0038428Y0113051D02*
X0037407Y0113051D01*
X0037407Y0112353D02*
X0038502Y0112353D01*
X0037407Y0111654D02*
X0051603Y0111654D01*
X0050905Y0112353D02*
X0045961Y0112353D01*
X0046034Y0113051D02*
X0050206Y0113051D01*
X0051929Y0115147D02*
X0055709Y0115147D01*
X0055573Y0115845D02*
X0051231Y0115845D01*
X0052628Y0114448D02*
X0055999Y0114448D01*
X0056298Y0113750D02*
X0053326Y0113750D01*
X0054025Y0113051D02*
X0056996Y0113051D01*
X0055573Y0116544D02*
X0046034Y0116544D01*
X0045859Y0117242D02*
X0055573Y0117242D01*
X0055828Y0117941D02*
X0038315Y0117941D01*
X0038257Y0117242D02*
X0038603Y0117242D01*
X0038526Y0118639D02*
X0056118Y0118639D01*
X0056585Y0119338D02*
X0038982Y0119338D01*
X0040573Y0120036D02*
X0043653Y0120036D01*
X0043428Y0120735D02*
X0040798Y0120735D01*
X0040798Y0124227D02*
X0043428Y0124227D01*
X0043452Y0124926D02*
X0040774Y0124926D01*
X0040798Y0127021D02*
X0043428Y0127021D01*
X0043428Y0127720D02*
X0040798Y0127720D01*
X0040798Y0128418D02*
X0043428Y0128418D01*
X0043428Y0129117D02*
X0040798Y0129117D01*
X0040798Y0129815D02*
X0043428Y0129815D01*
X0043428Y0130514D02*
X0040798Y0130514D01*
X0040798Y0131212D02*
X0043428Y0131212D01*
X0043745Y0131911D02*
X0040481Y0131911D01*
X0039132Y0132609D02*
X0046888Y0132609D01*
X0047312Y0133308D02*
X0039591Y0133308D01*
X0040290Y0134006D02*
X0047735Y0134006D01*
X0048159Y0134705D02*
X0040989Y0134705D01*
X0041687Y0135403D02*
X0048583Y0135403D01*
X0049006Y0136102D02*
X0042386Y0136102D01*
X0043084Y0136800D02*
X0049430Y0136800D01*
X0049854Y0137499D02*
X0043783Y0137499D01*
X0044481Y0138197D02*
X0050277Y0138197D01*
X0050701Y0138896D02*
X0046403Y0138896D01*
X0047059Y0139595D02*
X0051125Y0139595D01*
X0051548Y0140293D02*
X0047758Y0140293D01*
X0047794Y0140992D02*
X0051972Y0140992D01*
X0052377Y0141690D02*
X0047837Y0141690D01*
X0048258Y0142389D02*
X0052820Y0142389D01*
X0054283Y0139595D02*
X0056842Y0139595D01*
X0056224Y0138896D02*
X0053859Y0138896D01*
X0053435Y0138197D02*
X0055935Y0138197D01*
X0055645Y0137499D02*
X0053012Y0137499D01*
X0052588Y0136800D02*
X0055573Y0136800D01*
X0055573Y0136102D02*
X0052164Y0136102D01*
X0051740Y0135403D02*
X0055603Y0135403D01*
X0055892Y0134705D02*
X0051317Y0134705D01*
X0050893Y0134006D02*
X0056182Y0134006D01*
X0056739Y0133308D02*
X0050469Y0133308D01*
X0050046Y0132609D02*
X0057438Y0132609D01*
X0058910Y0131911D02*
X0049622Y0131911D01*
X0049459Y0131212D02*
X0064160Y0131212D01*
X0064160Y0130514D02*
X0062442Y0130514D01*
X0063384Y0129815D02*
X0064160Y0129815D01*
X0064160Y0129117D02*
X0064082Y0129117D01*
X0064160Y0131911D02*
X0061537Y0131911D01*
X0063009Y0132609D02*
X0064160Y0132609D01*
X0064160Y0133308D02*
X0063707Y0133308D01*
X0058004Y0130514D02*
X0049459Y0130514D01*
X0049459Y0129815D02*
X0057062Y0129815D01*
X0056364Y0129117D02*
X0049459Y0129117D01*
X0049459Y0128418D02*
X0056026Y0128418D01*
X0055737Y0127720D02*
X0049459Y0127720D01*
X0049459Y0127021D02*
X0055573Y0127021D01*
X0055801Y0124926D02*
X0049435Y0124926D01*
X0049459Y0124227D02*
X0056090Y0124227D01*
X0056518Y0123529D02*
X0049459Y0123529D01*
X0049459Y0122830D02*
X0057217Y0122830D01*
X0058377Y0122132D02*
X0049459Y0122132D01*
X0049459Y0121433D02*
X0064160Y0121433D01*
X0064160Y0120735D02*
X0061909Y0120735D01*
X0062070Y0122132D02*
X0064160Y0122132D01*
X0064160Y0122830D02*
X0063230Y0122830D01*
X0063928Y0123529D02*
X0064160Y0123529D01*
X0064160Y0120036D02*
X0063163Y0120036D01*
X0063862Y0119338D02*
X0064160Y0119338D01*
X0058537Y0120735D02*
X0049459Y0120735D01*
X0049235Y0120036D02*
X0057283Y0120036D01*
X0052302Y0110956D02*
X0037407Y0110956D01*
X0037407Y0110257D02*
X0053000Y0110257D01*
X0056209Y0108860D02*
X0037407Y0108860D01*
X0037407Y0108162D02*
X0055920Y0108162D01*
X0055630Y0107463D02*
X0037407Y0107463D01*
X0037407Y0106764D02*
X0055573Y0106764D01*
X0055573Y0106066D02*
X0037407Y0106066D01*
X0037407Y0105367D02*
X0038745Y0105367D01*
X0038757Y0105375D02*
X0038449Y0105197D01*
X0038198Y0104945D01*
X0038020Y0104638D01*
X0037928Y0104294D01*
X0037928Y0102498D01*
X0041881Y0102498D01*
X0041881Y0105467D01*
X0039101Y0105467D01*
X0038757Y0105375D01*
X0038038Y0104669D02*
X0037407Y0104669D01*
X0037407Y0103970D02*
X0037928Y0103970D01*
X0037928Y0103272D02*
X0037407Y0103272D01*
X0037407Y0102573D02*
X0037928Y0102573D01*
X0037407Y0101875D02*
X0041881Y0101875D01*
X0041881Y0102573D02*
X0042581Y0102573D01*
X0042581Y0102498D02*
X0042581Y0105467D01*
X0045362Y0105467D01*
X0045705Y0105375D01*
X0046013Y0105197D01*
X0046264Y0104945D01*
X0046442Y0104638D01*
X0046534Y0104294D01*
X0046534Y0102498D01*
X0042581Y0102498D01*
X0042581Y0101875D02*
X0058997Y0101875D01*
X0057474Y0102573D02*
X0046534Y0102573D01*
X0046534Y0103272D02*
X0056775Y0103272D01*
X0056196Y0103970D02*
X0046534Y0103970D01*
X0046424Y0104669D02*
X0055907Y0104669D01*
X0055618Y0105367D02*
X0045717Y0105367D01*
X0042581Y0105367D02*
X0041881Y0105367D01*
X0041881Y0104669D02*
X0042581Y0104669D01*
X0042581Y0103970D02*
X0041881Y0103970D01*
X0041881Y0103272D02*
X0042581Y0103272D01*
X0046534Y0101176D02*
X0064160Y0101176D01*
X0064160Y0100478D02*
X0062529Y0100478D01*
X0061450Y0101875D02*
X0064160Y0101875D01*
X0064160Y0102573D02*
X0062973Y0102573D01*
X0063671Y0103272D02*
X0064160Y0103272D01*
X0057917Y0100478D02*
X0046534Y0100478D01*
X0037928Y0100478D02*
X0037407Y0100478D01*
X0037407Y0101176D02*
X0037928Y0101176D01*
X0037407Y0109559D02*
X0056806Y0109559D01*
X0036432Y0132609D02*
X0030625Y0132609D01*
X0031324Y0133308D02*
X0036432Y0133308D01*
X0036472Y0134006D02*
X0032022Y0134006D01*
X0032721Y0134705D02*
X0037170Y0134705D01*
X0037869Y0135403D02*
X0035782Y0135403D01*
X0036480Y0136102D02*
X0038567Y0136102D01*
X0039266Y0136800D02*
X0037179Y0136800D01*
X0037877Y0137499D02*
X0039964Y0137499D01*
X0040663Y0138197D02*
X0038576Y0138197D01*
X0039274Y0138896D02*
X0041361Y0138896D01*
X0041941Y0139595D02*
X0042060Y0139595D01*
X0042577Y0140293D02*
X0042758Y0140293D01*
X0042577Y0140992D02*
X0043457Y0140992D01*
X0042837Y0141690D02*
X0044617Y0141690D01*
X0044196Y0142389D02*
X0043258Y0142389D01*
X0043258Y0143087D02*
X0044196Y0143087D01*
X0044196Y0143786D02*
X0043258Y0143786D01*
X0043258Y0144484D02*
X0044196Y0144484D01*
X0044196Y0145183D02*
X0043258Y0145183D01*
X0043258Y0145881D02*
X0044196Y0145881D01*
X0044196Y0146580D02*
X0043258Y0146580D01*
X0043258Y0147278D02*
X0044196Y0147278D01*
X0044196Y0147977D02*
X0043258Y0147977D01*
X0043258Y0148675D02*
X0044196Y0148675D01*
X0044196Y0149374D02*
X0043258Y0149374D01*
X0043258Y0150072D02*
X0044196Y0150072D01*
X0044196Y0150771D02*
X0043258Y0150771D01*
X0043258Y0151469D02*
X0044196Y0151469D01*
X0045194Y0152168D02*
X0042526Y0152168D01*
X0042526Y0152866D02*
X0045194Y0152866D01*
X0045194Y0153565D02*
X0043101Y0153565D01*
X0043799Y0154263D02*
X0045194Y0154263D01*
X0045364Y0154962D02*
X0044498Y0154962D01*
X0045196Y0155660D02*
X0046062Y0155660D01*
X0045895Y0156359D02*
X0046761Y0156359D01*
X0046593Y0157057D02*
X0047459Y0157057D01*
X0047292Y0157756D02*
X0055752Y0157756D01*
X0055573Y0157057D02*
X0054090Y0157057D01*
X0054788Y0156359D02*
X0055573Y0156359D01*
X0055573Y0155660D02*
X0055487Y0155660D01*
X0054047Y0153565D02*
X0047694Y0153565D01*
X0047694Y0152866D02*
X0054745Y0152866D01*
X0055444Y0152168D02*
X0047694Y0152168D01*
X0048258Y0151469D02*
X0056142Y0151469D01*
X0056841Y0150771D02*
X0048258Y0150771D01*
X0048258Y0150072D02*
X0057319Y0150072D01*
X0056621Y0149374D02*
X0048258Y0149374D01*
X0048258Y0148675D02*
X0056133Y0148675D01*
X0055843Y0147977D02*
X0048258Y0147977D01*
X0048258Y0147278D02*
X0055573Y0147278D01*
X0055573Y0146580D02*
X0048258Y0146580D01*
X0048258Y0145881D02*
X0055573Y0145881D01*
X0055694Y0145183D02*
X0048258Y0145183D01*
X0048258Y0144484D02*
X0055984Y0144484D01*
X0056273Y0143786D02*
X0048258Y0143786D01*
X0048258Y0143087D02*
X0056960Y0143087D01*
X0053348Y0154263D02*
X0048201Y0154263D01*
X0048899Y0154962D02*
X0052650Y0154962D01*
X0056041Y0158454D02*
X0047990Y0158454D01*
X0048689Y0159153D02*
X0056400Y0159153D01*
X0057098Y0159851D02*
X0049387Y0159851D01*
X0049200Y0161361D02*
X0071641Y0161361D01*
X0073609Y0159392D01*
X0076365Y0159392D01*
X0079908Y0155849D01*
X0133845Y0155849D01*
X0134633Y0155061D01*
X0140538Y0155061D01*
X0133270Y0161754D02*
X0131270Y0161754D01*
X0163373Y0137471D02*
X0163373Y0132227D01*
X0163373Y0137471D02*
X0163570Y0137668D01*
X0163648Y0125061D02*
X0163069Y0124440D01*
X0164229Y0123358D01*
X0164487Y0124923D01*
X0163648Y0125061D01*
X0163767Y0124746D01*
X0164229Y0123358D01*
X0164554Y0122384D01*
X0164554Y0101518D01*
X0162074Y0099038D01*
X0162074Y0087817D01*
X0155302Y0081439D01*
X0140341Y0081439D01*
X0138956Y0079660D01*
X0109956Y0079660D01*
X0108956Y0079054D01*
X0108956Y0073790D01*
X0108704Y0073538D01*
X0104373Y0073538D02*
X0104373Y0067636D01*
X0104956Y0067054D01*
X0123956Y0067054D01*
X0126956Y0070054D01*
X0126956Y0076054D01*
X0128956Y0078054D01*
X0147543Y0078054D01*
X0148570Y0078054D01*
X0150223Y0076400D01*
X0144743Y0083660D02*
X0143956Y0085054D01*
X0142260Y0090260D02*
X0140779Y0089691D01*
X0141126Y0091240D01*
X0141956Y0091054D01*
X0142260Y0090260D01*
X0141956Y0091054D02*
X0140779Y0089691D01*
X0136956Y0085266D01*
X0090956Y0085266D01*
X0086956Y0082054D01*
X0086956Y0073632D01*
X0087050Y0073538D01*
X0091381Y0073538D02*
X0091381Y0079479D01*
X0095956Y0083266D01*
X0135601Y0083148D01*
X0135202Y0083898D01*
X0133801Y0083153D01*
X0135198Y0082400D01*
X0135601Y0083148D01*
X0136916Y0081069D02*
X0098743Y0081266D01*
X0095956Y0078479D01*
X0095956Y0073782D01*
X0095711Y0073538D01*
X0100042Y0073538D02*
X0100956Y0072624D01*
X0100956Y0069054D01*
X0096956Y0065447D01*
X0063225Y0065447D01*
X0060223Y0065447D01*
X0060223Y0066400D01*
X0046837Y0038132D02*
X0046837Y0036172D01*
X0051688Y0031321D01*
X0063738Y0031321D01*
X0065137Y0032071D01*
X0065538Y0031321D01*
X0065137Y0030572D01*
X0063738Y0031321D01*
X0065538Y0031321D01*
X0123790Y0023959D02*
X0125790Y0023959D01*
X0136916Y0081069D02*
X0148671Y0093659D01*
X0150223Y0095321D01*
X0150223Y0096400D01*
X0152310Y0114313D02*
X0150223Y0116400D01*
X0152310Y0114313D02*
X0152582Y0114313D01*
X0159042Y0114313D01*
X0057487Y0162561D02*
X0048703Y0162561D01*
X0048000Y0161858D01*
X0040126Y0153984D01*
X0040126Y0151974D01*
X0039694Y0151974D01*
X0039196Y0151476D01*
X0039196Y0142111D01*
X0039463Y0141844D01*
X0038404Y0141844D01*
X0037613Y0141054D01*
X0037557Y0140998D01*
X0037557Y0141613D01*
X0037760Y0141613D01*
X0038258Y0142111D01*
X0038258Y0151476D01*
X0037874Y0151861D01*
X0038257Y0152244D01*
X0038257Y0153237D01*
X0038314Y0153375D01*
X0038257Y0153508D01*
X0038257Y0153942D01*
X0037940Y0154259D01*
X0037557Y0155166D01*
X0037557Y0163101D01*
X0035754Y0164904D01*
X0055810Y0164904D01*
X0056281Y0163766D01*
X0057487Y0162561D01*
X0057402Y0162645D02*
X0037557Y0162645D01*
X0037557Y0161947D02*
X0048089Y0161947D01*
X0047390Y0161248D02*
X0037557Y0161248D01*
X0037557Y0160550D02*
X0046692Y0160550D01*
X0045993Y0159851D02*
X0037557Y0159851D01*
X0037557Y0159153D02*
X0045295Y0159153D01*
X0044596Y0158454D02*
X0037557Y0158454D01*
X0037557Y0157756D02*
X0043898Y0157756D01*
X0043199Y0157057D02*
X0037557Y0157057D01*
X0037557Y0156359D02*
X0042501Y0156359D01*
X0041802Y0155660D02*
X0037557Y0155660D01*
X0037644Y0154962D02*
X0041104Y0154962D01*
X0040405Y0154263D02*
X0037939Y0154263D01*
X0038257Y0153565D02*
X0040126Y0153565D01*
X0040126Y0152866D02*
X0038257Y0152866D01*
X0038314Y0153375D02*
X0038314Y0153375D01*
X0038314Y0153375D01*
X0038181Y0152168D02*
X0040126Y0152168D01*
X0039196Y0151469D02*
X0038258Y0151469D01*
X0038258Y0150771D02*
X0039196Y0150771D01*
X0039196Y0150072D02*
X0038258Y0150072D01*
X0038258Y0149374D02*
X0039196Y0149374D01*
X0039196Y0148675D02*
X0038258Y0148675D01*
X0038258Y0147977D02*
X0039196Y0147977D01*
X0039196Y0147278D02*
X0038258Y0147278D01*
X0038258Y0146580D02*
X0039196Y0146580D01*
X0039196Y0145881D02*
X0038258Y0145881D01*
X0038258Y0145183D02*
X0039196Y0145183D01*
X0039196Y0144484D02*
X0038258Y0144484D01*
X0038258Y0143786D02*
X0039196Y0143786D01*
X0039196Y0143087D02*
X0038258Y0143087D01*
X0038258Y0142389D02*
X0039196Y0142389D01*
X0038250Y0141690D02*
X0037837Y0141690D01*
X0034795Y0140992D02*
X0003655Y0140992D01*
X0003655Y0141690D02*
X0008933Y0141690D01*
X0008966Y0141634D02*
X0009217Y0141383D01*
X0009525Y0141205D01*
X0009868Y0141113D01*
X0010987Y0141113D01*
X0010987Y0146553D01*
X0011468Y0146553D01*
X0011468Y0147034D01*
X0015987Y0147034D01*
X0015987Y0152474D01*
X0014868Y0152474D01*
X0014525Y0152382D01*
X0014217Y0152205D01*
X0013966Y0151953D01*
X0013788Y0151645D01*
X0013727Y0151418D01*
X0013666Y0151645D01*
X0013489Y0151953D01*
X0013237Y0152205D01*
X0012929Y0152382D01*
X0012586Y0152474D01*
X0011468Y0152474D01*
X0011468Y0147034D01*
X0010987Y0147034D01*
X0010987Y0146553D01*
X0008696Y0146553D01*
X0008696Y0142285D01*
X0008788Y0141942D01*
X0008966Y0141634D01*
X0008696Y0142389D02*
X0003655Y0142389D01*
X0003655Y0143087D02*
X0008696Y0143087D01*
X0008696Y0143786D02*
X0003655Y0143786D01*
X0003655Y0144484D02*
X0008696Y0144484D01*
X0008696Y0145183D02*
X0003655Y0145183D01*
X0003655Y0145881D02*
X0008696Y0145881D01*
X0008696Y0147034D02*
X0010987Y0147034D01*
X0010987Y0152474D01*
X0009868Y0152474D01*
X0009525Y0152382D01*
X0009217Y0152205D01*
X0008966Y0151953D01*
X0008788Y0151645D01*
X0008696Y0151302D01*
X0008696Y0147034D01*
X0008696Y0147278D02*
X0003655Y0147278D01*
X0003655Y0146580D02*
X0010987Y0146580D01*
X0011468Y0146580D02*
X0015987Y0146580D01*
X0015987Y0146553D02*
X0013696Y0146553D01*
X0011468Y0146553D01*
X0011468Y0141113D01*
X0012586Y0141113D01*
X0012929Y0141205D01*
X0013237Y0141383D01*
X0013489Y0141634D01*
X0013666Y0141942D01*
X0013727Y0142169D01*
X0013788Y0141942D01*
X0013966Y0141634D01*
X0014217Y0141383D01*
X0014525Y0141205D01*
X0014868Y0141113D01*
X0015987Y0141113D01*
X0015987Y0146553D01*
X0016468Y0146553D01*
X0016468Y0147034D01*
X0018758Y0147034D01*
X0020987Y0147034D01*
X0020987Y0152474D01*
X0019868Y0152474D01*
X0019525Y0152382D01*
X0019217Y0152205D01*
X0018966Y0151953D01*
X0018788Y0151645D01*
X0018727Y0151418D01*
X0018666Y0151645D01*
X0018489Y0151953D01*
X0018237Y0152205D01*
X0017929Y0152382D01*
X0017586Y0152474D01*
X0016468Y0152474D01*
X0016468Y0147034D01*
X0015987Y0147034D01*
X0015987Y0146553D01*
X0016468Y0146553D02*
X0016468Y0141113D01*
X0017586Y0141113D01*
X0017929Y0141205D01*
X0018237Y0141383D01*
X0018489Y0141634D01*
X0018666Y0141942D01*
X0018727Y0142169D01*
X0018788Y0141942D01*
X0018966Y0141634D01*
X0019217Y0141383D01*
X0019525Y0141205D01*
X0019868Y0141113D01*
X0020987Y0141113D01*
X0020987Y0146553D01*
X0021468Y0146553D01*
X0021468Y0147034D01*
X0023696Y0147034D01*
X0025987Y0147034D01*
X0025987Y0152474D01*
X0024868Y0152474D01*
X0024525Y0152382D01*
X0024217Y0152205D01*
X0023966Y0151953D01*
X0023788Y0151645D01*
X0023727Y0151418D01*
X0023666Y0151645D01*
X0023489Y0151953D01*
X0023237Y0152205D01*
X0022929Y0152382D01*
X0022586Y0152474D01*
X0021468Y0152474D01*
X0021468Y0147034D01*
X0020987Y0147034D01*
X0020987Y0146553D01*
X0016468Y0146553D01*
X0016468Y0146580D02*
X0020987Y0146580D01*
X0021468Y0146580D02*
X0025987Y0146580D01*
X0025987Y0146553D02*
X0021468Y0146553D01*
X0021468Y0141113D01*
X0022586Y0141113D01*
X0022929Y0141205D01*
X0023237Y0141383D01*
X0023489Y0141634D01*
X0023666Y0141942D01*
X0023727Y0142169D01*
X0023788Y0141942D01*
X0023966Y0141634D01*
X0024217Y0141383D01*
X0024525Y0141205D01*
X0024868Y0141113D01*
X0025987Y0141113D01*
X0025987Y0146553D01*
X0026468Y0146553D01*
X0026468Y0147034D01*
X0028758Y0147034D01*
X0030987Y0147034D01*
X0030987Y0152474D01*
X0029868Y0152474D01*
X0029525Y0152382D01*
X0029217Y0152205D01*
X0028966Y0151953D01*
X0028788Y0151645D01*
X0028727Y0151418D01*
X0028666Y0151645D01*
X0028489Y0151953D01*
X0028237Y0152205D01*
X0027929Y0152382D01*
X0027586Y0152474D01*
X0026468Y0152474D01*
X0026468Y0147034D01*
X0025987Y0147034D01*
X0025987Y0146553D01*
X0026468Y0146553D02*
X0026468Y0141113D01*
X0027586Y0141113D01*
X0027929Y0141205D01*
X0028237Y0141383D01*
X0028489Y0141634D01*
X0028666Y0141942D01*
X0028727Y0142169D01*
X0028788Y0141942D01*
X0028966Y0141634D01*
X0029217Y0141383D01*
X0029525Y0141205D01*
X0029868Y0141113D01*
X0030987Y0141113D01*
X0030987Y0146553D01*
X0031468Y0146553D01*
X0031468Y0147034D01*
X0033758Y0147034D01*
X0033758Y0151302D01*
X0033666Y0151645D01*
X0033489Y0151953D01*
X0033237Y0152205D01*
X0032929Y0152382D01*
X0032586Y0152474D01*
X0031468Y0152474D01*
X0031468Y0147034D01*
X0030987Y0147034D01*
X0030987Y0146553D01*
X0026468Y0146553D01*
X0026468Y0146580D02*
X0030987Y0146580D01*
X0031468Y0146580D02*
X0034196Y0146580D01*
X0033758Y0146553D02*
X0031468Y0146553D01*
X0031468Y0141113D01*
X0032586Y0141113D01*
X0032929Y0141205D01*
X0033237Y0141383D01*
X0033489Y0141634D01*
X0033666Y0141942D01*
X0033758Y0142285D01*
X0033758Y0146553D01*
X0033758Y0145881D02*
X0034196Y0145881D01*
X0034196Y0145183D02*
X0033758Y0145183D01*
X0033758Y0144484D02*
X0034196Y0144484D01*
X0034196Y0143786D02*
X0033758Y0143786D01*
X0033758Y0143087D02*
X0034196Y0143087D01*
X0034196Y0142389D02*
X0033758Y0142389D01*
X0033521Y0141690D02*
X0034617Y0141690D01*
X0034097Y0140293D02*
X0003655Y0140293D01*
X0003655Y0139595D02*
X0004578Y0139595D01*
X0004255Y0138896D02*
X0003655Y0138896D01*
X0003655Y0138197D02*
X0004255Y0138197D01*
X0004255Y0137499D02*
X0003655Y0137499D01*
X0003655Y0136800D02*
X0004255Y0136800D01*
X0004255Y0136102D02*
X0003655Y0136102D01*
X0003655Y0135403D02*
X0004255Y0135403D01*
X0004255Y0134705D02*
X0003655Y0134705D01*
X0003655Y0134006D02*
X0004255Y0134006D01*
X0004255Y0133308D02*
X0003655Y0133308D01*
X0003655Y0132609D02*
X0004255Y0132609D01*
X0004613Y0131911D02*
X0003655Y0131911D01*
X0003655Y0131212D02*
X0025712Y0131212D01*
X0025712Y0130514D02*
X0003655Y0130514D01*
X0003655Y0129815D02*
X0025712Y0129815D01*
X0025712Y0129117D02*
X0012777Y0129117D01*
X0013449Y0128418D02*
X0025712Y0128418D01*
X0025712Y0127720D02*
X0013542Y0127720D01*
X0012684Y0131911D02*
X0026028Y0131911D01*
X0024800Y0132609D02*
X0027771Y0132609D01*
X0027771Y0133308D02*
X0025246Y0133308D01*
X0025246Y0134006D02*
X0028204Y0134006D01*
X0028902Y0134705D02*
X0025246Y0134705D01*
X0025246Y0135403D02*
X0029601Y0135403D01*
X0030299Y0136102D02*
X0025246Y0136102D01*
X0024924Y0139595D02*
X0033398Y0139595D01*
X0031468Y0141690D02*
X0030987Y0141690D01*
X0030987Y0142389D02*
X0031468Y0142389D01*
X0031468Y0143087D02*
X0030987Y0143087D01*
X0030987Y0143786D02*
X0031468Y0143786D01*
X0031468Y0144484D02*
X0030987Y0144484D01*
X0030987Y0145183D02*
X0031468Y0145183D01*
X0031468Y0145881D02*
X0030987Y0145881D01*
X0030987Y0147278D02*
X0031468Y0147278D01*
X0031468Y0147977D02*
X0030987Y0147977D01*
X0030987Y0148675D02*
X0031468Y0148675D01*
X0031468Y0149374D02*
X0030987Y0149374D01*
X0030987Y0150072D02*
X0031468Y0150072D01*
X0031468Y0150771D02*
X0030987Y0150771D01*
X0030987Y0151469D02*
X0031468Y0151469D01*
X0031468Y0152168D02*
X0030987Y0152168D01*
X0029180Y0152168D02*
X0028274Y0152168D01*
X0028713Y0151469D02*
X0028741Y0151469D01*
X0026468Y0151469D02*
X0025987Y0151469D01*
X0025987Y0150771D02*
X0026468Y0150771D01*
X0026468Y0150072D02*
X0025987Y0150072D01*
X0025987Y0149374D02*
X0026468Y0149374D01*
X0026468Y0148675D02*
X0025987Y0148675D01*
X0025987Y0147977D02*
X0026468Y0147977D01*
X0026468Y0147278D02*
X0025987Y0147278D01*
X0025987Y0145881D02*
X0026468Y0145881D01*
X0026468Y0145183D02*
X0025987Y0145183D01*
X0025987Y0144484D02*
X0026468Y0144484D01*
X0026468Y0143786D02*
X0025987Y0143786D01*
X0025987Y0143087D02*
X0026468Y0143087D01*
X0026468Y0142389D02*
X0025987Y0142389D01*
X0025987Y0141690D02*
X0026468Y0141690D01*
X0028521Y0141690D02*
X0028933Y0141690D01*
X0023933Y0141690D02*
X0023521Y0141690D01*
X0021468Y0141690D02*
X0020987Y0141690D01*
X0020987Y0142389D02*
X0021468Y0142389D01*
X0021468Y0143087D02*
X0020987Y0143087D01*
X0020987Y0143786D02*
X0021468Y0143786D01*
X0021468Y0144484D02*
X0020987Y0144484D01*
X0020987Y0145183D02*
X0021468Y0145183D01*
X0021468Y0145881D02*
X0020987Y0145881D01*
X0020987Y0147278D02*
X0021468Y0147278D01*
X0021468Y0147977D02*
X0020987Y0147977D01*
X0020987Y0148675D02*
X0021468Y0148675D01*
X0021468Y0149374D02*
X0020987Y0149374D01*
X0020987Y0150072D02*
X0021468Y0150072D01*
X0021468Y0150771D02*
X0020987Y0150771D01*
X0020987Y0151469D02*
X0021468Y0151469D01*
X0021468Y0152168D02*
X0020987Y0152168D01*
X0019180Y0152168D02*
X0018274Y0152168D01*
X0018713Y0151469D02*
X0018741Y0151469D01*
X0016468Y0151469D02*
X0015987Y0151469D01*
X0015987Y0150771D02*
X0016468Y0150771D01*
X0016468Y0150072D02*
X0015987Y0150072D01*
X0015987Y0149374D02*
X0016468Y0149374D01*
X0016468Y0148675D02*
X0015987Y0148675D01*
X0015987Y0147977D02*
X0016468Y0147977D01*
X0016468Y0147278D02*
X0015987Y0147278D01*
X0015987Y0145881D02*
X0016468Y0145881D01*
X0016468Y0145183D02*
X0015987Y0145183D01*
X0015987Y0144484D02*
X0016468Y0144484D01*
X0016468Y0143786D02*
X0015987Y0143786D01*
X0015987Y0143087D02*
X0016468Y0143087D01*
X0016468Y0142389D02*
X0015987Y0142389D01*
X0015987Y0141690D02*
X0016468Y0141690D01*
X0018521Y0141690D02*
X0018933Y0141690D01*
X0016783Y0139595D02*
X0012719Y0139595D01*
X0013042Y0138896D02*
X0016460Y0138896D01*
X0016460Y0138197D02*
X0013042Y0138197D01*
X0013042Y0134705D02*
X0016460Y0134705D01*
X0016460Y0134006D02*
X0013042Y0134006D01*
X0013042Y0133308D02*
X0016460Y0133308D01*
X0016906Y0132609D02*
X0013042Y0132609D01*
X0008998Y0129117D02*
X0008298Y0129117D01*
X0008298Y0128418D02*
X0008998Y0128418D01*
X0008998Y0127720D02*
X0008298Y0127720D01*
X0008298Y0127021D02*
X0008998Y0127021D01*
X0008998Y0126323D02*
X0008298Y0126323D01*
X0008298Y0125624D02*
X0008998Y0125624D01*
X0008998Y0124926D02*
X0016460Y0124926D01*
X0020853Y0122778D02*
X0020853Y0116833D01*
X0022940Y0114746D01*
X0031743Y0124227D02*
X0034767Y0124227D01*
X0034791Y0124926D02*
X0031718Y0124926D01*
X0031743Y0127021D02*
X0034767Y0127021D01*
X0034767Y0127720D02*
X0031743Y0127720D01*
X0031743Y0128418D02*
X0034767Y0128418D01*
X0034767Y0129117D02*
X0031743Y0129117D01*
X0031743Y0129815D02*
X0034767Y0129815D01*
X0034767Y0130514D02*
X0031743Y0130514D01*
X0031743Y0131212D02*
X0034767Y0131212D01*
X0035083Y0131911D02*
X0031426Y0131911D01*
X0041227Y0146794D02*
X0041326Y0146892D01*
X0041326Y0153487D01*
X0049200Y0161361D01*
X0056167Y0164042D02*
X0036616Y0164042D01*
X0037314Y0163344D02*
X0056703Y0163344D01*
X0055877Y0164741D02*
X0035917Y0164741D01*
X0034195Y0162645D02*
X0003655Y0162645D01*
X0003655Y0161947D02*
X0034857Y0161947D01*
X0034857Y0161248D02*
X0003655Y0161248D01*
X0003655Y0160550D02*
X0034857Y0160550D01*
X0034857Y0159851D02*
X0003655Y0159851D01*
X0003655Y0159153D02*
X0034857Y0159153D01*
X0034857Y0158454D02*
X0003655Y0158454D01*
X0003655Y0157756D02*
X0034857Y0157756D01*
X0034857Y0157057D02*
X0003655Y0157057D01*
X0003655Y0156359D02*
X0034857Y0156359D01*
X0034857Y0155660D02*
X0003655Y0155660D01*
X0003655Y0154962D02*
X0034771Y0154962D01*
X0034476Y0154263D02*
X0003655Y0154263D01*
X0003655Y0153565D02*
X0034157Y0153565D01*
X0034101Y0153375D02*
X0034101Y0153375D01*
X0034101Y0153375D01*
X0034157Y0152866D02*
X0003655Y0152866D01*
X0003655Y0152168D02*
X0009180Y0152168D01*
X0008741Y0151469D02*
X0003655Y0151469D01*
X0003655Y0150771D02*
X0008696Y0150771D01*
X0008696Y0150072D02*
X0003655Y0150072D01*
X0003655Y0149374D02*
X0008696Y0149374D01*
X0008696Y0148675D02*
X0003655Y0148675D01*
X0003655Y0147977D02*
X0008696Y0147977D01*
X0010987Y0147977D02*
X0011468Y0147977D01*
X0011468Y0148675D02*
X0010987Y0148675D01*
X0010987Y0149374D02*
X0011468Y0149374D01*
X0011468Y0150072D02*
X0010987Y0150072D01*
X0010987Y0150771D02*
X0011468Y0150771D01*
X0011468Y0151469D02*
X0010987Y0151469D01*
X0010987Y0152168D02*
X0011468Y0152168D01*
X0013274Y0152168D02*
X0014180Y0152168D01*
X0013741Y0151469D02*
X0013713Y0151469D01*
X0015987Y0152168D02*
X0016468Y0152168D01*
X0011468Y0147278D02*
X0010987Y0147278D01*
X0010987Y0145881D02*
X0011468Y0145881D01*
X0011468Y0145183D02*
X0010987Y0145183D01*
X0010987Y0144484D02*
X0011468Y0144484D01*
X0011468Y0143786D02*
X0010987Y0143786D01*
X0010987Y0143087D02*
X0011468Y0143087D01*
X0011468Y0142389D02*
X0010987Y0142389D01*
X0010987Y0141690D02*
X0011468Y0141690D01*
X0013521Y0141690D02*
X0013933Y0141690D01*
X0023713Y0151469D02*
X0023741Y0151469D01*
X0024180Y0152168D02*
X0023274Y0152168D01*
X0025987Y0152168D02*
X0026468Y0152168D01*
X0033274Y0152168D02*
X0034234Y0152168D01*
X0034196Y0151469D02*
X0033713Y0151469D01*
X0033758Y0150771D02*
X0034196Y0150771D01*
X0034196Y0150072D02*
X0033758Y0150072D01*
X0033758Y0149374D02*
X0034196Y0149374D01*
X0034196Y0148675D02*
X0033758Y0148675D01*
X0033758Y0147977D02*
X0034196Y0147977D01*
X0034196Y0147278D02*
X0033758Y0147278D01*
X0033496Y0163344D02*
X0003655Y0163344D01*
X0003655Y0164042D02*
X0032798Y0164042D01*
X0032099Y0164741D02*
X0003655Y0164741D01*
X0031483Y0173565D02*
X0039751Y0173565D01*
X0041326Y0175140D01*
X0041326Y0182916D01*
X0041227Y0183014D01*
X0004520Y0129117D02*
X0003655Y0129117D01*
X0003655Y0128418D02*
X0003848Y0128418D01*
X0003755Y0127720D02*
X0003655Y0127720D01*
X0003655Y0127021D02*
X0003755Y0127021D01*
X0003755Y0126323D02*
X0003655Y0126323D01*
X0003655Y0125624D02*
X0003755Y0125624D01*
X0003655Y0124926D02*
X0008298Y0124926D01*
X0008298Y0124227D02*
X0008998Y0124227D01*
X0008998Y0123529D02*
X0008298Y0123529D01*
X0008298Y0122830D02*
X0008998Y0122830D01*
X0008998Y0122132D02*
X0008298Y0122132D01*
X0008298Y0121433D02*
X0008998Y0121433D01*
X0008998Y0120735D02*
X0008298Y0120735D01*
X0004058Y0120735D02*
X0003655Y0120735D01*
X0003655Y0121433D02*
X0003755Y0121433D01*
X0003755Y0122132D02*
X0003655Y0122132D01*
X0003655Y0122830D02*
X0003755Y0122830D01*
X0003755Y0123529D02*
X0003655Y0123529D01*
X0003655Y0124227D02*
X0003755Y0124227D01*
X0003655Y0104669D02*
X0010953Y0104669D01*
X0010255Y0103970D02*
X0003655Y0103970D01*
X0003655Y0103272D02*
X0009556Y0103272D01*
X0008858Y0102573D02*
X0003655Y0102573D01*
X0003655Y0101875D02*
X0008159Y0101875D01*
X0007692Y0101176D02*
X0006137Y0101176D01*
X0006305Y0100478D02*
X0007692Y0100478D01*
X0005105Y0100156D02*
X0005105Y0098156D01*
X0003905Y0100478D02*
X0003655Y0100478D01*
X0003655Y0101176D02*
X0004074Y0101176D01*
D11*
X0074456Y0030054D03*
D12*
X0083725Y0030624D02*
X0083727Y0030707D01*
X0083733Y0030790D01*
X0083743Y0030873D01*
X0083757Y0030955D01*
X0083774Y0031037D01*
X0083796Y0031117D01*
X0083821Y0031196D01*
X0083850Y0031274D01*
X0083883Y0031351D01*
X0083920Y0031426D01*
X0083959Y0031499D01*
X0084003Y0031570D01*
X0084049Y0031639D01*
X0084099Y0031706D01*
X0084152Y0031770D01*
X0084208Y0031832D01*
X0084267Y0031891D01*
X0084329Y0031947D01*
X0084393Y0032000D01*
X0084460Y0032050D01*
X0084529Y0032096D01*
X0084600Y0032140D01*
X0084673Y0032179D01*
X0084748Y0032216D01*
X0084825Y0032249D01*
X0084903Y0032278D01*
X0084982Y0032303D01*
X0085062Y0032325D01*
X0085144Y0032342D01*
X0085226Y0032356D01*
X0085309Y0032366D01*
X0085392Y0032372D01*
X0085475Y0032374D01*
X0085558Y0032372D01*
X0085641Y0032366D01*
X0085724Y0032356D01*
X0085806Y0032342D01*
X0085888Y0032325D01*
X0085968Y0032303D01*
X0086047Y0032278D01*
X0086125Y0032249D01*
X0086202Y0032216D01*
X0086277Y0032179D01*
X0086350Y0032140D01*
X0086421Y0032096D01*
X0086490Y0032050D01*
X0086557Y0032000D01*
X0086621Y0031947D01*
X0086683Y0031891D01*
X0086742Y0031832D01*
X0086798Y0031770D01*
X0086851Y0031706D01*
X0086901Y0031639D01*
X0086947Y0031570D01*
X0086991Y0031499D01*
X0087030Y0031426D01*
X0087067Y0031351D01*
X0087100Y0031274D01*
X0087129Y0031196D01*
X0087154Y0031117D01*
X0087176Y0031037D01*
X0087193Y0030955D01*
X0087207Y0030873D01*
X0087217Y0030790D01*
X0087223Y0030707D01*
X0087225Y0030624D01*
X0087223Y0030541D01*
X0087217Y0030458D01*
X0087207Y0030375D01*
X0087193Y0030293D01*
X0087176Y0030211D01*
X0087154Y0030131D01*
X0087129Y0030052D01*
X0087100Y0029974D01*
X0087067Y0029897D01*
X0087030Y0029822D01*
X0086991Y0029749D01*
X0086947Y0029678D01*
X0086901Y0029609D01*
X0086851Y0029542D01*
X0086798Y0029478D01*
X0086742Y0029416D01*
X0086683Y0029357D01*
X0086621Y0029301D01*
X0086557Y0029248D01*
X0086490Y0029198D01*
X0086421Y0029152D01*
X0086350Y0029108D01*
X0086277Y0029069D01*
X0086202Y0029032D01*
X0086125Y0028999D01*
X0086047Y0028970D01*
X0085968Y0028945D01*
X0085888Y0028923D01*
X0085806Y0028906D01*
X0085724Y0028892D01*
X0085641Y0028882D01*
X0085558Y0028876D01*
X0085475Y0028874D01*
X0085392Y0028876D01*
X0085309Y0028882D01*
X0085226Y0028892D01*
X0085144Y0028906D01*
X0085062Y0028923D01*
X0084982Y0028945D01*
X0084903Y0028970D01*
X0084825Y0028999D01*
X0084748Y0029032D01*
X0084673Y0029069D01*
X0084600Y0029108D01*
X0084529Y0029152D01*
X0084460Y0029198D01*
X0084393Y0029248D01*
X0084329Y0029301D01*
X0084267Y0029357D01*
X0084208Y0029416D01*
X0084152Y0029478D01*
X0084099Y0029542D01*
X0084049Y0029609D01*
X0084003Y0029678D01*
X0083959Y0029749D01*
X0083920Y0029822D01*
X0083883Y0029897D01*
X0083850Y0029974D01*
X0083821Y0030052D01*
X0083796Y0030131D01*
X0083774Y0030211D01*
X0083757Y0030293D01*
X0083743Y0030375D01*
X0083733Y0030458D01*
X0083727Y0030541D01*
X0083725Y0030624D01*
X0115221Y0030624D02*
X0115223Y0030707D01*
X0115229Y0030790D01*
X0115239Y0030873D01*
X0115253Y0030955D01*
X0115270Y0031037D01*
X0115292Y0031117D01*
X0115317Y0031196D01*
X0115346Y0031274D01*
X0115379Y0031351D01*
X0115416Y0031426D01*
X0115455Y0031499D01*
X0115499Y0031570D01*
X0115545Y0031639D01*
X0115595Y0031706D01*
X0115648Y0031770D01*
X0115704Y0031832D01*
X0115763Y0031891D01*
X0115825Y0031947D01*
X0115889Y0032000D01*
X0115956Y0032050D01*
X0116025Y0032096D01*
X0116096Y0032140D01*
X0116169Y0032179D01*
X0116244Y0032216D01*
X0116321Y0032249D01*
X0116399Y0032278D01*
X0116478Y0032303D01*
X0116558Y0032325D01*
X0116640Y0032342D01*
X0116722Y0032356D01*
X0116805Y0032366D01*
X0116888Y0032372D01*
X0116971Y0032374D01*
X0117054Y0032372D01*
X0117137Y0032366D01*
X0117220Y0032356D01*
X0117302Y0032342D01*
X0117384Y0032325D01*
X0117464Y0032303D01*
X0117543Y0032278D01*
X0117621Y0032249D01*
X0117698Y0032216D01*
X0117773Y0032179D01*
X0117846Y0032140D01*
X0117917Y0032096D01*
X0117986Y0032050D01*
X0118053Y0032000D01*
X0118117Y0031947D01*
X0118179Y0031891D01*
X0118238Y0031832D01*
X0118294Y0031770D01*
X0118347Y0031706D01*
X0118397Y0031639D01*
X0118443Y0031570D01*
X0118487Y0031499D01*
X0118526Y0031426D01*
X0118563Y0031351D01*
X0118596Y0031274D01*
X0118625Y0031196D01*
X0118650Y0031117D01*
X0118672Y0031037D01*
X0118689Y0030955D01*
X0118703Y0030873D01*
X0118713Y0030790D01*
X0118719Y0030707D01*
X0118721Y0030624D01*
X0118719Y0030541D01*
X0118713Y0030458D01*
X0118703Y0030375D01*
X0118689Y0030293D01*
X0118672Y0030211D01*
X0118650Y0030131D01*
X0118625Y0030052D01*
X0118596Y0029974D01*
X0118563Y0029897D01*
X0118526Y0029822D01*
X0118487Y0029749D01*
X0118443Y0029678D01*
X0118397Y0029609D01*
X0118347Y0029542D01*
X0118294Y0029478D01*
X0118238Y0029416D01*
X0118179Y0029357D01*
X0118117Y0029301D01*
X0118053Y0029248D01*
X0117986Y0029198D01*
X0117917Y0029152D01*
X0117846Y0029108D01*
X0117773Y0029069D01*
X0117698Y0029032D01*
X0117621Y0028999D01*
X0117543Y0028970D01*
X0117464Y0028945D01*
X0117384Y0028923D01*
X0117302Y0028906D01*
X0117220Y0028892D01*
X0117137Y0028882D01*
X0117054Y0028876D01*
X0116971Y0028874D01*
X0116888Y0028876D01*
X0116805Y0028882D01*
X0116722Y0028892D01*
X0116640Y0028906D01*
X0116558Y0028923D01*
X0116478Y0028945D01*
X0116399Y0028970D01*
X0116321Y0028999D01*
X0116244Y0029032D01*
X0116169Y0029069D01*
X0116096Y0029108D01*
X0116025Y0029152D01*
X0115956Y0029198D01*
X0115889Y0029248D01*
X0115825Y0029301D01*
X0115763Y0029357D01*
X0115704Y0029416D01*
X0115648Y0029478D01*
X0115595Y0029542D01*
X0115545Y0029609D01*
X0115499Y0029678D01*
X0115455Y0029749D01*
X0115416Y0029822D01*
X0115379Y0029897D01*
X0115346Y0029974D01*
X0115317Y0030052D01*
X0115292Y0030131D01*
X0115270Y0030211D01*
X0115253Y0030293D01*
X0115239Y0030375D01*
X0115229Y0030458D01*
X0115223Y0030541D01*
X0115221Y0030624D01*
X0119279Y0093250D02*
X0119281Y0093408D01*
X0119287Y0093566D01*
X0119297Y0093724D01*
X0119311Y0093882D01*
X0119329Y0094039D01*
X0119350Y0094196D01*
X0119376Y0094352D01*
X0119406Y0094508D01*
X0119439Y0094663D01*
X0119477Y0094816D01*
X0119518Y0094969D01*
X0119563Y0095121D01*
X0119612Y0095272D01*
X0119665Y0095421D01*
X0119721Y0095569D01*
X0119781Y0095715D01*
X0119845Y0095860D01*
X0119913Y0096003D01*
X0119984Y0096145D01*
X0120058Y0096285D01*
X0120136Y0096422D01*
X0120218Y0096558D01*
X0120302Y0096692D01*
X0120391Y0096823D01*
X0120482Y0096952D01*
X0120577Y0097079D01*
X0120674Y0097204D01*
X0120775Y0097326D01*
X0120879Y0097445D01*
X0120986Y0097562D01*
X0121096Y0097676D01*
X0121209Y0097787D01*
X0121324Y0097896D01*
X0121442Y0098001D01*
X0121563Y0098103D01*
X0121686Y0098203D01*
X0121812Y0098299D01*
X0121940Y0098392D01*
X0122070Y0098482D01*
X0122203Y0098568D01*
X0122338Y0098652D01*
X0122474Y0098731D01*
X0122613Y0098808D01*
X0122754Y0098880D01*
X0122896Y0098950D01*
X0123040Y0099015D01*
X0123186Y0099077D01*
X0123333Y0099135D01*
X0123482Y0099190D01*
X0123632Y0099241D01*
X0123783Y0099288D01*
X0123935Y0099331D01*
X0124088Y0099370D01*
X0124243Y0099406D01*
X0124398Y0099437D01*
X0124554Y0099465D01*
X0124710Y0099489D01*
X0124867Y0099509D01*
X0125025Y0099525D01*
X0125182Y0099537D01*
X0125341Y0099545D01*
X0125499Y0099549D01*
X0125657Y0099549D01*
X0125815Y0099545D01*
X0125974Y0099537D01*
X0126131Y0099525D01*
X0126289Y0099509D01*
X0126446Y0099489D01*
X0126602Y0099465D01*
X0126758Y0099437D01*
X0126913Y0099406D01*
X0127068Y0099370D01*
X0127221Y0099331D01*
X0127373Y0099288D01*
X0127524Y0099241D01*
X0127674Y0099190D01*
X0127823Y0099135D01*
X0127970Y0099077D01*
X0128116Y0099015D01*
X0128260Y0098950D01*
X0128402Y0098880D01*
X0128543Y0098808D01*
X0128682Y0098731D01*
X0128818Y0098652D01*
X0128953Y0098568D01*
X0129086Y0098482D01*
X0129216Y0098392D01*
X0129344Y0098299D01*
X0129470Y0098203D01*
X0129593Y0098103D01*
X0129714Y0098001D01*
X0129832Y0097896D01*
X0129947Y0097787D01*
X0130060Y0097676D01*
X0130170Y0097562D01*
X0130277Y0097445D01*
X0130381Y0097326D01*
X0130482Y0097204D01*
X0130579Y0097079D01*
X0130674Y0096952D01*
X0130765Y0096823D01*
X0130854Y0096692D01*
X0130938Y0096558D01*
X0131020Y0096422D01*
X0131098Y0096285D01*
X0131172Y0096145D01*
X0131243Y0096003D01*
X0131311Y0095860D01*
X0131375Y0095715D01*
X0131435Y0095569D01*
X0131491Y0095421D01*
X0131544Y0095272D01*
X0131593Y0095121D01*
X0131638Y0094969D01*
X0131679Y0094816D01*
X0131717Y0094663D01*
X0131750Y0094508D01*
X0131780Y0094352D01*
X0131806Y0094196D01*
X0131827Y0094039D01*
X0131845Y0093882D01*
X0131859Y0093724D01*
X0131869Y0093566D01*
X0131875Y0093408D01*
X0131877Y0093250D01*
X0131875Y0093092D01*
X0131869Y0092934D01*
X0131859Y0092776D01*
X0131845Y0092618D01*
X0131827Y0092461D01*
X0131806Y0092304D01*
X0131780Y0092148D01*
X0131750Y0091992D01*
X0131717Y0091837D01*
X0131679Y0091684D01*
X0131638Y0091531D01*
X0131593Y0091379D01*
X0131544Y0091228D01*
X0131491Y0091079D01*
X0131435Y0090931D01*
X0131375Y0090785D01*
X0131311Y0090640D01*
X0131243Y0090497D01*
X0131172Y0090355D01*
X0131098Y0090215D01*
X0131020Y0090078D01*
X0130938Y0089942D01*
X0130854Y0089808D01*
X0130765Y0089677D01*
X0130674Y0089548D01*
X0130579Y0089421D01*
X0130482Y0089296D01*
X0130381Y0089174D01*
X0130277Y0089055D01*
X0130170Y0088938D01*
X0130060Y0088824D01*
X0129947Y0088713D01*
X0129832Y0088604D01*
X0129714Y0088499D01*
X0129593Y0088397D01*
X0129470Y0088297D01*
X0129344Y0088201D01*
X0129216Y0088108D01*
X0129086Y0088018D01*
X0128953Y0087932D01*
X0128818Y0087848D01*
X0128682Y0087769D01*
X0128543Y0087692D01*
X0128402Y0087620D01*
X0128260Y0087550D01*
X0128116Y0087485D01*
X0127970Y0087423D01*
X0127823Y0087365D01*
X0127674Y0087310D01*
X0127524Y0087259D01*
X0127373Y0087212D01*
X0127221Y0087169D01*
X0127068Y0087130D01*
X0126913Y0087094D01*
X0126758Y0087063D01*
X0126602Y0087035D01*
X0126446Y0087011D01*
X0126289Y0086991D01*
X0126131Y0086975D01*
X0125974Y0086963D01*
X0125815Y0086955D01*
X0125657Y0086951D01*
X0125499Y0086951D01*
X0125341Y0086955D01*
X0125182Y0086963D01*
X0125025Y0086975D01*
X0124867Y0086991D01*
X0124710Y0087011D01*
X0124554Y0087035D01*
X0124398Y0087063D01*
X0124243Y0087094D01*
X0124088Y0087130D01*
X0123935Y0087169D01*
X0123783Y0087212D01*
X0123632Y0087259D01*
X0123482Y0087310D01*
X0123333Y0087365D01*
X0123186Y0087423D01*
X0123040Y0087485D01*
X0122896Y0087550D01*
X0122754Y0087620D01*
X0122613Y0087692D01*
X0122474Y0087769D01*
X0122338Y0087848D01*
X0122203Y0087932D01*
X0122070Y0088018D01*
X0121940Y0088108D01*
X0121812Y0088201D01*
X0121686Y0088297D01*
X0121563Y0088397D01*
X0121442Y0088499D01*
X0121324Y0088604D01*
X0121209Y0088713D01*
X0121096Y0088824D01*
X0120986Y0088938D01*
X0120879Y0089055D01*
X0120775Y0089174D01*
X0120674Y0089296D01*
X0120577Y0089421D01*
X0120482Y0089548D01*
X0120391Y0089677D01*
X0120302Y0089808D01*
X0120218Y0089942D01*
X0120136Y0090078D01*
X0120058Y0090215D01*
X0119984Y0090355D01*
X0119913Y0090497D01*
X0119845Y0090640D01*
X0119781Y0090785D01*
X0119721Y0090931D01*
X0119665Y0091079D01*
X0119612Y0091228D01*
X0119563Y0091379D01*
X0119518Y0091531D01*
X0119477Y0091684D01*
X0119439Y0091837D01*
X0119406Y0091992D01*
X0119376Y0092148D01*
X0119350Y0092304D01*
X0119329Y0092461D01*
X0119311Y0092618D01*
X0119297Y0092776D01*
X0119287Y0092934D01*
X0119281Y0093092D01*
X0119279Y0093250D01*
X0070460Y0093250D02*
X0070462Y0093408D01*
X0070468Y0093566D01*
X0070478Y0093724D01*
X0070492Y0093882D01*
X0070510Y0094039D01*
X0070531Y0094196D01*
X0070557Y0094352D01*
X0070587Y0094508D01*
X0070620Y0094663D01*
X0070658Y0094816D01*
X0070699Y0094969D01*
X0070744Y0095121D01*
X0070793Y0095272D01*
X0070846Y0095421D01*
X0070902Y0095569D01*
X0070962Y0095715D01*
X0071026Y0095860D01*
X0071094Y0096003D01*
X0071165Y0096145D01*
X0071239Y0096285D01*
X0071317Y0096422D01*
X0071399Y0096558D01*
X0071483Y0096692D01*
X0071572Y0096823D01*
X0071663Y0096952D01*
X0071758Y0097079D01*
X0071855Y0097204D01*
X0071956Y0097326D01*
X0072060Y0097445D01*
X0072167Y0097562D01*
X0072277Y0097676D01*
X0072390Y0097787D01*
X0072505Y0097896D01*
X0072623Y0098001D01*
X0072744Y0098103D01*
X0072867Y0098203D01*
X0072993Y0098299D01*
X0073121Y0098392D01*
X0073251Y0098482D01*
X0073384Y0098568D01*
X0073519Y0098652D01*
X0073655Y0098731D01*
X0073794Y0098808D01*
X0073935Y0098880D01*
X0074077Y0098950D01*
X0074221Y0099015D01*
X0074367Y0099077D01*
X0074514Y0099135D01*
X0074663Y0099190D01*
X0074813Y0099241D01*
X0074964Y0099288D01*
X0075116Y0099331D01*
X0075269Y0099370D01*
X0075424Y0099406D01*
X0075579Y0099437D01*
X0075735Y0099465D01*
X0075891Y0099489D01*
X0076048Y0099509D01*
X0076206Y0099525D01*
X0076363Y0099537D01*
X0076522Y0099545D01*
X0076680Y0099549D01*
X0076838Y0099549D01*
X0076996Y0099545D01*
X0077155Y0099537D01*
X0077312Y0099525D01*
X0077470Y0099509D01*
X0077627Y0099489D01*
X0077783Y0099465D01*
X0077939Y0099437D01*
X0078094Y0099406D01*
X0078249Y0099370D01*
X0078402Y0099331D01*
X0078554Y0099288D01*
X0078705Y0099241D01*
X0078855Y0099190D01*
X0079004Y0099135D01*
X0079151Y0099077D01*
X0079297Y0099015D01*
X0079441Y0098950D01*
X0079583Y0098880D01*
X0079724Y0098808D01*
X0079863Y0098731D01*
X0079999Y0098652D01*
X0080134Y0098568D01*
X0080267Y0098482D01*
X0080397Y0098392D01*
X0080525Y0098299D01*
X0080651Y0098203D01*
X0080774Y0098103D01*
X0080895Y0098001D01*
X0081013Y0097896D01*
X0081128Y0097787D01*
X0081241Y0097676D01*
X0081351Y0097562D01*
X0081458Y0097445D01*
X0081562Y0097326D01*
X0081663Y0097204D01*
X0081760Y0097079D01*
X0081855Y0096952D01*
X0081946Y0096823D01*
X0082035Y0096692D01*
X0082119Y0096558D01*
X0082201Y0096422D01*
X0082279Y0096285D01*
X0082353Y0096145D01*
X0082424Y0096003D01*
X0082492Y0095860D01*
X0082556Y0095715D01*
X0082616Y0095569D01*
X0082672Y0095421D01*
X0082725Y0095272D01*
X0082774Y0095121D01*
X0082819Y0094969D01*
X0082860Y0094816D01*
X0082898Y0094663D01*
X0082931Y0094508D01*
X0082961Y0094352D01*
X0082987Y0094196D01*
X0083008Y0094039D01*
X0083026Y0093882D01*
X0083040Y0093724D01*
X0083050Y0093566D01*
X0083056Y0093408D01*
X0083058Y0093250D01*
X0083056Y0093092D01*
X0083050Y0092934D01*
X0083040Y0092776D01*
X0083026Y0092618D01*
X0083008Y0092461D01*
X0082987Y0092304D01*
X0082961Y0092148D01*
X0082931Y0091992D01*
X0082898Y0091837D01*
X0082860Y0091684D01*
X0082819Y0091531D01*
X0082774Y0091379D01*
X0082725Y0091228D01*
X0082672Y0091079D01*
X0082616Y0090931D01*
X0082556Y0090785D01*
X0082492Y0090640D01*
X0082424Y0090497D01*
X0082353Y0090355D01*
X0082279Y0090215D01*
X0082201Y0090078D01*
X0082119Y0089942D01*
X0082035Y0089808D01*
X0081946Y0089677D01*
X0081855Y0089548D01*
X0081760Y0089421D01*
X0081663Y0089296D01*
X0081562Y0089174D01*
X0081458Y0089055D01*
X0081351Y0088938D01*
X0081241Y0088824D01*
X0081128Y0088713D01*
X0081013Y0088604D01*
X0080895Y0088499D01*
X0080774Y0088397D01*
X0080651Y0088297D01*
X0080525Y0088201D01*
X0080397Y0088108D01*
X0080267Y0088018D01*
X0080134Y0087932D01*
X0079999Y0087848D01*
X0079863Y0087769D01*
X0079724Y0087692D01*
X0079583Y0087620D01*
X0079441Y0087550D01*
X0079297Y0087485D01*
X0079151Y0087423D01*
X0079004Y0087365D01*
X0078855Y0087310D01*
X0078705Y0087259D01*
X0078554Y0087212D01*
X0078402Y0087169D01*
X0078249Y0087130D01*
X0078094Y0087094D01*
X0077939Y0087063D01*
X0077783Y0087035D01*
X0077627Y0087011D01*
X0077470Y0086991D01*
X0077312Y0086975D01*
X0077155Y0086963D01*
X0076996Y0086955D01*
X0076838Y0086951D01*
X0076680Y0086951D01*
X0076522Y0086955D01*
X0076363Y0086963D01*
X0076206Y0086975D01*
X0076048Y0086991D01*
X0075891Y0087011D01*
X0075735Y0087035D01*
X0075579Y0087063D01*
X0075424Y0087094D01*
X0075269Y0087130D01*
X0075116Y0087169D01*
X0074964Y0087212D01*
X0074813Y0087259D01*
X0074663Y0087310D01*
X0074514Y0087365D01*
X0074367Y0087423D01*
X0074221Y0087485D01*
X0074077Y0087550D01*
X0073935Y0087620D01*
X0073794Y0087692D01*
X0073655Y0087769D01*
X0073519Y0087848D01*
X0073384Y0087932D01*
X0073251Y0088018D01*
X0073121Y0088108D01*
X0072993Y0088201D01*
X0072867Y0088297D01*
X0072744Y0088397D01*
X0072623Y0088499D01*
X0072505Y0088604D01*
X0072390Y0088713D01*
X0072277Y0088824D01*
X0072167Y0088938D01*
X0072060Y0089055D01*
X0071956Y0089174D01*
X0071855Y0089296D01*
X0071758Y0089421D01*
X0071663Y0089548D01*
X0071572Y0089677D01*
X0071483Y0089808D01*
X0071399Y0089942D01*
X0071317Y0090078D01*
X0071239Y0090215D01*
X0071165Y0090355D01*
X0071094Y0090497D01*
X0071026Y0090640D01*
X0070962Y0090785D01*
X0070902Y0090931D01*
X0070846Y0091079D01*
X0070793Y0091228D01*
X0070744Y0091379D01*
X0070699Y0091531D01*
X0070658Y0091684D01*
X0070620Y0091837D01*
X0070587Y0091992D01*
X0070557Y0092148D01*
X0070531Y0092304D01*
X0070510Y0092461D01*
X0070492Y0092618D01*
X0070478Y0092776D01*
X0070468Y0092934D01*
X0070462Y0093092D01*
X0070460Y0093250D01*
X0070460Y0144038D02*
X0070462Y0144196D01*
X0070468Y0144354D01*
X0070478Y0144512D01*
X0070492Y0144670D01*
X0070510Y0144827D01*
X0070531Y0144984D01*
X0070557Y0145140D01*
X0070587Y0145296D01*
X0070620Y0145451D01*
X0070658Y0145604D01*
X0070699Y0145757D01*
X0070744Y0145909D01*
X0070793Y0146060D01*
X0070846Y0146209D01*
X0070902Y0146357D01*
X0070962Y0146503D01*
X0071026Y0146648D01*
X0071094Y0146791D01*
X0071165Y0146933D01*
X0071239Y0147073D01*
X0071317Y0147210D01*
X0071399Y0147346D01*
X0071483Y0147480D01*
X0071572Y0147611D01*
X0071663Y0147740D01*
X0071758Y0147867D01*
X0071855Y0147992D01*
X0071956Y0148114D01*
X0072060Y0148233D01*
X0072167Y0148350D01*
X0072277Y0148464D01*
X0072390Y0148575D01*
X0072505Y0148684D01*
X0072623Y0148789D01*
X0072744Y0148891D01*
X0072867Y0148991D01*
X0072993Y0149087D01*
X0073121Y0149180D01*
X0073251Y0149270D01*
X0073384Y0149356D01*
X0073519Y0149440D01*
X0073655Y0149519D01*
X0073794Y0149596D01*
X0073935Y0149668D01*
X0074077Y0149738D01*
X0074221Y0149803D01*
X0074367Y0149865D01*
X0074514Y0149923D01*
X0074663Y0149978D01*
X0074813Y0150029D01*
X0074964Y0150076D01*
X0075116Y0150119D01*
X0075269Y0150158D01*
X0075424Y0150194D01*
X0075579Y0150225D01*
X0075735Y0150253D01*
X0075891Y0150277D01*
X0076048Y0150297D01*
X0076206Y0150313D01*
X0076363Y0150325D01*
X0076522Y0150333D01*
X0076680Y0150337D01*
X0076838Y0150337D01*
X0076996Y0150333D01*
X0077155Y0150325D01*
X0077312Y0150313D01*
X0077470Y0150297D01*
X0077627Y0150277D01*
X0077783Y0150253D01*
X0077939Y0150225D01*
X0078094Y0150194D01*
X0078249Y0150158D01*
X0078402Y0150119D01*
X0078554Y0150076D01*
X0078705Y0150029D01*
X0078855Y0149978D01*
X0079004Y0149923D01*
X0079151Y0149865D01*
X0079297Y0149803D01*
X0079441Y0149738D01*
X0079583Y0149668D01*
X0079724Y0149596D01*
X0079863Y0149519D01*
X0079999Y0149440D01*
X0080134Y0149356D01*
X0080267Y0149270D01*
X0080397Y0149180D01*
X0080525Y0149087D01*
X0080651Y0148991D01*
X0080774Y0148891D01*
X0080895Y0148789D01*
X0081013Y0148684D01*
X0081128Y0148575D01*
X0081241Y0148464D01*
X0081351Y0148350D01*
X0081458Y0148233D01*
X0081562Y0148114D01*
X0081663Y0147992D01*
X0081760Y0147867D01*
X0081855Y0147740D01*
X0081946Y0147611D01*
X0082035Y0147480D01*
X0082119Y0147346D01*
X0082201Y0147210D01*
X0082279Y0147073D01*
X0082353Y0146933D01*
X0082424Y0146791D01*
X0082492Y0146648D01*
X0082556Y0146503D01*
X0082616Y0146357D01*
X0082672Y0146209D01*
X0082725Y0146060D01*
X0082774Y0145909D01*
X0082819Y0145757D01*
X0082860Y0145604D01*
X0082898Y0145451D01*
X0082931Y0145296D01*
X0082961Y0145140D01*
X0082987Y0144984D01*
X0083008Y0144827D01*
X0083026Y0144670D01*
X0083040Y0144512D01*
X0083050Y0144354D01*
X0083056Y0144196D01*
X0083058Y0144038D01*
X0083056Y0143880D01*
X0083050Y0143722D01*
X0083040Y0143564D01*
X0083026Y0143406D01*
X0083008Y0143249D01*
X0082987Y0143092D01*
X0082961Y0142936D01*
X0082931Y0142780D01*
X0082898Y0142625D01*
X0082860Y0142472D01*
X0082819Y0142319D01*
X0082774Y0142167D01*
X0082725Y0142016D01*
X0082672Y0141867D01*
X0082616Y0141719D01*
X0082556Y0141573D01*
X0082492Y0141428D01*
X0082424Y0141285D01*
X0082353Y0141143D01*
X0082279Y0141003D01*
X0082201Y0140866D01*
X0082119Y0140730D01*
X0082035Y0140596D01*
X0081946Y0140465D01*
X0081855Y0140336D01*
X0081760Y0140209D01*
X0081663Y0140084D01*
X0081562Y0139962D01*
X0081458Y0139843D01*
X0081351Y0139726D01*
X0081241Y0139612D01*
X0081128Y0139501D01*
X0081013Y0139392D01*
X0080895Y0139287D01*
X0080774Y0139185D01*
X0080651Y0139085D01*
X0080525Y0138989D01*
X0080397Y0138896D01*
X0080267Y0138806D01*
X0080134Y0138720D01*
X0079999Y0138636D01*
X0079863Y0138557D01*
X0079724Y0138480D01*
X0079583Y0138408D01*
X0079441Y0138338D01*
X0079297Y0138273D01*
X0079151Y0138211D01*
X0079004Y0138153D01*
X0078855Y0138098D01*
X0078705Y0138047D01*
X0078554Y0138000D01*
X0078402Y0137957D01*
X0078249Y0137918D01*
X0078094Y0137882D01*
X0077939Y0137851D01*
X0077783Y0137823D01*
X0077627Y0137799D01*
X0077470Y0137779D01*
X0077312Y0137763D01*
X0077155Y0137751D01*
X0076996Y0137743D01*
X0076838Y0137739D01*
X0076680Y0137739D01*
X0076522Y0137743D01*
X0076363Y0137751D01*
X0076206Y0137763D01*
X0076048Y0137779D01*
X0075891Y0137799D01*
X0075735Y0137823D01*
X0075579Y0137851D01*
X0075424Y0137882D01*
X0075269Y0137918D01*
X0075116Y0137957D01*
X0074964Y0138000D01*
X0074813Y0138047D01*
X0074663Y0138098D01*
X0074514Y0138153D01*
X0074367Y0138211D01*
X0074221Y0138273D01*
X0074077Y0138338D01*
X0073935Y0138408D01*
X0073794Y0138480D01*
X0073655Y0138557D01*
X0073519Y0138636D01*
X0073384Y0138720D01*
X0073251Y0138806D01*
X0073121Y0138896D01*
X0072993Y0138989D01*
X0072867Y0139085D01*
X0072744Y0139185D01*
X0072623Y0139287D01*
X0072505Y0139392D01*
X0072390Y0139501D01*
X0072277Y0139612D01*
X0072167Y0139726D01*
X0072060Y0139843D01*
X0071956Y0139962D01*
X0071855Y0140084D01*
X0071758Y0140209D01*
X0071663Y0140336D01*
X0071572Y0140465D01*
X0071483Y0140596D01*
X0071399Y0140730D01*
X0071317Y0140866D01*
X0071239Y0141003D01*
X0071165Y0141143D01*
X0071094Y0141285D01*
X0071026Y0141428D01*
X0070962Y0141573D01*
X0070902Y0141719D01*
X0070846Y0141867D01*
X0070793Y0142016D01*
X0070744Y0142167D01*
X0070699Y0142319D01*
X0070658Y0142472D01*
X0070620Y0142625D01*
X0070587Y0142780D01*
X0070557Y0142936D01*
X0070531Y0143092D01*
X0070510Y0143249D01*
X0070492Y0143406D01*
X0070478Y0143564D01*
X0070468Y0143722D01*
X0070462Y0143880D01*
X0070460Y0144038D01*
X0119279Y0144038D02*
X0119281Y0144196D01*
X0119287Y0144354D01*
X0119297Y0144512D01*
X0119311Y0144670D01*
X0119329Y0144827D01*
X0119350Y0144984D01*
X0119376Y0145140D01*
X0119406Y0145296D01*
X0119439Y0145451D01*
X0119477Y0145604D01*
X0119518Y0145757D01*
X0119563Y0145909D01*
X0119612Y0146060D01*
X0119665Y0146209D01*
X0119721Y0146357D01*
X0119781Y0146503D01*
X0119845Y0146648D01*
X0119913Y0146791D01*
X0119984Y0146933D01*
X0120058Y0147073D01*
X0120136Y0147210D01*
X0120218Y0147346D01*
X0120302Y0147480D01*
X0120391Y0147611D01*
X0120482Y0147740D01*
X0120577Y0147867D01*
X0120674Y0147992D01*
X0120775Y0148114D01*
X0120879Y0148233D01*
X0120986Y0148350D01*
X0121096Y0148464D01*
X0121209Y0148575D01*
X0121324Y0148684D01*
X0121442Y0148789D01*
X0121563Y0148891D01*
X0121686Y0148991D01*
X0121812Y0149087D01*
X0121940Y0149180D01*
X0122070Y0149270D01*
X0122203Y0149356D01*
X0122338Y0149440D01*
X0122474Y0149519D01*
X0122613Y0149596D01*
X0122754Y0149668D01*
X0122896Y0149738D01*
X0123040Y0149803D01*
X0123186Y0149865D01*
X0123333Y0149923D01*
X0123482Y0149978D01*
X0123632Y0150029D01*
X0123783Y0150076D01*
X0123935Y0150119D01*
X0124088Y0150158D01*
X0124243Y0150194D01*
X0124398Y0150225D01*
X0124554Y0150253D01*
X0124710Y0150277D01*
X0124867Y0150297D01*
X0125025Y0150313D01*
X0125182Y0150325D01*
X0125341Y0150333D01*
X0125499Y0150337D01*
X0125657Y0150337D01*
X0125815Y0150333D01*
X0125974Y0150325D01*
X0126131Y0150313D01*
X0126289Y0150297D01*
X0126446Y0150277D01*
X0126602Y0150253D01*
X0126758Y0150225D01*
X0126913Y0150194D01*
X0127068Y0150158D01*
X0127221Y0150119D01*
X0127373Y0150076D01*
X0127524Y0150029D01*
X0127674Y0149978D01*
X0127823Y0149923D01*
X0127970Y0149865D01*
X0128116Y0149803D01*
X0128260Y0149738D01*
X0128402Y0149668D01*
X0128543Y0149596D01*
X0128682Y0149519D01*
X0128818Y0149440D01*
X0128953Y0149356D01*
X0129086Y0149270D01*
X0129216Y0149180D01*
X0129344Y0149087D01*
X0129470Y0148991D01*
X0129593Y0148891D01*
X0129714Y0148789D01*
X0129832Y0148684D01*
X0129947Y0148575D01*
X0130060Y0148464D01*
X0130170Y0148350D01*
X0130277Y0148233D01*
X0130381Y0148114D01*
X0130482Y0147992D01*
X0130579Y0147867D01*
X0130674Y0147740D01*
X0130765Y0147611D01*
X0130854Y0147480D01*
X0130938Y0147346D01*
X0131020Y0147210D01*
X0131098Y0147073D01*
X0131172Y0146933D01*
X0131243Y0146791D01*
X0131311Y0146648D01*
X0131375Y0146503D01*
X0131435Y0146357D01*
X0131491Y0146209D01*
X0131544Y0146060D01*
X0131593Y0145909D01*
X0131638Y0145757D01*
X0131679Y0145604D01*
X0131717Y0145451D01*
X0131750Y0145296D01*
X0131780Y0145140D01*
X0131806Y0144984D01*
X0131827Y0144827D01*
X0131845Y0144670D01*
X0131859Y0144512D01*
X0131869Y0144354D01*
X0131875Y0144196D01*
X0131877Y0144038D01*
X0131875Y0143880D01*
X0131869Y0143722D01*
X0131859Y0143564D01*
X0131845Y0143406D01*
X0131827Y0143249D01*
X0131806Y0143092D01*
X0131780Y0142936D01*
X0131750Y0142780D01*
X0131717Y0142625D01*
X0131679Y0142472D01*
X0131638Y0142319D01*
X0131593Y0142167D01*
X0131544Y0142016D01*
X0131491Y0141867D01*
X0131435Y0141719D01*
X0131375Y0141573D01*
X0131311Y0141428D01*
X0131243Y0141285D01*
X0131172Y0141143D01*
X0131098Y0141003D01*
X0131020Y0140866D01*
X0130938Y0140730D01*
X0130854Y0140596D01*
X0130765Y0140465D01*
X0130674Y0140336D01*
X0130579Y0140209D01*
X0130482Y0140084D01*
X0130381Y0139962D01*
X0130277Y0139843D01*
X0130170Y0139726D01*
X0130060Y0139612D01*
X0129947Y0139501D01*
X0129832Y0139392D01*
X0129714Y0139287D01*
X0129593Y0139185D01*
X0129470Y0139085D01*
X0129344Y0138989D01*
X0129216Y0138896D01*
X0129086Y0138806D01*
X0128953Y0138720D01*
X0128818Y0138636D01*
X0128682Y0138557D01*
X0128543Y0138480D01*
X0128402Y0138408D01*
X0128260Y0138338D01*
X0128116Y0138273D01*
X0127970Y0138211D01*
X0127823Y0138153D01*
X0127674Y0138098D01*
X0127524Y0138047D01*
X0127373Y0138000D01*
X0127221Y0137957D01*
X0127068Y0137918D01*
X0126913Y0137882D01*
X0126758Y0137851D01*
X0126602Y0137823D01*
X0126446Y0137799D01*
X0126289Y0137779D01*
X0126131Y0137763D01*
X0125974Y0137751D01*
X0125815Y0137743D01*
X0125657Y0137739D01*
X0125499Y0137739D01*
X0125341Y0137743D01*
X0125182Y0137751D01*
X0125025Y0137763D01*
X0124867Y0137779D01*
X0124710Y0137799D01*
X0124554Y0137823D01*
X0124398Y0137851D01*
X0124243Y0137882D01*
X0124088Y0137918D01*
X0123935Y0137957D01*
X0123783Y0138000D01*
X0123632Y0138047D01*
X0123482Y0138098D01*
X0123333Y0138153D01*
X0123186Y0138211D01*
X0123040Y0138273D01*
X0122896Y0138338D01*
X0122754Y0138408D01*
X0122613Y0138480D01*
X0122474Y0138557D01*
X0122338Y0138636D01*
X0122203Y0138720D01*
X0122070Y0138806D01*
X0121940Y0138896D01*
X0121812Y0138989D01*
X0121686Y0139085D01*
X0121563Y0139185D01*
X0121442Y0139287D01*
X0121324Y0139392D01*
X0121209Y0139501D01*
X0121096Y0139612D01*
X0120986Y0139726D01*
X0120879Y0139843D01*
X0120775Y0139962D01*
X0120674Y0140084D01*
X0120577Y0140209D01*
X0120482Y0140336D01*
X0120391Y0140465D01*
X0120302Y0140596D01*
X0120218Y0140730D01*
X0120136Y0140866D01*
X0120058Y0141003D01*
X0119984Y0141143D01*
X0119913Y0141285D01*
X0119845Y0141428D01*
X0119781Y0141573D01*
X0119721Y0141719D01*
X0119665Y0141867D01*
X0119612Y0142016D01*
X0119563Y0142167D01*
X0119518Y0142319D01*
X0119477Y0142472D01*
X0119439Y0142625D01*
X0119406Y0142780D01*
X0119376Y0142936D01*
X0119350Y0143092D01*
X0119329Y0143249D01*
X0119311Y0143406D01*
X0119297Y0143564D01*
X0119287Y0143722D01*
X0119281Y0143880D01*
X0119279Y0144038D01*
D13*
X0161404Y0056046D03*
X0161404Y0049353D03*
X0171641Y0049353D03*
X0171641Y0056046D03*
D14*
X0113034Y0073538D03*
X0108704Y0073538D03*
X0104373Y0073538D03*
X0100042Y0073538D03*
X0095711Y0073538D03*
X0091381Y0073538D03*
X0087050Y0073538D03*
X0082719Y0073538D03*
X0078389Y0073538D03*
D15*
X0073089Y0071176D03*
D16*
X0074452Y0032699D03*
X0135081Y0032699D03*
D17*
X0131857Y0071994D03*
D18*
X0042231Y0102148D03*
X0042231Y0114746D03*
X0022940Y0114746D03*
X0022940Y0102148D03*
D19*
X0163570Y0137668D03*
X0170263Y0137668D03*
X0170263Y0146400D03*
X0163570Y0146400D03*
D20*
X0046444Y0129274D03*
X0046444Y0122581D03*
X0037782Y0122581D03*
X0037782Y0129274D03*
X0028727Y0129274D03*
X0028727Y0122581D03*
X0026759Y0090691D03*
X0026759Y0083998D03*
X0018491Y0083998D03*
X0018491Y0090691D03*
X0019672Y0031636D03*
X0019672Y0024943D03*
D21*
X0060223Y0026400D03*
X0060223Y0036400D03*
X0060223Y0046400D03*
X0060223Y0056400D03*
X0060223Y0066400D03*
X0060223Y0076400D03*
X0060223Y0086400D03*
X0060223Y0096400D03*
X0060223Y0106400D03*
X0060223Y0116400D03*
X0060223Y0126400D03*
X0060223Y0136400D03*
X0060223Y0146400D03*
X0060223Y0156400D03*
X0060223Y0166400D03*
X0150223Y0166400D03*
X0150223Y0156400D03*
X0150223Y0146400D03*
X0150223Y0136400D03*
X0150223Y0126400D03*
X0150223Y0116400D03*
X0150223Y0106400D03*
X0150223Y0096400D03*
X0150223Y0086400D03*
X0150223Y0076400D03*
X0150223Y0066400D03*
X0150223Y0056400D03*
X0150223Y0046400D03*
X0150223Y0036400D03*
X0150223Y0026400D03*
D22*
X0161011Y0028683D03*
X0171247Y0028683D03*
X0171247Y0039707D03*
X0161011Y0039707D03*
X0008648Y0124746D03*
X0008648Y0135770D03*
D23*
X0035026Y0090691D03*
X0035026Y0083998D03*
X0011404Y0067463D03*
X0011404Y0060770D03*
X0011404Y0031636D03*
X0011404Y0024943D03*
X0159042Y0107620D03*
X0159042Y0114313D03*
D24*
X0015932Y0051124D03*
X0008452Y0051124D03*
X0008452Y0040928D03*
X0012192Y0040928D03*
X0015932Y0040928D03*
D25*
X0026365Y0041282D03*
X0030105Y0049943D03*
X0022625Y0049943D03*
D26*
X0027152Y0061754D03*
X0037389Y0061754D03*
X0046837Y0061754D03*
X0046837Y0051518D03*
X0037389Y0051518D03*
X0037389Y0038132D03*
X0046837Y0038132D03*
X0046837Y0075140D03*
X0037389Y0075140D03*
X0027152Y0075140D03*
X0020853Y0122778D03*
X0020853Y0136164D03*
D27*
X0036601Y0026715D03*
X0170774Y0070101D03*
X0170774Y0080101D03*
X0170774Y0090101D03*
X0170774Y0100101D03*
X0170774Y0110101D03*
X0170774Y0120101D03*
D28*
X0046227Y0146794D03*
X0041227Y0146794D03*
X0036227Y0146794D03*
X0031227Y0146794D03*
X0026227Y0146794D03*
X0021227Y0146794D03*
X0016227Y0146794D03*
X0011227Y0146794D03*
X0011227Y0183014D03*
X0016227Y0183014D03*
X0021227Y0183014D03*
X0026227Y0183014D03*
X0031227Y0183014D03*
X0036227Y0183014D03*
X0041227Y0183014D03*
X0046227Y0183014D03*
D29*
X0005105Y0100156D03*
X0005105Y0098156D03*
X0017310Y0062361D03*
X0017310Y0060361D03*
D30*
X0123790Y0023959D03*
X0125790Y0023959D03*
X0131270Y0161754D03*
X0133270Y0161754D03*
D31*
X0135026Y0161754D01*
X0134620Y0161839D02*
X0148691Y0161839D01*
X0149268Y0161600D02*
X0151178Y0161600D01*
X0152942Y0162331D01*
X0154292Y0163681D01*
X0154370Y0163868D01*
X0185838Y0163728D01*
X0185838Y0025928D01*
X0185764Y0024985D01*
X0185181Y0023193D01*
X0184073Y0021668D01*
X0182549Y0020560D01*
X0180756Y0019978D01*
X0179814Y0019904D01*
X0125578Y0019904D01*
X0125578Y0022609D01*
X0126704Y0022609D01*
X0127290Y0023195D01*
X0127290Y0024723D01*
X0126704Y0025309D01*
X0125578Y0025309D01*
X0125578Y0041676D01*
X0133452Y0041676D01*
X0133568Y0067494D01*
X0135055Y0067494D01*
X0135436Y0067597D01*
X0135778Y0067794D01*
X0136057Y0068073D01*
X0136255Y0068416D01*
X0136357Y0068797D01*
X0136357Y0071495D01*
X0133586Y0071495D01*
X0133590Y0072494D01*
X0136357Y0072494D01*
X0136357Y0075192D01*
X0136255Y0075573D01*
X0136057Y0075916D01*
X0135778Y0076195D01*
X0135436Y0076392D01*
X0135055Y0076494D01*
X0133609Y0076494D01*
X0133609Y0076704D01*
X0145423Y0076704D01*
X0145423Y0075445D01*
X0146154Y0073681D01*
X0147504Y0072331D01*
X0149268Y0071600D01*
X0151178Y0071600D01*
X0152942Y0072331D01*
X0154292Y0073681D01*
X0155023Y0075445D01*
X0155023Y0077355D01*
X0154292Y0079119D01*
X0153322Y0080089D01*
X0155282Y0080089D01*
X0155820Y0080073D01*
X0155838Y0080089D01*
X0155861Y0080089D01*
X0156242Y0080470D01*
X0162609Y0086467D01*
X0162633Y0086467D01*
X0163014Y0086848D01*
X0163054Y0086886D01*
X0163054Y0086664D01*
X0162981Y0086567D01*
X0163054Y0086057D01*
X0163054Y0085542D01*
X0163140Y0085457D01*
X0163157Y0085337D01*
X0163546Y0085045D01*
X0163929Y0084388D01*
X0163929Y0084071D01*
X0164372Y0083629D01*
X0164541Y0083338D01*
X0164541Y0083338D01*
X0164541Y0083338D01*
X0164706Y0083294D01*
X0165217Y0082783D01*
X0167040Y0082783D01*
X0168329Y0084071D01*
X0168329Y0085894D01*
X0167275Y0086947D01*
X0167263Y0086967D01*
X0167263Y0086967D01*
X0167263Y0086967D01*
X0167253Y0086970D01*
X0167040Y0087183D01*
X0166399Y0087183D01*
X0166054Y0087268D01*
X0166054Y0095693D01*
X0167491Y0096878D01*
X0167913Y0096599D01*
X0168225Y0096286D01*
X0168652Y0096109D01*
X0168981Y0095891D01*
X0169113Y0095918D01*
X0169879Y0095601D01*
X0171670Y0095601D01*
X0173323Y0096286D01*
X0174589Y0097552D01*
X0175259Y0099168D01*
X0175259Y0091034D01*
X0174589Y0092650D01*
X0173323Y0093916D01*
X0171670Y0094601D01*
X0169879Y0094601D01*
X0168225Y0093916D01*
X0166959Y0092650D01*
X0166274Y0090996D01*
X0166274Y0089206D01*
X0166959Y0087552D01*
X0168225Y0086286D01*
X0169879Y0085601D01*
X0171670Y0085601D01*
X0173323Y0086286D01*
X0174589Y0087552D01*
X0175259Y0089168D01*
X0175259Y0083149D01*
X0174899Y0082297D01*
X0174783Y0082182D01*
X0174589Y0082650D01*
X0173323Y0083916D01*
X0171670Y0084601D01*
X0169879Y0084601D01*
X0168225Y0083916D01*
X0166959Y0082650D01*
X0166274Y0080996D01*
X0166274Y0079206D01*
X0166959Y0077552D01*
X0168225Y0076286D01*
X0169879Y0075601D01*
X0171670Y0075601D01*
X0173323Y0076286D01*
X0174589Y0077552D01*
X0175274Y0079206D01*
X0175274Y0079419D01*
X0175847Y0078846D01*
X0177670Y0078846D01*
X0178959Y0080134D01*
X0178959Y0081160D01*
X0179027Y0081329D01*
X0178959Y0081491D01*
X0178959Y0081957D01*
X0178618Y0082297D01*
X0178606Y0082327D01*
X0178259Y0083149D01*
X0178259Y0090608D01*
X0178997Y0089869D01*
X0180820Y0089869D01*
X0182108Y0091158D01*
X0182108Y0092184D01*
X0182177Y0092352D01*
X0182177Y0092352D01*
X0182177Y0092352D01*
X0182108Y0092515D01*
X0182108Y0092981D01*
X0181768Y0093321D01*
X0181755Y0093351D01*
X0181408Y0094173D01*
X0181408Y0155683D01*
X0180530Y0156561D01*
X0177380Y0159711D01*
X0170201Y0159711D01*
X0169379Y0160058D01*
X0169349Y0160071D01*
X0169009Y0160411D01*
X0168543Y0160411D01*
X0168380Y0160479D01*
X0168212Y0160411D01*
X0167186Y0160411D01*
X0165897Y0159122D01*
X0165897Y0157300D01*
X0167186Y0156011D01*
X0167510Y0156011D01*
X0166685Y0155185D01*
X0166685Y0153363D01*
X0167973Y0152074D01*
X0168999Y0152074D01*
X0169168Y0152006D01*
X0169330Y0152074D01*
X0169796Y0152074D01*
X0170136Y0152414D01*
X0170988Y0152774D01*
X0173868Y0152774D01*
X0174663Y0152438D01*
X0174720Y0152414D01*
X0175060Y0152074D01*
X0175526Y0152074D01*
X0175688Y0152006D01*
X0175688Y0152006D01*
X0175688Y0152006D01*
X0175857Y0152074D01*
X0176883Y0152074D01*
X0178171Y0153363D01*
X0178171Y0154677D01*
X0178408Y0154440D01*
X0178408Y0094173D01*
X0178259Y0093818D01*
X0178259Y0127336D01*
X0177380Y0128215D01*
X0172656Y0132939D01*
X0164782Y0132939D01*
X0164723Y0132998D01*
X0164723Y0133715D01*
X0166543Y0133715D01*
X0166563Y0133735D01*
X0166783Y0133515D01*
X0167125Y0133317D01*
X0167506Y0133215D01*
X0169763Y0133215D01*
X0169763Y0137168D01*
X0170763Y0137168D01*
X0170763Y0138168D01*
X0174322Y0138168D01*
X0174322Y0140818D01*
X0174219Y0141199D01*
X0174022Y0141541D01*
X0173743Y0141821D01*
X0173401Y0142018D01*
X0173342Y0142034D01*
X0173401Y0142049D01*
X0173743Y0142247D01*
X0174022Y0142526D01*
X0174219Y0142868D01*
X0174322Y0143250D01*
X0174322Y0145900D01*
X0170763Y0145900D01*
X0170763Y0146900D01*
X0174322Y0146900D01*
X0174322Y0149550D01*
X0174219Y0149932D01*
X0174022Y0150274D01*
X0173743Y0150553D01*
X0173401Y0150751D01*
X0173019Y0150853D01*
X0170763Y0150853D01*
X0170763Y0146900D01*
X0169763Y0146900D01*
X0169763Y0150853D01*
X0167506Y0150853D01*
X0167125Y0150751D01*
X0166783Y0150553D01*
X0166563Y0150333D01*
X0166543Y0150353D01*
X0160596Y0150353D01*
X0160011Y0149767D01*
X0160011Y0143033D01*
X0160596Y0142447D01*
X0162070Y0142447D01*
X0162070Y0141620D01*
X0160596Y0141620D01*
X0160011Y0141035D01*
X0160011Y0134301D01*
X0160596Y0133715D01*
X0162023Y0133715D01*
X0162023Y0132998D01*
X0161873Y0132848D01*
X0161873Y0131605D01*
X0162660Y0130818D01*
X0163539Y0129939D01*
X0171413Y0129939D01*
X0175259Y0126094D01*
X0175259Y0121034D01*
X0174589Y0122650D01*
X0173323Y0123916D01*
X0171670Y0124601D01*
X0169879Y0124601D01*
X0168225Y0123916D01*
X0166959Y0122650D01*
X0166274Y0120996D01*
X0166274Y0119206D01*
X0166959Y0117552D01*
X0168225Y0116286D01*
X0169879Y0115601D01*
X0171670Y0115601D01*
X0173323Y0116286D01*
X0174589Y0117552D01*
X0175259Y0119168D01*
X0175259Y0111034D01*
X0174589Y0112650D01*
X0173323Y0113916D01*
X0171670Y0114601D01*
X0169879Y0114601D01*
X0168225Y0113916D01*
X0166959Y0112650D01*
X0166274Y0110996D01*
X0166274Y0109206D01*
X0166959Y0107552D01*
X0168225Y0106286D01*
X0169879Y0105601D01*
X0171670Y0105601D01*
X0173323Y0106286D01*
X0174589Y0107552D01*
X0175259Y0109168D01*
X0175259Y0101034D01*
X0174589Y0102650D01*
X0173323Y0103916D01*
X0171670Y0104601D01*
X0169879Y0104601D01*
X0168225Y0103916D01*
X0166959Y0102650D01*
X0166832Y0102342D01*
X0166767Y0102310D01*
X0166556Y0101675D01*
X0166274Y0100996D01*
X0166274Y0100831D01*
X0165983Y0099958D01*
X0165672Y0099487D01*
X0165710Y0099298D01*
X0164015Y0097900D01*
X0163933Y0097900D01*
X0163544Y0097512D01*
X0163424Y0097412D01*
X0163424Y0098479D01*
X0165113Y0100168D01*
X0165904Y0100959D01*
X0165904Y0122066D01*
X0166011Y0122281D01*
X0165904Y0122603D01*
X0165904Y0122943D01*
X0165734Y0123113D01*
X0165621Y0123451D01*
X0165616Y0123468D01*
X0165704Y0124006D01*
X0165848Y0124150D01*
X0165848Y0124882D01*
X0165879Y0125066D01*
X0165910Y0125256D01*
X0165848Y0125342D01*
X0165848Y0125973D01*
X0164560Y0127261D01*
X0162737Y0127261D01*
X0161448Y0125973D01*
X0161448Y0124150D01*
X0161738Y0123860D01*
X0161739Y0123833D01*
X0162120Y0123478D01*
X0162737Y0122861D01*
X0162782Y0122861D01*
X0163057Y0122605D01*
X0163126Y0122400D01*
X0163204Y0122165D01*
X0163204Y0102077D01*
X0160724Y0099597D01*
X0160724Y0088400D01*
X0154766Y0082789D01*
X0153401Y0082789D01*
X0154292Y0083681D01*
X0155023Y0085445D01*
X0155023Y0087355D01*
X0154292Y0089119D01*
X0152942Y0090469D01*
X0151178Y0091200D01*
X0149268Y0091200D01*
X0147562Y0090493D01*
X0148783Y0091801D01*
X0149268Y0091600D01*
X0151178Y0091600D01*
X0152942Y0092331D01*
X0154292Y0093681D01*
X0155023Y0095445D01*
X0155023Y0097355D01*
X0154292Y0099119D01*
X0152942Y0100469D01*
X0151204Y0101189D01*
X0151464Y0101230D01*
X0152258Y0101488D01*
X0153001Y0101867D01*
X0153676Y0102357D01*
X0154266Y0102947D01*
X0154756Y0103622D01*
X0155135Y0104366D01*
X0155393Y0105159D01*
X0155523Y0105983D01*
X0155523Y0106113D01*
X0150511Y0106113D01*
X0150511Y0106687D01*
X0155523Y0106687D01*
X0155523Y0106817D01*
X0155393Y0107641D01*
X0155135Y0108434D01*
X0154756Y0109178D01*
X0154266Y0109853D01*
X0153676Y0110443D01*
X0153001Y0110933D01*
X0152258Y0111312D01*
X0151464Y0111569D01*
X0151204Y0111611D01*
X0152627Y0112200D01*
X0152648Y0112198D01*
X0152677Y0112221D01*
X0152942Y0112331D01*
X0153366Y0112755D01*
X0153669Y0112828D01*
X0153751Y0112963D01*
X0156074Y0112963D01*
X0156074Y0111734D01*
X0156597Y0111211D01*
X0156495Y0111184D01*
X0156153Y0110986D01*
X0155873Y0110707D01*
X0155676Y0110365D01*
X0155574Y0109983D01*
X0155574Y0108105D01*
X0158558Y0108105D01*
X0158558Y0107136D01*
X0159526Y0107136D01*
X0159526Y0103955D01*
X0161208Y0103955D01*
X0161590Y0104057D01*
X0161932Y0104255D01*
X0162211Y0104534D01*
X0162408Y0104876D01*
X0162511Y0105258D01*
X0162511Y0107136D01*
X0159526Y0107136D01*
X0159526Y0108105D01*
X0162511Y0108105D01*
X0162511Y0109983D01*
X0162408Y0110365D01*
X0162211Y0110707D01*
X0161932Y0110986D01*
X0161590Y0111184D01*
X0161488Y0111211D01*
X0162011Y0111734D01*
X0162011Y0116893D01*
X0161425Y0117479D01*
X0156659Y0117479D01*
X0156074Y0116893D01*
X0156074Y0115663D01*
X0155023Y0115663D01*
X0155023Y0117355D01*
X0154292Y0119119D01*
X0153511Y0119900D01*
X0154563Y0119900D01*
X0155066Y0119397D01*
X0156359Y0119397D01*
X0156469Y0119364D01*
X0156647Y0119311D01*
X0156805Y0119397D01*
X0158294Y0119397D01*
X0158880Y0119983D01*
X0158880Y0123211D01*
X0158294Y0123797D01*
X0156235Y0123797D01*
X0156150Y0123821D01*
X0156108Y0123797D01*
X0155066Y0123797D01*
X0154480Y0123211D01*
X0154480Y0122900D01*
X0153511Y0122900D01*
X0154292Y0123681D01*
X0155023Y0125445D01*
X0155023Y0127355D01*
X0154292Y0129119D01*
X0152942Y0130469D01*
X0151178Y0131200D01*
X0149268Y0131200D01*
X0147504Y0130469D01*
X0146154Y0129119D01*
X0145423Y0127355D01*
X0145423Y0125753D01*
X0133831Y0125753D01*
X0133946Y0151406D01*
X0135503Y0149849D01*
X0135681Y0149671D01*
X0135976Y0148795D01*
X0135976Y0148245D01*
X0136256Y0147965D01*
X0136266Y0147933D01*
X0136276Y0147904D01*
X0136356Y0147864D01*
X0137265Y0146956D01*
X0139087Y0146956D01*
X0140376Y0148245D01*
X0140376Y0150067D01*
X0139467Y0150976D01*
X0139428Y0151056D01*
X0139428Y0151056D01*
X0139367Y0151076D01*
X0139087Y0151356D01*
X0138536Y0151356D01*
X0137661Y0151651D01*
X0137483Y0151829D01*
X0135600Y0153711D01*
X0139908Y0153711D01*
X0145664Y0147956D01*
X0145652Y0147907D01*
X0145423Y0147355D01*
X0145423Y0146989D01*
X0145385Y0146836D01*
X0145423Y0146773D01*
X0145423Y0145445D01*
X0146154Y0143681D01*
X0147504Y0142331D01*
X0149268Y0141600D01*
X0151178Y0141600D01*
X0152942Y0142331D01*
X0154292Y0143681D01*
X0155023Y0145445D01*
X0155023Y0147355D01*
X0154292Y0149119D01*
X0152942Y0150469D01*
X0151178Y0151200D01*
X0149268Y0151200D01*
X0147504Y0150469D01*
X0147307Y0150272D01*
X0141118Y0156461D01*
X0139958Y0156461D01*
X0139908Y0156411D01*
X0135192Y0156411D01*
X0134404Y0157199D01*
X0133972Y0157199D01*
X0133987Y0160562D01*
X0134620Y0161195D01*
X0134620Y0162314D01*
X0133998Y0162936D01*
X0134003Y0163959D01*
X0146061Y0163905D01*
X0146154Y0163681D01*
X0147504Y0162331D01*
X0149268Y0161600D01*
X0149268Y0161200D02*
X0147504Y0160469D01*
X0146154Y0159119D01*
X0145423Y0157355D01*
X0145423Y0155445D01*
X0146154Y0153681D01*
X0147504Y0152331D01*
X0149268Y0151600D01*
X0151178Y0151600D01*
X0152942Y0152331D01*
X0154292Y0153681D01*
X0155023Y0155445D01*
X0155023Y0157355D01*
X0154292Y0159119D01*
X0152942Y0160469D01*
X0151178Y0161200D01*
X0149268Y0161200D01*
X0148401Y0160841D02*
X0134266Y0160841D01*
X0133984Y0159842D02*
X0146877Y0159842D01*
X0146040Y0158844D02*
X0133980Y0158844D01*
X0133975Y0157845D02*
X0145626Y0157845D01*
X0145423Y0156847D02*
X0134757Y0156847D01*
X0130956Y0157199D02*
X0130956Y0160404D01*
X0130711Y0160404D01*
X0129920Y0161195D01*
X0129920Y0162298D01*
X0072387Y0162523D01*
X0074168Y0160742D01*
X0076924Y0160742D01*
X0080467Y0157199D01*
X0130956Y0157199D01*
X0130956Y0157845D02*
X0079821Y0157845D01*
X0078823Y0158844D02*
X0130956Y0158844D01*
X0130956Y0159842D02*
X0077824Y0159842D01*
X0075961Y0155848D02*
X0071258Y0155848D01*
X0071827Y0156417D02*
X0075391Y0156417D01*
X0078115Y0153694D01*
X0078935Y0152874D01*
X0130956Y0152874D01*
X0130956Y0149690D01*
X0129995Y0150650D01*
X0127129Y0151837D01*
X0124026Y0151837D01*
X0121160Y0150650D01*
X0118966Y0148456D01*
X0117778Y0145589D01*
X0117778Y0142486D01*
X0118966Y0139620D01*
X0121160Y0137426D01*
X0124026Y0136239D01*
X0127129Y0136239D01*
X0129995Y0137426D01*
X0130956Y0138386D01*
X0130956Y0125753D01*
X0082872Y0125753D01*
X0072420Y0115301D01*
X0071841Y0115202D01*
X0071454Y0115135D01*
X0070729Y0115135D01*
X0069441Y0113847D01*
X0069441Y0112024D01*
X0069943Y0111522D01*
X0066829Y0111522D01*
X0066290Y0112061D01*
X0065824Y0112527D01*
X0065863Y0119003D01*
X0067434Y0119003D01*
X0068722Y0120292D01*
X0068722Y0120836D01*
X0068792Y0120932D01*
X0068722Y0121376D01*
X0068722Y0122114D01*
X0068584Y0122253D01*
X0068455Y0123068D01*
X0068455Y0144950D01*
X0068815Y0145802D01*
X0069155Y0146142D01*
X0069155Y0146608D01*
X0069224Y0146770D01*
X0069224Y0146770D01*
X0069224Y0146770D01*
X0069155Y0146939D01*
X0069155Y0147965D01*
X0067867Y0149254D01*
X0066048Y0149254D01*
X0066056Y0150647D01*
X0071827Y0156417D01*
X0070259Y0154850D02*
X0076959Y0154850D01*
X0077958Y0153851D02*
X0069260Y0153851D01*
X0068262Y0152853D02*
X0130956Y0152853D01*
X0130956Y0151854D02*
X0067263Y0151854D01*
X0066265Y0150856D02*
X0072838Y0150856D01*
X0072341Y0150650D02*
X0070147Y0148456D01*
X0068959Y0145589D01*
X0068959Y0142486D01*
X0070147Y0139620D01*
X0072341Y0137426D01*
X0075207Y0136239D01*
X0078310Y0136239D01*
X0081177Y0137426D01*
X0083371Y0139620D01*
X0084558Y0142486D01*
X0084558Y0145589D01*
X0083371Y0148456D01*
X0081177Y0150650D01*
X0078310Y0151837D01*
X0075207Y0151837D01*
X0072341Y0150650D01*
X0071548Y0149857D02*
X0066051Y0149857D01*
X0068262Y0148859D02*
X0070550Y0148859D01*
X0069900Y0147860D02*
X0069155Y0147860D01*
X0069187Y0146862D02*
X0069486Y0146862D01*
X0069073Y0145863D02*
X0068876Y0145863D01*
X0068959Y0144864D02*
X0068455Y0144864D01*
X0068455Y0143866D02*
X0068959Y0143866D01*
X0068959Y0142867D02*
X0068455Y0142867D01*
X0068455Y0141869D02*
X0069215Y0141869D01*
X0069629Y0140870D02*
X0068455Y0140870D01*
X0068455Y0139872D02*
X0070042Y0139872D01*
X0070893Y0138873D02*
X0068455Y0138873D01*
X0068455Y0137875D02*
X0071892Y0137875D01*
X0073667Y0136876D02*
X0068455Y0136876D01*
X0068455Y0135878D02*
X0130956Y0135878D01*
X0130956Y0136876D02*
X0128669Y0136876D01*
X0130444Y0137875D02*
X0130956Y0137875D01*
X0133885Y0137875D02*
X0145639Y0137875D01*
X0145423Y0137355D02*
X0145423Y0135445D01*
X0146154Y0133681D01*
X0147504Y0132331D01*
X0149268Y0131600D01*
X0151178Y0131600D01*
X0152942Y0132331D01*
X0154292Y0133681D01*
X0155023Y0135445D01*
X0155023Y0137355D01*
X0154292Y0139119D01*
X0152942Y0140469D01*
X0151178Y0141200D01*
X0149268Y0141200D01*
X0147504Y0140469D01*
X0146154Y0139119D01*
X0145423Y0137355D01*
X0145423Y0136876D02*
X0133881Y0136876D01*
X0133876Y0135878D02*
X0145423Y0135878D01*
X0145658Y0134879D02*
X0133872Y0134879D01*
X0133867Y0133881D02*
X0146071Y0133881D01*
X0146953Y0132882D02*
X0133863Y0132882D01*
X0133858Y0131884D02*
X0148583Y0131884D01*
X0148509Y0130885D02*
X0133854Y0130885D01*
X0133849Y0129887D02*
X0146922Y0129887D01*
X0146058Y0128888D02*
X0133845Y0128888D01*
X0133840Y0127890D02*
X0145645Y0127890D01*
X0145423Y0126891D02*
X0133836Y0126891D01*
X0133831Y0125893D02*
X0145423Y0125893D01*
X0144318Y0121400D02*
X0139475Y0116557D01*
X0081247Y0116557D01*
X0074711Y0110022D01*
X0066207Y0110022D01*
X0064790Y0111439D01*
X0053727Y0111439D01*
X0050420Y0114746D01*
X0042231Y0114746D01*
X0046444Y0122581D02*
X0037782Y0122581D01*
X0028727Y0122581D01*
X0028727Y0129274D02*
X0029121Y0129668D01*
X0029121Y0133014D01*
X0032270Y0136164D01*
X0034633Y0136164D01*
X0038963Y0140494D01*
X0040932Y0140494D01*
X0041227Y0140790D01*
X0041227Y0146794D01*
X0036227Y0146794D02*
X0036207Y0146774D01*
X0036207Y0140494D01*
X0033845Y0138132D01*
X0021641Y0138132D01*
X0020853Y0137345D01*
X0020853Y0136164D01*
X0009042Y0136164D01*
X0008648Y0135770D01*
X0022940Y0114746D02*
X0018491Y0111754D01*
X0018491Y0104668D01*
X0017704Y0103880D01*
X0012074Y0103880D01*
X0009042Y0100849D01*
X0009042Y0084195D01*
X0006812Y0080479D01*
X0007343Y0078908D01*
X0006680Y0078683D01*
X0006057Y0079002D01*
X0006812Y0080479D01*
X0006680Y0080258D01*
X0006680Y0078683D01*
X0008880Y0078631D02*
X0008880Y0077772D01*
X0007591Y0076483D01*
X0005769Y0076483D01*
X0004480Y0077772D01*
X0004480Y0079004D01*
X0004438Y0079132D01*
X0004438Y0079132D01*
X0004480Y0079214D01*
X0004480Y0079595D01*
X0004879Y0079994D01*
X0005095Y0080415D01*
X0005074Y0080497D01*
X0005180Y0080674D01*
X0005180Y0080880D01*
X0005489Y0081188D01*
X0005495Y0081198D01*
X0005743Y0081701D01*
X0005754Y0081704D01*
X0005760Y0081715D01*
X0005815Y0081733D01*
X0005846Y0081783D01*
X0005846Y0081783D01*
X0007542Y0084611D01*
X0007542Y0097975D01*
X0006455Y0097975D01*
X0006455Y0097242D01*
X0005869Y0096656D01*
X0004341Y0096656D01*
X0003805Y0097191D01*
X0003805Y0025928D01*
X0003880Y0024985D01*
X0004462Y0023193D01*
X0005570Y0021668D01*
X0007095Y0020560D01*
X0008887Y0019978D01*
X0009830Y0019904D01*
X0123609Y0019904D01*
X0123609Y0022609D01*
X0122876Y0022609D01*
X0122290Y0023195D01*
X0122290Y0024723D01*
X0122876Y0025309D01*
X0123609Y0025309D01*
X0123609Y0044054D01*
X0130956Y0044054D01*
X0130956Y0066054D01*
X0125956Y0066054D01*
X0125956Y0067144D01*
X0124515Y0065704D01*
X0104396Y0065704D01*
X0103023Y0067077D01*
X0103023Y0069538D01*
X0102459Y0069538D01*
X0102305Y0069691D01*
X0102305Y0069572D01*
X0102333Y0069542D01*
X0102305Y0069019D01*
X0102305Y0068494D01*
X0102277Y0068466D01*
X0102275Y0068425D01*
X0101885Y0068074D01*
X0101515Y0067704D01*
X0101474Y0067704D01*
X0097885Y0064468D01*
X0097515Y0064097D01*
X0097474Y0064097D01*
X0097444Y0064070D01*
X0096921Y0064097D01*
X0064465Y0064097D01*
X0064292Y0063681D01*
X0062942Y0062331D01*
X0061178Y0061600D01*
X0059268Y0061600D01*
X0057504Y0062331D01*
X0056154Y0063681D01*
X0055423Y0065445D01*
X0055423Y0067355D01*
X0056154Y0069119D01*
X0057504Y0070469D01*
X0059268Y0071200D01*
X0061178Y0071200D01*
X0062942Y0070469D01*
X0064292Y0069119D01*
X0065023Y0067355D01*
X0065023Y0066797D01*
X0096437Y0066797D01*
X0099477Y0069538D01*
X0098128Y0069538D01*
X0097877Y0069789D01*
X0097626Y0069538D01*
X0093797Y0069538D01*
X0093546Y0069789D01*
X0093295Y0069538D01*
X0089466Y0069538D01*
X0089215Y0069789D01*
X0088964Y0069538D01*
X0085136Y0069538D01*
X0084885Y0069789D01*
X0084634Y0069538D01*
X0080805Y0069538D01*
X0080554Y0069789D01*
X0080303Y0069538D01*
X0076474Y0069538D01*
X0076089Y0069923D01*
X0076089Y0067761D01*
X0075504Y0067176D01*
X0070675Y0067176D01*
X0070089Y0067761D01*
X0070089Y0074590D01*
X0070675Y0075176D01*
X0075504Y0075176D01*
X0075889Y0074791D01*
X0075889Y0076884D01*
X0067183Y0078365D01*
X0066689Y0078365D01*
X0066587Y0078466D01*
X0066446Y0078490D01*
X0066160Y0078893D01*
X0065810Y0079243D01*
X0065810Y0079387D01*
X0065727Y0079504D01*
X0065810Y0079991D01*
X0065810Y0088078D01*
X0065416Y0088472D01*
X0065416Y0097975D01*
X0064766Y0097975D01*
X0065023Y0097355D01*
X0065023Y0095445D01*
X0064292Y0093681D01*
X0062942Y0092331D01*
X0061178Y0091600D01*
X0059268Y0091600D01*
X0057504Y0092331D01*
X0056154Y0093681D01*
X0055423Y0095445D01*
X0055423Y0097355D01*
X0055680Y0097975D01*
X0038138Y0097975D01*
X0038407Y0097705D01*
X0038407Y0097346D01*
X0038411Y0097340D01*
X0038411Y0097340D01*
X0038411Y0097340D01*
X0038407Y0097329D01*
X0038407Y0095882D01*
X0037119Y0094594D01*
X0035296Y0094594D01*
X0034007Y0095882D01*
X0034007Y0097329D01*
X0034004Y0097340D01*
X0034007Y0097346D01*
X0034007Y0097705D01*
X0034277Y0097975D01*
X0010542Y0097975D01*
X0010542Y0084380D01*
X0010648Y0083956D01*
X0010542Y0083780D01*
X0010542Y0083574D01*
X0010233Y0083265D01*
X0008455Y0080302D01*
X0008565Y0079976D01*
X0008599Y0079875D01*
X0008880Y0079595D01*
X0008880Y0079045D01*
X0008963Y0078799D01*
X0008880Y0078631D01*
X0008908Y0078963D02*
X0010842Y0078963D01*
X0010842Y0078455D02*
X0004936Y0072550D01*
X0004936Y0062376D01*
X0005727Y0061585D01*
X0007302Y0060011D01*
X0008436Y0060011D01*
X0008436Y0058191D01*
X0009022Y0057605D01*
X0010692Y0057605D01*
X0010692Y0054409D01*
X0010453Y0053844D01*
X0010224Y0054073D01*
X0006679Y0054073D01*
X0006093Y0053487D01*
X0006093Y0048761D01*
X0006679Y0048176D01*
X0010224Y0048176D01*
X0010810Y0048761D01*
X0010810Y0049531D01*
X0011083Y0049624D01*
X0011632Y0049624D01*
X0011904Y0049897D01*
X0012543Y0050106D01*
X0013103Y0050106D01*
X0013376Y0050378D01*
X0013467Y0050408D01*
X0013529Y0050532D01*
X0013574Y0050576D01*
X0013574Y0048761D01*
X0014159Y0048176D01*
X0014532Y0048176D01*
X0014532Y0046804D01*
X0015352Y0045984D01*
X0015424Y0045912D01*
X0015602Y0045734D01*
X0015897Y0044858D01*
X0015897Y0044308D01*
X0016111Y0044094D01*
X0016111Y0041107D01*
X0015753Y0041107D01*
X0015753Y0044376D01*
X0014376Y0044376D01*
X0013995Y0044274D01*
X0013653Y0044077D01*
X0013452Y0043876D01*
X0010419Y0043876D01*
X0010322Y0043779D01*
X0010224Y0043876D01*
X0006679Y0043876D01*
X0006093Y0043291D01*
X0006093Y0038565D01*
X0006679Y0037979D01*
X0009129Y0037979D01*
X0008330Y0037179D01*
X0005574Y0034423D01*
X0005574Y0027668D01*
X0006452Y0026790D01*
X0008436Y0024806D01*
X0008436Y0022364D01*
X0009022Y0021778D01*
X0013787Y0021778D01*
X0014373Y0022364D01*
X0014373Y0023443D01*
X0016507Y0023443D01*
X0016507Y0022561D01*
X0017092Y0021975D01*
X0022252Y0021975D01*
X0022837Y0022561D01*
X0022837Y0027326D01*
X0022252Y0027912D01*
X0017092Y0027912D01*
X0016507Y0027326D01*
X0016507Y0026443D01*
X0014373Y0026443D01*
X0014373Y0027523D01*
X0013787Y0028109D01*
X0009376Y0028109D01*
X0008574Y0028911D01*
X0008574Y0028919D01*
X0009022Y0028471D01*
X0013787Y0028471D01*
X0014373Y0029057D01*
X0014373Y0029690D01*
X0014430Y0029633D01*
X0014789Y0029633D01*
X0014795Y0029630D01*
X0014795Y0029630D01*
X0014806Y0029633D01*
X0016253Y0029633D01*
X0016507Y0029887D01*
X0016507Y0029253D01*
X0017092Y0028668D01*
X0022252Y0028668D01*
X0022837Y0029253D01*
X0022837Y0034019D01*
X0022252Y0034605D01*
X0017092Y0034605D01*
X0016507Y0034019D01*
X0016507Y0033779D01*
X0016253Y0034033D01*
X0014806Y0034033D01*
X0014795Y0034036D01*
X0014789Y0034033D01*
X0014430Y0034033D01*
X0014373Y0033976D01*
X0014373Y0034216D01*
X0013787Y0034802D01*
X0010195Y0034802D01*
X0010451Y0035057D01*
X0011238Y0035057D01*
X0012192Y0036011D01*
X0012358Y0035845D01*
X0022656Y0035845D01*
X0023534Y0036724D01*
X0024337Y0037526D01*
X0028748Y0037526D01*
X0029333Y0038112D01*
X0029333Y0044452D01*
X0028748Y0045038D01*
X0023982Y0045038D01*
X0023396Y0044452D01*
X0023396Y0040828D01*
X0021413Y0038845D01*
X0018790Y0038845D01*
X0018790Y0040748D01*
X0016111Y0040748D01*
X0016111Y0041107D01*
X0018790Y0041107D01*
X0018790Y0043019D01*
X0019009Y0043019D01*
X0020297Y0044308D01*
X0020297Y0045731D01*
X0020459Y0045687D01*
X0022141Y0045687D01*
X0022141Y0049459D01*
X0023109Y0049459D01*
X0023109Y0045687D01*
X0024791Y0045687D01*
X0025172Y0045790D01*
X0025514Y0045987D01*
X0025794Y0046266D01*
X0025991Y0046608D01*
X0026093Y0046990D01*
X0026093Y0049459D01*
X0023109Y0049459D01*
X0023109Y0050428D01*
X0022141Y0050428D01*
X0022141Y0054199D01*
X0020459Y0054199D01*
X0020077Y0054097D01*
X0019735Y0053899D01*
X0019456Y0053620D01*
X0019259Y0053278D01*
X0019156Y0052897D01*
X0019156Y0050428D01*
X0022140Y0050428D01*
X0022140Y0049459D01*
X0019156Y0049459D01*
X0019156Y0047271D01*
X0019009Y0047419D01*
X0018458Y0047419D01*
X0017582Y0047714D01*
X0017404Y0047892D01*
X0017332Y0047964D01*
X0017332Y0048176D01*
X0017704Y0048176D01*
X0018290Y0048761D01*
X0018290Y0053487D01*
X0017704Y0054073D01*
X0014159Y0054073D01*
X0013930Y0053844D01*
X0013692Y0054409D01*
X0013692Y0057605D01*
X0013787Y0057605D01*
X0014373Y0058191D01*
X0014373Y0058476D01*
X0016737Y0058469D01*
X0016765Y0058443D01*
X0017353Y0058467D01*
X0017942Y0058465D01*
X0017969Y0058491D01*
X0018006Y0058493D01*
X0018406Y0058926D01*
X0018824Y0059341D01*
X0018824Y0059379D01*
X0018849Y0059406D01*
X0018826Y0059995D01*
X0018827Y0060584D01*
X0018801Y0060610D01*
X0018784Y0061041D01*
X0018660Y0061156D01*
X0018660Y0061174D01*
X0019510Y0062024D01*
X0019510Y0063847D01*
X0018221Y0065135D01*
X0016399Y0065135D01*
X0015110Y0063847D01*
X0015110Y0062024D01*
X0015662Y0061472D01*
X0014373Y0061476D01*
X0014373Y0063350D01*
X0013850Y0063873D01*
X0013952Y0063900D01*
X0014294Y0064097D01*
X0014573Y0064377D01*
X0014771Y0064719D01*
X0014873Y0065100D01*
X0014873Y0066979D01*
X0011889Y0066979D01*
X0011889Y0067947D01*
X0014873Y0067947D01*
X0014873Y0069826D01*
X0014771Y0070207D01*
X0014573Y0070549D01*
X0014294Y0070829D01*
X0013952Y0071026D01*
X0013570Y0071128D01*
X0011889Y0071128D01*
X0011889Y0067947D01*
X0010920Y0067947D01*
X0010920Y0066979D01*
X0007936Y0066979D01*
X0007936Y0065100D01*
X0008038Y0064719D01*
X0008236Y0064377D01*
X0008515Y0064097D01*
X0008857Y0063900D01*
X0008959Y0063873D01*
X0008436Y0063350D01*
X0008436Y0062711D01*
X0008420Y0062711D01*
X0007636Y0063495D01*
X0007636Y0071431D01*
X0012751Y0076546D01*
X0013542Y0077337D01*
X0013542Y0089341D01*
X0015326Y0089341D01*
X0015326Y0088309D01*
X0015911Y0087723D01*
X0021071Y0087723D01*
X0021656Y0088309D01*
X0021656Y0093074D01*
X0021071Y0093660D01*
X0015911Y0093660D01*
X0015326Y0093074D01*
X0015326Y0092041D01*
X0011829Y0092041D01*
X0011039Y0091251D01*
X0010842Y0091054D01*
X0010842Y0078455D01*
X0010351Y0077964D02*
X0008880Y0077964D01*
X0009352Y0076966D02*
X0008073Y0076966D01*
X0008354Y0075967D02*
X0003805Y0075967D01*
X0003805Y0074969D02*
X0007355Y0074969D01*
X0006357Y0073970D02*
X0003805Y0073970D01*
X0003805Y0072972D02*
X0005358Y0072972D01*
X0004936Y0071973D02*
X0003805Y0071973D01*
X0003805Y0070975D02*
X0004936Y0070975D01*
X0004936Y0069976D02*
X0003805Y0069976D01*
X0003805Y0068978D02*
X0004936Y0068978D01*
X0004936Y0067979D02*
X0003805Y0067979D01*
X0003805Y0066981D02*
X0004936Y0066981D01*
X0004936Y0065982D02*
X0003805Y0065982D01*
X0003805Y0064984D02*
X0004936Y0064984D01*
X0004936Y0063985D02*
X0003805Y0063985D01*
X0003805Y0062987D02*
X0004936Y0062987D01*
X0005324Y0061988D02*
X0003805Y0061988D01*
X0003805Y0060990D02*
X0006323Y0060990D01*
X0008436Y0059991D02*
X0003805Y0059991D01*
X0003805Y0058993D02*
X0008436Y0058993D01*
X0008632Y0057994D02*
X0003805Y0057994D01*
X0003805Y0056995D02*
X0010692Y0056995D01*
X0010692Y0055997D02*
X0003805Y0055997D01*
X0003805Y0054998D02*
X0010692Y0054998D01*
X0010519Y0054000D02*
X0010297Y0054000D01*
X0011563Y0052614D02*
X0010833Y0051124D01*
X0012409Y0051640D01*
X0012192Y0052306D01*
X0012837Y0052578D01*
X0012192Y0054106D01*
X0011547Y0052578D01*
X0012192Y0052306D01*
X0011563Y0052614D01*
X0012192Y0052306D02*
X0012192Y0054106D01*
X0012192Y0059983D01*
X0017326Y0059967D01*
X0017310Y0060361D01*
X0018826Y0059991D02*
X0022609Y0059991D01*
X0022609Y0058993D02*
X0018473Y0058993D01*
X0018786Y0060990D02*
X0022609Y0060990D01*
X0022609Y0061988D02*
X0019474Y0061988D01*
X0019510Y0062987D02*
X0022609Y0062987D01*
X0022609Y0063985D02*
X0019371Y0063985D01*
X0018373Y0064984D02*
X0022668Y0064984D01*
X0022609Y0064924D02*
X0022609Y0058584D01*
X0023195Y0057998D01*
X0028605Y0057998D01*
X0028605Y0053699D01*
X0027722Y0053699D01*
X0027137Y0053113D01*
X0027137Y0046773D01*
X0027722Y0046187D01*
X0032488Y0046187D01*
X0033074Y0046773D01*
X0033074Y0048120D01*
X0033431Y0047762D01*
X0041346Y0047762D01*
X0041932Y0048348D01*
X0041932Y0050018D01*
X0042294Y0050018D01*
X0042294Y0048348D01*
X0042880Y0047762D01*
X0050795Y0047762D01*
X0051381Y0048348D01*
X0051381Y0054357D01*
X0052577Y0055554D01*
X0053455Y0056432D01*
X0053455Y0073675D01*
X0052577Y0074554D01*
X0051455Y0075675D01*
X0051381Y0075750D01*
X0051381Y0078310D01*
X0050795Y0078896D01*
X0042880Y0078896D01*
X0042294Y0078310D01*
X0042294Y0071970D01*
X0042880Y0071384D01*
X0050456Y0071384D01*
X0050456Y0065510D01*
X0042880Y0065510D01*
X0042294Y0064924D01*
X0042294Y0063254D01*
X0041932Y0063254D01*
X0041932Y0064924D01*
X0041346Y0065510D01*
X0033431Y0065510D01*
X0032845Y0064924D01*
X0032845Y0058584D01*
X0033431Y0057998D01*
X0041346Y0057998D01*
X0041932Y0058584D01*
X0041932Y0060254D01*
X0042294Y0060254D01*
X0042294Y0058584D01*
X0042880Y0057998D01*
X0050456Y0057998D01*
X0050456Y0057675D01*
X0048055Y0055274D01*
X0042880Y0055274D01*
X0042294Y0054688D01*
X0042294Y0053018D01*
X0041932Y0053018D01*
X0041932Y0054688D01*
X0041346Y0055274D01*
X0033431Y0055274D01*
X0032845Y0054688D01*
X0032845Y0053342D01*
X0032488Y0053699D01*
X0031605Y0053699D01*
X0031605Y0058494D01*
X0031696Y0058584D01*
X0031696Y0064924D01*
X0031110Y0065510D01*
X0023195Y0065510D01*
X0022609Y0064924D01*
X0023412Y0070884D02*
X0026652Y0070884D01*
X0026652Y0074640D01*
X0022109Y0074640D01*
X0022109Y0072187D01*
X0022211Y0071805D01*
X0022409Y0071463D01*
X0022688Y0071184D01*
X0023030Y0070986D01*
X0023412Y0070884D01*
X0023074Y0070975D02*
X0014041Y0070975D01*
X0014833Y0069976D02*
X0050456Y0069976D01*
X0050456Y0068978D02*
X0014873Y0068978D01*
X0014873Y0067979D02*
X0050456Y0067979D01*
X0050456Y0066981D02*
X0011889Y0066981D01*
X0010920Y0066981D02*
X0007636Y0066981D01*
X0007636Y0067979D02*
X0007936Y0067979D01*
X0007936Y0067947D02*
X0010920Y0067947D01*
X0010920Y0071128D01*
X0009238Y0071128D01*
X0008857Y0071026D01*
X0008515Y0070829D01*
X0008236Y0070549D01*
X0008038Y0070207D01*
X0007936Y0069826D01*
X0007936Y0067947D01*
X0007936Y0068978D02*
X0007636Y0068978D01*
X0007636Y0069976D02*
X0007976Y0069976D01*
X0007636Y0070975D02*
X0008768Y0070975D01*
X0008178Y0071973D02*
X0022166Y0071973D01*
X0022109Y0072972D02*
X0009177Y0072972D01*
X0010175Y0073970D02*
X0022109Y0073970D01*
X0022109Y0075640D02*
X0022109Y0078094D01*
X0022211Y0078475D01*
X0022409Y0078817D01*
X0022688Y0079096D01*
X0023030Y0079294D01*
X0023412Y0079396D01*
X0026652Y0079396D01*
X0026652Y0075640D01*
X0026652Y0074640D01*
X0027652Y0074640D01*
X0027652Y0070884D01*
X0030893Y0070884D01*
X0031275Y0070986D01*
X0031617Y0071184D01*
X0031896Y0071463D01*
X0032093Y0071805D01*
X0032196Y0072187D01*
X0032196Y0074640D01*
X0027652Y0074640D01*
X0027652Y0075640D01*
X0026652Y0075640D01*
X0022109Y0075640D01*
X0022109Y0075967D02*
X0012172Y0075967D01*
X0011174Y0074969D02*
X0026652Y0074969D01*
X0026652Y0075967D02*
X0027652Y0075967D01*
X0027652Y0075640D02*
X0027652Y0079396D01*
X0030893Y0079396D01*
X0031275Y0079294D01*
X0031617Y0079096D01*
X0031896Y0078817D01*
X0032093Y0078475D01*
X0032196Y0078094D01*
X0032196Y0075640D01*
X0027652Y0075640D01*
X0027652Y0074969D02*
X0032845Y0074969D01*
X0032845Y0075967D02*
X0032196Y0075967D01*
X0032196Y0076966D02*
X0032845Y0076966D01*
X0032845Y0077964D02*
X0032196Y0077964D01*
X0032845Y0078310D02*
X0032845Y0071970D01*
X0033431Y0071384D01*
X0041346Y0071384D01*
X0041932Y0071970D01*
X0041932Y0078310D01*
X0041346Y0078896D01*
X0038739Y0078896D01*
X0038739Y0082195D01*
X0037995Y0082939D01*
X0037995Y0086578D01*
X0037472Y0087101D01*
X0037574Y0087128D01*
X0037916Y0087326D01*
X0038195Y0087605D01*
X0038393Y0087947D01*
X0038495Y0088328D01*
X0038495Y0090207D01*
X0035511Y0090207D01*
X0035511Y0091176D01*
X0034542Y0091176D01*
X0034542Y0094357D01*
X0032860Y0094357D01*
X0032479Y0094254D01*
X0032137Y0094057D01*
X0031858Y0093778D01*
X0031660Y0093436D01*
X0031558Y0093054D01*
X0031558Y0091176D01*
X0034542Y0091176D01*
X0034542Y0090207D01*
X0031558Y0090207D01*
X0031558Y0088328D01*
X0031660Y0087947D01*
X0031858Y0087605D01*
X0032137Y0087326D01*
X0032479Y0087128D01*
X0032581Y0087101D01*
X0032058Y0086578D01*
X0032058Y0085348D01*
X0029924Y0085348D01*
X0029924Y0086381D01*
X0029338Y0086967D01*
X0024179Y0086967D01*
X0023593Y0086381D01*
X0023593Y0085348D01*
X0021656Y0085348D01*
X0021656Y0086381D01*
X0021071Y0086967D01*
X0015911Y0086967D01*
X0015326Y0086381D01*
X0015326Y0081616D01*
X0015911Y0081030D01*
X0021071Y0081030D01*
X0021656Y0081616D01*
X0021656Y0082648D01*
X0023593Y0082648D01*
X0023593Y0081616D01*
X0024179Y0081030D01*
X0029338Y0081030D01*
X0029924Y0081616D01*
X0029924Y0082648D01*
X0032058Y0082648D01*
X0032058Y0081419D01*
X0032644Y0080833D01*
X0036039Y0080833D01*
X0036039Y0078896D01*
X0033431Y0078896D01*
X0032845Y0078310D01*
X0031750Y0078963D02*
X0036039Y0078963D01*
X0036039Y0079961D02*
X0013542Y0079961D01*
X0013542Y0078963D02*
X0022554Y0078963D01*
X0022109Y0077964D02*
X0013542Y0077964D01*
X0013171Y0076966D02*
X0022109Y0076966D01*
X0021656Y0081958D02*
X0023593Y0081958D01*
X0023593Y0085952D02*
X0021656Y0085952D01*
X0021087Y0086951D02*
X0024163Y0086951D01*
X0024396Y0087223D02*
X0026274Y0087223D01*
X0026274Y0090207D01*
X0023093Y0090207D01*
X0023093Y0088525D01*
X0023196Y0088144D01*
X0023393Y0087802D01*
X0023672Y0087523D01*
X0024014Y0087325D01*
X0024396Y0087223D01*
X0023308Y0087949D02*
X0021297Y0087949D01*
X0021656Y0088948D02*
X0023093Y0088948D01*
X0023093Y0089946D02*
X0021656Y0089946D01*
X0021656Y0090945D02*
X0026274Y0090945D01*
X0026274Y0091176D02*
X0026274Y0090207D01*
X0027243Y0090207D01*
X0027243Y0091176D01*
X0026274Y0091176D01*
X0026274Y0094160D01*
X0024396Y0094160D01*
X0024014Y0094058D01*
X0023672Y0093860D01*
X0023393Y0093581D01*
X0023196Y0093239D01*
X0023093Y0092857D01*
X0023093Y0091176D01*
X0026274Y0091176D01*
X0026274Y0091943D02*
X0027243Y0091943D01*
X0027243Y0091176D02*
X0027243Y0094160D01*
X0029121Y0094160D01*
X0029503Y0094058D01*
X0029845Y0093860D01*
X0030124Y0093581D01*
X0030322Y0093239D01*
X0030424Y0092857D01*
X0030424Y0091176D01*
X0027243Y0091176D01*
X0027243Y0090945D02*
X0034542Y0090945D01*
X0035511Y0090945D02*
X0058653Y0090945D01*
X0059268Y0091200D02*
X0057504Y0090469D01*
X0056154Y0089119D01*
X0055423Y0087355D01*
X0055423Y0085445D01*
X0056154Y0083681D01*
X0057504Y0082331D01*
X0059268Y0081600D01*
X0061178Y0081600D01*
X0062942Y0082331D01*
X0064292Y0083681D01*
X0065023Y0085445D01*
X0065023Y0087355D01*
X0064292Y0089119D01*
X0062942Y0090469D01*
X0061178Y0091200D01*
X0059268Y0091200D01*
X0058439Y0091943D02*
X0038495Y0091943D01*
X0038495Y0091176D02*
X0038495Y0093054D01*
X0038393Y0093436D01*
X0038195Y0093778D01*
X0037916Y0094057D01*
X0037574Y0094254D01*
X0037192Y0094357D01*
X0035511Y0094357D01*
X0035511Y0091176D01*
X0038495Y0091176D01*
X0038495Y0089946D02*
X0056981Y0089946D01*
X0056083Y0088948D02*
X0038495Y0088948D01*
X0038393Y0087949D02*
X0055670Y0087949D01*
X0055423Y0086951D02*
X0037622Y0086951D01*
X0037995Y0085952D02*
X0055423Y0085952D01*
X0055627Y0084954D02*
X0037995Y0084954D01*
X0037995Y0083955D02*
X0056040Y0083955D01*
X0056878Y0082957D02*
X0037995Y0082957D01*
X0038739Y0081958D02*
X0058404Y0081958D01*
X0058688Y0080960D02*
X0038739Y0080960D01*
X0038739Y0079961D02*
X0056996Y0079961D01*
X0057504Y0080469D02*
X0056154Y0079119D01*
X0055423Y0077355D01*
X0055423Y0075445D01*
X0056154Y0073681D01*
X0057504Y0072331D01*
X0059268Y0071600D01*
X0061178Y0071600D01*
X0062942Y0072331D01*
X0064292Y0073681D01*
X0065023Y0075445D01*
X0065023Y0077355D01*
X0064292Y0079119D01*
X0062942Y0080469D01*
X0061178Y0081200D01*
X0059268Y0081200D01*
X0057504Y0080469D01*
X0056089Y0078963D02*
X0038739Y0078963D01*
X0041932Y0077964D02*
X0042294Y0077964D01*
X0042294Y0076966D02*
X0041932Y0076966D01*
X0041932Y0075967D02*
X0042294Y0075967D01*
X0042294Y0074969D02*
X0041932Y0074969D01*
X0041932Y0073970D02*
X0042294Y0073970D01*
X0042294Y0072972D02*
X0041932Y0072972D01*
X0041932Y0071973D02*
X0042294Y0071973D01*
X0046837Y0075140D02*
X0046924Y0075054D01*
X0049956Y0075054D01*
X0051956Y0073054D01*
X0051956Y0057054D01*
X0046837Y0051935D01*
X0046837Y0051518D01*
X0037389Y0051518D01*
X0036924Y0051054D01*
X0032956Y0051054D01*
X0031845Y0049943D01*
X0030105Y0049943D01*
X0030105Y0058802D01*
X0027152Y0061754D01*
X0028605Y0057994D02*
X0014176Y0057994D01*
X0013692Y0056995D02*
X0028605Y0056995D01*
X0028605Y0055997D02*
X0013692Y0055997D01*
X0013692Y0054998D02*
X0028605Y0054998D01*
X0028605Y0054000D02*
X0025340Y0054000D01*
X0025172Y0054097D02*
X0025514Y0053899D01*
X0025794Y0053620D01*
X0025991Y0053278D01*
X0026093Y0052897D01*
X0026093Y0050428D01*
X0023109Y0050428D01*
X0023109Y0054199D01*
X0024791Y0054199D01*
X0025172Y0054097D01*
X0026065Y0053001D02*
X0027137Y0053001D01*
X0027137Y0052003D02*
X0026093Y0052003D01*
X0026093Y0051004D02*
X0027137Y0051004D01*
X0027137Y0050006D02*
X0023109Y0050006D01*
X0022625Y0049943D02*
X0021956Y0049274D01*
X0021956Y0046054D01*
X0021318Y0043447D01*
X0020004Y0044015D02*
X0023396Y0044015D01*
X0023396Y0043016D02*
X0018790Y0043016D01*
X0018790Y0042018D02*
X0023396Y0042018D01*
X0023396Y0041019D02*
X0016111Y0041019D01*
X0016111Y0042018D02*
X0015753Y0042018D01*
X0015753Y0043016D02*
X0016111Y0043016D01*
X0016111Y0044015D02*
X0015753Y0044015D01*
X0015845Y0045013D02*
X0003805Y0045013D01*
X0003805Y0044015D02*
X0013591Y0044015D01*
X0015424Y0045912D02*
X0015424Y0045912D01*
X0015352Y0045984D02*
X0015352Y0045984D01*
X0015324Y0046012D02*
X0003805Y0046012D01*
X0003805Y0047010D02*
X0014532Y0047010D01*
X0014532Y0048009D02*
X0003805Y0048009D01*
X0003805Y0049007D02*
X0006093Y0049007D01*
X0006093Y0050006D02*
X0003805Y0050006D01*
X0003805Y0051004D02*
X0006093Y0051004D01*
X0006093Y0052003D02*
X0003805Y0052003D01*
X0003805Y0053001D02*
X0006093Y0053001D01*
X0006606Y0054000D02*
X0003805Y0054000D01*
X0008452Y0051124D02*
X0010833Y0051124D01*
X0011011Y0051124D01*
X0012192Y0052306D01*
X0013467Y0050408D02*
X0013467Y0050408D01*
X0013467Y0050408D01*
X0013574Y0050006D02*
X0012238Y0050006D01*
X0013574Y0049007D02*
X0010810Y0049007D01*
X0013864Y0054000D02*
X0014086Y0054000D01*
X0017778Y0054000D02*
X0019909Y0054000D01*
X0019184Y0053001D02*
X0018290Y0053001D01*
X0018290Y0052003D02*
X0019156Y0052003D01*
X0019156Y0051004D02*
X0018290Y0051004D01*
X0018290Y0050006D02*
X0022140Y0050006D01*
X0022141Y0051004D02*
X0023109Y0051004D01*
X0023109Y0052003D02*
X0022141Y0052003D01*
X0022141Y0053001D02*
X0023109Y0053001D01*
X0023109Y0054000D02*
X0022141Y0054000D01*
X0022141Y0049007D02*
X0023109Y0049007D01*
X0023109Y0048009D02*
X0022141Y0048009D01*
X0022141Y0047010D02*
X0023109Y0047010D01*
X0023109Y0046012D02*
X0022141Y0046012D01*
X0023958Y0045013D02*
X0020297Y0045013D01*
X0019156Y0048009D02*
X0017332Y0048009D01*
X0017404Y0047892D02*
X0017404Y0047892D01*
X0018290Y0049007D02*
X0019156Y0049007D01*
X0026093Y0049007D02*
X0027137Y0049007D01*
X0027137Y0048009D02*
X0026093Y0048009D01*
X0026093Y0047010D02*
X0027137Y0047010D01*
X0025539Y0046012D02*
X0055423Y0046012D01*
X0055423Y0045445D02*
X0056154Y0043681D01*
X0057504Y0042331D01*
X0059268Y0041600D01*
X0061178Y0041600D01*
X0062942Y0042331D01*
X0064292Y0043681D01*
X0065023Y0045445D01*
X0065023Y0047355D01*
X0064292Y0049119D01*
X0062942Y0050469D01*
X0061178Y0051200D01*
X0059268Y0051200D01*
X0057504Y0050469D01*
X0056154Y0049119D01*
X0055423Y0047355D01*
X0055423Y0045445D01*
X0055602Y0045013D02*
X0028772Y0045013D01*
X0029333Y0044015D02*
X0056016Y0044015D01*
X0056819Y0043016D02*
X0029333Y0043016D01*
X0029333Y0042018D02*
X0058260Y0042018D01*
X0058832Y0041019D02*
X0051381Y0041019D01*
X0051381Y0041302D02*
X0050795Y0041888D01*
X0042880Y0041888D01*
X0042294Y0041302D01*
X0042294Y0034962D01*
X0042880Y0034376D01*
X0046723Y0034376D01*
X0051129Y0029971D01*
X0057006Y0029971D01*
X0056154Y0029119D01*
X0055423Y0027355D01*
X0055423Y0025445D01*
X0056154Y0023681D01*
X0057504Y0022331D01*
X0059268Y0021600D01*
X0061178Y0021600D01*
X0062942Y0022331D01*
X0064292Y0023681D01*
X0065023Y0025445D01*
X0065023Y0027355D01*
X0064292Y0029119D01*
X0063487Y0029924D01*
X0064213Y0029536D01*
X0064627Y0029121D01*
X0064986Y0029121D01*
X0064992Y0029118D01*
X0064992Y0029118D01*
X0065003Y0029121D01*
X0066449Y0029121D01*
X0067738Y0030410D01*
X0067738Y0032233D01*
X0066449Y0033521D01*
X0065003Y0033521D01*
X0064992Y0033525D01*
X0064986Y0033521D01*
X0064627Y0033521D01*
X0064213Y0033107D01*
X0063399Y0032671D01*
X0063283Y0032671D01*
X0064061Y0033450D01*
X0064111Y0033466D01*
X0064147Y0033536D01*
X0064292Y0033681D01*
X0064582Y0034379D01*
X0064850Y0034900D01*
X0068956Y0034900D01*
X0068956Y0021639D01*
X0069541Y0021054D01*
X0079370Y0021054D01*
X0079955Y0021639D01*
X0079955Y0038468D01*
X0079370Y0039054D01*
X0069541Y0039054D01*
X0068956Y0038468D01*
X0068956Y0037900D01*
X0064850Y0037900D01*
X0064628Y0038330D01*
X0064582Y0038421D01*
X0064292Y0039119D01*
X0064147Y0039264D01*
X0064111Y0039334D01*
X0064061Y0039350D01*
X0062942Y0040469D01*
X0061178Y0041200D01*
X0059268Y0041200D01*
X0057504Y0040469D01*
X0056154Y0039119D01*
X0055423Y0037355D01*
X0055423Y0035445D01*
X0056154Y0033681D01*
X0057164Y0032671D01*
X0052247Y0032671D01*
X0050542Y0034376D01*
X0050795Y0034376D01*
X0051381Y0034962D01*
X0051381Y0041302D01*
X0051381Y0040021D02*
X0057056Y0040021D01*
X0056114Y0039022D02*
X0051381Y0039022D01*
X0051381Y0038024D02*
X0055700Y0038024D01*
X0055423Y0037025D02*
X0051381Y0037025D01*
X0051381Y0036027D02*
X0055423Y0036027D01*
X0055596Y0035028D02*
X0051381Y0035028D01*
X0050888Y0034030D02*
X0056010Y0034030D01*
X0056804Y0033031D02*
X0051887Y0033031D01*
X0050066Y0031034D02*
X0039434Y0031034D01*
X0039432Y0031039D02*
X0039454Y0031286D01*
X0039064Y0031752D01*
X0038889Y0032090D01*
X0038889Y0034376D01*
X0041346Y0034376D01*
X0041932Y0034962D01*
X0041932Y0041302D01*
X0041346Y0041888D01*
X0033431Y0041888D01*
X0032845Y0041302D01*
X0032845Y0034962D01*
X0033431Y0034376D01*
X0035889Y0034376D01*
X0035889Y0032113D01*
X0035734Y0032033D01*
X0022837Y0032033D01*
X0022837Y0033031D02*
X0035889Y0033031D01*
X0035889Y0034030D02*
X0022827Y0034030D01*
X0022837Y0036027D02*
X0032845Y0036027D01*
X0032845Y0037025D02*
X0023836Y0037025D01*
X0022034Y0037345D02*
X0012979Y0037345D01*
X0012192Y0038132D01*
X0012192Y0040928D01*
X0012192Y0038132D02*
X0010617Y0036557D01*
X0009830Y0036557D01*
X0007074Y0033802D01*
X0007074Y0028290D01*
X0010420Y0024943D01*
X0011404Y0024943D01*
X0019672Y0024943D01*
X0017020Y0022048D02*
X0014057Y0022048D01*
X0014373Y0023046D02*
X0016507Y0023046D01*
X0016507Y0027040D02*
X0014373Y0027040D01*
X0013857Y0028039D02*
X0032279Y0028039D01*
X0032101Y0027610D02*
X0032101Y0025820D01*
X0032786Y0024166D01*
X0034052Y0022900D01*
X0035706Y0022215D01*
X0037496Y0022215D01*
X0039150Y0022900D01*
X0040416Y0024166D01*
X0041101Y0025820D01*
X0041101Y0027610D01*
X0040954Y0027966D01*
X0040979Y0028045D01*
X0040945Y0028111D01*
X0040686Y0028612D01*
X0040416Y0029264D01*
X0040278Y0029402D01*
X0039432Y0031039D01*
X0038918Y0032033D02*
X0049067Y0032033D01*
X0048069Y0033031D02*
X0038889Y0033031D01*
X0038889Y0034030D02*
X0047070Y0034030D01*
X0042294Y0035028D02*
X0041932Y0035028D01*
X0041932Y0036027D02*
X0042294Y0036027D01*
X0042294Y0037025D02*
X0041932Y0037025D01*
X0041932Y0038024D02*
X0042294Y0038024D01*
X0042294Y0039022D02*
X0041932Y0039022D01*
X0041932Y0040021D02*
X0042294Y0040021D01*
X0042294Y0041019D02*
X0041932Y0041019D01*
X0037389Y0038132D02*
X0037389Y0030637D01*
X0037389Y0027502D01*
X0036601Y0026715D01*
X0032423Y0025043D02*
X0022837Y0025043D01*
X0022837Y0024045D02*
X0032908Y0024045D01*
X0033906Y0023046D02*
X0022837Y0023046D01*
X0022324Y0022048D02*
X0058188Y0022048D01*
X0056789Y0023046D02*
X0039296Y0023046D01*
X0040295Y0024045D02*
X0056003Y0024045D01*
X0055590Y0025043D02*
X0040779Y0025043D01*
X0041101Y0026042D02*
X0055423Y0026042D01*
X0055423Y0027040D02*
X0041101Y0027040D01*
X0040977Y0028039D02*
X0055707Y0028039D01*
X0056120Y0029037D02*
X0040510Y0029037D01*
X0039950Y0030036D02*
X0051064Y0030036D01*
X0060223Y0036400D02*
X0063373Y0036400D01*
X0070751Y0036400D01*
X0074452Y0032699D01*
X0068956Y0033031D02*
X0066939Y0033031D01*
X0067738Y0032033D02*
X0068956Y0032033D01*
X0068956Y0031034D02*
X0067738Y0031034D01*
X0067364Y0030036D02*
X0068956Y0030036D01*
X0068956Y0029037D02*
X0064326Y0029037D01*
X0064992Y0029118D02*
X0064992Y0029118D01*
X0064740Y0028039D02*
X0068956Y0028039D01*
X0068956Y0027040D02*
X0065023Y0027040D01*
X0065023Y0026042D02*
X0068956Y0026042D01*
X0068956Y0025043D02*
X0064857Y0025043D01*
X0064443Y0024045D02*
X0068956Y0024045D01*
X0068956Y0023046D02*
X0063658Y0023046D01*
X0062259Y0022048D02*
X0068956Y0022048D01*
X0068956Y0034030D02*
X0064437Y0034030D01*
X0064992Y0033525D02*
X0064992Y0033525D01*
X0064992Y0033525D01*
X0064071Y0033031D02*
X0063643Y0033031D01*
X0064786Y0038024D02*
X0068956Y0038024D01*
X0069510Y0039022D02*
X0064333Y0039022D01*
X0063391Y0040021D02*
X0123609Y0040021D01*
X0123609Y0041019D02*
X0061614Y0041019D01*
X0062187Y0042018D02*
X0123609Y0042018D01*
X0123609Y0043016D02*
X0063628Y0043016D01*
X0064431Y0044015D02*
X0123609Y0044015D01*
X0125578Y0041019D02*
X0148832Y0041019D01*
X0149268Y0041200D02*
X0147504Y0040469D01*
X0146154Y0039119D01*
X0145423Y0037355D01*
X0145423Y0035445D01*
X0146154Y0033681D01*
X0147504Y0032331D01*
X0149268Y0031600D01*
X0151178Y0031600D01*
X0152942Y0032331D01*
X0154292Y0033681D01*
X0155023Y0035445D01*
X0155023Y0037355D01*
X0154292Y0039119D01*
X0152942Y0040469D01*
X0151178Y0041200D01*
X0149268Y0041200D01*
X0149268Y0041600D02*
X0151178Y0041600D01*
X0152942Y0042331D01*
X0154292Y0043681D01*
X0155023Y0045445D01*
X0155023Y0047355D01*
X0154292Y0049119D01*
X0152942Y0050469D01*
X0151178Y0051200D01*
X0149268Y0051200D01*
X0147504Y0050469D01*
X0146154Y0049119D01*
X0145423Y0047355D01*
X0145423Y0045445D01*
X0146154Y0043681D01*
X0147504Y0042331D01*
X0149268Y0041600D01*
X0148260Y0042018D02*
X0133453Y0042018D01*
X0133458Y0043016D02*
X0146819Y0043016D01*
X0146016Y0044015D02*
X0133462Y0044015D01*
X0133467Y0045013D02*
X0145602Y0045013D01*
X0145423Y0046012D02*
X0133471Y0046012D01*
X0133476Y0047010D02*
X0145423Y0047010D01*
X0145694Y0048009D02*
X0133480Y0048009D01*
X0133485Y0049007D02*
X0146108Y0049007D01*
X0147041Y0050006D02*
X0133489Y0050006D01*
X0133494Y0051004D02*
X0148796Y0051004D01*
X0149268Y0051600D02*
X0151178Y0051600D01*
X0152942Y0052331D01*
X0154292Y0053681D01*
X0155023Y0055445D01*
X0155023Y0057355D01*
X0154292Y0059119D01*
X0152942Y0060469D01*
X0151178Y0061200D01*
X0149268Y0061200D01*
X0147504Y0060469D01*
X0146154Y0059119D01*
X0145423Y0057355D01*
X0145423Y0055445D01*
X0146154Y0053681D01*
X0147504Y0052331D01*
X0149268Y0051600D01*
X0148296Y0052003D02*
X0133498Y0052003D01*
X0133503Y0053001D02*
X0146834Y0053001D01*
X0146022Y0054000D02*
X0133507Y0054000D01*
X0133512Y0054998D02*
X0145608Y0054998D01*
X0145423Y0055997D02*
X0133516Y0055997D01*
X0133521Y0056995D02*
X0145423Y0056995D01*
X0145688Y0057994D02*
X0133525Y0057994D01*
X0133530Y0058993D02*
X0146102Y0058993D01*
X0147026Y0059991D02*
X0133534Y0059991D01*
X0133539Y0060990D02*
X0148760Y0060990D01*
X0149268Y0061600D02*
X0151178Y0061600D01*
X0152942Y0062331D01*
X0154292Y0063681D01*
X0155023Y0065445D01*
X0155023Y0067027D01*
X0155047Y0067074D01*
X0155047Y0067074D01*
X0155047Y0067074D01*
X0155023Y0067149D01*
X0155023Y0067355D01*
X0154734Y0068053D01*
X0154555Y0068611D01*
X0162339Y0076394D01*
X0162716Y0076771D01*
X0163349Y0077271D01*
X0164200Y0077271D01*
X0164785Y0077857D01*
X0164785Y0081085D01*
X0164200Y0081671D01*
X0160971Y0081671D01*
X0160385Y0081085D01*
X0160385Y0079585D01*
X0160281Y0078579D01*
X0160217Y0078515D01*
X0152434Y0070732D01*
X0151876Y0070911D01*
X0151178Y0071200D01*
X0150973Y0071200D01*
X0150897Y0071224D01*
X0150851Y0071200D01*
X0149268Y0071200D01*
X0147504Y0070469D01*
X0146154Y0069119D01*
X0145423Y0067355D01*
X0145423Y0065445D01*
X0146154Y0063681D01*
X0147504Y0062331D01*
X0149268Y0061600D01*
X0148332Y0061988D02*
X0133543Y0061988D01*
X0133548Y0062987D02*
X0146848Y0062987D01*
X0146028Y0063985D02*
X0133552Y0063985D01*
X0133557Y0064984D02*
X0145614Y0064984D01*
X0145423Y0065982D02*
X0133561Y0065982D01*
X0133566Y0066981D02*
X0145423Y0066981D01*
X0145682Y0067979D02*
X0135963Y0067979D01*
X0136357Y0068978D02*
X0146095Y0068978D01*
X0147011Y0069976D02*
X0136357Y0069976D01*
X0136357Y0070975D02*
X0148724Y0070975D01*
X0148368Y0071973D02*
X0133588Y0071973D01*
X0136357Y0072972D02*
X0146863Y0072972D01*
X0146034Y0073970D02*
X0136357Y0073970D01*
X0136357Y0074969D02*
X0145621Y0074969D01*
X0145423Y0075967D02*
X0136006Y0075967D01*
X0136332Y0082422D02*
X0133635Y0082436D01*
X0133642Y0083916D01*
X0136453Y0083916D01*
X0136496Y0083879D01*
X0137005Y0083916D01*
X0137515Y0083916D01*
X0137555Y0083956D01*
X0137611Y0083960D01*
X0137945Y0084346D01*
X0138305Y0084707D01*
X0138305Y0084764D01*
X0141579Y0088552D01*
X0142323Y0088838D01*
X0136332Y0082422D01*
X0136832Y0082957D02*
X0133638Y0082957D01*
X0133654Y0086616D02*
X0133782Y0115057D01*
X0140097Y0115057D01*
X0140975Y0115936D01*
X0144939Y0119900D01*
X0146935Y0119900D01*
X0146154Y0119119D01*
X0145423Y0117355D01*
X0145423Y0115445D01*
X0146154Y0113681D01*
X0147504Y0112331D01*
X0149243Y0111611D01*
X0148982Y0111569D01*
X0148189Y0111312D01*
X0147445Y0110933D01*
X0146771Y0110443D01*
X0146181Y0109853D01*
X0145690Y0109178D01*
X0145312Y0108434D01*
X0145054Y0107641D01*
X0144923Y0106817D01*
X0144923Y0106687D01*
X0149936Y0106687D01*
X0149936Y0106113D01*
X0144923Y0106113D01*
X0144923Y0105983D01*
X0145054Y0105159D01*
X0145312Y0104366D01*
X0145690Y0103622D01*
X0146181Y0102947D01*
X0146771Y0102357D01*
X0147445Y0101867D01*
X0148189Y0101488D01*
X0148982Y0101230D01*
X0149243Y0101189D01*
X0147504Y0100469D01*
X0146154Y0099119D01*
X0145423Y0097355D01*
X0145423Y0095445D01*
X0146154Y0093681D01*
X0146511Y0093324D01*
X0144155Y0090801D01*
X0144155Y0091965D01*
X0142867Y0093254D01*
X0141044Y0093254D01*
X0139756Y0091965D01*
X0139756Y0091297D01*
X0139536Y0090318D01*
X0136338Y0086616D01*
X0133654Y0086616D01*
X0133656Y0086951D02*
X0136627Y0086951D01*
X0137490Y0087949D02*
X0133660Y0087949D01*
X0133665Y0088948D02*
X0138352Y0088948D01*
X0139215Y0089946D02*
X0133669Y0089946D01*
X0133674Y0090945D02*
X0139676Y0090945D01*
X0139756Y0091943D02*
X0133678Y0091943D01*
X0133683Y0092942D02*
X0140733Y0092942D01*
X0143178Y0092942D02*
X0146155Y0092942D01*
X0146047Y0093940D02*
X0133687Y0093940D01*
X0133692Y0094939D02*
X0145633Y0094939D01*
X0145423Y0095937D02*
X0133696Y0095937D01*
X0133701Y0096936D02*
X0145423Y0096936D01*
X0145663Y0097934D02*
X0133705Y0097934D01*
X0133710Y0098933D02*
X0146077Y0098933D01*
X0146966Y0099931D02*
X0133714Y0099931D01*
X0133719Y0100930D02*
X0148617Y0100930D01*
X0147361Y0101928D02*
X0133723Y0101928D01*
X0133728Y0102927D02*
X0146201Y0102927D01*
X0145536Y0103926D02*
X0133732Y0103926D01*
X0133737Y0104924D02*
X0145130Y0104924D01*
X0144933Y0105923D02*
X0133741Y0105923D01*
X0133746Y0106921D02*
X0144940Y0106921D01*
X0145144Y0107920D02*
X0133750Y0107920D01*
X0133755Y0108918D02*
X0145558Y0108918D01*
X0146244Y0109917D02*
X0133759Y0109917D01*
X0133764Y0110915D02*
X0147421Y0110915D01*
X0148511Y0111914D02*
X0133768Y0111914D01*
X0133773Y0112912D02*
X0146923Y0112912D01*
X0146059Y0113911D02*
X0133777Y0113911D01*
X0133782Y0114909D02*
X0145645Y0114909D01*
X0145423Y0115908D02*
X0140947Y0115908D01*
X0141945Y0116906D02*
X0145423Y0116906D01*
X0145651Y0117905D02*
X0142944Y0117905D01*
X0143942Y0118903D02*
X0146065Y0118903D01*
X0144318Y0121400D02*
X0154891Y0121400D01*
X0156339Y0122208D01*
X0156680Y0121597D01*
X0156480Y0120926D01*
X0154891Y0121400D01*
X0156483Y0121400D01*
X0156680Y0121597D01*
X0156150Y0123821D02*
X0156150Y0123821D01*
X0156150Y0123821D01*
X0154795Y0124894D02*
X0161448Y0124894D01*
X0161448Y0125893D02*
X0155023Y0125893D01*
X0155023Y0126891D02*
X0162367Y0126891D01*
X0161703Y0123896D02*
X0154381Y0123896D01*
X0154802Y0127890D02*
X0173462Y0127890D01*
X0172464Y0128888D02*
X0154388Y0128888D01*
X0153525Y0129887D02*
X0171465Y0129887D01*
X0172034Y0131439D02*
X0176759Y0126715D01*
X0176759Y0082846D01*
X0177404Y0081318D01*
X0176759Y0081046D01*
X0176114Y0081318D01*
X0176759Y0082846D01*
X0176759Y0081046D01*
X0178959Y0080960D02*
X0185838Y0080960D01*
X0185838Y0081958D02*
X0178957Y0081958D01*
X0179027Y0081329D02*
X0179027Y0081329D01*
X0179027Y0081329D01*
X0178786Y0079961D02*
X0185838Y0079961D01*
X0185838Y0078963D02*
X0177787Y0078963D01*
X0175730Y0078963D02*
X0175174Y0078963D01*
X0174760Y0077964D02*
X0185838Y0077964D01*
X0185838Y0076966D02*
X0174003Y0076966D01*
X0172554Y0075967D02*
X0185838Y0075967D01*
X0185838Y0074969D02*
X0171973Y0074969D01*
X0171945Y0074978D02*
X0171168Y0075101D01*
X0171062Y0075101D01*
X0171062Y0070388D01*
X0175774Y0070388D01*
X0175774Y0070494D01*
X0175651Y0071272D01*
X0175408Y0072020D01*
X0175051Y0072721D01*
X0174588Y0073358D01*
X0174032Y0073915D01*
X0173395Y0074377D01*
X0172694Y0074734D01*
X0171945Y0074978D01*
X0171062Y0074969D02*
X0170487Y0074969D01*
X0170487Y0075101D02*
X0170381Y0075101D01*
X0169604Y0074978D01*
X0168855Y0074734D01*
X0168154Y0074377D01*
X0167517Y0073915D01*
X0166961Y0073358D01*
X0166498Y0072721D01*
X0166141Y0072020D01*
X0165898Y0071272D01*
X0165774Y0070494D01*
X0165774Y0070388D01*
X0170487Y0070388D01*
X0170487Y0069813D01*
X0171062Y0069813D01*
X0171062Y0065101D01*
X0171168Y0065101D01*
X0171945Y0065224D01*
X0172694Y0065467D01*
X0173395Y0065824D01*
X0174032Y0066287D01*
X0174588Y0066844D01*
X0175051Y0067480D01*
X0175408Y0068181D01*
X0175651Y0068930D01*
X0175774Y0069707D01*
X0175774Y0069813D01*
X0171062Y0069813D01*
X0171062Y0070388D01*
X0170487Y0070388D01*
X0170487Y0075101D01*
X0169576Y0074969D02*
X0160913Y0074969D01*
X0161912Y0075967D02*
X0168995Y0075967D01*
X0167546Y0076966D02*
X0162962Y0076966D01*
X0161717Y0077894D02*
X0161889Y0079543D01*
X0162585Y0079471D01*
X0163019Y0078921D01*
X0161717Y0077894D01*
X0162585Y0078762D01*
X0162585Y0079471D01*
X0161717Y0077894D02*
X0152450Y0068627D01*
X0150223Y0066400D01*
X0153598Y0062987D02*
X0185838Y0062987D01*
X0185838Y0063985D02*
X0154418Y0063985D01*
X0154832Y0064984D02*
X0185838Y0064984D01*
X0185838Y0065982D02*
X0173612Y0065982D01*
X0174688Y0066981D02*
X0185838Y0066981D01*
X0185838Y0067979D02*
X0175305Y0067979D01*
X0175659Y0068978D02*
X0185838Y0068978D01*
X0185838Y0069976D02*
X0171062Y0069976D01*
X0170487Y0069976D02*
X0155921Y0069976D01*
X0156919Y0070975D02*
X0165850Y0070975D01*
X0166125Y0071973D02*
X0157918Y0071973D01*
X0158916Y0072972D02*
X0166680Y0072972D01*
X0167594Y0073970D02*
X0159915Y0073970D01*
X0157669Y0075967D02*
X0155023Y0075967D01*
X0155023Y0076966D02*
X0158668Y0076966D01*
X0159666Y0077964D02*
X0154771Y0077964D01*
X0154357Y0078963D02*
X0160321Y0078963D01*
X0160385Y0079961D02*
X0153450Y0079961D01*
X0156762Y0080960D02*
X0160385Y0080960D01*
X0158882Y0082957D02*
X0165043Y0082957D01*
X0164045Y0083955D02*
X0159942Y0083955D01*
X0161002Y0084954D02*
X0163599Y0084954D01*
X0163054Y0085952D02*
X0162062Y0085952D01*
X0160245Y0087949D02*
X0154777Y0087949D01*
X0155023Y0086951D02*
X0159185Y0086951D01*
X0158125Y0085952D02*
X0155023Y0085952D01*
X0154820Y0084954D02*
X0157064Y0084954D01*
X0156004Y0083955D02*
X0154406Y0083955D01*
X0154944Y0082957D02*
X0153568Y0082957D01*
X0157822Y0081958D02*
X0166673Y0081958D01*
X0166274Y0080960D02*
X0164785Y0080960D01*
X0164785Y0079961D02*
X0166274Y0079961D01*
X0166375Y0078963D02*
X0164785Y0078963D01*
X0164785Y0077964D02*
X0166789Y0077964D01*
X0167214Y0082957D02*
X0167266Y0082957D01*
X0168213Y0083955D02*
X0168321Y0083955D01*
X0168329Y0084954D02*
X0175259Y0084954D01*
X0175259Y0085952D02*
X0172518Y0085952D01*
X0173988Y0086951D02*
X0175259Y0086951D01*
X0175259Y0087949D02*
X0174754Y0087949D01*
X0175168Y0088948D02*
X0175259Y0088948D01*
X0175259Y0091943D02*
X0174882Y0091943D01*
X0175259Y0092942D02*
X0174297Y0092942D01*
X0175259Y0093940D02*
X0173264Y0093940D01*
X0172482Y0095937D02*
X0175259Y0095937D01*
X0175259Y0094939D02*
X0166054Y0094939D01*
X0166054Y0093940D02*
X0168285Y0093940D01*
X0167252Y0092942D02*
X0166054Y0092942D01*
X0166054Y0091943D02*
X0166667Y0091943D01*
X0166274Y0090945D02*
X0166054Y0090945D01*
X0166054Y0089946D02*
X0166274Y0089946D01*
X0166381Y0088948D02*
X0166054Y0088948D01*
X0166054Y0087949D02*
X0166795Y0087949D01*
X0167273Y0086951D02*
X0167560Y0086951D01*
X0168270Y0085952D02*
X0169031Y0085952D01*
X0166298Y0085662D02*
X0166129Y0084983D01*
X0165524Y0084630D01*
X0164689Y0086063D01*
X0166298Y0085662D01*
X0166129Y0084983D02*
X0164689Y0086063D01*
X0164554Y0086164D01*
X0164554Y0096400D01*
X0167797Y0099074D01*
X0169042Y0100101D01*
X0170774Y0100101D01*
X0173974Y0096936D02*
X0175259Y0096936D01*
X0175259Y0097934D02*
X0174748Y0097934D01*
X0175161Y0098933D02*
X0175259Y0098933D01*
X0175259Y0101928D02*
X0174888Y0101928D01*
X0175259Y0102927D02*
X0174312Y0102927D01*
X0175259Y0103926D02*
X0173300Y0103926D01*
X0172446Y0105923D02*
X0175259Y0105923D01*
X0175259Y0106921D02*
X0173959Y0106921D01*
X0174742Y0107920D02*
X0175259Y0107920D01*
X0175259Y0108918D02*
X0175155Y0108918D01*
X0175259Y0111914D02*
X0174894Y0111914D01*
X0175259Y0112912D02*
X0174327Y0112912D01*
X0175259Y0113911D02*
X0173329Y0113911D01*
X0175259Y0114909D02*
X0165904Y0114909D01*
X0165904Y0113911D02*
X0168220Y0113911D01*
X0167222Y0112912D02*
X0165904Y0112912D01*
X0165904Y0111914D02*
X0166655Y0111914D01*
X0166274Y0110915D02*
X0165904Y0110915D01*
X0165904Y0109917D02*
X0166274Y0109917D01*
X0166394Y0108918D02*
X0165904Y0108918D01*
X0165904Y0107920D02*
X0166807Y0107920D01*
X0167590Y0106921D02*
X0165904Y0106921D01*
X0165904Y0105923D02*
X0169102Y0105923D01*
X0168249Y0103926D02*
X0165904Y0103926D01*
X0165904Y0104924D02*
X0175259Y0104924D01*
X0178259Y0104924D02*
X0178408Y0104924D01*
X0178408Y0103926D02*
X0178259Y0103926D01*
X0178259Y0102927D02*
X0178408Y0102927D01*
X0178408Y0101928D02*
X0178259Y0101928D01*
X0178259Y0100930D02*
X0178408Y0100930D01*
X0178408Y0099931D02*
X0178259Y0099931D01*
X0178259Y0098933D02*
X0178408Y0098933D01*
X0178408Y0097934D02*
X0178259Y0097934D01*
X0178259Y0096936D02*
X0178408Y0096936D01*
X0178408Y0095937D02*
X0178259Y0095937D01*
X0178259Y0094939D02*
X0178408Y0094939D01*
X0178310Y0093940D02*
X0178259Y0093940D01*
X0179908Y0093869D02*
X0179263Y0092342D01*
X0179908Y0092069D01*
X0180553Y0092342D01*
X0179908Y0093869D01*
X0179908Y0092069D01*
X0179908Y0093869D02*
X0179908Y0155061D01*
X0176759Y0158211D01*
X0169897Y0158211D01*
X0168369Y0157566D01*
X0168097Y0158211D01*
X0168369Y0158856D01*
X0169897Y0158211D01*
X0168097Y0158211D01*
X0166617Y0159842D02*
X0153569Y0159842D01*
X0154407Y0158844D02*
X0165897Y0158844D01*
X0165897Y0157845D02*
X0154820Y0157845D01*
X0155023Y0156847D02*
X0166350Y0156847D01*
X0167347Y0155848D02*
X0155023Y0155848D01*
X0154777Y0154850D02*
X0166685Y0154850D01*
X0166685Y0153851D02*
X0154363Y0153851D01*
X0153464Y0152853D02*
X0167195Y0152853D01*
X0169157Y0153629D02*
X0168885Y0154274D01*
X0169157Y0154919D01*
X0170685Y0154274D01*
X0169157Y0153629D01*
X0168885Y0154274D02*
X0170685Y0154274D01*
X0174171Y0154274D01*
X0175699Y0154919D01*
X0175971Y0154274D01*
X0175699Y0153629D01*
X0174171Y0154274D01*
X0175971Y0154274D01*
X0177661Y0152853D02*
X0178408Y0152853D01*
X0178408Y0153851D02*
X0178171Y0153851D01*
X0178408Y0151854D02*
X0151791Y0151854D01*
X0152010Y0150856D02*
X0178408Y0150856D01*
X0178408Y0149857D02*
X0174239Y0149857D01*
X0174322Y0148859D02*
X0178408Y0148859D01*
X0178408Y0147860D02*
X0174322Y0147860D01*
X0174322Y0145863D02*
X0178408Y0145863D01*
X0178408Y0146862D02*
X0170763Y0146862D01*
X0170763Y0145900D02*
X0170763Y0138168D01*
X0169763Y0138168D01*
X0169763Y0142120D01*
X0169763Y0145900D01*
X0170763Y0145900D01*
X0170763Y0145863D02*
X0169763Y0145863D01*
X0169763Y0144864D02*
X0170763Y0144864D01*
X0170763Y0143866D02*
X0169763Y0143866D01*
X0169763Y0142867D02*
X0170763Y0142867D01*
X0170763Y0141869D02*
X0169763Y0141869D01*
X0169763Y0140870D02*
X0170763Y0140870D01*
X0170763Y0139872D02*
X0169763Y0139872D01*
X0169763Y0138873D02*
X0170763Y0138873D01*
X0170763Y0137875D02*
X0178408Y0137875D01*
X0178408Y0138873D02*
X0174322Y0138873D01*
X0174322Y0139872D02*
X0178408Y0139872D01*
X0178408Y0140870D02*
X0174308Y0140870D01*
X0173659Y0141869D02*
X0178408Y0141869D01*
X0178408Y0142867D02*
X0174219Y0142867D01*
X0174322Y0143866D02*
X0178408Y0143866D01*
X0178408Y0144864D02*
X0174322Y0144864D01*
X0170763Y0147860D02*
X0169763Y0147860D01*
X0169763Y0148859D02*
X0170763Y0148859D01*
X0170763Y0149857D02*
X0169763Y0149857D01*
X0169168Y0152006D02*
X0169168Y0152006D01*
X0169890Y0159842D02*
X0185838Y0159842D01*
X0185838Y0158844D02*
X0178247Y0158844D01*
X0179246Y0157845D02*
X0185838Y0157845D01*
X0185838Y0156847D02*
X0180244Y0156847D01*
X0181243Y0155848D02*
X0185838Y0155848D01*
X0185838Y0154850D02*
X0181408Y0154850D01*
X0181408Y0153851D02*
X0185838Y0153851D01*
X0185838Y0152853D02*
X0181408Y0152853D01*
X0181408Y0151854D02*
X0185838Y0151854D01*
X0185838Y0150856D02*
X0181408Y0150856D01*
X0181408Y0149857D02*
X0185838Y0149857D01*
X0185838Y0148859D02*
X0181408Y0148859D01*
X0181408Y0147860D02*
X0185838Y0147860D01*
X0185838Y0146862D02*
X0181408Y0146862D01*
X0181408Y0145863D02*
X0185838Y0145863D01*
X0185838Y0144864D02*
X0181408Y0144864D01*
X0181408Y0143866D02*
X0185838Y0143866D01*
X0185838Y0142867D02*
X0181408Y0142867D01*
X0181408Y0141869D02*
X0185838Y0141869D01*
X0185838Y0140870D02*
X0181408Y0140870D01*
X0181408Y0139872D02*
X0185838Y0139872D01*
X0185838Y0138873D02*
X0181408Y0138873D01*
X0181408Y0137875D02*
X0185838Y0137875D01*
X0185838Y0136876D02*
X0181408Y0136876D01*
X0181408Y0135878D02*
X0185838Y0135878D01*
X0185838Y0134879D02*
X0181408Y0134879D01*
X0181408Y0133881D02*
X0185838Y0133881D01*
X0185838Y0132882D02*
X0181408Y0132882D01*
X0181408Y0131884D02*
X0185838Y0131884D01*
X0185838Y0130885D02*
X0181408Y0130885D01*
X0181408Y0129887D02*
X0185838Y0129887D01*
X0185838Y0128888D02*
X0181408Y0128888D01*
X0181408Y0127890D02*
X0185838Y0127890D01*
X0185838Y0126891D02*
X0181408Y0126891D01*
X0181408Y0125893D02*
X0185838Y0125893D01*
X0185838Y0124894D02*
X0181408Y0124894D01*
X0181408Y0123896D02*
X0185838Y0123896D01*
X0185838Y0122897D02*
X0181408Y0122897D01*
X0181408Y0121899D02*
X0185838Y0121899D01*
X0185838Y0120900D02*
X0181408Y0120900D01*
X0181408Y0119902D02*
X0185838Y0119902D01*
X0185838Y0118903D02*
X0181408Y0118903D01*
X0181408Y0117905D02*
X0185838Y0117905D01*
X0185838Y0116906D02*
X0181408Y0116906D01*
X0181408Y0115908D02*
X0185838Y0115908D01*
X0185838Y0114909D02*
X0181408Y0114909D01*
X0181408Y0113911D02*
X0185838Y0113911D01*
X0185838Y0112912D02*
X0181408Y0112912D01*
X0181408Y0111914D02*
X0185838Y0111914D01*
X0185838Y0110915D02*
X0181408Y0110915D01*
X0181408Y0109917D02*
X0185838Y0109917D01*
X0185838Y0108918D02*
X0181408Y0108918D01*
X0181408Y0107920D02*
X0185838Y0107920D01*
X0185838Y0106921D02*
X0181408Y0106921D01*
X0181408Y0105923D02*
X0185838Y0105923D01*
X0185838Y0104924D02*
X0181408Y0104924D01*
X0181408Y0103926D02*
X0185838Y0103926D01*
X0185838Y0102927D02*
X0181408Y0102927D01*
X0181408Y0101928D02*
X0185838Y0101928D01*
X0185838Y0100930D02*
X0181408Y0100930D01*
X0181408Y0099931D02*
X0185838Y0099931D01*
X0185838Y0098933D02*
X0181408Y0098933D01*
X0181408Y0097934D02*
X0185838Y0097934D01*
X0185838Y0096936D02*
X0181408Y0096936D01*
X0181408Y0095937D02*
X0185838Y0095937D01*
X0185838Y0094939D02*
X0181408Y0094939D01*
X0181506Y0093940D02*
X0185838Y0093940D01*
X0185838Y0092942D02*
X0182108Y0092942D01*
X0182108Y0091943D02*
X0185838Y0091943D01*
X0185838Y0090945D02*
X0181895Y0090945D01*
X0180897Y0089946D02*
X0185838Y0089946D01*
X0185838Y0088948D02*
X0178259Y0088948D01*
X0178259Y0089946D02*
X0178920Y0089946D01*
X0178259Y0087949D02*
X0185838Y0087949D01*
X0185838Y0086951D02*
X0178259Y0086951D01*
X0178259Y0085952D02*
X0185838Y0085952D01*
X0185838Y0084954D02*
X0178259Y0084954D01*
X0178259Y0083955D02*
X0185838Y0083955D01*
X0185838Y0082957D02*
X0178340Y0082957D01*
X0175177Y0082957D02*
X0174282Y0082957D01*
X0175259Y0083955D02*
X0173228Y0083955D01*
X0173955Y0073970D02*
X0185838Y0073970D01*
X0185838Y0072972D02*
X0174869Y0072972D01*
X0175423Y0071973D02*
X0185838Y0071973D01*
X0185838Y0070975D02*
X0175698Y0070975D01*
X0171062Y0070975D02*
X0170487Y0070975D01*
X0170487Y0071973D02*
X0171062Y0071973D01*
X0171062Y0072972D02*
X0170487Y0072972D01*
X0170487Y0073970D02*
X0171062Y0073970D01*
X0170487Y0069813D02*
X0165774Y0069813D01*
X0165774Y0069707D01*
X0165898Y0068930D01*
X0166141Y0068181D01*
X0166498Y0067480D01*
X0166961Y0066844D01*
X0167517Y0066287D01*
X0168154Y0065824D01*
X0168855Y0065467D01*
X0169604Y0065224D01*
X0170381Y0065101D01*
X0170487Y0065101D01*
X0170487Y0069813D01*
X0170487Y0068978D02*
X0171062Y0068978D01*
X0171062Y0067979D02*
X0170487Y0067979D01*
X0170487Y0066981D02*
X0171062Y0066981D01*
X0171062Y0065982D02*
X0170487Y0065982D01*
X0167937Y0065982D02*
X0155023Y0065982D01*
X0155023Y0066981D02*
X0166861Y0066981D01*
X0166244Y0067979D02*
X0154765Y0067979D01*
X0154922Y0068978D02*
X0165890Y0068978D01*
X0164771Y0059605D02*
X0158037Y0059605D01*
X0157452Y0059019D01*
X0157452Y0053072D01*
X0157471Y0053053D01*
X0157251Y0052833D01*
X0157054Y0052491D01*
X0156952Y0052109D01*
X0156952Y0049853D01*
X0160904Y0049853D01*
X0160904Y0048853D01*
X0156952Y0048853D01*
X0156952Y0046596D01*
X0157054Y0046215D01*
X0157251Y0045873D01*
X0157531Y0045593D01*
X0157873Y0045396D01*
X0158254Y0045294D01*
X0160904Y0045294D01*
X0160904Y0048853D01*
X0161904Y0048853D01*
X0161904Y0045294D01*
X0164555Y0045294D01*
X0164936Y0045396D01*
X0165278Y0045593D01*
X0165557Y0045873D01*
X0165755Y0046215D01*
X0165857Y0046596D01*
X0165857Y0048853D01*
X0161904Y0048853D01*
X0161904Y0049853D01*
X0165857Y0049853D01*
X0165857Y0052109D01*
X0165755Y0052491D01*
X0165557Y0052833D01*
X0165337Y0053053D01*
X0165357Y0053072D01*
X0165357Y0053854D01*
X0167688Y0053854D01*
X0167688Y0053072D01*
X0167707Y0053053D01*
X0167488Y0052833D01*
X0167290Y0052491D01*
X0167188Y0052109D01*
X0167188Y0049853D01*
X0171141Y0049853D01*
X0171141Y0048853D01*
X0172141Y0048853D01*
X0172141Y0049853D01*
X0176093Y0049853D01*
X0176093Y0052109D01*
X0175991Y0052491D01*
X0175794Y0052833D01*
X0175574Y0053053D01*
X0175593Y0053072D01*
X0175593Y0053854D01*
X0176456Y0053854D01*
X0176456Y0030675D01*
X0175964Y0030183D01*
X0175790Y0030183D01*
X0175790Y0032247D01*
X0175204Y0032833D01*
X0167289Y0032833D01*
X0166704Y0032247D01*
X0166704Y0030183D01*
X0165554Y0030183D01*
X0165554Y0032247D01*
X0164968Y0032833D01*
X0157053Y0032833D01*
X0156467Y0032247D01*
X0156467Y0025120D01*
X0157053Y0024534D01*
X0164968Y0024534D01*
X0165554Y0025120D01*
X0165554Y0027183D01*
X0166704Y0027183D01*
X0166704Y0025120D01*
X0167289Y0024534D01*
X0175204Y0024534D01*
X0175790Y0025120D01*
X0175790Y0027183D01*
X0177207Y0027183D01*
X0178085Y0028062D01*
X0179455Y0029432D01*
X0179455Y0055442D01*
X0180155Y0056142D01*
X0180155Y0060965D01*
X0178867Y0062254D01*
X0177044Y0062254D01*
X0175756Y0060965D01*
X0175756Y0058254D01*
X0175593Y0058254D01*
X0175593Y0059019D01*
X0175008Y0059605D01*
X0168274Y0059605D01*
X0167688Y0059019D01*
X0167688Y0058254D01*
X0165357Y0058254D01*
X0165357Y0059019D01*
X0164771Y0059605D01*
X0165357Y0058993D02*
X0167688Y0058993D01*
X0170074Y0056054D02*
X0161806Y0056054D01*
X0161404Y0056046D01*
X0171641Y0056046D01*
X0170074Y0056054D01*
X0176956Y0056054D01*
X0177956Y0056054D01*
X0177956Y0030054D01*
X0176585Y0028683D01*
X0171247Y0028683D01*
X0161011Y0028683D01*
X0165554Y0027040D02*
X0166704Y0027040D01*
X0166704Y0026042D02*
X0165554Y0026042D01*
X0165477Y0025043D02*
X0166780Y0025043D01*
X0166704Y0031034D02*
X0165554Y0031034D01*
X0165554Y0032033D02*
X0166704Y0032033D01*
X0167506Y0035057D02*
X0170747Y0035057D01*
X0170747Y0039207D01*
X0171747Y0039207D01*
X0171747Y0040207D01*
X0176290Y0040207D01*
X0176290Y0043054D01*
X0176188Y0043436D01*
X0175990Y0043778D01*
X0175711Y0044057D01*
X0175369Y0044254D01*
X0174988Y0044357D01*
X0171747Y0044357D01*
X0171747Y0040207D01*
X0170747Y0040207D01*
X0170747Y0044357D01*
X0167506Y0044357D01*
X0167125Y0044254D01*
X0166783Y0044057D01*
X0166503Y0043778D01*
X0166306Y0043436D01*
X0166204Y0043054D01*
X0166204Y0040207D01*
X0170747Y0040207D01*
X0170747Y0039207D01*
X0166204Y0039207D01*
X0166204Y0036360D01*
X0166306Y0035978D01*
X0166503Y0035636D01*
X0166783Y0035357D01*
X0167125Y0035160D01*
X0167506Y0035057D01*
X0166293Y0036027D02*
X0165965Y0036027D01*
X0165952Y0035978D02*
X0166054Y0036360D01*
X0166054Y0039207D01*
X0161511Y0039207D01*
X0161511Y0040207D01*
X0166054Y0040207D01*
X0166054Y0043054D01*
X0165952Y0043436D01*
X0165754Y0043778D01*
X0165475Y0044057D01*
X0165133Y0044254D01*
X0164751Y0044357D01*
X0161511Y0044357D01*
X0161511Y0040207D01*
X0160511Y0040207D01*
X0160511Y0044357D01*
X0157270Y0044357D01*
X0156888Y0044254D01*
X0156546Y0044057D01*
X0156267Y0043778D01*
X0156070Y0043436D01*
X0155967Y0043054D01*
X0155967Y0040207D01*
X0160511Y0040207D01*
X0160511Y0039207D01*
X0161511Y0039207D01*
X0161511Y0035057D01*
X0164751Y0035057D01*
X0165133Y0035160D01*
X0165475Y0035357D01*
X0165754Y0035636D01*
X0165952Y0035978D01*
X0166054Y0037025D02*
X0166204Y0037025D01*
X0166204Y0038024D02*
X0166054Y0038024D01*
X0166054Y0039022D02*
X0166204Y0039022D01*
X0166204Y0041019D02*
X0166054Y0041019D01*
X0166054Y0042018D02*
X0166204Y0042018D01*
X0166204Y0043016D02*
X0166054Y0043016D01*
X0165517Y0044015D02*
X0166740Y0044015D01*
X0167767Y0045593D02*
X0168109Y0045396D01*
X0168490Y0045294D01*
X0171141Y0045294D01*
X0171141Y0048853D01*
X0167188Y0048853D01*
X0167188Y0046596D01*
X0167290Y0046215D01*
X0167488Y0045873D01*
X0167767Y0045593D01*
X0167407Y0046012D02*
X0165638Y0046012D01*
X0165857Y0047010D02*
X0167188Y0047010D01*
X0167188Y0048009D02*
X0165857Y0048009D01*
X0165857Y0050006D02*
X0167188Y0050006D01*
X0167188Y0051004D02*
X0165857Y0051004D01*
X0165857Y0052003D02*
X0167188Y0052003D01*
X0167656Y0053001D02*
X0165389Y0053001D01*
X0161904Y0049007D02*
X0171141Y0049007D01*
X0171141Y0048009D02*
X0172141Y0048009D01*
X0172141Y0048853D02*
X0172141Y0045294D01*
X0174791Y0045294D01*
X0175172Y0045396D01*
X0175514Y0045593D01*
X0175794Y0045873D01*
X0175991Y0046215D01*
X0176093Y0046596D01*
X0176093Y0048853D01*
X0172141Y0048853D01*
X0172141Y0049007D02*
X0176456Y0049007D01*
X0176456Y0048009D02*
X0176093Y0048009D01*
X0176093Y0047010D02*
X0176456Y0047010D01*
X0176456Y0046012D02*
X0175874Y0046012D01*
X0176456Y0045013D02*
X0154844Y0045013D01*
X0155023Y0046012D02*
X0157171Y0046012D01*
X0156952Y0047010D02*
X0155023Y0047010D01*
X0154752Y0048009D02*
X0156952Y0048009D01*
X0156952Y0050006D02*
X0153406Y0050006D01*
X0154339Y0049007D02*
X0160904Y0049007D01*
X0160904Y0048009D02*
X0161904Y0048009D01*
X0161904Y0047010D02*
X0160904Y0047010D01*
X0160904Y0046012D02*
X0161904Y0046012D01*
X0161511Y0044015D02*
X0160511Y0044015D01*
X0160511Y0043016D02*
X0161511Y0043016D01*
X0161511Y0042018D02*
X0160511Y0042018D01*
X0160511Y0041019D02*
X0161511Y0041019D01*
X0161511Y0040021D02*
X0170747Y0040021D01*
X0170747Y0041019D02*
X0171747Y0041019D01*
X0171747Y0040021D02*
X0176456Y0040021D01*
X0176290Y0039207D02*
X0171747Y0039207D01*
X0171747Y0035057D01*
X0174988Y0035057D01*
X0175369Y0035160D01*
X0175711Y0035357D01*
X0175990Y0035636D01*
X0176188Y0035978D01*
X0176290Y0036360D01*
X0176290Y0039207D01*
X0176290Y0039022D02*
X0176456Y0039022D01*
X0176456Y0038024D02*
X0176290Y0038024D01*
X0176290Y0037025D02*
X0176456Y0037025D01*
X0176456Y0036027D02*
X0176201Y0036027D01*
X0176456Y0035028D02*
X0154850Y0035028D01*
X0155023Y0036027D02*
X0156057Y0036027D01*
X0156070Y0035978D02*
X0156267Y0035636D01*
X0156546Y0035357D01*
X0156888Y0035160D01*
X0157270Y0035057D01*
X0160511Y0035057D01*
X0160511Y0039207D01*
X0155967Y0039207D01*
X0155967Y0036360D01*
X0156070Y0035978D01*
X0155967Y0037025D02*
X0155023Y0037025D01*
X0154746Y0038024D02*
X0155967Y0038024D01*
X0155967Y0039022D02*
X0154333Y0039022D01*
X0153391Y0040021D02*
X0160511Y0040021D01*
X0160511Y0039022D02*
X0161511Y0039022D01*
X0161511Y0038024D02*
X0160511Y0038024D01*
X0160511Y0037025D02*
X0161511Y0037025D01*
X0161511Y0036027D02*
X0160511Y0036027D01*
X0156467Y0032033D02*
X0152223Y0032033D01*
X0151578Y0031034D02*
X0156467Y0031034D01*
X0156467Y0030036D02*
X0153376Y0030036D01*
X0152942Y0030469D02*
X0154292Y0029119D01*
X0155023Y0027355D01*
X0155023Y0025445D01*
X0154292Y0023681D01*
X0152942Y0022331D01*
X0151178Y0021600D01*
X0149268Y0021600D01*
X0147504Y0022331D01*
X0146154Y0023681D01*
X0145423Y0025445D01*
X0145423Y0027355D01*
X0146154Y0029119D01*
X0147504Y0030469D01*
X0149268Y0031200D01*
X0151178Y0031200D01*
X0152942Y0030469D01*
X0154326Y0029037D02*
X0156467Y0029037D01*
X0156467Y0028039D02*
X0154740Y0028039D01*
X0155023Y0027040D02*
X0156467Y0027040D01*
X0156467Y0026042D02*
X0155023Y0026042D01*
X0154857Y0025043D02*
X0156544Y0025043D01*
X0154443Y0024045D02*
X0185458Y0024045D01*
X0185768Y0025043D02*
X0175714Y0025043D01*
X0175790Y0026042D02*
X0185838Y0026042D01*
X0185838Y0027040D02*
X0175790Y0027040D01*
X0178062Y0028039D02*
X0185838Y0028039D01*
X0185838Y0029037D02*
X0179060Y0029037D01*
X0179455Y0030036D02*
X0185838Y0030036D01*
X0185838Y0031034D02*
X0179455Y0031034D01*
X0179455Y0032033D02*
X0185838Y0032033D01*
X0185838Y0033031D02*
X0179455Y0033031D01*
X0179455Y0034030D02*
X0185838Y0034030D01*
X0185838Y0035028D02*
X0179455Y0035028D01*
X0179455Y0036027D02*
X0185838Y0036027D01*
X0185838Y0037025D02*
X0179455Y0037025D01*
X0179455Y0038024D02*
X0185838Y0038024D01*
X0185838Y0039022D02*
X0179455Y0039022D01*
X0179455Y0040021D02*
X0185838Y0040021D01*
X0185838Y0041019D02*
X0179455Y0041019D01*
X0179455Y0042018D02*
X0185838Y0042018D01*
X0185838Y0043016D02*
X0179455Y0043016D01*
X0179455Y0044015D02*
X0185838Y0044015D01*
X0185838Y0045013D02*
X0179455Y0045013D01*
X0179455Y0046012D02*
X0185838Y0046012D01*
X0185838Y0047010D02*
X0179455Y0047010D01*
X0179455Y0048009D02*
X0185838Y0048009D01*
X0185838Y0049007D02*
X0179455Y0049007D01*
X0179455Y0050006D02*
X0185838Y0050006D01*
X0185838Y0051004D02*
X0179455Y0051004D01*
X0179455Y0052003D02*
X0185838Y0052003D01*
X0185838Y0053001D02*
X0179455Y0053001D01*
X0179455Y0054000D02*
X0185838Y0054000D01*
X0185838Y0054998D02*
X0179455Y0054998D01*
X0180010Y0055997D02*
X0185838Y0055997D01*
X0185838Y0056995D02*
X0180155Y0056995D01*
X0180155Y0057994D02*
X0185838Y0057994D01*
X0185838Y0058993D02*
X0180155Y0058993D01*
X0180155Y0059991D02*
X0185838Y0059991D01*
X0185838Y0060990D02*
X0180131Y0060990D01*
X0179132Y0061988D02*
X0185838Y0061988D01*
X0176779Y0061988D02*
X0152115Y0061988D01*
X0151686Y0060990D02*
X0175780Y0060990D01*
X0175756Y0059991D02*
X0153420Y0059991D01*
X0154345Y0058993D02*
X0157452Y0058993D01*
X0157452Y0057994D02*
X0154758Y0057994D01*
X0155023Y0056995D02*
X0157452Y0056995D01*
X0157452Y0055997D02*
X0155023Y0055997D01*
X0154838Y0054998D02*
X0157452Y0054998D01*
X0157452Y0054000D02*
X0154425Y0054000D01*
X0153613Y0053001D02*
X0157420Y0053001D01*
X0156952Y0052003D02*
X0152151Y0052003D01*
X0151650Y0051004D02*
X0156952Y0051004D01*
X0156504Y0044015D02*
X0154431Y0044015D01*
X0153628Y0043016D02*
X0155967Y0043016D01*
X0155967Y0042018D02*
X0152187Y0042018D01*
X0151614Y0041019D02*
X0155967Y0041019D01*
X0154437Y0034030D02*
X0176456Y0034030D01*
X0176456Y0033031D02*
X0153643Y0033031D01*
X0148868Y0031034D02*
X0139581Y0031034D01*
X0139581Y0030036D02*
X0147071Y0030036D01*
X0146120Y0029037D02*
X0139581Y0029037D01*
X0139581Y0028502D02*
X0139581Y0032199D01*
X0135582Y0032199D01*
X0135582Y0033199D01*
X0139581Y0033199D01*
X0139581Y0036897D01*
X0139479Y0037278D01*
X0139282Y0037620D01*
X0139003Y0037899D01*
X0138660Y0038097D01*
X0138279Y0038199D01*
X0135581Y0038199D01*
X0135581Y0033199D01*
X0134582Y0033199D01*
X0134582Y0038199D01*
X0131884Y0038199D01*
X0131503Y0038097D01*
X0131160Y0037899D01*
X0130881Y0037620D01*
X0130684Y0037278D01*
X0130581Y0036897D01*
X0130581Y0033199D01*
X0134581Y0033199D01*
X0134581Y0032199D01*
X0130581Y0032199D01*
X0130581Y0028502D01*
X0130684Y0028120D01*
X0130881Y0027778D01*
X0131160Y0027499D01*
X0131503Y0027301D01*
X0131884Y0027199D01*
X0134582Y0027199D01*
X0134582Y0032199D01*
X0135581Y0032199D01*
X0135581Y0027199D01*
X0138279Y0027199D01*
X0138660Y0027301D01*
X0139003Y0027499D01*
X0139282Y0027778D01*
X0139479Y0028120D01*
X0139581Y0028502D01*
X0139432Y0028039D02*
X0145707Y0028039D01*
X0145423Y0027040D02*
X0125578Y0027040D01*
X0125578Y0026042D02*
X0145423Y0026042D01*
X0145590Y0025043D02*
X0126970Y0025043D01*
X0127546Y0024353D02*
X0128727Y0024353D01*
X0127546Y0024353D02*
X0127152Y0023959D01*
X0125790Y0023959D01*
X0127290Y0024045D02*
X0146003Y0024045D01*
X0146789Y0023046D02*
X0127141Y0023046D01*
X0125578Y0022048D02*
X0148188Y0022048D01*
X0152259Y0022048D02*
X0184349Y0022048D01*
X0185075Y0023046D02*
X0153658Y0023046D01*
X0148224Y0032033D02*
X0139581Y0032033D01*
X0139581Y0034030D02*
X0146010Y0034030D01*
X0145596Y0035028D02*
X0139581Y0035028D01*
X0139581Y0036027D02*
X0145423Y0036027D01*
X0145423Y0037025D02*
X0139547Y0037025D01*
X0138787Y0038024D02*
X0145700Y0038024D01*
X0146114Y0039022D02*
X0125578Y0039022D01*
X0125578Y0038024D02*
X0131376Y0038024D01*
X0130616Y0037025D02*
X0125578Y0037025D01*
X0125578Y0036027D02*
X0130581Y0036027D01*
X0130581Y0035028D02*
X0125578Y0035028D01*
X0125578Y0034030D02*
X0130581Y0034030D01*
X0130581Y0032033D02*
X0125578Y0032033D01*
X0125578Y0033031D02*
X0134581Y0033031D01*
X0134582Y0032033D02*
X0135581Y0032033D01*
X0135582Y0033031D02*
X0146804Y0033031D01*
X0147056Y0040021D02*
X0125578Y0040021D01*
X0123609Y0039022D02*
X0079401Y0039022D01*
X0079955Y0038024D02*
X0123609Y0038024D01*
X0123609Y0037025D02*
X0079955Y0037025D01*
X0079955Y0036027D02*
X0123609Y0036027D01*
X0123609Y0035028D02*
X0079955Y0035028D01*
X0079955Y0034030D02*
X0123609Y0034030D01*
X0123609Y0033031D02*
X0119161Y0033031D01*
X0118812Y0033380D02*
X0119726Y0032465D01*
X0120221Y0031271D01*
X0120221Y0029978D01*
X0119726Y0028783D01*
X0118812Y0027869D01*
X0117618Y0027374D01*
X0116325Y0027374D01*
X0115130Y0027869D01*
X0114216Y0028783D01*
X0113721Y0029978D01*
X0113721Y0031271D01*
X0114216Y0032465D01*
X0115130Y0033380D01*
X0116325Y0033874D01*
X0117618Y0033874D01*
X0118812Y0033380D01*
X0119906Y0032033D02*
X0123609Y0032033D01*
X0123609Y0031034D02*
X0120221Y0031034D01*
X0120221Y0030036D02*
X0123609Y0030036D01*
X0123609Y0029037D02*
X0119832Y0029037D01*
X0118982Y0028039D02*
X0123609Y0028039D01*
X0123609Y0027040D02*
X0079955Y0027040D01*
X0079955Y0026042D02*
X0123609Y0026042D01*
X0122610Y0025043D02*
X0079955Y0025043D01*
X0079955Y0024045D02*
X0122290Y0024045D01*
X0122428Y0023959D02*
X0122034Y0024353D01*
X0121641Y0024353D01*
X0122428Y0023959D02*
X0123790Y0023959D01*
X0122439Y0023046D02*
X0079955Y0023046D01*
X0079955Y0022048D02*
X0123609Y0022048D01*
X0123609Y0021049D02*
X0006422Y0021049D01*
X0005294Y0022048D02*
X0008752Y0022048D01*
X0008436Y0023046D02*
X0004569Y0023046D01*
X0004185Y0024045D02*
X0008436Y0024045D01*
X0008199Y0025043D02*
X0003875Y0025043D01*
X0003805Y0026042D02*
X0007200Y0026042D01*
X0006202Y0027040D02*
X0003805Y0027040D01*
X0003805Y0028039D02*
X0005574Y0028039D01*
X0005574Y0029037D02*
X0003805Y0029037D01*
X0003805Y0030036D02*
X0005574Y0030036D01*
X0005574Y0031034D02*
X0003805Y0031034D01*
X0003805Y0032033D02*
X0005574Y0032033D01*
X0005574Y0033031D02*
X0003805Y0033031D01*
X0003805Y0034030D02*
X0005574Y0034030D01*
X0006179Y0035028D02*
X0003805Y0035028D01*
X0003805Y0036027D02*
X0007177Y0036027D01*
X0008176Y0037025D02*
X0003805Y0037025D01*
X0003805Y0038024D02*
X0006634Y0038024D01*
X0006093Y0039022D02*
X0003805Y0039022D01*
X0003805Y0040021D02*
X0006093Y0040021D01*
X0006093Y0041019D02*
X0003805Y0041019D01*
X0003805Y0042018D02*
X0006093Y0042018D01*
X0006093Y0043016D02*
X0003805Y0043016D01*
X0010422Y0035028D02*
X0032845Y0035028D01*
X0032845Y0038024D02*
X0029245Y0038024D01*
X0029333Y0039022D02*
X0032845Y0039022D01*
X0032845Y0040021D02*
X0029333Y0040021D01*
X0029333Y0041019D02*
X0032845Y0041019D01*
X0033074Y0047010D02*
X0055423Y0047010D01*
X0055694Y0048009D02*
X0051042Y0048009D01*
X0051381Y0049007D02*
X0056108Y0049007D01*
X0057041Y0050006D02*
X0051381Y0050006D01*
X0051381Y0051004D02*
X0058796Y0051004D01*
X0059268Y0051600D02*
X0061178Y0051600D01*
X0062942Y0052331D01*
X0064292Y0053681D01*
X0065023Y0055445D01*
X0065023Y0057355D01*
X0064292Y0059119D01*
X0062942Y0060469D01*
X0061178Y0061200D01*
X0059268Y0061200D01*
X0057504Y0060469D01*
X0056154Y0059119D01*
X0055423Y0057355D01*
X0055423Y0055445D01*
X0056154Y0053681D01*
X0057504Y0052331D01*
X0059268Y0051600D01*
X0058296Y0052003D02*
X0051381Y0052003D01*
X0051381Y0053001D02*
X0056834Y0053001D01*
X0056022Y0054000D02*
X0051381Y0054000D01*
X0052022Y0054998D02*
X0055608Y0054998D01*
X0055423Y0055997D02*
X0053020Y0055997D01*
X0053455Y0056995D02*
X0055423Y0056995D01*
X0055688Y0057994D02*
X0053455Y0057994D01*
X0053455Y0058993D02*
X0056102Y0058993D01*
X0057026Y0059991D02*
X0053455Y0059991D01*
X0053455Y0060990D02*
X0058760Y0060990D01*
X0058332Y0061988D02*
X0053455Y0061988D01*
X0053455Y0062987D02*
X0056848Y0062987D01*
X0056028Y0063985D02*
X0053455Y0063985D01*
X0053455Y0064984D02*
X0055614Y0064984D01*
X0055423Y0065982D02*
X0053455Y0065982D01*
X0053455Y0066981D02*
X0055423Y0066981D01*
X0055682Y0067979D02*
X0053455Y0067979D01*
X0053455Y0068978D02*
X0056095Y0068978D01*
X0057011Y0069976D02*
X0053455Y0069976D01*
X0053455Y0070975D02*
X0058724Y0070975D01*
X0058368Y0071973D02*
X0053455Y0071973D01*
X0053455Y0072972D02*
X0056863Y0072972D01*
X0056034Y0073970D02*
X0053160Y0073970D01*
X0052577Y0074554D02*
X0052577Y0074554D01*
X0052162Y0074969D02*
X0055621Y0074969D01*
X0055423Y0075967D02*
X0051381Y0075967D01*
X0051455Y0075675D02*
X0051455Y0075675D01*
X0051381Y0076966D02*
X0055423Y0076966D01*
X0055676Y0077964D02*
X0051381Y0077964D01*
X0050456Y0070975D02*
X0031230Y0070975D01*
X0032138Y0071973D02*
X0032845Y0071973D01*
X0032845Y0072972D02*
X0032196Y0072972D01*
X0032196Y0073970D02*
X0032845Y0073970D01*
X0027652Y0073970D02*
X0026652Y0073970D01*
X0026652Y0072972D02*
X0027652Y0072972D01*
X0027652Y0071973D02*
X0026652Y0071973D01*
X0026652Y0070975D02*
X0027652Y0070975D01*
X0031637Y0064984D02*
X0032904Y0064984D01*
X0032845Y0063985D02*
X0031696Y0063985D01*
X0031696Y0062987D02*
X0032845Y0062987D01*
X0032845Y0061988D02*
X0031696Y0061988D01*
X0031696Y0060990D02*
X0032845Y0060990D01*
X0032845Y0059991D02*
X0031696Y0059991D01*
X0031696Y0058993D02*
X0032845Y0058993D01*
X0031605Y0057994D02*
X0050456Y0057994D01*
X0049776Y0056995D02*
X0031605Y0056995D01*
X0031605Y0055997D02*
X0048778Y0055997D01*
X0046837Y0061754D02*
X0037389Y0061754D01*
X0041932Y0059991D02*
X0042294Y0059991D01*
X0042294Y0058993D02*
X0041932Y0058993D01*
X0041622Y0054998D02*
X0042604Y0054998D01*
X0042294Y0054000D02*
X0041932Y0054000D01*
X0041932Y0050006D02*
X0042294Y0050006D01*
X0042294Y0049007D02*
X0041932Y0049007D01*
X0041593Y0048009D02*
X0042633Y0048009D01*
X0033184Y0048009D02*
X0033074Y0048009D01*
X0032845Y0054000D02*
X0031605Y0054000D01*
X0031605Y0054998D02*
X0033156Y0054998D01*
X0041932Y0063985D02*
X0042294Y0063985D01*
X0042353Y0064984D02*
X0041873Y0064984D01*
X0050456Y0065982D02*
X0014873Y0065982D01*
X0014842Y0064984D02*
X0016247Y0064984D01*
X0015248Y0063985D02*
X0014099Y0063985D01*
X0014373Y0062987D02*
X0015110Y0062987D01*
X0015146Y0061988D02*
X0014373Y0061988D01*
X0012192Y0059983D02*
X0011404Y0060770D01*
X0008436Y0062987D02*
X0008144Y0062987D01*
X0007636Y0063985D02*
X0008709Y0063985D01*
X0007967Y0064984D02*
X0007636Y0064984D01*
X0007636Y0065982D02*
X0007936Y0065982D01*
X0010920Y0067979D02*
X0011889Y0067979D01*
X0011889Y0068978D02*
X0010920Y0068978D01*
X0010920Y0069976D02*
X0011889Y0069976D01*
X0011889Y0070975D02*
X0010920Y0070975D01*
X0005286Y0076966D02*
X0003805Y0076966D01*
X0003805Y0077964D02*
X0004480Y0077964D01*
X0004480Y0078963D02*
X0003805Y0078963D01*
X0003805Y0079961D02*
X0004846Y0079961D01*
X0005260Y0080960D02*
X0003805Y0080960D01*
X0003805Y0081958D02*
X0005951Y0081958D01*
X0006550Y0082957D02*
X0003805Y0082957D01*
X0003805Y0083955D02*
X0007149Y0083955D01*
X0007542Y0084954D02*
X0003805Y0084954D01*
X0003805Y0085952D02*
X0007542Y0085952D01*
X0007542Y0086951D02*
X0003805Y0086951D01*
X0003805Y0087949D02*
X0007542Y0087949D01*
X0007542Y0088948D02*
X0003805Y0088948D01*
X0003805Y0089946D02*
X0007542Y0089946D01*
X0007542Y0090945D02*
X0003805Y0090945D01*
X0003805Y0091943D02*
X0007542Y0091943D01*
X0007542Y0092942D02*
X0003805Y0092942D01*
X0003805Y0093940D02*
X0007542Y0093940D01*
X0007542Y0094939D02*
X0003805Y0094939D01*
X0004414Y0095164D02*
X0005050Y0094872D01*
X0005703Y0095125D01*
X0005105Y0096672D01*
X0004414Y0095164D01*
X0005050Y0094872D02*
X0005105Y0094928D01*
X0005105Y0096672D01*
X0005105Y0098156D01*
X0006455Y0097934D02*
X0007542Y0097934D01*
X0007542Y0096936D02*
X0006149Y0096936D01*
X0007542Y0095937D02*
X0003805Y0095937D01*
X0003805Y0096936D02*
X0004061Y0096936D01*
X0005105Y0100156D02*
X0005105Y0103093D01*
X0010542Y0097934D02*
X0034237Y0097934D01*
X0034007Y0096936D02*
X0010542Y0096936D01*
X0010542Y0095937D02*
X0034007Y0095937D01*
X0034951Y0094939D02*
X0010542Y0094939D01*
X0010542Y0093940D02*
X0023811Y0093940D01*
X0023116Y0092942D02*
X0021656Y0092942D01*
X0021656Y0091943D02*
X0023093Y0091943D01*
X0026274Y0092942D02*
X0027243Y0092942D01*
X0027243Y0093940D02*
X0026274Y0093940D01*
X0029706Y0093940D02*
X0032020Y0093940D01*
X0031558Y0092942D02*
X0030401Y0092942D01*
X0030424Y0091943D02*
X0031558Y0091943D01*
X0031558Y0089946D02*
X0030424Y0089946D01*
X0030424Y0090207D02*
X0027243Y0090207D01*
X0027243Y0087223D01*
X0029121Y0087223D01*
X0029503Y0087325D01*
X0029845Y0087523D01*
X0030124Y0087802D01*
X0030322Y0088144D01*
X0030424Y0088525D01*
X0030424Y0090207D01*
X0030424Y0088948D02*
X0031558Y0088948D01*
X0031659Y0087949D02*
X0030209Y0087949D01*
X0029354Y0086951D02*
X0032431Y0086951D01*
X0032058Y0085952D02*
X0029924Y0085952D01*
X0027243Y0087949D02*
X0026274Y0087949D01*
X0026274Y0088948D02*
X0027243Y0088948D01*
X0027243Y0089946D02*
X0026274Y0089946D01*
X0029924Y0081958D02*
X0032058Y0081958D01*
X0032517Y0080960D02*
X0013542Y0080960D01*
X0013542Y0081958D02*
X0015326Y0081958D01*
X0015326Y0082957D02*
X0013542Y0082957D01*
X0013542Y0083955D02*
X0015326Y0083955D01*
X0015326Y0084954D02*
X0013542Y0084954D01*
X0013542Y0085952D02*
X0015326Y0085952D01*
X0015895Y0086951D02*
X0013542Y0086951D01*
X0013542Y0087949D02*
X0015685Y0087949D01*
X0015326Y0088948D02*
X0013542Y0088948D01*
X0011731Y0091943D02*
X0010542Y0091943D01*
X0010542Y0090945D02*
X0010842Y0090945D01*
X0010842Y0089946D02*
X0010542Y0089946D01*
X0010542Y0088948D02*
X0010842Y0088948D01*
X0010842Y0087949D02*
X0010542Y0087949D01*
X0010542Y0086951D02*
X0010842Y0086951D01*
X0010842Y0085952D02*
X0010542Y0085952D01*
X0010542Y0084954D02*
X0010842Y0084954D01*
X0010842Y0083955D02*
X0010647Y0083955D01*
X0010842Y0082957D02*
X0010048Y0082957D01*
X0009449Y0081958D02*
X0010842Y0081958D01*
X0010842Y0080960D02*
X0008850Y0080960D01*
X0008570Y0079961D02*
X0010842Y0079961D01*
X0010542Y0092942D02*
X0015326Y0092942D01*
X0026652Y0078963D02*
X0027652Y0078963D01*
X0027652Y0077964D02*
X0026652Y0077964D01*
X0026652Y0076966D02*
X0027652Y0076966D01*
X0034542Y0091943D02*
X0035511Y0091943D01*
X0035511Y0092942D02*
X0034542Y0092942D01*
X0034542Y0093940D02*
X0035511Y0093940D01*
X0037464Y0094939D02*
X0055633Y0094939D01*
X0055423Y0095937D02*
X0038407Y0095937D01*
X0038407Y0096936D02*
X0055423Y0096936D01*
X0055663Y0097934D02*
X0038178Y0097934D01*
X0038032Y0093940D02*
X0056047Y0093940D01*
X0056893Y0092942D02*
X0038495Y0092942D01*
X0061794Y0090945D02*
X0065416Y0090945D01*
X0065416Y0091943D02*
X0062007Y0091943D01*
X0063553Y0092942D02*
X0065416Y0092942D01*
X0065416Y0093940D02*
X0064400Y0093940D01*
X0064813Y0094939D02*
X0065416Y0094939D01*
X0065416Y0095937D02*
X0065023Y0095937D01*
X0065023Y0096936D02*
X0065416Y0096936D01*
X0065416Y0097934D02*
X0064783Y0097934D01*
X0066916Y0099762D02*
X0065953Y0101111D01*
X0066522Y0101518D01*
X0067211Y0101394D01*
X0066916Y0099762D01*
X0066916Y0101124D01*
X0066522Y0101518D01*
X0066916Y0099762D02*
X0066916Y0089093D01*
X0067310Y0088699D01*
X0067310Y0079865D01*
X0077956Y0078054D01*
X0077956Y0073971D01*
X0078389Y0073538D01*
X0075889Y0074969D02*
X0075710Y0074969D01*
X0075889Y0075967D02*
X0065023Y0075967D01*
X0065023Y0076966D02*
X0075406Y0076966D01*
X0075686Y0079961D02*
X0085606Y0079961D01*
X0085606Y0078963D02*
X0079168Y0078963D01*
X0079106Y0079025D02*
X0078820Y0079428D01*
X0078678Y0079452D01*
X0078577Y0079554D01*
X0078082Y0079554D01*
X0068810Y0081131D01*
X0068810Y0089321D01*
X0068416Y0089714D01*
X0068416Y0099627D01*
X0068565Y0100449D01*
X0068722Y0100607D01*
X0068722Y0101321D01*
X0068798Y0101738D01*
X0068722Y0101847D01*
X0068722Y0102429D01*
X0067434Y0103718D01*
X0065770Y0103718D01*
X0065799Y0108522D01*
X0075333Y0108522D01*
X0076211Y0109401D01*
X0081868Y0115057D01*
X0130956Y0115057D01*
X0130956Y0098902D01*
X0129995Y0099862D01*
X0127129Y0101050D01*
X0124026Y0101050D01*
X0121160Y0099862D01*
X0118966Y0097668D01*
X0117778Y0094802D01*
X0117778Y0091699D01*
X0118966Y0088832D01*
X0121160Y0086639D01*
X0121214Y0086616D01*
X0091029Y0086616D01*
X0090546Y0086669D01*
X0090480Y0086616D01*
X0090396Y0086616D01*
X0090053Y0086273D01*
X0086481Y0083404D01*
X0086396Y0083404D01*
X0086053Y0083060D01*
X0085674Y0082756D01*
X0085665Y0082672D01*
X0085606Y0082613D01*
X0085606Y0082127D01*
X0085553Y0081644D01*
X0085606Y0081579D01*
X0085606Y0077538D01*
X0085136Y0077538D01*
X0084885Y0077287D01*
X0084634Y0077538D01*
X0080805Y0077538D01*
X0080554Y0077287D01*
X0080303Y0077538D01*
X0079455Y0077538D01*
X0079455Y0077927D01*
X0079538Y0078414D01*
X0079455Y0078531D01*
X0079455Y0078675D01*
X0079106Y0079025D01*
X0079462Y0077964D02*
X0085606Y0077964D01*
X0085606Y0080960D02*
X0069816Y0080960D01*
X0068810Y0081958D02*
X0085587Y0081958D01*
X0085924Y0082957D02*
X0068810Y0082957D01*
X0068810Y0083955D02*
X0087168Y0083955D01*
X0088411Y0084954D02*
X0068810Y0084954D01*
X0068810Y0085952D02*
X0073997Y0085952D01*
X0075207Y0085451D02*
X0078310Y0085451D01*
X0081177Y0086639D01*
X0083371Y0088832D01*
X0084558Y0091699D01*
X0084558Y0094802D01*
X0083371Y0097668D01*
X0081177Y0099862D01*
X0078310Y0101050D01*
X0075207Y0101050D01*
X0072341Y0099862D01*
X0070147Y0097668D01*
X0068959Y0094802D01*
X0068959Y0091699D01*
X0070147Y0088832D01*
X0072341Y0086639D01*
X0075207Y0085451D01*
X0072028Y0086951D02*
X0068810Y0086951D01*
X0068810Y0087949D02*
X0071030Y0087949D01*
X0070099Y0088948D02*
X0068810Y0088948D01*
X0068416Y0089946D02*
X0069685Y0089946D01*
X0069272Y0090945D02*
X0068416Y0090945D01*
X0068416Y0091943D02*
X0068959Y0091943D01*
X0068959Y0092942D02*
X0068416Y0092942D01*
X0068416Y0093940D02*
X0068959Y0093940D01*
X0069016Y0094939D02*
X0068416Y0094939D01*
X0068416Y0095937D02*
X0069430Y0095937D01*
X0069843Y0096936D02*
X0068416Y0096936D01*
X0068416Y0097934D02*
X0070413Y0097934D01*
X0071411Y0098933D02*
X0068416Y0098933D01*
X0068471Y0099931D02*
X0072508Y0099931D01*
X0074919Y0100930D02*
X0068722Y0100930D01*
X0068798Y0101738D02*
X0068798Y0101738D01*
X0068798Y0101738D01*
X0068722Y0101928D02*
X0130956Y0101928D01*
X0130956Y0100930D02*
X0127418Y0100930D01*
X0129828Y0099931D02*
X0130956Y0099931D01*
X0130925Y0098933D02*
X0130956Y0098933D01*
X0130956Y0102927D02*
X0068225Y0102927D01*
X0065771Y0103926D02*
X0130956Y0103926D01*
X0130956Y0104924D02*
X0065777Y0104924D01*
X0065783Y0105923D02*
X0130956Y0105923D01*
X0130956Y0106921D02*
X0065790Y0106921D01*
X0065796Y0107920D02*
X0130956Y0107920D01*
X0130956Y0108918D02*
X0075729Y0108918D01*
X0076727Y0109917D02*
X0130956Y0109917D01*
X0130956Y0110915D02*
X0077726Y0110915D01*
X0078724Y0111914D02*
X0130956Y0111914D01*
X0130956Y0112912D02*
X0079723Y0112912D01*
X0080721Y0113911D02*
X0130956Y0113911D01*
X0130956Y0114909D02*
X0081720Y0114909D01*
X0079474Y0116906D02*
X0077985Y0116906D01*
X0078476Y0115908D02*
X0076986Y0115908D01*
X0077477Y0114909D02*
X0075988Y0114909D01*
X0076479Y0113911D02*
X0074989Y0113911D01*
X0074237Y0113158D02*
X0084031Y0122953D01*
X0130956Y0122953D01*
X0130956Y0118057D01*
X0080626Y0118057D01*
X0074090Y0111522D01*
X0073385Y0111522D01*
X0073435Y0111619D01*
X0073841Y0112024D01*
X0073841Y0112397D01*
X0073860Y0112434D01*
X0074237Y0113158D01*
X0074109Y0112912D02*
X0075480Y0112912D01*
X0074482Y0111914D02*
X0073730Y0111914D01*
X0073860Y0112434D02*
X0073860Y0112434D01*
X0073027Y0115908D02*
X0065844Y0115908D01*
X0065850Y0116906D02*
X0074025Y0116906D01*
X0075024Y0117905D02*
X0065857Y0117905D01*
X0065863Y0118903D02*
X0076022Y0118903D01*
X0077021Y0119902D02*
X0068332Y0119902D01*
X0068769Y0120900D02*
X0078019Y0120900D01*
X0079018Y0121899D02*
X0068722Y0121899D01*
X0068482Y0122897D02*
X0080016Y0122897D01*
X0081015Y0123896D02*
X0068455Y0123896D01*
X0068455Y0124894D02*
X0082013Y0124894D01*
X0083976Y0122897D02*
X0130956Y0122897D01*
X0130956Y0121899D02*
X0082977Y0121899D01*
X0081979Y0120900D02*
X0130956Y0120900D01*
X0130956Y0119902D02*
X0080980Y0119902D01*
X0079982Y0118903D02*
X0130956Y0118903D01*
X0130956Y0125893D02*
X0068455Y0125893D01*
X0068455Y0126891D02*
X0130956Y0126891D01*
X0130956Y0127890D02*
X0068455Y0127890D01*
X0068455Y0128888D02*
X0130956Y0128888D01*
X0130956Y0129887D02*
X0068455Y0129887D01*
X0068455Y0130885D02*
X0130956Y0130885D01*
X0130956Y0131884D02*
X0068455Y0131884D01*
X0068455Y0132882D02*
X0130956Y0132882D01*
X0130956Y0133881D02*
X0068455Y0133881D01*
X0068455Y0134879D02*
X0130956Y0134879D01*
X0133890Y0138873D02*
X0146052Y0138873D01*
X0146907Y0139872D02*
X0133894Y0139872D01*
X0133899Y0140870D02*
X0148473Y0140870D01*
X0148619Y0141869D02*
X0133903Y0141869D01*
X0133908Y0142867D02*
X0146968Y0142867D01*
X0146077Y0143866D02*
X0133912Y0143866D01*
X0133917Y0144864D02*
X0145664Y0144864D01*
X0145423Y0145863D02*
X0133921Y0145863D01*
X0133926Y0146862D02*
X0145392Y0146862D01*
X0145385Y0146836D02*
X0145385Y0146836D01*
X0145633Y0147860D02*
X0139991Y0147860D01*
X0140376Y0148859D02*
X0144761Y0148859D01*
X0143763Y0149857D02*
X0140376Y0149857D01*
X0139588Y0150856D02*
X0142764Y0150856D01*
X0141766Y0151854D02*
X0137458Y0151854D01*
X0136459Y0152853D02*
X0140767Y0152853D01*
X0139428Y0151056D02*
X0139428Y0151056D01*
X0136361Y0147860D02*
X0133930Y0147860D01*
X0133935Y0148859D02*
X0135955Y0148859D01*
X0135495Y0149857D02*
X0133939Y0149857D01*
X0133944Y0150856D02*
X0134496Y0150856D01*
X0130956Y0150856D02*
X0129498Y0150856D01*
X0130788Y0149857D02*
X0130956Y0149857D01*
X0121657Y0150856D02*
X0080679Y0150856D01*
X0081969Y0149857D02*
X0120367Y0149857D01*
X0119369Y0148859D02*
X0082968Y0148859D01*
X0083617Y0147860D02*
X0118719Y0147860D01*
X0118305Y0146862D02*
X0084031Y0146862D01*
X0084444Y0145863D02*
X0117892Y0145863D01*
X0117778Y0144864D02*
X0084558Y0144864D01*
X0084558Y0143866D02*
X0117778Y0143866D01*
X0117778Y0142867D02*
X0084558Y0142867D01*
X0084302Y0141869D02*
X0118034Y0141869D01*
X0118448Y0140870D02*
X0083888Y0140870D01*
X0083475Y0139872D02*
X0118861Y0139872D01*
X0119712Y0138873D02*
X0082624Y0138873D01*
X0081626Y0137875D02*
X0120711Y0137875D01*
X0122486Y0136876D02*
X0079850Y0136876D01*
X0066956Y0141282D02*
X0066956Y0122950D01*
X0067214Y0121312D01*
X0066522Y0121203D01*
X0065962Y0121623D01*
X0066956Y0122950D01*
X0066956Y0121636D01*
X0066522Y0121203D01*
X0065838Y0114909D02*
X0070503Y0114909D01*
X0069504Y0113911D02*
X0065832Y0113911D01*
X0065826Y0112912D02*
X0069441Y0112912D01*
X0069551Y0111914D02*
X0066437Y0111914D01*
X0078983Y0117905D02*
X0080473Y0117905D01*
X0078599Y0100930D02*
X0123737Y0100930D01*
X0121327Y0099931D02*
X0081009Y0099931D01*
X0082106Y0098933D02*
X0120230Y0098933D01*
X0119232Y0097934D02*
X0083104Y0097934D01*
X0083674Y0096936D02*
X0118662Y0096936D01*
X0118249Y0095937D02*
X0084087Y0095937D01*
X0084501Y0094939D02*
X0117835Y0094939D01*
X0117778Y0093940D02*
X0084558Y0093940D01*
X0084558Y0092942D02*
X0117778Y0092942D01*
X0117778Y0091943D02*
X0084558Y0091943D01*
X0084245Y0090945D02*
X0118091Y0090945D01*
X0118504Y0089946D02*
X0083832Y0089946D01*
X0083418Y0088948D02*
X0118918Y0088948D01*
X0119849Y0087949D02*
X0082487Y0087949D01*
X0081489Y0086951D02*
X0120847Y0086951D01*
X0125956Y0078310D02*
X0125956Y0076963D01*
X0125606Y0076613D01*
X0125606Y0070613D01*
X0123396Y0068404D01*
X0105723Y0068404D01*
X0105723Y0069538D01*
X0106287Y0069538D01*
X0106538Y0069789D01*
X0106789Y0069538D01*
X0110618Y0069538D01*
X0110869Y0069789D01*
X0111120Y0069538D01*
X0114948Y0069538D01*
X0115534Y0070124D01*
X0115534Y0076952D01*
X0114948Y0077538D01*
X0111120Y0077538D01*
X0110869Y0077287D01*
X0110618Y0077538D01*
X0110305Y0077538D01*
X0110305Y0078293D01*
X0110333Y0078310D01*
X0125956Y0078310D01*
X0125956Y0077964D02*
X0110305Y0077964D01*
X0115521Y0076966D02*
X0125956Y0076966D01*
X0125606Y0075967D02*
X0115534Y0075967D01*
X0115534Y0074969D02*
X0125606Y0074969D01*
X0125606Y0073970D02*
X0115534Y0073970D01*
X0115534Y0072972D02*
X0125606Y0072972D01*
X0125606Y0071973D02*
X0115534Y0071973D01*
X0115534Y0070975D02*
X0125606Y0070975D01*
X0124969Y0069976D02*
X0115387Y0069976D01*
X0123970Y0068978D02*
X0105723Y0068978D01*
X0103023Y0068978D02*
X0102305Y0068978D01*
X0101790Y0067979D02*
X0103023Y0067979D01*
X0103119Y0066981D02*
X0100672Y0066981D01*
X0099565Y0065982D02*
X0104118Y0065982D01*
X0098457Y0064984D02*
X0130956Y0064984D01*
X0130956Y0065982D02*
X0124793Y0065982D01*
X0125792Y0066981D02*
X0125956Y0066981D01*
X0130956Y0063985D02*
X0064418Y0063985D01*
X0063598Y0062987D02*
X0130956Y0062987D01*
X0130956Y0061988D02*
X0062115Y0061988D01*
X0061686Y0060990D02*
X0130956Y0060990D01*
X0130956Y0059991D02*
X0063420Y0059991D01*
X0064345Y0058993D02*
X0130956Y0058993D01*
X0130956Y0057994D02*
X0064758Y0057994D01*
X0065023Y0056995D02*
X0130956Y0056995D01*
X0130956Y0055997D02*
X0065023Y0055997D01*
X0064838Y0054998D02*
X0130956Y0054998D01*
X0130956Y0054000D02*
X0064425Y0054000D01*
X0063613Y0053001D02*
X0130956Y0053001D01*
X0130956Y0052003D02*
X0062151Y0052003D01*
X0061650Y0051004D02*
X0130956Y0051004D01*
X0130956Y0050006D02*
X0063406Y0050006D01*
X0064339Y0049007D02*
X0130956Y0049007D01*
X0130956Y0048009D02*
X0064752Y0048009D01*
X0065023Y0047010D02*
X0130956Y0047010D01*
X0130956Y0046012D02*
X0065023Y0046012D01*
X0064844Y0045013D02*
X0130956Y0045013D01*
X0134582Y0038024D02*
X0135581Y0038024D01*
X0135581Y0037025D02*
X0134582Y0037025D01*
X0134582Y0036027D02*
X0135581Y0036027D01*
X0135581Y0035028D02*
X0134582Y0035028D01*
X0134582Y0034030D02*
X0135581Y0034030D01*
X0135581Y0031034D02*
X0134582Y0031034D01*
X0134582Y0030036D02*
X0135581Y0030036D01*
X0135581Y0029037D02*
X0134582Y0029037D01*
X0134582Y0028039D02*
X0135581Y0028039D01*
X0130731Y0028039D02*
X0125578Y0028039D01*
X0125578Y0029037D02*
X0130581Y0029037D01*
X0130581Y0030036D02*
X0125578Y0030036D01*
X0125578Y0031034D02*
X0130581Y0031034D01*
X0125578Y0021049D02*
X0183222Y0021049D01*
X0180980Y0020051D02*
X0125578Y0020051D01*
X0123609Y0020051D02*
X0008663Y0020051D01*
X0014353Y0029037D02*
X0016723Y0029037D01*
X0019672Y0031636D02*
X0011404Y0031636D01*
X0014373Y0034030D02*
X0014427Y0034030D01*
X0014795Y0034036D02*
X0014795Y0034036D01*
X0014795Y0034036D01*
X0016256Y0034030D02*
X0016517Y0034030D01*
X0018790Y0039022D02*
X0021590Y0039022D01*
X0022589Y0040021D02*
X0018790Y0040021D01*
X0022034Y0037345D02*
X0025971Y0041282D01*
X0026365Y0041282D01*
X0022837Y0031034D02*
X0034749Y0031034D01*
X0034346Y0030696D02*
X0034346Y0030696D01*
X0035659Y0031797D01*
X0035734Y0032033D01*
X0034346Y0030696D02*
X0034240Y0030608D01*
X0034052Y0030530D01*
X0033559Y0030037D01*
X0033076Y0029632D01*
X0033068Y0029546D01*
X0032786Y0029264D01*
X0032101Y0027610D01*
X0032101Y0027040D02*
X0022837Y0027040D01*
X0022837Y0026042D02*
X0032101Y0026042D01*
X0032692Y0029037D02*
X0022621Y0029037D01*
X0022837Y0030036D02*
X0033558Y0030036D01*
X0065023Y0066981D02*
X0096640Y0066981D01*
X0097748Y0067979D02*
X0076089Y0067979D01*
X0076089Y0068978D02*
X0098855Y0068978D01*
X0089654Y0085952D02*
X0079520Y0085952D01*
X0070468Y0074969D02*
X0064826Y0074969D01*
X0064412Y0073970D02*
X0070089Y0073970D01*
X0070089Y0072972D02*
X0063583Y0072972D01*
X0062079Y0071973D02*
X0070089Y0071973D01*
X0070089Y0070975D02*
X0061722Y0070975D01*
X0063435Y0069976D02*
X0070089Y0069976D01*
X0070089Y0068978D02*
X0064351Y0068978D01*
X0064765Y0067979D02*
X0070089Y0067979D01*
X0069536Y0077964D02*
X0064771Y0077964D01*
X0064357Y0078963D02*
X0066090Y0078963D01*
X0065805Y0079961D02*
X0063450Y0079961D01*
X0061758Y0080960D02*
X0065810Y0080960D01*
X0065810Y0081958D02*
X0062043Y0081958D01*
X0063568Y0082957D02*
X0065810Y0082957D01*
X0065810Y0083955D02*
X0064406Y0083955D01*
X0064820Y0084954D02*
X0065810Y0084954D01*
X0065810Y0085952D02*
X0065023Y0085952D01*
X0065023Y0086951D02*
X0065810Y0086951D01*
X0065810Y0087949D02*
X0064777Y0087949D01*
X0064363Y0088948D02*
X0065416Y0088948D01*
X0065416Y0089946D02*
X0063465Y0089946D01*
X0046444Y0129274D02*
X0053727Y0141282D01*
X0066956Y0141282D01*
X0066956Y0145254D01*
X0066311Y0146781D01*
X0066956Y0147054D01*
X0067600Y0146781D01*
X0066956Y0145254D01*
X0066956Y0147054D01*
X0074070Y0160841D02*
X0130275Y0160841D01*
X0129920Y0161839D02*
X0073071Y0161839D01*
X0046444Y0146577D02*
X0046444Y0140888D01*
X0045656Y0140101D01*
X0044081Y0139707D01*
X0037782Y0133408D01*
X0037782Y0129274D01*
X0046444Y0146577D02*
X0046227Y0146794D01*
X0036852Y0153365D02*
X0036207Y0153093D01*
X0035563Y0153365D01*
X0036207Y0154893D01*
X0036852Y0153365D01*
X0036207Y0153093D02*
X0036207Y0154893D01*
X0036207Y0162542D01*
X0031483Y0167266D01*
X0031483Y0173565D01*
X0031483Y0182758D01*
X0031227Y0183014D01*
X0026227Y0183014D02*
X0021227Y0183014D01*
X0016227Y0183014D01*
X0011227Y0183014D01*
X0011011Y0182798D01*
X0011011Y0166872D01*
X0007231Y0163093D01*
X0006662Y0161518D01*
X0006749Y0159862D01*
X0006050Y0159825D01*
X0005536Y0160300D01*
X0006662Y0161518D01*
X0006050Y0159825D01*
X0041227Y0183014D02*
X0041326Y0183113D01*
X0129121Y0161754D02*
X0131270Y0161754D01*
X0134096Y0162838D02*
X0146997Y0162838D01*
X0146090Y0163836D02*
X0134002Y0163836D01*
X0141731Y0155848D02*
X0145423Y0155848D01*
X0145670Y0154850D02*
X0142730Y0154850D01*
X0143728Y0153851D02*
X0146084Y0153851D01*
X0146982Y0152853D02*
X0144727Y0152853D01*
X0145725Y0151854D02*
X0148655Y0151854D01*
X0148437Y0150856D02*
X0146724Y0150856D01*
X0153554Y0149857D02*
X0160101Y0149857D01*
X0160011Y0148859D02*
X0154400Y0148859D01*
X0154814Y0147860D02*
X0160011Y0147860D01*
X0160011Y0146862D02*
X0155023Y0146862D01*
X0155023Y0145863D02*
X0160011Y0145863D01*
X0160011Y0144864D02*
X0154783Y0144864D01*
X0154369Y0143866D02*
X0160011Y0143866D01*
X0160176Y0142867D02*
X0153479Y0142867D01*
X0151827Y0141869D02*
X0162070Y0141869D01*
X0160011Y0140870D02*
X0151974Y0140870D01*
X0153540Y0139872D02*
X0160011Y0139872D01*
X0160011Y0138873D02*
X0154394Y0138873D01*
X0154808Y0137875D02*
X0160011Y0137875D01*
X0160011Y0136876D02*
X0155023Y0136876D01*
X0155023Y0135878D02*
X0160011Y0135878D01*
X0160011Y0134879D02*
X0154789Y0134879D01*
X0154375Y0133881D02*
X0160431Y0133881D01*
X0161907Y0132882D02*
X0153494Y0132882D01*
X0151863Y0131884D02*
X0161873Y0131884D01*
X0162593Y0130885D02*
X0151938Y0130885D01*
X0158880Y0122897D02*
X0162701Y0122897D01*
X0163126Y0122400D02*
X0163126Y0122400D01*
X0163204Y0121899D02*
X0158880Y0121899D01*
X0158880Y0120900D02*
X0163204Y0120900D01*
X0163204Y0119902D02*
X0158799Y0119902D01*
X0161997Y0116906D02*
X0163204Y0116906D01*
X0163204Y0115908D02*
X0162011Y0115908D01*
X0162011Y0114909D02*
X0163204Y0114909D01*
X0163204Y0113911D02*
X0162011Y0113911D01*
X0162011Y0112912D02*
X0163204Y0112912D01*
X0163204Y0111914D02*
X0162011Y0111914D01*
X0162003Y0110915D02*
X0163204Y0110915D01*
X0163204Y0109917D02*
X0162511Y0109917D01*
X0162511Y0108918D02*
X0163204Y0108918D01*
X0163204Y0107920D02*
X0159526Y0107920D01*
X0158558Y0107920D02*
X0155302Y0107920D01*
X0155574Y0107136D02*
X0155574Y0105258D01*
X0155676Y0104876D01*
X0155873Y0104534D01*
X0156153Y0104255D01*
X0156495Y0104057D01*
X0156876Y0103955D01*
X0158558Y0103955D01*
X0158558Y0107136D01*
X0155574Y0107136D01*
X0155574Y0106921D02*
X0155507Y0106921D01*
X0155514Y0105923D02*
X0155574Y0105923D01*
X0155663Y0104924D02*
X0155316Y0104924D01*
X0154911Y0103926D02*
X0163204Y0103926D01*
X0163204Y0104924D02*
X0162421Y0104924D01*
X0162511Y0105923D02*
X0163204Y0105923D01*
X0163204Y0106921D02*
X0162511Y0106921D01*
X0159526Y0106921D02*
X0158558Y0106921D01*
X0158558Y0105923D02*
X0159526Y0105923D01*
X0159526Y0104924D02*
X0158558Y0104924D01*
X0154246Y0102927D02*
X0163204Y0102927D01*
X0163055Y0101928D02*
X0153086Y0101928D01*
X0151830Y0100930D02*
X0162057Y0100930D01*
X0161058Y0099931D02*
X0153480Y0099931D01*
X0154370Y0098933D02*
X0160724Y0098933D01*
X0160724Y0097934D02*
X0154783Y0097934D01*
X0155023Y0096936D02*
X0160724Y0096936D01*
X0160724Y0095937D02*
X0155023Y0095937D01*
X0154813Y0094939D02*
X0160724Y0094939D01*
X0160724Y0093940D02*
X0154400Y0093940D01*
X0153553Y0092942D02*
X0160724Y0092942D01*
X0160724Y0091943D02*
X0152007Y0091943D01*
X0151794Y0090945D02*
X0160724Y0090945D01*
X0160724Y0089946D02*
X0153465Y0089946D01*
X0154363Y0088948D02*
X0160724Y0088948D01*
X0166351Y0095937D02*
X0168911Y0095937D01*
X0168981Y0095891D02*
X0168981Y0095891D01*
X0165268Y0098933D02*
X0163878Y0098933D01*
X0164057Y0097934D02*
X0163424Y0097934D01*
X0164876Y0099931D02*
X0165966Y0099931D01*
X0165875Y0100930D02*
X0166274Y0100930D01*
X0166640Y0101928D02*
X0165904Y0101928D01*
X0166767Y0102310D02*
X0166767Y0102310D01*
X0166767Y0102310D01*
X0167237Y0102927D02*
X0165904Y0102927D01*
X0155574Y0108918D02*
X0154889Y0108918D01*
X0155574Y0109917D02*
X0154202Y0109917D01*
X0153026Y0110915D02*
X0156082Y0110915D01*
X0156074Y0111914D02*
X0151935Y0111914D01*
X0152648Y0112198D02*
X0152648Y0112198D01*
X0153720Y0112912D02*
X0156074Y0112912D01*
X0156074Y0115908D02*
X0155023Y0115908D01*
X0155023Y0116906D02*
X0156087Y0116906D01*
X0154795Y0117905D02*
X0163204Y0117905D01*
X0163204Y0118903D02*
X0154382Y0118903D01*
X0156647Y0119311D02*
X0156647Y0119311D01*
X0156647Y0119311D01*
X0165904Y0118903D02*
X0166400Y0118903D01*
X0166274Y0119902D02*
X0165904Y0119902D01*
X0165904Y0120900D02*
X0166274Y0120900D01*
X0165904Y0121899D02*
X0166648Y0121899D01*
X0167207Y0122897D02*
X0165904Y0122897D01*
X0165686Y0123896D02*
X0168205Y0123896D01*
X0165850Y0124894D02*
X0175259Y0124894D01*
X0175259Y0123896D02*
X0173343Y0123896D01*
X0174342Y0122897D02*
X0175259Y0122897D01*
X0175259Y0121899D02*
X0174900Y0121899D01*
X0175149Y0118903D02*
X0175259Y0118903D01*
X0175259Y0117905D02*
X0174736Y0117905D01*
X0175259Y0116906D02*
X0173944Y0116906D01*
X0175259Y0115908D02*
X0172410Y0115908D01*
X0169138Y0115908D02*
X0165904Y0115908D01*
X0165904Y0116906D02*
X0167605Y0116906D01*
X0166813Y0117905D02*
X0165904Y0117905D01*
X0165910Y0125256D02*
X0165910Y0125256D01*
X0165910Y0125256D01*
X0165848Y0125893D02*
X0175259Y0125893D01*
X0174461Y0126891D02*
X0164930Y0126891D01*
X0164160Y0131439D02*
X0172034Y0131439D01*
X0172713Y0132882D02*
X0178408Y0132882D01*
X0178408Y0131884D02*
X0173711Y0131884D01*
X0174710Y0130885D02*
X0178408Y0130885D01*
X0178408Y0129887D02*
X0175708Y0129887D01*
X0176707Y0128888D02*
X0178408Y0128888D01*
X0178408Y0127890D02*
X0177705Y0127890D01*
X0178259Y0126891D02*
X0178408Y0126891D01*
X0178408Y0125893D02*
X0178259Y0125893D01*
X0178259Y0124894D02*
X0178408Y0124894D01*
X0178408Y0123896D02*
X0178259Y0123896D01*
X0178259Y0122897D02*
X0178408Y0122897D01*
X0178408Y0121899D02*
X0178259Y0121899D01*
X0178259Y0120900D02*
X0178408Y0120900D01*
X0178408Y0119902D02*
X0178259Y0119902D01*
X0178259Y0118903D02*
X0178408Y0118903D01*
X0178408Y0117905D02*
X0178259Y0117905D01*
X0178259Y0116906D02*
X0178408Y0116906D01*
X0178408Y0115908D02*
X0178259Y0115908D01*
X0178259Y0114909D02*
X0178408Y0114909D01*
X0178408Y0113911D02*
X0178259Y0113911D01*
X0178259Y0112912D02*
X0178408Y0112912D01*
X0178408Y0111914D02*
X0178259Y0111914D01*
X0178259Y0110915D02*
X0178408Y0110915D01*
X0178408Y0109917D02*
X0178259Y0109917D01*
X0178259Y0108918D02*
X0178408Y0108918D01*
X0178408Y0107920D02*
X0178259Y0107920D01*
X0178259Y0106921D02*
X0178408Y0106921D01*
X0178408Y0105923D02*
X0178259Y0105923D01*
X0164160Y0131439D02*
X0163373Y0132227D01*
X0163570Y0137668D02*
X0163570Y0146400D01*
X0169763Y0136876D02*
X0170763Y0136876D01*
X0170763Y0137168D02*
X0170763Y0133215D01*
X0173019Y0133215D01*
X0173401Y0133317D01*
X0173743Y0133515D01*
X0174022Y0133794D01*
X0174219Y0134136D01*
X0174322Y0134517D01*
X0174322Y0137168D01*
X0170763Y0137168D01*
X0170763Y0135878D02*
X0169763Y0135878D01*
X0169763Y0134879D02*
X0170763Y0134879D01*
X0170763Y0133881D02*
X0169763Y0133881D01*
X0174072Y0133881D02*
X0178408Y0133881D01*
X0178408Y0134879D02*
X0174322Y0134879D01*
X0174322Y0135878D02*
X0178408Y0135878D01*
X0178408Y0136876D02*
X0174322Y0136876D01*
X0168380Y0160479D02*
X0168380Y0160479D01*
X0168380Y0160479D01*
X0161563Y0163836D02*
X0154357Y0163836D01*
X0153449Y0162838D02*
X0185838Y0162838D01*
X0185838Y0161839D02*
X0151755Y0161839D01*
X0152045Y0160841D02*
X0185838Y0160841D01*
X0148653Y0090945D02*
X0147984Y0090945D01*
X0146054Y0088878D02*
X0145423Y0087355D01*
X0145423Y0085445D01*
X0146154Y0083681D01*
X0147046Y0082789D01*
X0140805Y0082789D01*
X0140730Y0082848D01*
X0140384Y0082805D01*
X0146054Y0088878D01*
X0145670Y0087949D02*
X0145187Y0087949D01*
X0145423Y0086951D02*
X0144255Y0086951D01*
X0143322Y0085952D02*
X0145423Y0085952D01*
X0145627Y0084954D02*
X0142390Y0084954D01*
X0141458Y0083955D02*
X0146040Y0083955D01*
X0146878Y0082957D02*
X0140525Y0082957D01*
X0138696Y0084954D02*
X0138470Y0084954D01*
X0137764Y0083955D02*
X0137554Y0083955D01*
X0139332Y0085952D02*
X0139628Y0085952D01*
X0140195Y0086951D02*
X0140561Y0086951D01*
X0141058Y0087949D02*
X0141493Y0087949D01*
X0144155Y0090945D02*
X0144290Y0090945D01*
X0144155Y0091943D02*
X0145222Y0091943D01*
X0154826Y0074969D02*
X0156671Y0074969D01*
X0155672Y0073970D02*
X0154412Y0073970D01*
X0154674Y0072972D02*
X0153583Y0072972D01*
X0153675Y0071973D02*
X0152079Y0071973D01*
X0151722Y0070975D02*
X0152677Y0070975D01*
X0150897Y0071224D02*
X0150897Y0071224D01*
X0150897Y0071224D01*
X0171141Y0047010D02*
X0172141Y0047010D01*
X0172141Y0046012D02*
X0171141Y0046012D01*
X0170747Y0044015D02*
X0171747Y0044015D01*
X0171747Y0043016D02*
X0170747Y0043016D01*
X0170747Y0042018D02*
X0171747Y0042018D01*
X0171747Y0039022D02*
X0170747Y0039022D01*
X0170747Y0038024D02*
X0171747Y0038024D01*
X0171747Y0037025D02*
X0170747Y0037025D01*
X0170747Y0036027D02*
X0171747Y0036027D01*
X0175790Y0032033D02*
X0176456Y0032033D01*
X0176456Y0031034D02*
X0175790Y0031034D01*
X0176290Y0041019D02*
X0176456Y0041019D01*
X0176456Y0042018D02*
X0176290Y0042018D01*
X0176290Y0043016D02*
X0176456Y0043016D01*
X0176456Y0044015D02*
X0175753Y0044015D01*
X0176093Y0050006D02*
X0176456Y0050006D01*
X0176456Y0051004D02*
X0176093Y0051004D01*
X0176093Y0052003D02*
X0176456Y0052003D01*
X0176456Y0053001D02*
X0175625Y0053001D01*
X0175593Y0058993D02*
X0175756Y0058993D01*
X0114782Y0033031D02*
X0102089Y0033031D01*
X0101867Y0033254D02*
X0103155Y0031965D01*
X0103155Y0030142D01*
X0101867Y0028854D01*
X0100044Y0028854D01*
X0098756Y0030142D01*
X0098756Y0031965D01*
X0100044Y0033254D01*
X0101867Y0033254D01*
X0103088Y0032033D02*
X0114037Y0032033D01*
X0113721Y0031034D02*
X0103155Y0031034D01*
X0103049Y0030036D02*
X0113721Y0030036D01*
X0114111Y0029037D02*
X0102050Y0029037D01*
X0099861Y0029037D02*
X0088335Y0029037D01*
X0088230Y0028783D02*
X0088725Y0029978D01*
X0088725Y0031271D01*
X0088230Y0032465D01*
X0087316Y0033380D01*
X0086122Y0033874D01*
X0084829Y0033874D01*
X0083634Y0033380D01*
X0082720Y0032465D01*
X0082225Y0031271D01*
X0082225Y0029978D01*
X0082720Y0028783D01*
X0083634Y0027869D01*
X0084829Y0027374D01*
X0086122Y0027374D01*
X0087316Y0027869D01*
X0088230Y0028783D01*
X0087486Y0028039D02*
X0114961Y0028039D01*
X0099822Y0033031D02*
X0087665Y0033031D01*
X0088410Y0032033D02*
X0098823Y0032033D01*
X0098756Y0031034D02*
X0088725Y0031034D01*
X0088725Y0030036D02*
X0098862Y0030036D01*
X0083465Y0028039D02*
X0079955Y0028039D01*
X0079955Y0029037D02*
X0082615Y0029037D01*
X0082225Y0030036D02*
X0079955Y0030036D01*
X0079955Y0031034D02*
X0082225Y0031034D01*
X0082541Y0032033D02*
X0079955Y0032033D01*
X0079955Y0033031D02*
X0083286Y0033031D01*
D32*
X0081704Y0040849D03*
X0071011Y0045660D03*
X0065538Y0031321D03*
X0050011Y0045660D03*
X0066011Y0061660D03*
X0083853Y0084408D03*
X0066522Y0101518D03*
X0064152Y0091565D03*
X0071641Y0112935D03*
X0073011Y0119660D03*
X0066522Y0121203D03*
X0072798Y0133723D03*
X0066956Y0147054D03*
X0072932Y0154416D03*
X0081011Y0158660D03*
X0086011Y0158660D03*
X0092011Y0158660D03*
X0097011Y0158660D03*
X0103011Y0158660D03*
X0108011Y0158660D03*
X0113011Y0158660D03*
X0117011Y0158660D03*
X0138176Y0149156D03*
X0123192Y0132148D03*
X0124011Y0120235D03*
X0141956Y0091054D03*
X0144743Y0083660D03*
X0135601Y0083148D03*
X0120011Y0075660D03*
X0125798Y0062896D03*
X0117711Y0087951D03*
X0120286Y0038487D03*
X0100956Y0031054D03*
X0042011Y0068660D03*
X0032011Y0068660D03*
X0020641Y0056699D03*
X0017310Y0062935D03*
X0009223Y0056306D03*
X0012192Y0052306D03*
X0018097Y0045219D03*
X0015341Y0031833D03*
X0006861Y0023235D03*
X0028011Y0030660D03*
X0006680Y0078683D03*
X0005050Y0094872D03*
X0032428Y0116518D03*
X0036207Y0118054D03*
X0036207Y0096794D03*
X0036207Y0153093D03*
X0042270Y0162187D03*
X0006050Y0159825D03*
X0163648Y0125061D03*
X0168885Y0154274D03*
X0168097Y0158211D03*
X0166759Y0161479D03*
X0175971Y0154274D03*
X0181719Y0160298D03*
X0179908Y0092069D03*
X0176759Y0081046D03*
X0166129Y0084983D03*
X0177956Y0060054D03*
D33*
X0152890Y0067254D02*
X0150223Y0066400D01*
X0151077Y0069067D01*
X0152450Y0068627D01*
X0152890Y0067254D01*
X0169394Y0098016D02*
X0167797Y0099074D01*
X0168403Y0100891D01*
X0170774Y0100101D01*
X0169394Y0098016D01*
X0062712Y0037682D02*
X0063373Y0036400D01*
X0062712Y0035118D01*
X0060223Y0036400D01*
X0062712Y0037682D01*
X0038822Y0027863D02*
X0036601Y0026715D01*
X0034995Y0028631D01*
X0037389Y0030637D01*
X0038822Y0027863D01*
D34*
X0161806Y0056054D02*
X0176956Y0056054D01*
X0177956Y0057054D01*
X0177956Y0060054D01*
D35*
X0150223Y0076400D02*
X0147914Y0078468D01*
X0147543Y0078054D01*
X0147339Y0077535D01*
X0150223Y0076400D01*
X0149197Y0093475D02*
X0150223Y0096400D01*
X0148243Y0094015D01*
X0148671Y0093659D01*
X0149197Y0093475D01*
X0152146Y0113968D02*
X0150223Y0116400D01*
X0152872Y0114789D01*
X0152582Y0114313D01*
X0152146Y0113968D01*
X0063297Y0065999D02*
X0060223Y0066400D01*
X0062966Y0064955D01*
X0063225Y0065447D01*
X0063297Y0065999D01*
D36*
X0072350Y0112566D02*
X0071641Y0112935D01*
X0071506Y0113724D01*
X0073095Y0113996D01*
X0072350Y0112566D01*
X0072034Y0112935D02*
X0073095Y0113996D01*
X0083452Y0124353D01*
X0147830Y0124353D01*
X0148176Y0124353D01*
X0150223Y0126400D01*
X0150223Y0146400D02*
X0149200Y0146400D01*
X0147544Y0148056D01*
X0140538Y0155061D01*
X0138431Y0149914D02*
X0136903Y0150429D01*
X0137418Y0148901D01*
X0138176Y0149156D01*
X0138431Y0149914D01*
X0138176Y0149156D02*
X0136903Y0150429D01*
X0133058Y0154274D01*
X0079515Y0154274D01*
X0075971Y0157817D01*
X0071247Y0157817D01*
X0064948Y0151518D01*
X0057861Y0151518D01*
X0053137Y0156243D01*
X0048412Y0156243D01*
X0046444Y0154274D01*
X0046444Y0146577D01*
X0071641Y0112935D02*
X0072034Y0112935D01*
X0015932Y0051124D02*
X0015932Y0047384D01*
X0016824Y0046492D01*
X0018353Y0045977D01*
X0018097Y0045219D01*
X0017339Y0044964D01*
X0016824Y0046492D01*
X0018097Y0045219D01*
D37*
X0147312Y0147125D02*
X0150223Y0146400D01*
X0148273Y0148679D01*
X0147544Y0148056D01*
X0147312Y0147125D01*
X0150223Y0126400D02*
X0147458Y0125237D01*
X0147830Y0124353D01*
X0148646Y0123848D01*
X0150223Y0126400D01*
D38*
X0156680Y0121597D03*
X0162585Y0079471D03*
M02*
