%
M48
M72
T01C0.01200
T02C0.03150
T03C0.03500
T04C0.04000
T05C0.12598
%
T01
X6861Y23235
X177956Y60054
X176759Y81046
X179908Y92069
X166129Y84983
X144743Y83660
X141956Y91054
X135601Y83148
X117711Y87951
X120011Y75660
X125798Y62896
X120286Y38487
X100956Y31054
X81704Y40849
X71011Y45660
X64956Y51354
X66011Y61660
X50011Y45660
X65538Y31321
X42011Y68660
X32011Y68660
X20641Y56699
X15956Y56454
X12192Y52306
X9223Y56306
X17310Y62935
X6680Y78683
X5050Y94872
X32428Y116518
X36207Y118054
X36207Y96794
X64152Y91565
X66522Y101518
X83853Y84408
X73011Y119660
X66522Y121203
X72798Y133723
X66956Y147054
X72932Y154416
X81011Y158660
X86011Y158660
X92011Y158660
X97011Y158660
X103011Y158660
X108011Y158660
X113011Y158660
X117011Y158660
X123192Y132148
X124011Y120235
X138176Y149156
X163648Y125061
X168885Y154274
X168097Y158211
X166759Y161479
X175971Y154274
X181719Y160298
X42270Y162187
X36207Y153093
X6050Y159825
X15341Y31833
X28011Y30660
T02
X150223Y26400
X150223Y36400
X150223Y46400
X150223Y56400
X150223Y66400
X150223Y76400
X150223Y86400
X150223Y96400
X150223Y106400
X150223Y116400
X150223Y126400
X150223Y136400
X150223Y146400
X150223Y156400
X150223Y166400
X60223Y146400
X60223Y136400
X60223Y126400
X60223Y116400
X60223Y106400
X60223Y96400
X60223Y86400
X60223Y76400
X60223Y66400
X60223Y56400
X60223Y46400
X60223Y36400
X60223Y26400
X60223Y156400
X60223Y166400
X170774Y120101
X170774Y110101
X170774Y100101
X170774Y90101
X170774Y80101
X170774Y70101
T03
X116971Y30624
X85475Y30624
T04
X36601Y26715
T05
X76759Y93250
X76759Y144038
X125578Y144038
X125578Y93250
M30
