G75*
%MOIN*%
%OFA0B0*%
%FSLAX25Y25*%
%IPPOS*%
%LPD*%
%AMOC8*
5,1,8,0,0,1.08239X$1,22.5*
%
%ADD10C,0.00700*%
%ADD11C,0.00800*%
%ADD12R,0.00200X0.01800*%
%ADD13R,0.00200X0.01600*%
%ADD14R,0.00200X0.03000*%
%ADD15R,0.00200X0.02000*%
%ADD16R,0.00200X0.00200*%
%ADD17R,0.00200X0.02400*%
%ADD18R,0.00200X0.01400*%
%ADD19R,0.00200X0.02800*%
%ADD20R,0.00200X0.04200*%
%ADD21R,0.00200X0.02600*%
%ADD22R,0.00200X0.05600*%
%ADD23R,0.00200X0.03600*%
%ADD24R,0.00200X0.04400*%
%ADD25R,0.00200X0.03800*%
%ADD26R,0.00200X0.04600*%
%ADD27R,0.00200X0.03200*%
%ADD28R,0.00200X0.06000*%
%ADD29R,0.00200X0.02200*%
%ADD30R,0.00200X0.05000*%
%ADD31R,0.00200X0.04800*%
%ADD32R,0.00200X0.03400*%
%ADD33R,0.00200X0.05800*%
%ADD34R,0.00200X0.05200*%
%ADD35R,0.00200X0.05400*%
%ADD36R,0.00200X0.00400*%
%ADD37R,0.00200X0.01000*%
%ADD38R,0.00200X0.06400*%
%ADD39R,0.00200X0.04000*%
%ADD40R,0.00200X0.06600*%
%ADD41R,0.00200X0.00800*%
%ADD42R,0.00200X0.06200*%
%ADD43R,0.00200X0.01200*%
%ADD44R,0.00200X0.00600*%
%ADD45R,0.00100X0.00100*%
%ADD46R,0.00600X0.00100*%
%ADD47R,0.00800X0.00100*%
%ADD48R,0.01000X0.00100*%
%ADD49R,0.01200X0.00100*%
%ADD50R,0.01300X0.00100*%
%ADD51R,0.01400X0.00100*%
%ADD52R,0.01500X0.00100*%
%ADD53R,0.01600X0.00100*%
%ADD54R,0.01800X0.00100*%
%ADD55R,0.01700X0.00100*%
%ADD56R,0.00300X0.00100*%
%ADD57R,0.00500X0.00100*%
%ADD58R,0.01100X0.00100*%
%ADD59R,0.00200X0.00100*%
%ADD60R,0.02000X0.00100*%
%ADD61R,0.02400X0.00100*%
%ADD62R,0.02500X0.00100*%
%ADD63R,0.02900X0.00100*%
%ADD64R,0.03000X0.00100*%
%ADD65R,0.03200X0.00100*%
%ADD66R,0.00900X0.00100*%
%ADD67R,0.03600X0.00100*%
%ADD68R,0.03500X0.00100*%
%ADD69R,0.03900X0.00100*%
%ADD70R,0.03800X0.00100*%
%ADD71R,0.04300X0.00100*%
%ADD72R,0.04100X0.00100*%
%ADD73R,0.04600X0.00100*%
%ADD74R,0.04400X0.00100*%
%ADD75R,0.04900X0.00100*%
%ADD76R,0.05100X0.00100*%
%ADD77R,0.04800X0.00100*%
%ADD78R,0.01900X0.00100*%
%ADD79R,0.05300X0.00100*%
%ADD80R,0.05500X0.00100*%
%ADD81R,0.02200X0.00100*%
%ADD82R,0.02100X0.00100*%
%ADD83R,0.05400X0.00100*%
%ADD84R,0.05600X0.00100*%
%ADD85R,0.05800X0.00100*%
%ADD86R,0.06000X0.00100*%
%ADD87R,0.06200X0.00100*%
%ADD88R,0.02600X0.00100*%
%ADD89R,0.03100X0.00100*%
%ADD90R,0.04500X0.00100*%
%ADD91R,0.05000X0.00100*%
%ADD92R,0.05700X0.00100*%
%ADD93R,0.02700X0.00100*%
%ADD94R,0.06700X0.00100*%
%ADD95R,0.03400X0.00100*%
%ADD96R,0.10200X0.00100*%
%ADD97R,0.07400X0.00100*%
%ADD98R,0.06100X0.00100*%
%ADD99R,0.04200X0.00100*%
%ADD100R,0.03700X0.00100*%
%ADD101R,0.02300X0.00100*%
%ADD102R,0.02800X0.00100*%
%ADD103R,0.08800X0.00100*%
%ADD104R,0.03300X0.00100*%
%ADD105R,0.09400X0.00100*%
%ADD106R,0.09800X0.00100*%
%ADD107R,0.10100X0.00100*%
%ADD108R,0.05200X0.00100*%
%ADD109R,0.10400X0.00100*%
%ADD110R,0.10500X0.00100*%
%ADD111R,0.10600X0.00100*%
%ADD112R,0.10300X0.00100*%
%ADD113R,0.10000X0.00100*%
%ADD114R,0.06300X0.00100*%
%ADD115R,0.00700X0.00100*%
%ADD116R,0.00400X0.00100*%
%ADD117C,0.00000*%
%ADD118R,0.48400X0.00100*%
%ADD119R,0.32400X0.00100*%
%ADD120R,0.07100X0.00100*%
%ADD121R,0.07800X0.00100*%
%ADD122R,0.18200X0.00100*%
%ADD123R,0.06400X0.00100*%
%ADD124R,0.05900X0.00100*%
%ADD125R,0.07300X0.00100*%
%ADD126R,0.08700X0.00100*%
%ADD127R,0.08100X0.00100*%
%ADD128R,0.07500X0.00100*%
%ADD129R,0.07200X0.00100*%
%ADD130R,0.07000X0.00100*%
%ADD131R,0.06500X0.00100*%
%ADD132R,0.07900X0.00100*%
%ADD133R,0.04700X0.00100*%
%ADD134R,0.07600X0.00100*%
%ADD135R,0.04000X0.00100*%
%ADD136R,0.34400X0.00100*%
%ADD137R,0.34300X0.00100*%
%ADD138R,0.34200X0.00100*%
%ADD139R,0.34100X0.00100*%
%ADD140R,0.34000X0.00100*%
%ADD141R,0.33900X0.00100*%
%ADD142R,0.33800X0.00100*%
%ADD143R,0.33700X0.00100*%
%ADD144R,0.06900X0.00100*%
%ADD145R,0.06600X0.00100*%
%ADD146R,0.46600X0.00100*%
%ADD147C,0.00591*%
D10*
X0009830Y0018054D02*
X0179814Y0018054D01*
X0180004Y0018056D01*
X0180194Y0018063D01*
X0180384Y0018075D01*
X0180574Y0018091D01*
X0180763Y0018111D01*
X0180952Y0018137D01*
X0181140Y0018166D01*
X0181327Y0018201D01*
X0181513Y0018240D01*
X0181698Y0018283D01*
X0181883Y0018331D01*
X0182066Y0018383D01*
X0182247Y0018439D01*
X0182427Y0018500D01*
X0182606Y0018566D01*
X0182783Y0018635D01*
X0182959Y0018709D01*
X0183132Y0018787D01*
X0183304Y0018870D01*
X0183473Y0018956D01*
X0183641Y0019046D01*
X0183806Y0019141D01*
X0183969Y0019239D01*
X0184129Y0019342D01*
X0184287Y0019448D01*
X0184442Y0019558D01*
X0184595Y0019671D01*
X0184745Y0019789D01*
X0184891Y0019910D01*
X0185035Y0020034D01*
X0185176Y0020162D01*
X0185314Y0020293D01*
X0185449Y0020428D01*
X0185580Y0020566D01*
X0185708Y0020707D01*
X0185832Y0020851D01*
X0185953Y0020997D01*
X0186071Y0021147D01*
X0186184Y0021300D01*
X0186294Y0021455D01*
X0186400Y0021613D01*
X0186503Y0021773D01*
X0186601Y0021936D01*
X0186696Y0022101D01*
X0186786Y0022269D01*
X0186872Y0022438D01*
X0186955Y0022610D01*
X0187033Y0022783D01*
X0187107Y0022959D01*
X0187176Y0023136D01*
X0187242Y0023315D01*
X0187303Y0023495D01*
X0187359Y0023676D01*
X0187411Y0023859D01*
X0187459Y0024044D01*
X0187502Y0024229D01*
X0187541Y0024415D01*
X0187576Y0024602D01*
X0187605Y0024790D01*
X0187631Y0024979D01*
X0187651Y0025168D01*
X0187667Y0025358D01*
X0187679Y0025548D01*
X0187686Y0025738D01*
X0187688Y0025928D01*
X0187688Y0207030D01*
X0187662Y0207244D01*
X0187631Y0207457D01*
X0187594Y0207669D01*
X0187552Y0207881D01*
X0187505Y0208091D01*
X0187453Y0208300D01*
X0187396Y0208508D01*
X0187334Y0208714D01*
X0187267Y0208919D01*
X0187196Y0209122D01*
X0187119Y0209323D01*
X0187037Y0209522D01*
X0186951Y0209720D01*
X0186860Y0209915D01*
X0186764Y0210108D01*
X0186663Y0210298D01*
X0186558Y0210486D01*
X0186449Y0210672D01*
X0186335Y0210854D01*
X0186216Y0211034D01*
X0186094Y0211211D01*
X0185967Y0211385D01*
X0185836Y0211556D01*
X0185700Y0211724D01*
X0185561Y0211888D01*
X0185418Y0212049D01*
X0185271Y0212207D01*
X0185120Y0212360D01*
X0184966Y0212511D01*
X0184808Y0212657D01*
X0184646Y0212800D01*
X0184482Y0212938D01*
X0184313Y0213073D01*
X0184142Y0213203D01*
X0183968Y0213329D01*
X0183790Y0213451D01*
X0183610Y0213569D01*
X0183426Y0213682D01*
X0183241Y0213791D01*
X0183052Y0213896D01*
X0182861Y0213995D01*
X0182668Y0214090D01*
X0182472Y0214181D01*
X0182275Y0214266D01*
X0182075Y0214347D01*
X0181874Y0214423D01*
X0181670Y0214494D01*
X0181465Y0214560D01*
X0181259Y0214622D01*
X0181051Y0214678D01*
X0180842Y0214729D01*
X0180631Y0214775D01*
X0180420Y0214816D01*
X0180207Y0214852D01*
X0179994Y0214883D01*
X0179780Y0214908D01*
X0179566Y0214929D01*
X0179351Y0214944D01*
X0179136Y0214954D01*
X0178921Y0214959D01*
X0178705Y0214958D01*
X0178490Y0214953D01*
X0178275Y0214942D01*
X0178060Y0214926D01*
X0177846Y0214904D01*
X0177845Y0214904D02*
X0009830Y0214904D01*
X0009640Y0214902D01*
X0009450Y0214895D01*
X0009260Y0214883D01*
X0009070Y0214867D01*
X0008881Y0214847D01*
X0008692Y0214821D01*
X0008504Y0214792D01*
X0008317Y0214757D01*
X0008131Y0214718D01*
X0007946Y0214675D01*
X0007761Y0214627D01*
X0007578Y0214575D01*
X0007397Y0214519D01*
X0007217Y0214458D01*
X0007038Y0214392D01*
X0006861Y0214323D01*
X0006685Y0214249D01*
X0006512Y0214171D01*
X0006340Y0214088D01*
X0006171Y0214002D01*
X0006003Y0213912D01*
X0005838Y0213817D01*
X0005675Y0213719D01*
X0005515Y0213616D01*
X0005357Y0213510D01*
X0005202Y0213400D01*
X0005049Y0213287D01*
X0004899Y0213169D01*
X0004753Y0213048D01*
X0004609Y0212924D01*
X0004468Y0212796D01*
X0004330Y0212665D01*
X0004195Y0212530D01*
X0004064Y0212392D01*
X0003936Y0212251D01*
X0003812Y0212107D01*
X0003691Y0211961D01*
X0003573Y0211811D01*
X0003460Y0211658D01*
X0003350Y0211503D01*
X0003244Y0211345D01*
X0003141Y0211185D01*
X0003043Y0211022D01*
X0002948Y0210857D01*
X0002858Y0210689D01*
X0002772Y0210520D01*
X0002689Y0210348D01*
X0002611Y0210175D01*
X0002537Y0209999D01*
X0002468Y0209822D01*
X0002402Y0209643D01*
X0002341Y0209463D01*
X0002285Y0209282D01*
X0002233Y0209099D01*
X0002185Y0208914D01*
X0002142Y0208729D01*
X0002103Y0208543D01*
X0002068Y0208356D01*
X0002039Y0208168D01*
X0002013Y0207979D01*
X0001993Y0207790D01*
X0001977Y0207600D01*
X0001965Y0207410D01*
X0001958Y0207220D01*
X0001956Y0207030D01*
X0001956Y0025928D01*
X0001958Y0025738D01*
X0001965Y0025548D01*
X0001977Y0025358D01*
X0001993Y0025168D01*
X0002013Y0024979D01*
X0002039Y0024790D01*
X0002068Y0024602D01*
X0002103Y0024415D01*
X0002142Y0024229D01*
X0002185Y0024044D01*
X0002233Y0023859D01*
X0002285Y0023676D01*
X0002341Y0023495D01*
X0002402Y0023315D01*
X0002468Y0023136D01*
X0002537Y0022959D01*
X0002611Y0022783D01*
X0002689Y0022610D01*
X0002772Y0022438D01*
X0002858Y0022269D01*
X0002948Y0022101D01*
X0003043Y0021936D01*
X0003141Y0021773D01*
X0003244Y0021613D01*
X0003350Y0021455D01*
X0003460Y0021300D01*
X0003573Y0021147D01*
X0003691Y0020997D01*
X0003812Y0020851D01*
X0003936Y0020707D01*
X0004064Y0020566D01*
X0004195Y0020428D01*
X0004330Y0020293D01*
X0004468Y0020162D01*
X0004609Y0020034D01*
X0004753Y0019910D01*
X0004899Y0019789D01*
X0005049Y0019671D01*
X0005202Y0019558D01*
X0005357Y0019448D01*
X0005515Y0019342D01*
X0005675Y0019239D01*
X0005838Y0019141D01*
X0006003Y0019046D01*
X0006171Y0018956D01*
X0006340Y0018870D01*
X0006512Y0018787D01*
X0006685Y0018709D01*
X0006861Y0018635D01*
X0007038Y0018566D01*
X0007217Y0018500D01*
X0007397Y0018439D01*
X0007578Y0018383D01*
X0007761Y0018331D01*
X0007946Y0018283D01*
X0008131Y0018240D01*
X0008317Y0018201D01*
X0008504Y0018166D01*
X0008692Y0018137D01*
X0008881Y0018111D01*
X0009070Y0018091D01*
X0009260Y0018075D01*
X0009450Y0018063D01*
X0009640Y0018056D01*
X0009830Y0018054D01*
D11*
X0044003Y0171997D02*
X0045070Y0173064D01*
X0044536Y0173064D02*
X0046138Y0173064D01*
X0046138Y0171997D02*
X0046138Y0175200D01*
X0044536Y0175200D01*
X0044003Y0174666D01*
X0044003Y0173598D01*
X0044536Y0173064D01*
X0047686Y0173598D02*
X0049821Y0173598D01*
X0049821Y0171997D02*
X0049821Y0175200D01*
X0051369Y0175200D02*
X0053504Y0175200D01*
X0052436Y0175200D02*
X0052436Y0171997D01*
X0055052Y0171997D02*
X0056120Y0173064D01*
X0055586Y0173064D02*
X0057187Y0173064D01*
X0057187Y0171997D02*
X0057187Y0175200D01*
X0055586Y0175200D01*
X0055052Y0174666D01*
X0055052Y0173598D01*
X0055586Y0173064D01*
X0058735Y0171997D02*
X0060870Y0171997D01*
X0060870Y0175200D01*
X0058735Y0175200D01*
X0059803Y0173598D02*
X0060870Y0173598D01*
X0062418Y0175200D02*
X0064553Y0175200D01*
X0063486Y0175200D02*
X0063486Y0171997D01*
X0066101Y0171997D02*
X0066101Y0175200D01*
X0068237Y0175200D02*
X0066101Y0171997D01*
X0068237Y0171997D02*
X0068237Y0175200D01*
X0069624Y0175200D02*
X0070692Y0175200D01*
X0070158Y0175200D02*
X0070158Y0171997D01*
X0070692Y0171997D02*
X0069624Y0171997D01*
X0072240Y0171997D02*
X0072240Y0175200D01*
X0074375Y0175200D02*
X0074375Y0171997D01*
X0073308Y0173064D01*
X0072240Y0171997D01*
X0079446Y0171997D02*
X0079980Y0171997D01*
X0079980Y0172531D01*
X0079446Y0172531D01*
X0079446Y0171997D01*
X0080514Y0170929D01*
X0082062Y0171997D02*
X0083129Y0173064D01*
X0082595Y0173064D02*
X0084197Y0173064D01*
X0084197Y0171997D02*
X0084197Y0175200D01*
X0082595Y0175200D01*
X0082062Y0174666D01*
X0082062Y0173598D01*
X0082595Y0173064D01*
X0085745Y0171997D02*
X0087880Y0171997D01*
X0087880Y0175200D01*
X0085745Y0175200D01*
X0086812Y0173598D02*
X0087880Y0173598D01*
X0089428Y0172531D02*
X0089428Y0174666D01*
X0089962Y0175200D01*
X0091563Y0175200D01*
X0091563Y0171997D01*
X0089962Y0171997D01*
X0089428Y0172531D01*
X0092951Y0171997D02*
X0094019Y0171997D01*
X0093485Y0171997D02*
X0093485Y0175200D01*
X0094019Y0175200D02*
X0092951Y0175200D01*
X0095567Y0175200D02*
X0097702Y0175200D01*
X0097702Y0171997D01*
X0095567Y0171997D01*
X0096634Y0173598D02*
X0097702Y0173598D01*
X0099250Y0171997D02*
X0099250Y0175200D01*
X0101385Y0175200D02*
X0099250Y0171997D01*
X0101385Y0171997D02*
X0101385Y0175200D01*
X0102933Y0175200D02*
X0102933Y0171997D01*
X0102933Y0173598D02*
X0105068Y0173598D01*
X0105068Y0171997D02*
X0105068Y0175200D01*
X0106616Y0174666D02*
X0107150Y0175200D01*
X0108217Y0175200D01*
X0108751Y0174666D01*
X0108751Y0172531D01*
X0108217Y0171997D01*
X0107150Y0171997D01*
X0106616Y0172531D01*
X0110299Y0172531D02*
X0110833Y0171997D01*
X0111901Y0171997D01*
X0112434Y0172531D01*
X0111901Y0173598D02*
X0110833Y0173598D01*
X0110299Y0173064D01*
X0110299Y0172531D01*
X0111901Y0173598D02*
X0112434Y0174132D01*
X0112434Y0174666D01*
X0111901Y0175200D01*
X0110833Y0175200D01*
X0110299Y0174666D01*
X0110833Y0177115D02*
X0112434Y0177115D01*
X0112434Y0180318D01*
X0110833Y0180318D01*
X0110299Y0179784D01*
X0110299Y0179250D01*
X0110833Y0178716D01*
X0112434Y0178716D01*
X0110833Y0178716D02*
X0110299Y0178183D01*
X0110299Y0177649D01*
X0110833Y0177115D01*
X0107684Y0177115D02*
X0107684Y0178716D01*
X0106616Y0179784D01*
X0106616Y0180318D01*
X0107684Y0178716D02*
X0108751Y0179784D01*
X0108751Y0180318D01*
X0107523Y0182233D02*
X0105388Y0184368D01*
X0105388Y0184902D01*
X0105922Y0185436D01*
X0106990Y0185436D01*
X0107523Y0184902D01*
X0107523Y0182233D02*
X0105388Y0182233D01*
X0103840Y0182767D02*
X0103840Y0184902D01*
X0103306Y0185436D01*
X0102239Y0185436D01*
X0101705Y0184902D01*
X0103840Y0182767D01*
X0103306Y0182233D01*
X0102239Y0182233D01*
X0101705Y0182767D01*
X0101705Y0184902D01*
X0100157Y0184368D02*
X0099090Y0185436D01*
X0099090Y0182233D01*
X0100157Y0182233D02*
X0098022Y0182233D01*
X0096474Y0182767D02*
X0095940Y0182233D01*
X0094873Y0182233D01*
X0094339Y0182767D01*
X0094339Y0183301D01*
X0094873Y0183834D01*
X0096474Y0183834D01*
X0096474Y0182767D01*
X0096474Y0183834D02*
X0095406Y0184902D01*
X0094339Y0185436D01*
X0093485Y0192469D02*
X0092417Y0192469D01*
X0091883Y0193003D01*
X0093485Y0192469D02*
X0094019Y0193003D01*
X0094019Y0195138D01*
X0093485Y0195672D01*
X0092417Y0195672D01*
X0091883Y0195138D01*
X0090335Y0195138D02*
X0089268Y0194071D01*
X0089268Y0192469D01*
X0089268Y0194071D02*
X0088200Y0195138D01*
X0088200Y0195672D01*
X0090335Y0195672D02*
X0090335Y0195138D01*
X0095567Y0195672D02*
X0095567Y0192469D01*
X0097702Y0195672D01*
X0097702Y0192469D01*
X0099250Y0192469D02*
X0101385Y0192469D01*
X0101385Y0195672D01*
X0099250Y0195672D01*
X0100317Y0194071D02*
X0101385Y0194071D01*
X0102933Y0193003D02*
X0103467Y0192469D01*
X0104534Y0192469D01*
X0105068Y0193003D01*
X0105068Y0195672D01*
X0106616Y0195138D02*
X0106616Y0193003D01*
X0107150Y0192469D01*
X0108217Y0192469D01*
X0108751Y0193003D01*
X0108751Y0195138D01*
X0108217Y0195672D01*
X0107150Y0195672D01*
X0106616Y0195138D01*
X0107684Y0193537D02*
X0106616Y0192469D01*
X0105762Y0190554D02*
X0106296Y0190020D01*
X0105762Y0190554D02*
X0104694Y0190554D01*
X0104161Y0190020D01*
X0104161Y0189486D01*
X0106296Y0187351D01*
X0104161Y0187351D01*
X0102933Y0193003D02*
X0102933Y0195672D01*
X0110299Y0195672D02*
X0112434Y0195672D01*
X0112434Y0192469D01*
X0110299Y0192469D01*
X0111367Y0194071D02*
X0112434Y0194071D01*
X0113982Y0194071D02*
X0113982Y0195138D01*
X0114516Y0195672D01*
X0116117Y0195672D01*
X0116117Y0192469D01*
X0116117Y0193537D02*
X0114516Y0193537D01*
X0113982Y0194071D01*
X0115050Y0193537D02*
X0113982Y0192469D01*
X0113662Y0190554D02*
X0111527Y0187351D01*
X0111527Y0190554D01*
X0113662Y0190554D02*
X0113662Y0187351D01*
X0115210Y0187885D02*
X0115210Y0190020D01*
X0115744Y0190554D01*
X0116811Y0190554D01*
X0117345Y0190020D01*
X0117345Y0187885D01*
X0116811Y0187351D01*
X0115744Y0187351D01*
X0115210Y0187885D01*
X0115130Y0185436D02*
X0114596Y0184902D01*
X0114596Y0183834D01*
X0115130Y0183301D01*
X0116731Y0183301D01*
X0115664Y0183301D02*
X0114596Y0182233D01*
X0113048Y0182233D02*
X0112514Y0182233D01*
X0112514Y0182767D01*
X0113048Y0182767D01*
X0113048Y0182233D01*
X0115130Y0185436D02*
X0116731Y0185436D01*
X0116731Y0182233D01*
X0118279Y0182233D02*
X0118279Y0184368D01*
X0119347Y0185436D01*
X0120414Y0184368D01*
X0120414Y0182233D01*
X0121962Y0182233D02*
X0121962Y0185436D01*
X0123030Y0184368D01*
X0124098Y0185436D01*
X0124098Y0182233D01*
X0124872Y0180318D02*
X0125939Y0180318D01*
X0125405Y0180318D02*
X0125405Y0177115D01*
X0124872Y0177115D02*
X0125939Y0177115D01*
X0127487Y0177649D02*
X0128021Y0177115D01*
X0129089Y0177115D01*
X0129622Y0177649D01*
X0129089Y0178716D02*
X0128021Y0178716D01*
X0127487Y0178183D01*
X0127487Y0177649D01*
X0129089Y0178716D02*
X0129622Y0179250D01*
X0129622Y0179784D01*
X0129089Y0180318D01*
X0128021Y0180318D01*
X0127487Y0179784D01*
X0129089Y0182233D02*
X0129622Y0182233D01*
X0129622Y0182767D01*
X0129089Y0182767D01*
X0129089Y0182233D01*
X0131170Y0182233D02*
X0133305Y0182233D01*
X0131170Y0184368D01*
X0131170Y0184902D01*
X0131704Y0185436D01*
X0132772Y0185436D01*
X0133305Y0184902D01*
X0134853Y0184902D02*
X0135387Y0185436D01*
X0136455Y0185436D01*
X0136989Y0184902D01*
X0134853Y0184902D02*
X0134853Y0184368D01*
X0136989Y0182233D01*
X0134853Y0182233D01*
X0135387Y0180318D02*
X0136989Y0180318D01*
X0136989Y0177115D01*
X0135387Y0177115D01*
X0134853Y0177649D01*
X0134853Y0179784D01*
X0135387Y0180318D01*
X0133305Y0180318D02*
X0133305Y0177115D01*
X0131170Y0177115D01*
X0132238Y0178716D02*
X0133305Y0178716D01*
X0133305Y0180318D02*
X0131170Y0180318D01*
X0132238Y0175200D02*
X0131170Y0174132D01*
X0131170Y0171997D01*
X0129622Y0171997D02*
X0129622Y0175200D01*
X0128555Y0174132D01*
X0127487Y0175200D01*
X0127487Y0171997D01*
X0125939Y0171997D02*
X0124872Y0171997D01*
X0125405Y0171997D02*
X0125405Y0175200D01*
X0124872Y0175200D02*
X0125939Y0175200D01*
X0123484Y0174132D02*
X0123484Y0171997D01*
X0123484Y0173598D02*
X0121349Y0173598D01*
X0121349Y0174132D02*
X0121349Y0171997D01*
X0119801Y0171997D02*
X0119801Y0175200D01*
X0117665Y0171997D01*
X0117665Y0175200D01*
X0117665Y0177115D02*
X0117665Y0180318D01*
X0119801Y0180318D02*
X0117665Y0177115D01*
X0119801Y0177115D02*
X0119801Y0180318D01*
X0121349Y0179784D02*
X0121882Y0180318D01*
X0122950Y0180318D01*
X0123484Y0179784D01*
X0123484Y0177649D01*
X0122950Y0177115D01*
X0121882Y0177115D01*
X0121349Y0177649D01*
X0121349Y0178716D01*
X0122416Y0178716D01*
X0122416Y0175200D02*
X0121349Y0174132D01*
X0122416Y0175200D02*
X0123484Y0174132D01*
X0131170Y0173598D02*
X0133305Y0173598D01*
X0133305Y0174132D02*
X0132238Y0175200D01*
X0133305Y0174132D02*
X0133305Y0171997D01*
X0134853Y0172531D02*
X0134853Y0174666D01*
X0135387Y0175200D01*
X0136989Y0175200D01*
X0136989Y0171997D01*
X0135387Y0171997D01*
X0134853Y0172531D01*
X0134853Y0187351D02*
X0135921Y0188419D01*
X0135387Y0188419D02*
X0136989Y0188419D01*
X0136989Y0187351D02*
X0136989Y0190554D01*
X0135387Y0190554D01*
X0134853Y0190020D01*
X0134853Y0188953D01*
X0135387Y0188419D01*
X0133305Y0188953D02*
X0132238Y0188953D01*
X0133305Y0190554D02*
X0131170Y0190554D01*
X0129622Y0190554D02*
X0129622Y0188419D01*
X0128555Y0187351D01*
X0127487Y0188419D01*
X0127487Y0190554D01*
X0125939Y0190554D02*
X0124872Y0190554D01*
X0125405Y0190554D02*
X0125405Y0187351D01*
X0124872Y0187351D02*
X0125939Y0187351D01*
X0123484Y0187885D02*
X0122950Y0187351D01*
X0121882Y0187351D01*
X0121349Y0187885D01*
X0121349Y0188419D01*
X0121882Y0188953D01*
X0122950Y0188953D01*
X0123484Y0189486D01*
X0123484Y0190020D01*
X0122950Y0190554D01*
X0121882Y0190554D01*
X0121349Y0190020D01*
X0119801Y0190554D02*
X0118733Y0190554D01*
X0119267Y0190554D02*
X0119267Y0187351D01*
X0119801Y0187351D02*
X0118733Y0187351D01*
X0118279Y0183834D02*
X0120414Y0183834D01*
X0119801Y0192469D02*
X0119801Y0195672D01*
X0117665Y0195672D01*
X0118733Y0194071D02*
X0119801Y0194071D01*
X0125032Y0193003D02*
X0125032Y0195138D01*
X0125566Y0195672D01*
X0127167Y0195672D01*
X0127167Y0192469D01*
X0125566Y0192469D01*
X0125032Y0193003D01*
X0128555Y0192469D02*
X0129622Y0192469D01*
X0129089Y0192469D02*
X0129089Y0195672D01*
X0129622Y0195672D02*
X0128555Y0195672D01*
X0131170Y0195138D02*
X0131170Y0194071D01*
X0131704Y0193537D01*
X0133305Y0193537D01*
X0132238Y0193537D02*
X0131170Y0192469D01*
X0133305Y0192469D02*
X0133305Y0195672D01*
X0131704Y0195672D01*
X0131170Y0195138D01*
X0134853Y0195138D02*
X0135387Y0195672D01*
X0136455Y0195672D01*
X0136989Y0195138D01*
X0136989Y0193003D01*
X0136455Y0192469D01*
X0135387Y0192469D01*
X0134853Y0193003D01*
X0134853Y0194071D01*
X0135921Y0194071D01*
X0133305Y0190554D02*
X0133305Y0187351D01*
X0131170Y0187351D01*
X0082969Y0195672D02*
X0080834Y0195672D01*
X0081902Y0195672D02*
X0081902Y0192469D01*
X0079286Y0192469D02*
X0079286Y0195672D01*
X0077685Y0195672D01*
X0077151Y0195138D01*
X0077151Y0194071D01*
X0077685Y0193537D01*
X0079286Y0193537D01*
X0078218Y0193537D02*
X0077151Y0192469D01*
X0075603Y0192469D02*
X0075603Y0194604D01*
X0074535Y0195672D01*
X0073468Y0194604D01*
X0073468Y0192469D01*
X0073468Y0194071D02*
X0075603Y0194071D01*
X0071920Y0195138D02*
X0071920Y0193003D01*
X0071386Y0192469D01*
X0070318Y0192469D01*
X0069785Y0193003D01*
X0068237Y0192469D02*
X0068237Y0195672D01*
X0069785Y0195138D02*
X0070318Y0195672D01*
X0071386Y0195672D01*
X0071920Y0195138D01*
X0068237Y0193537D02*
X0066101Y0195672D01*
X0064553Y0195672D02*
X0064553Y0192469D01*
X0062418Y0192469D01*
X0060870Y0192469D02*
X0060870Y0195672D01*
X0059269Y0195672D01*
X0058735Y0195138D01*
X0058735Y0194071D01*
X0059269Y0193537D01*
X0060870Y0193537D01*
X0059803Y0193537D02*
X0058735Y0192469D01*
X0062418Y0195672D02*
X0064553Y0195672D01*
X0064553Y0194071D02*
X0063486Y0194071D01*
X0066101Y0192469D02*
X0067703Y0194071D01*
X0047686Y0175200D02*
X0047686Y0171997D01*
X0182053Y0195820D02*
X0185256Y0195820D01*
X0185256Y0197422D01*
X0184722Y0197956D01*
X0183655Y0197956D01*
X0183121Y0197422D01*
X0183121Y0195820D01*
X0183121Y0196888D02*
X0182053Y0197956D01*
X0182053Y0199504D02*
X0182053Y0201639D01*
X0183121Y0203187D02*
X0182053Y0204254D01*
X0183121Y0205322D01*
X0185256Y0205322D01*
X0184722Y0206870D02*
X0185256Y0207404D01*
X0185256Y0208471D01*
X0184722Y0209005D01*
X0184188Y0209005D01*
X0182053Y0206870D01*
X0182053Y0209005D01*
X0183121Y0203187D02*
X0185256Y0203187D01*
X0185256Y0201639D02*
X0185256Y0199504D01*
X0182053Y0199504D01*
X0183655Y0199504D02*
X0183655Y0200571D01*
D12*
X0105756Y0127854D03*
X0104756Y0127854D03*
X0103556Y0127854D03*
X0102356Y0127854D03*
X0099356Y0127854D03*
X0099156Y0128054D03*
X0097756Y0132054D03*
X0097956Y0132454D03*
X0095756Y0130654D03*
X0093156Y0129254D03*
X0090556Y0126854D03*
X0087756Y0125254D03*
X0085956Y0124254D03*
X0085556Y0123854D03*
X0085756Y0121254D03*
X0088356Y0122054D03*
X0088356Y0117854D03*
X0085756Y0118454D03*
X0086156Y0114854D03*
X0086356Y0114654D03*
X0088356Y0113454D03*
X0094156Y0109854D03*
X0094556Y0109454D03*
X0094956Y0109054D03*
X0096556Y0106654D03*
X0098356Y0111854D03*
X0098556Y0111854D03*
X0100756Y0111854D03*
X0101556Y0111854D03*
X0102156Y0111854D03*
X0102756Y0111854D03*
X0103356Y0111854D03*
X0101156Y0115654D03*
X0100956Y0115654D03*
X0100556Y0115854D03*
X0100756Y0120054D03*
X0101156Y0120054D03*
X0100556Y0100654D03*
X0103556Y0097454D03*
X0103756Y0093854D03*
X0104156Y0093854D03*
X0104556Y0093854D03*
X0104956Y0093854D03*
X0103356Y0093854D03*
X0102956Y0093854D03*
X0102556Y0093854D03*
X0102156Y0093854D03*
X0101756Y0093854D03*
X0101356Y0093854D03*
X0100956Y0093854D03*
X0100556Y0093854D03*
X0099356Y0090054D03*
X0099156Y0090054D03*
X0098956Y0090054D03*
X0102356Y0089854D03*
X0103156Y0089854D03*
X0103956Y0089854D03*
X0104756Y0089854D03*
X0105556Y0089854D03*
X0105556Y0085654D03*
X0105756Y0085654D03*
X0105156Y0085654D03*
X0104756Y0085654D03*
X0104356Y0085654D03*
X0103956Y0085654D03*
X0103556Y0085654D03*
X0103156Y0085654D03*
X0102756Y0085654D03*
X0102356Y0085654D03*
X0101956Y0085654D03*
X0101556Y0085654D03*
X0101156Y0085654D03*
X0103756Y0082254D03*
X0105756Y0082254D03*
X0103156Y0078254D03*
X0102756Y0078254D03*
X0101956Y0078254D03*
X0101156Y0078254D03*
X0100756Y0078254D03*
X0099956Y0078254D03*
X0099556Y0078254D03*
X0098756Y0078254D03*
X0098756Y0074054D03*
X0099356Y0074054D03*
X0099956Y0074054D03*
X0100556Y0074054D03*
X0101156Y0074054D03*
X0101756Y0074054D03*
X0102356Y0074054D03*
X0102956Y0074054D03*
X0103756Y0074054D03*
X0103756Y0067654D03*
X0095756Y0094054D03*
X0096756Y0139054D03*
X0100156Y0140054D03*
X0097556Y0142854D03*
X0095356Y0144254D03*
X0094556Y0144854D03*
X0090156Y0147454D03*
X0089756Y0147854D03*
X0089356Y0148254D03*
X0088956Y0148654D03*
X0088756Y0148854D03*
X0087556Y0150854D03*
X0086956Y0152454D03*
D13*
X0087756Y0150554D03*
X0087956Y0149954D03*
X0088156Y0149754D03*
X0088356Y0149354D03*
X0088556Y0149154D03*
X0089156Y0148354D03*
X0094956Y0144554D03*
X0096756Y0143554D03*
X0097156Y0143154D03*
X0097356Y0143154D03*
X0095356Y0140154D03*
X0099156Y0139354D03*
X0100156Y0134754D03*
X0099956Y0134354D03*
X0097556Y0131954D03*
X0097156Y0131554D03*
X0095556Y0130554D03*
X0095156Y0130354D03*
X0092956Y0128954D03*
X0090756Y0127154D03*
X0087956Y0125554D03*
X0086556Y0124754D03*
X0085756Y0124154D03*
X0084556Y0118354D03*
X0083556Y0117554D03*
X0083756Y0117154D03*
X0087156Y0117754D03*
X0086556Y0114554D03*
X0086756Y0114354D03*
X0086956Y0114154D03*
X0088756Y0113154D03*
X0094356Y0109554D03*
X0094756Y0109154D03*
X0095356Y0108554D03*
X0095756Y0108154D03*
X0096156Y0107554D03*
X0096356Y0106954D03*
X0098156Y0111754D03*
X0104356Y0116154D03*
X0105756Y0123554D03*
X0098956Y0127954D03*
X0098756Y0127954D03*
X0096556Y0134554D03*
X0095356Y0134354D03*
X0104356Y0100754D03*
X0105756Y0089954D03*
X0098756Y0089954D03*
X0104356Y0070754D03*
D14*
X0102756Y0068254D03*
X0101356Y0070254D03*
X0098956Y0087054D03*
X0099156Y0094254D03*
X0099556Y0094254D03*
X0102756Y0098054D03*
X0090956Y0112454D03*
X0098956Y0124854D03*
X0105756Y0117454D03*
X0087356Y0151854D03*
D15*
X0089556Y0147954D03*
X0089956Y0147554D03*
X0090356Y0147154D03*
X0090556Y0147154D03*
X0090956Y0146754D03*
X0093356Y0145354D03*
X0094756Y0144554D03*
X0095756Y0143954D03*
X0100356Y0135354D03*
X0096156Y0131154D03*
X0095956Y0130954D03*
X0094556Y0130154D03*
X0093356Y0129354D03*
X0090356Y0126754D03*
X0090156Y0126554D03*
X0089356Y0126154D03*
X0089156Y0126154D03*
X0088156Y0125554D03*
X0087556Y0125154D03*
X0087356Y0124954D03*
X0083356Y0121354D03*
X0088956Y0113154D03*
X0090756Y0112154D03*
X0092756Y0110954D03*
X0093356Y0110554D03*
X0093556Y0110354D03*
X0093756Y0110154D03*
X0093956Y0109954D03*
X0100556Y0111954D03*
X0100956Y0111954D03*
X0101156Y0111954D03*
X0101356Y0111954D03*
X0101756Y0111954D03*
X0101956Y0111954D03*
X0102356Y0111954D03*
X0102556Y0111954D03*
X0102956Y0111954D03*
X0103156Y0111954D03*
X0103556Y0111954D03*
X0103956Y0111754D03*
X0105756Y0110354D03*
X0103956Y0106554D03*
X0102956Y0105954D03*
X0102556Y0105754D03*
X0101956Y0105354D03*
X0100556Y0104554D03*
X0100756Y0100754D03*
X0100956Y0100554D03*
X0100156Y0100554D03*
X0103356Y0097554D03*
X0103756Y0097554D03*
X0103956Y0097554D03*
X0104156Y0097754D03*
X0104356Y0093754D03*
X0104756Y0093754D03*
X0105156Y0093754D03*
X0105356Y0093754D03*
X0105556Y0093754D03*
X0103956Y0093754D03*
X0103556Y0093754D03*
X0103156Y0093754D03*
X0102756Y0093754D03*
X0102356Y0093754D03*
X0101956Y0093754D03*
X0101556Y0093754D03*
X0101156Y0093754D03*
X0100756Y0093754D03*
X0100356Y0093754D03*
X0100156Y0093954D03*
X0097356Y0094154D03*
X0101356Y0089954D03*
X0101556Y0089754D03*
X0101756Y0089954D03*
X0101956Y0089954D03*
X0102156Y0089954D03*
X0102556Y0089954D03*
X0102756Y0089954D03*
X0102956Y0089954D03*
X0103356Y0089954D03*
X0103556Y0089954D03*
X0103756Y0089954D03*
X0104156Y0089954D03*
X0104356Y0089954D03*
X0104556Y0089954D03*
X0104956Y0089954D03*
X0105156Y0089954D03*
X0105356Y0089954D03*
X0100756Y0085754D03*
X0103956Y0082154D03*
X0105556Y0082154D03*
X0103756Y0078154D03*
X0103556Y0078154D03*
X0102956Y0078354D03*
X0102556Y0078354D03*
X0102356Y0078154D03*
X0102156Y0078354D03*
X0101756Y0078354D03*
X0101556Y0078154D03*
X0101356Y0078354D03*
X0100956Y0078354D03*
X0100556Y0078354D03*
X0100356Y0078154D03*
X0100156Y0078354D03*
X0099756Y0078354D03*
X0099356Y0078354D03*
X0099156Y0078154D03*
X0098956Y0078354D03*
X0098956Y0074154D03*
X0099156Y0074154D03*
X0099556Y0074154D03*
X0099756Y0074154D03*
X0100156Y0074154D03*
X0100356Y0074154D03*
X0100756Y0074154D03*
X0100956Y0074154D03*
X0101356Y0074154D03*
X0101556Y0074154D03*
X0101956Y0074154D03*
X0102156Y0074154D03*
X0102556Y0074154D03*
X0102756Y0074154D03*
X0103156Y0074154D03*
X0103356Y0074154D03*
X0103556Y0074154D03*
X0103956Y0074154D03*
X0104156Y0074154D03*
X0100756Y0070754D03*
X0100556Y0070754D03*
X0100356Y0070754D03*
X0100156Y0070554D03*
X0103156Y0067754D03*
X0103356Y0067554D03*
X0103556Y0067554D03*
X0101356Y0115754D03*
X0100756Y0115754D03*
X0100356Y0115954D03*
X0100356Y0119754D03*
X0100556Y0119754D03*
X0100956Y0120154D03*
X0101356Y0120154D03*
X0102956Y0120154D03*
X0103156Y0120154D03*
X0103356Y0120154D03*
X0103556Y0119954D03*
X0103756Y0119954D03*
X0103756Y0123554D03*
X0103956Y0123554D03*
X0104156Y0123554D03*
X0104356Y0123554D03*
X0104556Y0123554D03*
X0104756Y0123554D03*
X0104956Y0123554D03*
X0105156Y0123554D03*
X0105356Y0123554D03*
X0105556Y0123554D03*
X0103556Y0123554D03*
X0103356Y0123554D03*
X0103156Y0123554D03*
X0102956Y0123554D03*
X0102756Y0123554D03*
X0102556Y0123554D03*
X0102356Y0123554D03*
X0102156Y0123554D03*
X0101956Y0123554D03*
X0101756Y0123554D03*
X0101556Y0123554D03*
X0101356Y0123554D03*
X0101156Y0123554D03*
X0100956Y0123554D03*
X0101156Y0127754D03*
X0101356Y0127754D03*
X0101556Y0127754D03*
X0101756Y0127754D03*
X0101956Y0127754D03*
X0102156Y0127754D03*
X0102556Y0127754D03*
X0102756Y0127754D03*
X0102956Y0127754D03*
X0103156Y0127754D03*
X0103356Y0127754D03*
X0103756Y0127754D03*
X0103956Y0127754D03*
X0104156Y0127754D03*
X0104356Y0127754D03*
X0104556Y0127754D03*
X0104956Y0127754D03*
X0105356Y0127754D03*
X0105556Y0127754D03*
D16*
X0098556Y0125254D03*
X0098556Y0124854D03*
X0098556Y0124454D03*
X0098556Y0118254D03*
X0098556Y0117854D03*
X0098556Y0117454D03*
X0100156Y0113654D03*
X0100156Y0110454D03*
X0100156Y0109454D03*
X0100156Y0107254D03*
X0100156Y0106854D03*
X0100156Y0105854D03*
X0097156Y0105854D03*
X0096556Y0105254D03*
X0098556Y0099454D03*
X0098556Y0099054D03*
X0098556Y0098654D03*
X0098556Y0098254D03*
X0097556Y0094854D03*
X0097556Y0093854D03*
X0098556Y0087454D03*
X0098556Y0087054D03*
X0098556Y0086654D03*
X0105756Y0077454D03*
X0104356Y0069654D03*
X0101156Y0069054D03*
X0098556Y0069254D03*
X0098556Y0069654D03*
X0098556Y0068854D03*
X0098556Y0068454D03*
X0102756Y0099854D03*
X0104356Y0099654D03*
X0105756Y0101254D03*
X0105756Y0103054D03*
X0105756Y0103454D03*
X0105756Y0103854D03*
X0105756Y0104254D03*
X0105756Y0104654D03*
X0105756Y0105054D03*
X0105756Y0105454D03*
X0105756Y0105854D03*
X0105756Y0106254D03*
X0105756Y0106654D03*
X0105756Y0107054D03*
X0105756Y0107454D03*
X0105756Y0107854D03*
X0105756Y0108254D03*
X0104356Y0117254D03*
X0095556Y0131654D03*
X0095156Y0134654D03*
X0095756Y0134854D03*
X0095356Y0135454D03*
X0095956Y0136854D03*
X0095956Y0137454D03*
X0096756Y0137854D03*
X0097156Y0137854D03*
X0097156Y0138254D03*
X0097156Y0137454D03*
X0097156Y0137054D03*
X0097156Y0136654D03*
X0097156Y0136254D03*
X0097956Y0136854D03*
X0098356Y0137254D03*
X0097956Y0137654D03*
X0098356Y0138454D03*
X0099556Y0138854D03*
X0099756Y0137854D03*
X0100356Y0137854D03*
X0100356Y0137454D03*
X0100356Y0137054D03*
X0100356Y0136654D03*
X0099756Y0136854D03*
X0099756Y0137254D03*
X0099156Y0136254D03*
X0098356Y0136054D03*
X0098156Y0134854D03*
X0096956Y0134854D03*
X0095356Y0139054D03*
X0096756Y0140254D03*
X0100956Y0138854D03*
X0089156Y0124854D03*
X0087956Y0124454D03*
X0088156Y0122254D03*
X0088556Y0121854D03*
X0087956Y0121454D03*
X0088356Y0120854D03*
X0087156Y0121054D03*
X0086556Y0120054D03*
X0086556Y0119654D03*
X0085756Y0119654D03*
X0085756Y0120054D03*
X0085356Y0120254D03*
X0085356Y0120654D03*
X0084556Y0120454D03*
X0084156Y0120854D03*
X0084156Y0119854D03*
X0084556Y0119454D03*
X0084156Y0118854D03*
X0083356Y0119654D03*
X0083356Y0120054D03*
X0082756Y0120654D03*
X0082756Y0118854D03*
X0085356Y0119254D03*
X0086156Y0117854D03*
X0086956Y0117454D03*
X0087956Y0118454D03*
X0088556Y0118054D03*
X0088756Y0114254D03*
X0086756Y0152654D03*
X0086756Y0153054D03*
D17*
X0091756Y0146154D03*
X0091956Y0145954D03*
X0093556Y0145154D03*
X0093956Y0144754D03*
X0094156Y0144754D03*
X0100356Y0139354D03*
X0100956Y0137354D03*
X0094756Y0130354D03*
X0089956Y0126354D03*
X0088556Y0125554D03*
X0087956Y0119954D03*
X0089756Y0112954D03*
X0090156Y0112754D03*
X0091556Y0111954D03*
X0091756Y0111754D03*
X0091956Y0111554D03*
X0092156Y0111554D03*
X0092556Y0111154D03*
X0096756Y0105754D03*
X0100156Y0104354D03*
X0105756Y0099754D03*
X0104156Y0111754D03*
X0098756Y0111754D03*
X0100156Y0116154D03*
X0099956Y0116354D03*
X0100156Y0119554D03*
X0102756Y0119954D03*
X0103956Y0119754D03*
X0104156Y0119554D03*
X0100356Y0123754D03*
X0100556Y0127554D03*
X0098756Y0086954D03*
X0100356Y0085954D03*
X0100556Y0085754D03*
X0101156Y0070554D03*
X0099956Y0070354D03*
D18*
X0105756Y0093854D03*
X0095956Y0107654D03*
X0095556Y0108254D03*
X0095156Y0108854D03*
X0097956Y0111654D03*
X0087956Y0113454D03*
X0087756Y0113654D03*
X0087556Y0113654D03*
X0087356Y0113854D03*
X0087156Y0114054D03*
X0085956Y0117654D03*
X0084556Y0121454D03*
X0083556Y0121854D03*
X0085956Y0121854D03*
X0087156Y0122054D03*
X0086156Y0124454D03*
X0086356Y0124654D03*
X0086956Y0125054D03*
X0090956Y0127254D03*
X0091156Y0127454D03*
X0092556Y0128654D03*
X0092756Y0128854D03*
X0096356Y0130854D03*
X0096556Y0131054D03*
X0096756Y0131254D03*
X0097356Y0131654D03*
X0094956Y0133054D03*
X0095156Y0133654D03*
X0097756Y0134654D03*
X0099156Y0135254D03*
X0099956Y0140454D03*
X0099756Y0140854D03*
X0096556Y0140054D03*
X0096356Y0140454D03*
X0095156Y0140454D03*
X0096956Y0143454D03*
X0096556Y0143854D03*
X0096356Y0143854D03*
X0096156Y0144054D03*
D19*
X0092956Y0145154D03*
X0092756Y0145354D03*
X0087156Y0152154D03*
X0099556Y0137154D03*
X0094156Y0130354D03*
X0093956Y0130154D03*
X0089556Y0125954D03*
X0098756Y0117754D03*
X0099956Y0119154D03*
X0100356Y0127354D03*
X0089156Y0113354D03*
X0091156Y0112154D03*
X0091356Y0112154D03*
X0101156Y0100354D03*
X0101356Y0100154D03*
X0099756Y0094354D03*
X0099956Y0094154D03*
X0099356Y0094354D03*
X0098956Y0094354D03*
X0100356Y0089554D03*
X0105756Y0075754D03*
X0105756Y0069954D03*
X0102956Y0067954D03*
D20*
X0101956Y0069254D03*
X0105356Y0069854D03*
X0102156Y0099054D03*
X0101956Y0099254D03*
X0099156Y0098854D03*
X0105356Y0099654D03*
X0099356Y0111454D03*
X0105556Y0117254D03*
X0088156Y0119854D03*
D21*
X0088356Y0125254D03*
X0089756Y0126054D03*
X0095356Y0130854D03*
X0094356Y0144454D03*
X0092556Y0145454D03*
X0092356Y0145654D03*
X0092156Y0145854D03*
X0102756Y0117254D03*
X0100156Y0112054D03*
X0105556Y0110454D03*
X0099956Y0100254D03*
X0102956Y0098054D03*
X0104356Y0098054D03*
X0098756Y0094254D03*
X0100556Y0089654D03*
X0104156Y0077854D03*
X0104356Y0068054D03*
X0089556Y0113054D03*
X0089356Y0113254D03*
D22*
X0098956Y0105354D03*
X0099156Y0105354D03*
X0104756Y0105354D03*
X0105556Y0105554D03*
X0104956Y0075954D03*
X0104756Y0075954D03*
D23*
X0101556Y0069754D03*
X0105556Y0099754D03*
X0104756Y0110754D03*
X0104556Y0110954D03*
X0104356Y0110954D03*
X0084356Y0119754D03*
X0082956Y0119754D03*
D24*
X0083156Y0119754D03*
X0086956Y0119954D03*
X0099356Y0117754D03*
X0099756Y0111554D03*
X0099956Y0111554D03*
X0099556Y0111354D03*
X0099556Y0099154D03*
X0099356Y0098954D03*
X0105556Y0075554D03*
X0099556Y0069154D03*
X0099356Y0069154D03*
X0100756Y0137354D03*
X0095756Y0137354D03*
D25*
X0099356Y0124854D03*
X0098956Y0111254D03*
X0101556Y0099654D03*
X0102556Y0098654D03*
X0098956Y0098854D03*
X0099356Y0087054D03*
X0105556Y0069854D03*
X0102556Y0068654D03*
X0098956Y0068854D03*
D26*
X0099756Y0069254D03*
X0104956Y0069454D03*
X0105156Y0069654D03*
X0104956Y0099454D03*
X0105156Y0099654D03*
X0099756Y0099254D03*
X0105356Y0117454D03*
X0099356Y0137454D03*
X0098156Y0137454D03*
X0096956Y0137454D03*
D27*
X0093156Y0144954D03*
X0086756Y0119754D03*
X0085556Y0119754D03*
X0090556Y0112754D03*
X0098756Y0098754D03*
X0105356Y0110554D03*
X0104356Y0119154D03*
X0098756Y0068754D03*
D28*
X0099956Y0087754D03*
X0099756Y0087954D03*
X0099556Y0087954D03*
X0105356Y0105554D03*
X0100156Y0125754D03*
X0099956Y0125754D03*
X0099756Y0125754D03*
D29*
X0098756Y0124854D03*
X0100556Y0123654D03*
X0100756Y0123654D03*
X0100756Y0127654D03*
X0100956Y0127654D03*
X0105156Y0127854D03*
X0097956Y0135454D03*
X0096756Y0135454D03*
X0097956Y0139054D03*
X0095156Y0144254D03*
X0093756Y0145054D03*
X0091556Y0146254D03*
X0091356Y0146454D03*
X0091156Y0146654D03*
X0090756Y0146854D03*
X0094956Y0130454D03*
X0094356Y0130054D03*
X0093756Y0129854D03*
X0093556Y0129654D03*
X0088956Y0125854D03*
X0088756Y0125654D03*
X0083356Y0118254D03*
X0088556Y0113454D03*
X0089956Y0112654D03*
X0090356Y0112454D03*
X0092356Y0111254D03*
X0092956Y0110854D03*
X0093156Y0110654D03*
X0096956Y0105654D03*
X0100356Y0104454D03*
X0100756Y0104654D03*
X0100956Y0104854D03*
X0101156Y0104854D03*
X0101356Y0105054D03*
X0101556Y0105054D03*
X0101756Y0105254D03*
X0102156Y0105454D03*
X0102356Y0105654D03*
X0102756Y0105854D03*
X0103156Y0106054D03*
X0103356Y0106254D03*
X0103556Y0106254D03*
X0103756Y0106454D03*
X0104156Y0106654D03*
X0103756Y0111854D03*
X0100356Y0111854D03*
X0100356Y0100654D03*
X0103156Y0097654D03*
X0097156Y0094054D03*
X0096956Y0094054D03*
X0096756Y0094054D03*
X0096556Y0094054D03*
X0096356Y0094054D03*
X0096156Y0094054D03*
X0095956Y0094054D03*
X0100756Y0089654D03*
X0100956Y0089854D03*
X0101156Y0089854D03*
X0101356Y0085654D03*
X0101756Y0085654D03*
X0102156Y0085654D03*
X0102556Y0085654D03*
X0102956Y0085654D03*
X0103356Y0085654D03*
X0103756Y0085654D03*
X0104156Y0085654D03*
X0104556Y0085654D03*
X0104956Y0085654D03*
X0105356Y0085654D03*
X0105156Y0082254D03*
X0105356Y0082054D03*
X0104956Y0082054D03*
X0104756Y0082254D03*
X0104556Y0082054D03*
X0104356Y0082254D03*
X0104156Y0082054D03*
X0103356Y0078254D03*
X0103956Y0078054D03*
X0100956Y0085654D03*
X0100956Y0070654D03*
X0103956Y0067654D03*
X0104156Y0067854D03*
D30*
X0105356Y0075654D03*
X0104956Y0117654D03*
X0099756Y0117854D03*
X0099556Y0117854D03*
D31*
X0105156Y0117554D03*
X0099956Y0105554D03*
X0104756Y0099354D03*
X0104556Y0099154D03*
X0104556Y0069354D03*
X0104756Y0069354D03*
D32*
X0099156Y0086854D03*
X0105156Y0110654D03*
X0104956Y0110854D03*
X0098956Y0117854D03*
X0099156Y0124854D03*
D33*
X0099556Y0125854D03*
X0095556Y0137054D03*
X0105156Y0105454D03*
X0104556Y0076054D03*
X0104356Y0076054D03*
D34*
X0105156Y0075754D03*
X0104556Y0105354D03*
X0104356Y0105354D03*
X0099756Y0105554D03*
X0104756Y0117754D03*
D35*
X0104556Y0117854D03*
X0104956Y0105454D03*
X0099556Y0105454D03*
X0099356Y0105454D03*
X0098756Y0105254D03*
X0100556Y0137454D03*
D36*
X0085356Y0119754D03*
X0084156Y0119354D03*
X0084156Y0120354D03*
X0096756Y0111154D03*
X0100156Y0109954D03*
X0100156Y0107754D03*
X0100156Y0106354D03*
X0104156Y0101354D03*
X0099956Y0098554D03*
X0100156Y0095354D03*
X0097556Y0094354D03*
X0097556Y0093354D03*
X0104156Y0115754D03*
X0104156Y0071354D03*
X0099956Y0068754D03*
D37*
X0098756Y0109854D03*
X0097556Y0111454D03*
X0097356Y0111454D03*
X0102756Y0115254D03*
X0091956Y0128054D03*
X0091756Y0128054D03*
X0091556Y0127854D03*
X0091356Y0127654D03*
X0092156Y0128254D03*
X0092356Y0128454D03*
X0094556Y0132054D03*
X0094756Y0132654D03*
X0095756Y0132454D03*
X0095956Y0133054D03*
X0096156Y0133454D03*
X0096956Y0132854D03*
X0097356Y0133654D03*
X0098556Y0133854D03*
X0098756Y0134254D03*
X0098956Y0132854D03*
X0098756Y0132654D03*
X0098556Y0132454D03*
X0098156Y0132054D03*
X0098756Y0140454D03*
X0099156Y0141654D03*
X0098956Y0142054D03*
X0098556Y0142454D03*
X0097156Y0141254D03*
X0097356Y0141054D03*
X0096156Y0141054D03*
X0095956Y0141454D03*
X0094956Y0141254D03*
X0095356Y0142454D03*
X0089356Y0124454D03*
X0088956Y0123654D03*
X0087756Y0123454D03*
X0087556Y0123054D03*
X0086356Y0122854D03*
X0086156Y0122454D03*
X0084756Y0121854D03*
X0084356Y0123054D03*
X0084556Y0123454D03*
X0084756Y0123454D03*
X0084956Y0123854D03*
X0085156Y0123854D03*
X0085356Y0124054D03*
X0084956Y0117254D03*
X0084556Y0116054D03*
X0084756Y0115654D03*
X0084956Y0115654D03*
X0085156Y0115254D03*
X0085556Y0115054D03*
X0085756Y0114854D03*
X0085956Y0114654D03*
X0086556Y0116454D03*
X0087556Y0116654D03*
X0087756Y0116454D03*
X0088756Y0116654D03*
X0089356Y0115654D03*
D38*
X0101556Y0117954D03*
X0101956Y0117954D03*
X0102356Y0117954D03*
X0102556Y0117954D03*
D39*
X0099156Y0117754D03*
X0099156Y0111154D03*
X0101756Y0099554D03*
X0102356Y0098754D03*
X0101756Y0069554D03*
X0102156Y0069154D03*
X0102356Y0068954D03*
X0099156Y0068954D03*
D40*
X0101756Y0117854D03*
X0102156Y0117854D03*
D41*
X0097156Y0111354D03*
X0097156Y0105154D03*
X0100156Y0097554D03*
X0090356Y0114154D03*
X0089956Y0114554D03*
X0089756Y0114954D03*
X0089556Y0115154D03*
X0089156Y0115754D03*
X0088556Y0115154D03*
X0088956Y0114754D03*
X0088156Y0114554D03*
X0087356Y0115354D03*
X0087156Y0115554D03*
X0086756Y0116154D03*
X0086356Y0116754D03*
X0086156Y0117154D03*
X0085356Y0116554D03*
X0085156Y0116754D03*
X0085556Y0116154D03*
X0085756Y0115954D03*
X0085356Y0115154D03*
X0087956Y0115954D03*
X0088156Y0115754D03*
X0086556Y0123154D03*
X0086956Y0123754D03*
X0087156Y0123954D03*
X0087956Y0123754D03*
X0089156Y0124154D03*
X0085356Y0122954D03*
X0085156Y0122754D03*
X0094356Y0131754D03*
X0095556Y0132354D03*
X0096356Y0132154D03*
X0096556Y0132354D03*
X0096756Y0132754D03*
X0097156Y0133354D03*
X0098156Y0133154D03*
X0098356Y0133554D03*
X0096756Y0137154D03*
X0098556Y0140954D03*
X0098356Y0141154D03*
X0098156Y0141554D03*
X0097956Y0141754D03*
X0097756Y0142154D03*
X0098156Y0142754D03*
X0097756Y0143154D03*
X0096956Y0141754D03*
X0096356Y0142354D03*
X0096156Y0142754D03*
X0095556Y0143354D03*
X0094956Y0142954D03*
X0094156Y0142554D03*
X0093956Y0142754D03*
X0093756Y0143154D03*
X0093556Y0143354D03*
X0093356Y0143754D03*
X0094356Y0142154D03*
X0094556Y0141954D03*
X0095756Y0141754D03*
X0100156Y0067554D03*
D42*
X0100156Y0087854D03*
D43*
X0099956Y0097554D03*
X0097756Y0111554D03*
X0088956Y0116354D03*
X0088556Y0117154D03*
X0087356Y0117354D03*
X0084756Y0117554D03*
X0083956Y0116754D03*
X0084156Y0116554D03*
X0084356Y0116154D03*
X0082756Y0119754D03*
X0083756Y0122354D03*
X0083956Y0122554D03*
X0084156Y0122954D03*
X0084956Y0122354D03*
X0086756Y0124954D03*
X0087156Y0125354D03*
X0088756Y0123154D03*
X0088556Y0122754D03*
X0087356Y0122554D03*
X0088156Y0113354D03*
X0096956Y0131354D03*
X0098356Y0132354D03*
X0099156Y0133154D03*
X0099356Y0133354D03*
X0099556Y0133754D03*
X0099756Y0133954D03*
X0098956Y0134754D03*
X0097556Y0134154D03*
X0096356Y0133954D03*
X0097756Y0140154D03*
X0097556Y0140554D03*
X0098956Y0140154D03*
X0099556Y0141154D03*
X0099356Y0141554D03*
X0098756Y0142154D03*
X0098356Y0142554D03*
X0097956Y0142954D03*
X0095956Y0144154D03*
X0095556Y0144554D03*
X0094756Y0141354D03*
X0099956Y0067754D03*
D44*
X0096956Y0111254D03*
X0090756Y0113654D03*
X0090156Y0114454D03*
X0088756Y0114854D03*
X0088356Y0115454D03*
X0087756Y0114854D03*
X0087956Y0114654D03*
X0087556Y0115054D03*
X0086956Y0115854D03*
X0085956Y0115654D03*
X0086756Y0123454D03*
X0088156Y0124054D03*
X0095156Y0131654D03*
X0098356Y0136654D03*
X0098356Y0137854D03*
X0096756Y0141854D03*
X0096556Y0142254D03*
X0095956Y0142854D03*
X0095156Y0142654D03*
X0094756Y0143054D03*
X0094556Y0143454D03*
X0095556Y0142054D03*
D45*
X0122956Y0197854D03*
X0116056Y0200154D03*
X0109556Y0209254D03*
X0109356Y0210854D03*
X0109156Y0210854D03*
X0108956Y0210854D03*
X0110756Y0210754D03*
X0106856Y0210954D03*
X0106656Y0210954D03*
X0106456Y0210954D03*
X0106256Y0210954D03*
X0106056Y0210954D03*
X0104156Y0210954D03*
X0103956Y0210954D03*
X0103756Y0210954D03*
X0103556Y0210954D03*
X0102356Y0210854D03*
X0102056Y0209254D03*
X0095256Y0204354D03*
X0094156Y0204554D03*
X0087456Y0209254D03*
X0087256Y0210854D03*
X0087056Y0210854D03*
X0086856Y0210854D03*
X0088656Y0210754D03*
X0084756Y0210954D03*
X0084556Y0210954D03*
X0084356Y0210954D03*
X0084156Y0210954D03*
X0083956Y0210954D03*
X0082056Y0210954D03*
X0081856Y0210954D03*
X0081656Y0210954D03*
X0081456Y0210954D03*
X0080256Y0210854D03*
X0079956Y0209254D03*
X0083456Y0200154D03*
X0072056Y0200354D03*
X0069556Y0209354D03*
X0105556Y0200154D03*
X0123456Y0212554D03*
X0131056Y0210654D03*
X0131256Y0210654D03*
X0031835Y0045606D03*
X0023435Y0040106D03*
X0023435Y0040006D03*
X0022535Y0040006D03*
X0022535Y0039906D03*
X0011435Y0039006D03*
X0010035Y0040306D03*
X0010035Y0040406D03*
D46*
X0012585Y0040706D03*
X0012585Y0040806D03*
X0014985Y0047506D03*
X0012385Y0048706D03*
X0006585Y0048706D03*
X0006585Y0048506D03*
X0006585Y0048406D03*
X0006585Y0048306D03*
X0004685Y0054106D03*
X0020185Y0039306D03*
X0021485Y0039006D03*
X0023185Y0039206D03*
X0022785Y0040706D03*
X0022785Y0040806D03*
X0021485Y0041006D03*
X0021485Y0041106D03*
X0021385Y0046506D03*
X0022285Y0047306D03*
X0021385Y0050606D03*
X0030885Y0040906D03*
X0032085Y0040506D03*
X0032485Y0041306D03*
X0033485Y0040806D03*
X0033585Y0039806D03*
X0033485Y0039206D03*
X0036185Y0048406D03*
X0036185Y0048506D03*
X0036185Y0048606D03*
X0036185Y0048706D03*
X0041485Y0047606D03*
X0041385Y0045806D03*
X0052485Y0054106D03*
X0122906Y0197954D03*
X0131406Y0200154D03*
X0089906Y0199354D03*
X0076106Y0200454D03*
D47*
X0076106Y0200554D03*
X0077206Y0212054D03*
X0089906Y0199454D03*
X0099906Y0200354D03*
X0119906Y0211454D03*
X0122906Y0198054D03*
X0044385Y0052906D03*
X0045085Y0047706D03*
X0044985Y0045706D03*
X0041385Y0045706D03*
X0035985Y0047206D03*
X0035985Y0047306D03*
X0036085Y0047606D03*
X0036085Y0047706D03*
X0035885Y0047006D03*
X0035785Y0046806D03*
X0035785Y0046706D03*
X0035685Y0046506D03*
X0035585Y0046406D03*
X0035485Y0046306D03*
X0036085Y0049406D03*
X0036085Y0049506D03*
X0035985Y0049806D03*
X0035785Y0050206D03*
X0035785Y0050306D03*
X0035785Y0050406D03*
X0035685Y0050506D03*
X0035685Y0050606D03*
X0035585Y0050706D03*
X0035485Y0050806D03*
X0031885Y0050506D03*
X0031885Y0051306D03*
X0028285Y0050806D03*
X0028185Y0050606D03*
X0028185Y0050506D03*
X0028085Y0050406D03*
X0027985Y0050306D03*
X0027985Y0050206D03*
X0027885Y0050006D03*
X0027885Y0049906D03*
X0027885Y0049806D03*
X0027685Y0048906D03*
X0027685Y0048206D03*
X0027685Y0048106D03*
X0027685Y0048006D03*
X0027885Y0047306D03*
X0027885Y0047206D03*
X0027985Y0046906D03*
X0027985Y0046806D03*
X0028185Y0046506D03*
X0028285Y0046306D03*
X0025485Y0047206D03*
X0025485Y0047306D03*
X0025485Y0047406D03*
X0025585Y0047706D03*
X0025585Y0047806D03*
X0025585Y0047906D03*
X0025585Y0048006D03*
X0025585Y0049106D03*
X0025585Y0049206D03*
X0025585Y0049306D03*
X0025585Y0049406D03*
X0025585Y0049506D03*
X0025485Y0049706D03*
X0025485Y0049806D03*
X0024985Y0050806D03*
X0022285Y0049806D03*
X0020685Y0049906D03*
X0017785Y0050806D03*
X0017685Y0050706D03*
X0017485Y0050406D03*
X0017485Y0050306D03*
X0017485Y0050206D03*
X0017385Y0050006D03*
X0017385Y0049906D03*
X0017285Y0049806D03*
X0017285Y0049706D03*
X0017185Y0049406D03*
X0017185Y0049306D03*
X0017185Y0049206D03*
X0017185Y0049106D03*
X0017185Y0047906D03*
X0017185Y0047806D03*
X0017185Y0047706D03*
X0017185Y0047606D03*
X0017585Y0046606D03*
X0017785Y0046206D03*
X0014885Y0047106D03*
X0014885Y0047206D03*
X0014885Y0047306D03*
X0014785Y0047006D03*
X0014785Y0046906D03*
X0014785Y0046806D03*
X0014585Y0046606D03*
X0014585Y0046506D03*
X0014485Y0046306D03*
X0015085Y0047906D03*
X0015085Y0048006D03*
X0015085Y0048106D03*
X0015085Y0048906D03*
X0015085Y0049006D03*
X0014985Y0049606D03*
X0014885Y0049706D03*
X0014885Y0049806D03*
X0014885Y0049906D03*
X0014885Y0050006D03*
X0014785Y0050106D03*
X0014785Y0050206D03*
X0014685Y0050406D03*
X0014585Y0050506D03*
X0014585Y0050606D03*
X0014485Y0050706D03*
X0014485Y0050806D03*
X0012385Y0048806D03*
X0007285Y0050806D03*
X0007185Y0050706D03*
X0007085Y0050606D03*
X0007085Y0050506D03*
X0006985Y0050406D03*
X0006985Y0050306D03*
X0006885Y0050106D03*
X0006785Y0049906D03*
X0006785Y0049806D03*
X0006685Y0049506D03*
X0006685Y0049406D03*
X0006685Y0047706D03*
X0006685Y0047606D03*
X0006685Y0047506D03*
X0006785Y0047306D03*
X0006785Y0047206D03*
X0006885Y0046906D03*
X0006985Y0046806D03*
X0006985Y0046706D03*
X0006985Y0046606D03*
X0007085Y0046506D03*
X0007085Y0046406D03*
X0007285Y0046206D03*
X0011085Y0040806D03*
X0011085Y0040706D03*
X0011285Y0040106D03*
X0012485Y0039306D03*
X0012685Y0039606D03*
X0020185Y0040706D03*
X0021385Y0041206D03*
X0022885Y0041206D03*
X0022885Y0041106D03*
X0022885Y0041006D03*
X0023085Y0038906D03*
X0021385Y0038906D03*
X0021385Y0038806D03*
X0024985Y0046306D03*
X0025185Y0046506D03*
X0025185Y0046606D03*
X0025285Y0046806D03*
X0022285Y0047206D03*
X0030885Y0041106D03*
X0032085Y0040406D03*
X0032085Y0040306D03*
X0033485Y0040506D03*
X0033485Y0040606D03*
X0033485Y0040706D03*
X0033485Y0039706D03*
D48*
X0032085Y0040206D03*
X0031985Y0040006D03*
X0031785Y0039706D03*
X0031785Y0039306D03*
X0031785Y0039206D03*
X0031785Y0039106D03*
X0031785Y0039006D03*
X0030885Y0041306D03*
X0029185Y0045306D03*
X0028985Y0045506D03*
X0028885Y0045606D03*
X0028685Y0045706D03*
X0028685Y0045806D03*
X0028385Y0046106D03*
X0024885Y0046106D03*
X0024785Y0046006D03*
X0024385Y0045606D03*
X0022985Y0041406D03*
X0022985Y0041306D03*
X0020185Y0040506D03*
X0020185Y0039606D03*
X0020185Y0039506D03*
X0018285Y0045606D03*
X0018185Y0045706D03*
X0017885Y0046106D03*
X0017585Y0046706D03*
X0017585Y0046806D03*
X0014185Y0045906D03*
X0014085Y0045806D03*
X0012185Y0047206D03*
X0012285Y0047406D03*
X0012285Y0047506D03*
X0012385Y0047706D03*
X0012385Y0048906D03*
X0012285Y0049306D03*
X0012285Y0049406D03*
X0012285Y0049506D03*
X0012185Y0049706D03*
X0010785Y0050906D03*
X0009285Y0049606D03*
X0009285Y0049506D03*
X0009185Y0049306D03*
X0009185Y0049206D03*
X0009085Y0049006D03*
X0009085Y0048906D03*
X0009085Y0048806D03*
X0009085Y0048706D03*
X0009085Y0048206D03*
X0009085Y0048106D03*
X0009085Y0048006D03*
X0009185Y0047806D03*
X0009185Y0047706D03*
X0007485Y0045906D03*
X0007585Y0045806D03*
X0007785Y0045606D03*
X0007985Y0045406D03*
X0011085Y0041106D03*
X0011085Y0041006D03*
X0011085Y0040906D03*
X0012585Y0039506D03*
X0010085Y0039006D03*
X0007485Y0051206D03*
X0007785Y0051506D03*
X0013685Y0051706D03*
X0014085Y0051306D03*
X0014185Y0051206D03*
X0014285Y0051006D03*
X0017885Y0051006D03*
X0017985Y0051106D03*
X0018185Y0051306D03*
X0018385Y0051506D03*
X0024185Y0051706D03*
X0024385Y0051506D03*
X0024485Y0051406D03*
X0024685Y0051206D03*
X0024785Y0051106D03*
X0025085Y0050606D03*
X0025085Y0050506D03*
X0028385Y0050906D03*
X0028585Y0051206D03*
X0028685Y0051306D03*
X0028885Y0051506D03*
X0034785Y0051606D03*
X0034985Y0051406D03*
X0035285Y0051106D03*
X0038985Y0048806D03*
X0039085Y0048906D03*
X0038885Y0048506D03*
X0038885Y0048406D03*
X0038785Y0048006D03*
X0038785Y0047906D03*
X0038785Y0047806D03*
X0038685Y0047706D03*
X0038685Y0047606D03*
X0038685Y0047506D03*
X0038685Y0047406D03*
X0038685Y0047306D03*
X0038685Y0047206D03*
X0038685Y0047106D03*
X0038685Y0047006D03*
X0038685Y0046906D03*
X0038685Y0046506D03*
X0038685Y0046406D03*
X0038685Y0046306D03*
X0038685Y0046206D03*
X0038685Y0046106D03*
X0038685Y0046006D03*
X0038685Y0045906D03*
X0038685Y0045806D03*
X0038685Y0045706D03*
X0038685Y0045606D03*
X0038785Y0045506D03*
X0038785Y0045406D03*
X0038785Y0045306D03*
X0038885Y0044906D03*
X0039085Y0044506D03*
X0041485Y0047806D03*
X0043585Y0047506D03*
X0043685Y0047406D03*
X0043685Y0047306D03*
X0043685Y0047206D03*
X0043685Y0047106D03*
X0043685Y0047006D03*
X0043685Y0046406D03*
X0043685Y0046306D03*
X0043685Y0046206D03*
X0043685Y0046106D03*
X0043685Y0046006D03*
X0043585Y0045906D03*
X0043585Y0045806D03*
X0047085Y0047706D03*
X0047185Y0047606D03*
X0047285Y0047506D03*
X0047285Y0047406D03*
X0047285Y0047306D03*
X0047285Y0047206D03*
X0047385Y0047106D03*
X0047385Y0047006D03*
X0047385Y0046906D03*
X0047385Y0046806D03*
X0047385Y0046706D03*
X0047385Y0046606D03*
X0047385Y0046506D03*
X0047385Y0046406D03*
X0047385Y0046306D03*
X0047285Y0046206D03*
X0047285Y0046106D03*
X0047285Y0046006D03*
X0049985Y0045706D03*
X0049985Y0045606D03*
X0049985Y0045506D03*
X0049985Y0045406D03*
X0049885Y0045006D03*
X0049785Y0044806D03*
X0049685Y0044506D03*
X0050085Y0046006D03*
X0050085Y0046106D03*
X0050085Y0046206D03*
X0050085Y0046306D03*
X0050085Y0046406D03*
X0050085Y0046506D03*
X0050085Y0046906D03*
X0050085Y0047006D03*
X0050085Y0047106D03*
X0050085Y0047206D03*
X0050085Y0047306D03*
X0049985Y0047706D03*
X0049985Y0047806D03*
X0049985Y0047906D03*
X0049985Y0048006D03*
X0049785Y0048606D03*
X0034985Y0045606D03*
X0034785Y0045406D03*
X0122806Y0198154D03*
X0112706Y0211254D03*
X0105506Y0200254D03*
X0099906Y0200454D03*
X0089906Y0199554D03*
X0083406Y0200254D03*
X0077206Y0211954D03*
X0069306Y0210954D03*
D49*
X0083506Y0200354D03*
X0090006Y0199854D03*
X0099906Y0200554D03*
X0105606Y0200354D03*
X0112706Y0211154D03*
X0122906Y0209354D03*
X0122906Y0208954D03*
X0122906Y0208754D03*
X0122906Y0208454D03*
X0126406Y0205154D03*
X0131306Y0200354D03*
X0122806Y0198254D03*
X0131206Y0210554D03*
X0094706Y0211054D03*
X0034385Y0052006D03*
X0039285Y0049406D03*
X0039185Y0049206D03*
X0039485Y0049706D03*
X0039785Y0050106D03*
X0042485Y0048506D03*
X0043385Y0045606D03*
X0046985Y0045606D03*
X0046985Y0047806D03*
X0046085Y0048506D03*
X0049085Y0049906D03*
X0049185Y0049806D03*
X0049385Y0049506D03*
X0049385Y0049406D03*
X0049585Y0049106D03*
X0049585Y0044206D03*
X0049485Y0044106D03*
X0049385Y0043906D03*
X0049085Y0043506D03*
X0048885Y0043206D03*
X0039485Y0043606D03*
X0039485Y0043706D03*
X0039385Y0043806D03*
X0039285Y0043906D03*
X0039285Y0044006D03*
X0039185Y0044206D03*
X0034885Y0045506D03*
X0034385Y0045106D03*
X0030885Y0041406D03*
X0029285Y0045206D03*
X0023885Y0045106D03*
X0020185Y0039706D03*
X0013485Y0045206D03*
X0013285Y0045106D03*
X0011985Y0047006D03*
X0010885Y0046106D03*
X0008385Y0045106D03*
X0011085Y0041206D03*
X0010085Y0038906D03*
X0010085Y0038806D03*
X0010085Y0038706D03*
X0012385Y0049006D03*
X0013385Y0051906D03*
X0013285Y0052006D03*
X0018685Y0051806D03*
X0018985Y0052006D03*
X0022085Y0049906D03*
X0023885Y0052006D03*
X0029385Y0051906D03*
X0029485Y0052006D03*
X0031885Y0038906D03*
X0031885Y0038806D03*
X0008385Y0052006D03*
X0008285Y0051906D03*
D50*
X0008635Y0052106D03*
X0009635Y0050006D03*
X0010835Y0053106D03*
X0009635Y0047006D03*
X0008235Y0045206D03*
X0008535Y0045006D03*
X0011435Y0040306D03*
X0018735Y0045206D03*
X0018935Y0045106D03*
X0019035Y0045006D03*
X0017735Y0046906D03*
X0021335Y0050506D03*
X0019135Y0052106D03*
X0018835Y0051906D03*
X0023635Y0052106D03*
X0023935Y0051906D03*
X0024935Y0050406D03*
X0029735Y0052106D03*
X0031935Y0053106D03*
X0034435Y0051906D03*
X0031935Y0047706D03*
X0031935Y0047606D03*
X0031935Y0047506D03*
X0031935Y0047406D03*
X0031935Y0047306D03*
X0031935Y0047206D03*
X0031935Y0047106D03*
X0031935Y0047006D03*
X0031935Y0046906D03*
X0031935Y0046806D03*
X0031935Y0046706D03*
X0031935Y0046606D03*
X0031935Y0046506D03*
X0031935Y0046406D03*
X0031935Y0046306D03*
X0031935Y0046206D03*
X0031935Y0046106D03*
X0031935Y0046006D03*
X0031935Y0045906D03*
X0031935Y0045806D03*
X0031935Y0045706D03*
X0029635Y0045006D03*
X0029435Y0045106D03*
X0034535Y0045206D03*
X0039635Y0043506D03*
X0039635Y0043406D03*
X0039735Y0043306D03*
X0039835Y0043206D03*
X0039935Y0043106D03*
X0039935Y0043006D03*
X0040035Y0042906D03*
X0039535Y0049806D03*
X0039635Y0049906D03*
X0039635Y0050006D03*
X0039835Y0050206D03*
X0039935Y0050406D03*
X0040035Y0050506D03*
X0048635Y0050506D03*
X0048735Y0050406D03*
X0048835Y0050306D03*
X0048935Y0050206D03*
X0048935Y0050106D03*
X0049035Y0050006D03*
X0049235Y0049706D03*
X0049235Y0043706D03*
X0049235Y0043606D03*
X0049035Y0043406D03*
X0048835Y0043106D03*
X0048735Y0043006D03*
X0048635Y0042906D03*
X0023635Y0045006D03*
X0020135Y0040406D03*
X0122756Y0198354D03*
X0119656Y0204254D03*
X0122856Y0206554D03*
X0122856Y0206954D03*
X0122856Y0207254D03*
X0122856Y0207554D03*
X0122856Y0207754D03*
X0122856Y0207854D03*
X0122856Y0208054D03*
X0122856Y0208154D03*
X0122856Y0208354D03*
X0122956Y0208554D03*
X0122856Y0208654D03*
X0122956Y0208854D03*
X0122956Y0209054D03*
X0122956Y0209154D03*
X0122956Y0209254D03*
X0122956Y0209454D03*
X0122956Y0209554D03*
X0122956Y0209654D03*
X0122956Y0209754D03*
X0122956Y0209854D03*
X0122956Y0209954D03*
X0119856Y0211054D03*
X0112756Y0211054D03*
X0116056Y0200254D03*
X0129056Y0207954D03*
X0099856Y0200654D03*
X0096856Y0207154D03*
X0096756Y0207354D03*
X0077156Y0211754D03*
X0068056Y0203154D03*
X0067956Y0203254D03*
X0067856Y0203354D03*
X0067656Y0203654D03*
X0067556Y0203754D03*
X0067456Y0203954D03*
X0067356Y0204054D03*
X0067256Y0204254D03*
X0067156Y0204454D03*
X0067056Y0204554D03*
X0066856Y0204954D03*
X0068356Y0202754D03*
X0068556Y0202554D03*
D51*
X0068506Y0202654D03*
X0068706Y0202454D03*
X0068806Y0202354D03*
X0068906Y0202254D03*
X0069006Y0202154D03*
X0068306Y0202854D03*
X0068206Y0202954D03*
X0068106Y0203054D03*
X0067806Y0203454D03*
X0067706Y0203554D03*
X0067506Y0203854D03*
X0067306Y0204154D03*
X0067206Y0204354D03*
X0067006Y0204654D03*
X0067006Y0204754D03*
X0066906Y0204854D03*
X0066806Y0205054D03*
X0066806Y0205154D03*
X0066706Y0205254D03*
X0066706Y0205354D03*
X0066606Y0205554D03*
X0066606Y0205654D03*
X0071906Y0208454D03*
X0072006Y0208354D03*
X0072106Y0208154D03*
X0072206Y0208054D03*
X0072306Y0207954D03*
X0072406Y0207754D03*
X0072506Y0207654D03*
X0072606Y0207454D03*
X0072706Y0207354D03*
X0072806Y0207154D03*
X0072906Y0207054D03*
X0073006Y0206854D03*
X0073106Y0206754D03*
X0073206Y0206654D03*
X0073206Y0206554D03*
X0073306Y0206454D03*
X0073406Y0206354D03*
X0073406Y0206254D03*
X0073506Y0206154D03*
X0073606Y0206054D03*
X0073606Y0205954D03*
X0073706Y0205854D03*
X0073806Y0205754D03*
X0073806Y0205654D03*
X0073906Y0205554D03*
X0074006Y0205454D03*
X0074006Y0205354D03*
X0074106Y0205254D03*
X0074106Y0205154D03*
X0074206Y0205054D03*
X0074306Y0204954D03*
X0074306Y0204854D03*
X0074406Y0204454D03*
X0074406Y0204354D03*
X0074406Y0204254D03*
X0074406Y0204054D03*
X0074506Y0203754D03*
X0074506Y0203254D03*
X0074406Y0202654D03*
X0074406Y0202454D03*
X0076306Y0201054D03*
X0076306Y0200954D03*
X0072906Y0200354D03*
X0077106Y0211654D03*
X0083506Y0200454D03*
X0090006Y0199954D03*
X0097306Y0206054D03*
X0097206Y0206254D03*
X0097206Y0206354D03*
X0097106Y0206454D03*
X0097106Y0206554D03*
X0097006Y0206654D03*
X0097006Y0206754D03*
X0097006Y0206854D03*
X0096906Y0206954D03*
X0096906Y0207054D03*
X0096806Y0207254D03*
X0096706Y0207454D03*
X0096706Y0207554D03*
X0096606Y0207654D03*
X0096606Y0207754D03*
X0096506Y0207854D03*
X0094706Y0210954D03*
X0105606Y0200454D03*
X0119406Y0203354D03*
X0119506Y0203554D03*
X0119506Y0203654D03*
X0119506Y0203754D03*
X0119606Y0203854D03*
X0119606Y0203954D03*
X0119606Y0204054D03*
X0119606Y0204154D03*
X0119706Y0204354D03*
X0119706Y0204454D03*
X0119706Y0204554D03*
X0119706Y0204654D03*
X0119706Y0204754D03*
X0119706Y0204854D03*
X0119706Y0204954D03*
X0119806Y0205154D03*
X0119706Y0205254D03*
X0119806Y0205554D03*
X0122806Y0205654D03*
X0122806Y0205754D03*
X0122806Y0205954D03*
X0122806Y0206054D03*
X0122806Y0206254D03*
X0122806Y0206354D03*
X0122806Y0206654D03*
X0122806Y0206854D03*
X0122906Y0207054D03*
X0122806Y0207154D03*
X0122906Y0207354D03*
X0122806Y0207454D03*
X0122906Y0207654D03*
X0122906Y0207954D03*
X0122906Y0208254D03*
X0122806Y0205454D03*
X0122806Y0205354D03*
X0122806Y0205154D03*
X0122806Y0205054D03*
X0122806Y0204854D03*
X0122806Y0204454D03*
X0122806Y0203654D03*
X0126406Y0205254D03*
X0128806Y0207754D03*
X0129006Y0207854D03*
X0129206Y0208054D03*
X0129206Y0208154D03*
X0129406Y0208354D03*
X0123306Y0212354D03*
X0119806Y0210954D03*
X0119806Y0210854D03*
X0122706Y0198454D03*
X0131306Y0200454D03*
X0034185Y0052106D03*
X0031885Y0047806D03*
X0029785Y0044906D03*
X0034185Y0045006D03*
X0039885Y0050306D03*
X0040185Y0050606D03*
X0040285Y0050706D03*
X0042485Y0044906D03*
X0046185Y0044906D03*
X0048385Y0042706D03*
X0048585Y0042806D03*
X0048985Y0043306D03*
X0048585Y0050606D03*
X0048385Y0050706D03*
X0013085Y0052106D03*
X0011885Y0050006D03*
X0012385Y0049106D03*
X0011885Y0046906D03*
X0009785Y0046906D03*
X0012985Y0044906D03*
X0013085Y0045006D03*
X0011185Y0041306D03*
X0010885Y0050806D03*
D52*
X0011735Y0050106D03*
X0009835Y0050106D03*
X0008735Y0052206D03*
X0008735Y0044906D03*
X0012835Y0044806D03*
X0019235Y0044906D03*
X0019435Y0044806D03*
X0023335Y0044806D03*
X0023435Y0052206D03*
X0021435Y0053106D03*
X0029835Y0052206D03*
X0033935Y0052206D03*
X0040435Y0050806D03*
X0042435Y0048406D03*
X0046135Y0048406D03*
X0048335Y0050806D03*
X0048235Y0050906D03*
X0048035Y0051106D03*
X0048335Y0042606D03*
X0048135Y0042406D03*
X0048035Y0042306D03*
X0040535Y0042406D03*
X0040535Y0042506D03*
X0040335Y0042606D03*
X0040235Y0042706D03*
X0040135Y0042806D03*
X0034035Y0044906D03*
X0033935Y0044806D03*
X0032035Y0038706D03*
X0122656Y0198554D03*
X0122756Y0201154D03*
X0122756Y0201254D03*
X0122756Y0201654D03*
X0122756Y0202054D03*
X0122756Y0202454D03*
X0122756Y0202854D03*
X0122856Y0203154D03*
X0122756Y0203254D03*
X0122856Y0203554D03*
X0122856Y0203854D03*
X0122856Y0203954D03*
X0122756Y0204054D03*
X0122856Y0204154D03*
X0122856Y0204254D03*
X0122856Y0204554D03*
X0122856Y0204654D03*
X0122856Y0204754D03*
X0122856Y0204954D03*
X0122856Y0205254D03*
X0122856Y0205554D03*
X0122856Y0205854D03*
X0122856Y0206154D03*
X0122856Y0206454D03*
X0122856Y0206754D03*
X0119756Y0205954D03*
X0119756Y0205754D03*
X0119756Y0205654D03*
X0119756Y0205454D03*
X0119756Y0205354D03*
X0119756Y0205054D03*
X0119456Y0203454D03*
X0119356Y0203254D03*
X0119356Y0203154D03*
X0113456Y0202854D03*
X0113256Y0203154D03*
X0113156Y0203254D03*
X0113156Y0203354D03*
X0113056Y0203454D03*
X0113056Y0203554D03*
X0112956Y0203654D03*
X0112956Y0203754D03*
X0112856Y0203854D03*
X0112856Y0203954D03*
X0112856Y0204054D03*
X0112756Y0204154D03*
X0112756Y0204254D03*
X0112656Y0204554D03*
X0112256Y0206954D03*
X0112256Y0207254D03*
X0112256Y0207554D03*
X0112756Y0210954D03*
X0119756Y0210754D03*
X0129356Y0208254D03*
X0129556Y0208454D03*
X0129556Y0208554D03*
X0131556Y0208554D03*
X0131556Y0208454D03*
X0131556Y0208254D03*
X0131556Y0208754D03*
X0131556Y0208854D03*
X0105656Y0200654D03*
X0105656Y0200554D03*
X0099856Y0200754D03*
X0097556Y0205554D03*
X0097456Y0205754D03*
X0097356Y0205854D03*
X0097356Y0205954D03*
X0097256Y0206154D03*
X0096456Y0207954D03*
X0096356Y0208054D03*
X0096356Y0208154D03*
X0096256Y0208254D03*
X0096056Y0208554D03*
X0093456Y0208454D03*
X0093356Y0208254D03*
X0093256Y0208054D03*
X0093156Y0207854D03*
X0093056Y0207654D03*
X0092956Y0207454D03*
X0092856Y0207254D03*
X0092756Y0207054D03*
X0094656Y0210854D03*
X0090156Y0200254D03*
X0090156Y0200154D03*
X0090056Y0200054D03*
X0083556Y0200554D03*
X0083556Y0200654D03*
X0076456Y0201254D03*
X0076356Y0201154D03*
X0074356Y0202254D03*
X0074356Y0202354D03*
X0074456Y0202554D03*
X0074456Y0202754D03*
X0074456Y0202854D03*
X0074456Y0202954D03*
X0074456Y0203054D03*
X0074456Y0203154D03*
X0074456Y0203354D03*
X0074456Y0203454D03*
X0074456Y0203554D03*
X0074456Y0203654D03*
X0074456Y0203854D03*
X0074456Y0203954D03*
X0074456Y0204154D03*
X0074356Y0204554D03*
X0074356Y0204654D03*
X0074356Y0204754D03*
X0072956Y0206954D03*
X0072756Y0207254D03*
X0072556Y0207554D03*
X0072356Y0207854D03*
X0072056Y0208254D03*
X0071856Y0208554D03*
X0071756Y0208654D03*
X0071656Y0208754D03*
X0066456Y0206354D03*
X0066456Y0206254D03*
X0066456Y0206154D03*
X0066456Y0206054D03*
X0066556Y0205954D03*
X0066556Y0205854D03*
X0066556Y0205754D03*
X0066656Y0205454D03*
X0069156Y0202054D03*
X0069256Y0201954D03*
X0077156Y0211454D03*
X0077156Y0211554D03*
D53*
X0077106Y0211354D03*
X0077106Y0211254D03*
X0083006Y0210954D03*
X0083506Y0201454D03*
X0083506Y0201254D03*
X0083506Y0201154D03*
X0083506Y0201054D03*
X0083506Y0200954D03*
X0083506Y0200854D03*
X0083506Y0200754D03*
X0090206Y0200454D03*
X0090206Y0200354D03*
X0090306Y0200754D03*
X0092206Y0205854D03*
X0092306Y0206054D03*
X0092406Y0206254D03*
X0092406Y0206354D03*
X0092506Y0206454D03*
X0092506Y0206554D03*
X0092606Y0206654D03*
X0092606Y0206754D03*
X0092706Y0206854D03*
X0092706Y0206954D03*
X0092806Y0207154D03*
X0092906Y0207354D03*
X0093006Y0207554D03*
X0093106Y0207754D03*
X0093206Y0207954D03*
X0093306Y0208154D03*
X0093406Y0208354D03*
X0093506Y0208554D03*
X0093606Y0208654D03*
X0093606Y0208754D03*
X0094706Y0210754D03*
X0095906Y0208754D03*
X0096106Y0208454D03*
X0096206Y0208354D03*
X0097506Y0205654D03*
X0097606Y0205454D03*
X0097606Y0205354D03*
X0097706Y0205254D03*
X0097706Y0205154D03*
X0097806Y0205054D03*
X0097806Y0204954D03*
X0097906Y0204754D03*
X0099806Y0200954D03*
X0099806Y0200854D03*
X0105606Y0200854D03*
X0105606Y0200954D03*
X0105606Y0201054D03*
X0105606Y0201154D03*
X0105606Y0201254D03*
X0105606Y0201454D03*
X0105606Y0200754D03*
X0112706Y0204354D03*
X0112706Y0204454D03*
X0112606Y0204654D03*
X0112606Y0204754D03*
X0112606Y0204854D03*
X0112506Y0204954D03*
X0112506Y0205054D03*
X0112506Y0205154D03*
X0112406Y0205354D03*
X0112406Y0205454D03*
X0112406Y0205554D03*
X0112406Y0205654D03*
X0112306Y0205954D03*
X0112306Y0206054D03*
X0112306Y0206154D03*
X0112306Y0206254D03*
X0112306Y0206354D03*
X0112306Y0206554D03*
X0112306Y0206654D03*
X0112206Y0206754D03*
X0112306Y0206854D03*
X0112206Y0207054D03*
X0112306Y0207154D03*
X0112206Y0207354D03*
X0112306Y0207454D03*
X0112306Y0207754D03*
X0112306Y0207854D03*
X0112306Y0208054D03*
X0112806Y0210854D03*
X0119806Y0210654D03*
X0123306Y0211954D03*
X0123306Y0212054D03*
X0123306Y0212154D03*
X0123306Y0212254D03*
X0119806Y0206454D03*
X0119806Y0206354D03*
X0119806Y0206254D03*
X0119806Y0206154D03*
X0119806Y0206054D03*
X0119806Y0205854D03*
X0122806Y0204354D03*
X0122806Y0203754D03*
X0122806Y0203454D03*
X0122806Y0203354D03*
X0122806Y0203054D03*
X0122806Y0202954D03*
X0122806Y0202754D03*
X0122806Y0202654D03*
X0122806Y0202554D03*
X0122806Y0202354D03*
X0122806Y0202254D03*
X0122806Y0202154D03*
X0122806Y0201954D03*
X0122806Y0201854D03*
X0122806Y0201754D03*
X0122806Y0201554D03*
X0122806Y0201454D03*
X0122706Y0200954D03*
X0122706Y0200854D03*
X0122706Y0200654D03*
X0122706Y0200554D03*
X0122706Y0200354D03*
X0122706Y0200254D03*
X0122706Y0200154D03*
X0122606Y0198754D03*
X0122606Y0198654D03*
X0119106Y0202754D03*
X0119206Y0202854D03*
X0119206Y0202954D03*
X0119306Y0203054D03*
X0113606Y0202654D03*
X0113506Y0202754D03*
X0113406Y0202954D03*
X0113306Y0203054D03*
X0105106Y0210954D03*
X0126406Y0205354D03*
X0129706Y0208654D03*
X0129706Y0208754D03*
X0131506Y0208654D03*
X0131506Y0208354D03*
X0131506Y0208154D03*
X0131506Y0208054D03*
X0131506Y0207954D03*
X0131506Y0207854D03*
X0131506Y0207754D03*
X0131506Y0207654D03*
X0131506Y0207554D03*
X0131506Y0207454D03*
X0131506Y0207354D03*
X0131506Y0207254D03*
X0131506Y0207154D03*
X0131506Y0207054D03*
X0131506Y0206854D03*
X0131506Y0206754D03*
X0131506Y0206554D03*
X0131206Y0210454D03*
X0131306Y0200654D03*
X0131306Y0200554D03*
X0076406Y0201354D03*
X0074306Y0202054D03*
X0074306Y0202154D03*
X0074206Y0201954D03*
X0074206Y0201854D03*
X0069406Y0201854D03*
X0066406Y0206454D03*
X0066406Y0206554D03*
X0066406Y0206654D03*
X0066406Y0206854D03*
X0071606Y0208854D03*
X0033785Y0052306D03*
X0030085Y0052306D03*
X0029985Y0044806D03*
X0023485Y0044906D03*
X0021485Y0046606D03*
X0017785Y0047006D03*
X0019385Y0052206D03*
X0019485Y0052306D03*
X0012885Y0052206D03*
X0012685Y0052306D03*
X0008985Y0052306D03*
X0010885Y0046206D03*
X0008885Y0044806D03*
X0011185Y0041406D03*
X0040685Y0042306D03*
X0042485Y0045006D03*
X0046085Y0045006D03*
X0048185Y0042506D03*
X0047885Y0042206D03*
X0048085Y0051006D03*
X0040685Y0051106D03*
X0040585Y0051006D03*
X0040485Y0050906D03*
D54*
X0041185Y0051406D03*
X0047585Y0051406D03*
X0047685Y0051306D03*
X0047885Y0051206D03*
X0047285Y0041806D03*
X0040785Y0042206D03*
X0033585Y0044706D03*
X0024785Y0050206D03*
X0022185Y0049006D03*
X0021885Y0048906D03*
X0021485Y0048706D03*
X0021185Y0048606D03*
X0020785Y0048406D03*
X0020585Y0048306D03*
X0017885Y0047106D03*
X0019685Y0044706D03*
X0023085Y0044706D03*
X0012585Y0044706D03*
X0122606Y0198854D03*
X0122606Y0199054D03*
X0122606Y0199154D03*
X0122606Y0199254D03*
X0122606Y0199354D03*
X0122606Y0199454D03*
X0119006Y0202554D03*
X0119706Y0207254D03*
X0119706Y0207354D03*
X0119706Y0207654D03*
X0119706Y0209954D03*
X0119706Y0210154D03*
X0119706Y0210254D03*
X0123306Y0211654D03*
X0127606Y0206754D03*
X0127406Y0206554D03*
X0127206Y0206354D03*
X0126406Y0205454D03*
X0131406Y0205154D03*
X0131406Y0204854D03*
X0131406Y0204654D03*
X0131406Y0204454D03*
X0131406Y0204354D03*
X0131406Y0204254D03*
X0131406Y0204154D03*
X0131406Y0204054D03*
X0131406Y0203954D03*
X0131406Y0203854D03*
X0131406Y0203754D03*
X0131406Y0203654D03*
X0131406Y0203554D03*
X0131406Y0203354D03*
X0131406Y0203254D03*
X0131406Y0203154D03*
X0131406Y0202854D03*
X0131406Y0202654D03*
X0131306Y0202454D03*
X0131306Y0202254D03*
X0131306Y0201954D03*
X0131306Y0201854D03*
X0131306Y0201754D03*
X0131306Y0201654D03*
X0131306Y0201554D03*
X0131306Y0201454D03*
X0131306Y0201354D03*
X0131306Y0201254D03*
X0131306Y0201154D03*
X0131306Y0201054D03*
X0131306Y0200954D03*
X0131206Y0210354D03*
X0113806Y0202454D03*
X0112406Y0208454D03*
X0112406Y0208554D03*
X0112806Y0210654D03*
X0112806Y0210754D03*
X0105706Y0205154D03*
X0105706Y0205054D03*
X0105706Y0204954D03*
X0105706Y0204754D03*
X0105606Y0204654D03*
X0105606Y0204554D03*
X0105606Y0204454D03*
X0105606Y0204354D03*
X0105606Y0204254D03*
X0105606Y0204154D03*
X0105606Y0204054D03*
X0105606Y0203954D03*
X0105606Y0203754D03*
X0105606Y0203454D03*
X0099706Y0201154D03*
X0098106Y0204154D03*
X0098106Y0204254D03*
X0098006Y0204354D03*
X0098006Y0204454D03*
X0095806Y0208854D03*
X0095706Y0208954D03*
X0093806Y0208954D03*
X0092106Y0205554D03*
X0092006Y0205454D03*
X0091106Y0203154D03*
X0091106Y0203054D03*
X0091106Y0202954D03*
X0091006Y0202854D03*
X0091006Y0202754D03*
X0091006Y0202654D03*
X0090906Y0202554D03*
X0090906Y0202454D03*
X0090906Y0202354D03*
X0090806Y0202254D03*
X0090806Y0202154D03*
X0090806Y0202054D03*
X0090706Y0201954D03*
X0090706Y0201854D03*
X0090606Y0201654D03*
X0090606Y0201554D03*
X0090506Y0201354D03*
X0083506Y0203454D03*
X0083506Y0203754D03*
X0083506Y0203954D03*
X0083506Y0204054D03*
X0083506Y0204154D03*
X0083506Y0204254D03*
X0083506Y0204354D03*
X0083506Y0204454D03*
X0083506Y0204554D03*
X0083506Y0204654D03*
X0083606Y0204754D03*
X0083606Y0204954D03*
X0083606Y0205054D03*
X0083606Y0205154D03*
X0076606Y0204554D03*
X0076606Y0204154D03*
X0076506Y0203854D03*
X0076606Y0203754D03*
X0076506Y0203454D03*
X0076606Y0203354D03*
X0076506Y0203254D03*
X0076506Y0203154D03*
X0076506Y0202854D03*
X0076506Y0202654D03*
X0076506Y0202454D03*
X0076506Y0202354D03*
X0076506Y0202254D03*
X0076506Y0202054D03*
X0076506Y0201954D03*
X0076506Y0201854D03*
X0074106Y0201654D03*
X0066406Y0207054D03*
X0066506Y0207454D03*
X0066506Y0207554D03*
X0069306Y0210854D03*
X0077106Y0210954D03*
X0077106Y0211054D03*
X0077106Y0211154D03*
D55*
X0071456Y0208954D03*
X0071356Y0209054D03*
X0066456Y0207254D03*
X0066456Y0207154D03*
X0066456Y0206954D03*
X0066456Y0206754D03*
X0069556Y0201754D03*
X0069756Y0201654D03*
X0074156Y0201754D03*
X0076456Y0201654D03*
X0076456Y0201554D03*
X0076456Y0201454D03*
X0076556Y0201754D03*
X0076556Y0202154D03*
X0076556Y0202554D03*
X0076556Y0202954D03*
X0083456Y0202954D03*
X0083456Y0203054D03*
X0083456Y0203154D03*
X0083456Y0203254D03*
X0083456Y0203354D03*
X0083456Y0203554D03*
X0083456Y0203654D03*
X0083456Y0203854D03*
X0083456Y0202854D03*
X0083456Y0202754D03*
X0083456Y0202654D03*
X0083456Y0202554D03*
X0083456Y0202454D03*
X0083456Y0202354D03*
X0083456Y0202254D03*
X0083456Y0202154D03*
X0083456Y0202054D03*
X0083456Y0201954D03*
X0083456Y0201854D03*
X0083456Y0201754D03*
X0083456Y0201654D03*
X0083456Y0201554D03*
X0083456Y0201354D03*
X0090256Y0200654D03*
X0090256Y0200554D03*
X0090356Y0200854D03*
X0090356Y0200954D03*
X0090356Y0201054D03*
X0090456Y0201154D03*
X0090456Y0201254D03*
X0090556Y0201454D03*
X0092156Y0205654D03*
X0092156Y0205754D03*
X0092256Y0205954D03*
X0092356Y0206154D03*
X0093656Y0208854D03*
X0094656Y0210654D03*
X0095956Y0208654D03*
X0097856Y0204854D03*
X0097956Y0204654D03*
X0097956Y0204554D03*
X0099756Y0201054D03*
X0105556Y0201354D03*
X0105556Y0201554D03*
X0105556Y0201654D03*
X0105556Y0201754D03*
X0105556Y0201854D03*
X0105556Y0201954D03*
X0105556Y0202054D03*
X0105556Y0202154D03*
X0105556Y0202254D03*
X0105556Y0202354D03*
X0105556Y0202454D03*
X0105556Y0202554D03*
X0105556Y0202654D03*
X0105556Y0202754D03*
X0105556Y0202854D03*
X0105556Y0202954D03*
X0105556Y0203054D03*
X0105556Y0203154D03*
X0105556Y0203254D03*
X0105556Y0203354D03*
X0105556Y0203554D03*
X0105556Y0203654D03*
X0105556Y0203854D03*
X0112456Y0205254D03*
X0112356Y0205754D03*
X0112356Y0205854D03*
X0112256Y0206454D03*
X0112256Y0207654D03*
X0112256Y0207954D03*
X0112356Y0208154D03*
X0112356Y0208254D03*
X0112356Y0208354D03*
X0113656Y0202554D03*
X0119056Y0202654D03*
X0122756Y0201354D03*
X0122756Y0201054D03*
X0122756Y0200754D03*
X0122756Y0200454D03*
X0122656Y0200054D03*
X0122656Y0199954D03*
X0122656Y0199854D03*
X0122656Y0199754D03*
X0122656Y0199654D03*
X0122656Y0199554D03*
X0122556Y0198954D03*
X0119756Y0206554D03*
X0119756Y0206654D03*
X0119756Y0206754D03*
X0119756Y0206854D03*
X0119756Y0206954D03*
X0119756Y0207054D03*
X0119756Y0210354D03*
X0119756Y0210454D03*
X0119756Y0210554D03*
X0123356Y0211754D03*
X0123356Y0211854D03*
X0129856Y0208854D03*
X0131456Y0206954D03*
X0131456Y0206654D03*
X0131456Y0206454D03*
X0131456Y0206354D03*
X0131456Y0206254D03*
X0131456Y0206154D03*
X0131456Y0206054D03*
X0131456Y0205954D03*
X0131456Y0205854D03*
X0131456Y0205754D03*
X0131456Y0205654D03*
X0131456Y0205554D03*
X0131456Y0205454D03*
X0131456Y0205354D03*
X0131456Y0205254D03*
X0131456Y0205054D03*
X0131456Y0204954D03*
X0131456Y0204754D03*
X0131456Y0204554D03*
X0131356Y0203454D03*
X0131356Y0202954D03*
X0131356Y0202554D03*
X0131356Y0202154D03*
X0131256Y0200854D03*
X0131256Y0200754D03*
X0023235Y0052306D03*
X0024835Y0050306D03*
X0030235Y0044706D03*
X0040935Y0042106D03*
X0047535Y0042006D03*
X0047735Y0042106D03*
X0041035Y0051306D03*
X0040835Y0051206D03*
X0011635Y0040406D03*
D56*
X0011235Y0039806D03*
X0011235Y0039706D03*
X0011235Y0039606D03*
X0011235Y0039506D03*
X0011535Y0038806D03*
X0010035Y0040006D03*
X0010835Y0043906D03*
X0004535Y0043906D03*
X0004535Y0044006D03*
X0004535Y0044106D03*
X0004535Y0044206D03*
X0004535Y0044306D03*
X0004535Y0044406D03*
X0004535Y0044506D03*
X0004535Y0044606D03*
X0004535Y0044706D03*
X0004535Y0044806D03*
X0004535Y0044906D03*
X0004535Y0045006D03*
X0004535Y0045106D03*
X0004535Y0045206D03*
X0004535Y0045306D03*
X0004535Y0045406D03*
X0004535Y0045506D03*
X0004535Y0045606D03*
X0004535Y0045706D03*
X0004535Y0045806D03*
X0004535Y0045906D03*
X0004535Y0046006D03*
X0004535Y0046106D03*
X0004535Y0046206D03*
X0004535Y0046306D03*
X0004535Y0046406D03*
X0004535Y0046506D03*
X0004535Y0046606D03*
X0004535Y0046706D03*
X0004535Y0046806D03*
X0004535Y0046906D03*
X0004535Y0047006D03*
X0004535Y0047106D03*
X0004535Y0047206D03*
X0004535Y0047306D03*
X0004535Y0047406D03*
X0004535Y0047506D03*
X0004535Y0047606D03*
X0004535Y0047706D03*
X0004535Y0047806D03*
X0004535Y0047906D03*
X0004535Y0048006D03*
X0004535Y0048106D03*
X0004535Y0048206D03*
X0004535Y0048306D03*
X0004535Y0048406D03*
X0004535Y0048506D03*
X0004535Y0048606D03*
X0004535Y0048706D03*
X0004535Y0048806D03*
X0004535Y0048906D03*
X0004535Y0049006D03*
X0004535Y0049106D03*
X0004535Y0049206D03*
X0004535Y0049306D03*
X0004535Y0049406D03*
X0004535Y0049506D03*
X0004535Y0049606D03*
X0004535Y0049706D03*
X0004535Y0049806D03*
X0004535Y0049906D03*
X0004535Y0050006D03*
X0004535Y0050106D03*
X0004535Y0050206D03*
X0004535Y0050306D03*
X0004535Y0050406D03*
X0004535Y0050506D03*
X0004535Y0050606D03*
X0004535Y0050706D03*
X0004535Y0050806D03*
X0004535Y0050906D03*
X0004535Y0051006D03*
X0004535Y0051106D03*
X0004535Y0051206D03*
X0004535Y0051306D03*
X0004535Y0051406D03*
X0004535Y0051506D03*
X0004535Y0051606D03*
X0004535Y0051706D03*
X0004535Y0051806D03*
X0004535Y0051906D03*
X0004535Y0052006D03*
X0004535Y0052106D03*
X0004535Y0052206D03*
X0004535Y0052306D03*
X0004535Y0052406D03*
X0004535Y0052506D03*
X0004535Y0052606D03*
X0004535Y0052706D03*
X0004535Y0052806D03*
X0004535Y0052906D03*
X0004535Y0053006D03*
X0004535Y0053106D03*
X0004535Y0053206D03*
X0004535Y0053306D03*
X0004535Y0053406D03*
X0004535Y0053506D03*
X0004535Y0053606D03*
X0004535Y0053706D03*
X0004535Y0043806D03*
X0004535Y0043706D03*
X0004535Y0043606D03*
X0004535Y0043506D03*
X0004535Y0043406D03*
X0004535Y0043306D03*
X0004535Y0043206D03*
X0004535Y0043106D03*
X0004535Y0043006D03*
X0004535Y0042906D03*
X0004535Y0042806D03*
X0004535Y0042706D03*
X0020135Y0040806D03*
X0021635Y0040606D03*
X0021635Y0040506D03*
X0021635Y0040406D03*
X0021635Y0040306D03*
X0021635Y0040206D03*
X0021635Y0040106D03*
X0021635Y0040006D03*
X0021635Y0039906D03*
X0021635Y0039806D03*
X0021635Y0039706D03*
X0021635Y0039606D03*
X0021635Y0039506D03*
X0022635Y0040306D03*
X0023335Y0039706D03*
X0020135Y0039206D03*
X0021335Y0045806D03*
X0021335Y0045906D03*
X0021335Y0046006D03*
X0021335Y0046106D03*
X0021335Y0046206D03*
X0021335Y0046306D03*
X0022335Y0047406D03*
X0020535Y0049806D03*
X0021335Y0050706D03*
X0021335Y0050806D03*
X0021335Y0050906D03*
X0021335Y0051006D03*
X0021335Y0051106D03*
X0021335Y0051206D03*
X0030935Y0040806D03*
X0030935Y0040706D03*
X0041535Y0047506D03*
X0052635Y0047506D03*
X0052635Y0047606D03*
X0052635Y0047706D03*
X0052635Y0047806D03*
X0052635Y0047906D03*
X0052635Y0048006D03*
X0052635Y0048106D03*
X0052635Y0048206D03*
X0052635Y0048306D03*
X0052635Y0048406D03*
X0052635Y0048506D03*
X0052635Y0048606D03*
X0052635Y0048706D03*
X0052635Y0048806D03*
X0052635Y0048906D03*
X0052635Y0049006D03*
X0052635Y0049106D03*
X0052635Y0049206D03*
X0052635Y0049306D03*
X0052635Y0049406D03*
X0052635Y0049506D03*
X0052635Y0049606D03*
X0052635Y0049706D03*
X0052635Y0049806D03*
X0052635Y0049906D03*
X0052635Y0050006D03*
X0052635Y0050106D03*
X0052635Y0050206D03*
X0052635Y0050306D03*
X0052635Y0050406D03*
X0052635Y0050506D03*
X0052635Y0050606D03*
X0052635Y0050706D03*
X0052635Y0050806D03*
X0052635Y0050906D03*
X0052635Y0051006D03*
X0052635Y0051106D03*
X0052635Y0051206D03*
X0052635Y0051306D03*
X0052635Y0051406D03*
X0052635Y0051506D03*
X0052635Y0051606D03*
X0052635Y0051706D03*
X0052635Y0051806D03*
X0052635Y0051906D03*
X0052635Y0052006D03*
X0052635Y0052106D03*
X0052635Y0052206D03*
X0052635Y0052306D03*
X0052635Y0052406D03*
X0052635Y0052506D03*
X0052635Y0052606D03*
X0052635Y0052706D03*
X0052635Y0052806D03*
X0052635Y0052906D03*
X0052635Y0053006D03*
X0052635Y0053106D03*
X0052635Y0053206D03*
X0052635Y0053306D03*
X0052635Y0053406D03*
X0052635Y0053506D03*
X0052635Y0053606D03*
X0052635Y0053706D03*
X0052635Y0053806D03*
X0052635Y0047406D03*
X0052635Y0047306D03*
X0052635Y0047206D03*
X0052635Y0047106D03*
X0052635Y0047006D03*
X0052635Y0046906D03*
X0052635Y0046806D03*
X0052635Y0046706D03*
X0052635Y0046606D03*
X0052635Y0046506D03*
X0052635Y0046406D03*
X0052635Y0046306D03*
X0052635Y0046206D03*
X0052635Y0046106D03*
X0052635Y0046006D03*
X0052635Y0045906D03*
X0052635Y0045806D03*
X0052635Y0045706D03*
X0052635Y0045606D03*
X0052635Y0045506D03*
X0052635Y0045406D03*
X0052635Y0045306D03*
X0052635Y0045206D03*
X0052635Y0045106D03*
X0052635Y0045006D03*
X0052635Y0044906D03*
X0052635Y0044806D03*
X0052635Y0044706D03*
X0052635Y0044606D03*
X0052635Y0044506D03*
X0052635Y0044406D03*
X0052635Y0044306D03*
X0052635Y0044206D03*
X0052635Y0044106D03*
X0052635Y0044006D03*
X0052635Y0043906D03*
X0052635Y0043806D03*
X0052635Y0043706D03*
X0052635Y0043606D03*
X0052635Y0043506D03*
X0052635Y0043406D03*
X0052635Y0043306D03*
X0052635Y0043206D03*
X0052635Y0043106D03*
X0052635Y0043006D03*
X0052635Y0042906D03*
X0052635Y0042806D03*
X0076056Y0200354D03*
X0077256Y0212154D03*
X0089856Y0199154D03*
D57*
X0089856Y0199254D03*
X0099956Y0200254D03*
X0094756Y0211354D03*
X0126456Y0204954D03*
X0052535Y0054006D03*
X0045135Y0047606D03*
X0045035Y0045806D03*
X0044335Y0040406D03*
X0032035Y0040606D03*
X0023235Y0039406D03*
X0023235Y0039306D03*
X0022735Y0040606D03*
X0021535Y0040906D03*
X0021535Y0039206D03*
X0021535Y0039106D03*
X0012535Y0039206D03*
X0011635Y0038706D03*
X0011235Y0039906D03*
X0004635Y0054006D03*
X0031935Y0051406D03*
X0031935Y0050406D03*
D58*
X0031935Y0050706D03*
X0031935Y0050806D03*
X0031935Y0050906D03*
X0031935Y0051006D03*
X0031935Y0051106D03*
X0029235Y0051806D03*
X0029035Y0051706D03*
X0029035Y0051606D03*
X0024235Y0051606D03*
X0024135Y0051806D03*
X0024335Y0045506D03*
X0024235Y0045406D03*
X0024135Y0045306D03*
X0023935Y0045206D03*
X0021235Y0041406D03*
X0018635Y0045306D03*
X0018535Y0045406D03*
X0018435Y0045506D03*
X0018135Y0045806D03*
X0013735Y0045506D03*
X0013735Y0045406D03*
X0013535Y0045306D03*
X0012135Y0047106D03*
X0012235Y0047306D03*
X0012335Y0047606D03*
X0012335Y0049206D03*
X0012235Y0049606D03*
X0012135Y0049806D03*
X0012035Y0049906D03*
X0013735Y0051606D03*
X0013835Y0051506D03*
X0013535Y0051806D03*
X0009535Y0049906D03*
X0009435Y0049806D03*
X0009335Y0049706D03*
X0009235Y0049406D03*
X0009035Y0048606D03*
X0009035Y0048506D03*
X0009035Y0048406D03*
X0009035Y0048306D03*
X0009135Y0047906D03*
X0009235Y0047606D03*
X0009235Y0047506D03*
X0009335Y0047406D03*
X0009335Y0047306D03*
X0009435Y0047206D03*
X0009535Y0047106D03*
X0008135Y0045306D03*
X0007835Y0045506D03*
X0007935Y0051606D03*
X0008035Y0051706D03*
X0008135Y0051806D03*
X0018435Y0051606D03*
X0018535Y0051706D03*
X0029035Y0045406D03*
X0032035Y0040106D03*
X0034635Y0045306D03*
X0038835Y0045206D03*
X0038835Y0045106D03*
X0038835Y0045006D03*
X0038935Y0044806D03*
X0038935Y0044706D03*
X0038935Y0044606D03*
X0039135Y0044406D03*
X0039135Y0044306D03*
X0039235Y0044106D03*
X0038635Y0046606D03*
X0038635Y0046706D03*
X0038635Y0046806D03*
X0038835Y0048106D03*
X0038835Y0048206D03*
X0038835Y0048306D03*
X0038935Y0048606D03*
X0038935Y0048706D03*
X0039135Y0049006D03*
X0039135Y0049106D03*
X0039235Y0049306D03*
X0039335Y0049506D03*
X0039435Y0049606D03*
X0043335Y0047806D03*
X0043435Y0047706D03*
X0043535Y0047606D03*
X0045135Y0047806D03*
X0043435Y0045706D03*
X0047135Y0045706D03*
X0047235Y0045806D03*
X0047235Y0045906D03*
X0049935Y0045306D03*
X0049935Y0045206D03*
X0049935Y0045106D03*
X0049835Y0044906D03*
X0049735Y0044706D03*
X0049735Y0044606D03*
X0049635Y0044406D03*
X0049635Y0044306D03*
X0049435Y0044006D03*
X0049335Y0043806D03*
X0050035Y0045806D03*
X0050035Y0045906D03*
X0050035Y0047406D03*
X0050035Y0047506D03*
X0050035Y0047606D03*
X0049935Y0048106D03*
X0049935Y0048206D03*
X0049935Y0048306D03*
X0049835Y0048406D03*
X0049835Y0048506D03*
X0049735Y0048706D03*
X0049735Y0048806D03*
X0049635Y0048906D03*
X0049635Y0049006D03*
X0049535Y0049206D03*
X0049435Y0049306D03*
X0049335Y0049606D03*
X0035235Y0051206D03*
X0034935Y0051506D03*
X0034735Y0051706D03*
X0034635Y0051806D03*
X0076256Y0200754D03*
X0076256Y0200854D03*
X0077156Y0211854D03*
X0089956Y0199754D03*
X0089956Y0199654D03*
X0094756Y0211154D03*
X0119856Y0211154D03*
X0119856Y0211254D03*
X0123256Y0212454D03*
X0131356Y0200254D03*
D59*
X0105306Y0200154D03*
X0104406Y0209254D03*
X0104106Y0209254D03*
X0103806Y0209254D03*
X0103506Y0209254D03*
X0103206Y0209254D03*
X0102906Y0209254D03*
X0102606Y0209254D03*
X0102306Y0209254D03*
X0083206Y0200154D03*
X0082306Y0209254D03*
X0082006Y0209254D03*
X0081706Y0209254D03*
X0081406Y0209254D03*
X0081106Y0209254D03*
X0080806Y0209254D03*
X0080506Y0209254D03*
X0080206Y0209254D03*
X0012385Y0048506D03*
X0010085Y0040206D03*
X0010085Y0040106D03*
X0011285Y0039406D03*
X0011285Y0039306D03*
X0011285Y0039206D03*
X0011385Y0039106D03*
X0011485Y0038906D03*
X0021385Y0043906D03*
X0022585Y0040206D03*
X0022585Y0040106D03*
X0023385Y0039906D03*
X0023385Y0039806D03*
X0030885Y0040606D03*
X0041485Y0045906D03*
X0042485Y0044806D03*
X0045085Y0045906D03*
X0046185Y0044806D03*
X0045185Y0047506D03*
D60*
X0046085Y0045106D03*
X0044385Y0040506D03*
X0047185Y0051606D03*
X0041485Y0051606D03*
X0024685Y0050106D03*
X0022285Y0049106D03*
X0020985Y0048506D03*
X0021285Y0050406D03*
X0021385Y0053006D03*
X0021385Y0044006D03*
X0010885Y0050706D03*
X0116106Y0200354D03*
X0119706Y0207754D03*
X0119706Y0207854D03*
X0119706Y0207954D03*
X0119706Y0208154D03*
X0119706Y0208254D03*
X0119706Y0208354D03*
X0119706Y0208554D03*
X0119706Y0208654D03*
X0119706Y0208854D03*
X0119706Y0208954D03*
X0119706Y0209154D03*
X0119706Y0209254D03*
X0119706Y0209454D03*
X0119706Y0209554D03*
X0119706Y0209654D03*
X0119706Y0209754D03*
X0119706Y0209854D03*
X0123406Y0211454D03*
X0124706Y0209954D03*
X0126906Y0206054D03*
X0126706Y0205854D03*
X0126506Y0205654D03*
X0112606Y0209054D03*
X0112506Y0208854D03*
X0112506Y0208754D03*
X0112806Y0210454D03*
X0112806Y0210554D03*
X0106206Y0208554D03*
X0106206Y0208454D03*
X0106206Y0208354D03*
X0106206Y0208254D03*
X0106206Y0208154D03*
X0106106Y0207554D03*
X0106006Y0207054D03*
X0106006Y0206954D03*
X0105906Y0206554D03*
X0105906Y0206454D03*
X0105806Y0205854D03*
X0099506Y0201654D03*
X0099606Y0201454D03*
X0091106Y0203354D03*
X0083706Y0205854D03*
X0083806Y0206454D03*
X0083806Y0206554D03*
X0083906Y0206954D03*
X0083906Y0207054D03*
X0084006Y0207554D03*
X0084106Y0208154D03*
X0084106Y0208254D03*
X0084106Y0208354D03*
X0084106Y0208454D03*
X0084106Y0208554D03*
X0077006Y0210054D03*
X0077006Y0210154D03*
X0077006Y0210354D03*
X0077006Y0210454D03*
X0076706Y0206654D03*
X0076706Y0206454D03*
X0076706Y0206354D03*
X0076706Y0206154D03*
X0076606Y0205954D03*
X0076606Y0205854D03*
X0076606Y0205654D03*
X0076606Y0205554D03*
X0076606Y0205454D03*
X0076606Y0205254D03*
X0076606Y0205154D03*
X0071106Y0209254D03*
X0066706Y0208054D03*
X0066706Y0207954D03*
X0066606Y0207854D03*
D61*
X0067206Y0208854D03*
X0067306Y0208954D03*
X0084206Y0208954D03*
X0094706Y0210054D03*
X0099306Y0202154D03*
X0106306Y0208954D03*
X0116106Y0200454D03*
X0126006Y0208454D03*
X0126106Y0208354D03*
X0126206Y0208254D03*
X0126306Y0208154D03*
X0126406Y0208054D03*
X0126506Y0207954D03*
X0123606Y0210954D03*
X0041985Y0051806D03*
X0042485Y0048106D03*
X0042485Y0045306D03*
X0042485Y0045206D03*
X0046085Y0048106D03*
X0046785Y0041606D03*
X0051585Y0042106D03*
X0051585Y0042206D03*
X0021385Y0050106D03*
X0019485Y0047706D03*
X0018085Y0047306D03*
X0010785Y0050606D03*
D62*
X0010835Y0046406D03*
X0018135Y0047406D03*
X0021435Y0050006D03*
X0023135Y0049606D03*
X0041935Y0041606D03*
X0046135Y0045306D03*
X0051535Y0042006D03*
X0046735Y0051806D03*
X0072656Y0200454D03*
X0099156Y0202254D03*
X0114456Y0202054D03*
X0118256Y0202054D03*
X0123656Y0210854D03*
X0126756Y0207754D03*
X0127656Y0207054D03*
D63*
X0130856Y0209554D03*
X0130856Y0209654D03*
X0123856Y0210354D03*
X0123856Y0210454D03*
X0123756Y0210554D03*
X0116156Y0200554D03*
X0099056Y0202454D03*
X0044335Y0052806D03*
X0042435Y0047906D03*
X0042435Y0045506D03*
X0046135Y0045506D03*
X0051335Y0041506D03*
X0031935Y0052906D03*
X0019235Y0047506D03*
X0010835Y0046606D03*
X0010835Y0050406D03*
X0010835Y0052906D03*
D64*
X0021385Y0052906D03*
X0051285Y0041406D03*
X0072606Y0200554D03*
X0069206Y0210554D03*
X0090806Y0203654D03*
X0094706Y0209654D03*
X0127606Y0207254D03*
X0130806Y0209354D03*
X0130806Y0209454D03*
D65*
X0130706Y0209054D03*
X0130706Y0208954D03*
X0116106Y0200654D03*
X0091506Y0204854D03*
X0010785Y0050206D03*
X0010885Y0046706D03*
X0044385Y0040606D03*
X0051185Y0041106D03*
D66*
X0050135Y0046606D03*
X0050135Y0046706D03*
X0050135Y0046806D03*
X0045035Y0045606D03*
X0043735Y0046506D03*
X0043735Y0046606D03*
X0043735Y0046706D03*
X0043735Y0046806D03*
X0043735Y0046906D03*
X0041435Y0045606D03*
X0035735Y0046606D03*
X0035435Y0046206D03*
X0035435Y0046106D03*
X0035335Y0046006D03*
X0035235Y0045906D03*
X0035135Y0045806D03*
X0035135Y0045706D03*
X0035435Y0050906D03*
X0035335Y0051006D03*
X0035135Y0051306D03*
X0031935Y0051206D03*
X0031935Y0050606D03*
X0028835Y0051406D03*
X0028535Y0051106D03*
X0028435Y0051006D03*
X0025035Y0050706D03*
X0024935Y0050906D03*
X0024835Y0051006D03*
X0024635Y0051306D03*
X0025235Y0046706D03*
X0025035Y0046406D03*
X0024935Y0046206D03*
X0024735Y0045906D03*
X0024635Y0045806D03*
X0024535Y0045706D03*
X0028035Y0046706D03*
X0028235Y0046406D03*
X0028335Y0046206D03*
X0028535Y0046006D03*
X0028535Y0045906D03*
X0030935Y0041206D03*
X0031835Y0039906D03*
X0031835Y0039806D03*
X0031735Y0039606D03*
X0031735Y0039506D03*
X0031735Y0039406D03*
X0033435Y0039406D03*
X0033435Y0039506D03*
X0033435Y0039606D03*
X0033435Y0039306D03*
X0023035Y0038806D03*
X0023035Y0038706D03*
X0021335Y0038706D03*
X0020135Y0039406D03*
X0020135Y0040606D03*
X0021335Y0041306D03*
X0018035Y0045906D03*
X0017935Y0046006D03*
X0017735Y0046306D03*
X0017635Y0046406D03*
X0017635Y0046506D03*
X0020335Y0047406D03*
X0020435Y0047306D03*
X0020435Y0047206D03*
X0017635Y0050506D03*
X0017635Y0050606D03*
X0017835Y0050906D03*
X0018035Y0051206D03*
X0018235Y0051406D03*
X0014735Y0050306D03*
X0014335Y0050906D03*
X0014235Y0051106D03*
X0013935Y0051406D03*
X0014735Y0046706D03*
X0014535Y0046406D03*
X0014335Y0046206D03*
X0014335Y0046106D03*
X0014235Y0046006D03*
X0014035Y0045706D03*
X0013835Y0045606D03*
X0009135Y0049106D03*
X0007335Y0050906D03*
X0007335Y0051006D03*
X0007435Y0051106D03*
X0007635Y0051306D03*
X0007735Y0051406D03*
X0007235Y0046306D03*
X0007335Y0046106D03*
X0007435Y0046006D03*
X0007635Y0045706D03*
X0011335Y0040206D03*
X0012535Y0039406D03*
X0010035Y0039206D03*
X0010035Y0039106D03*
X0076156Y0200654D03*
X0094756Y0211254D03*
X0119856Y0211354D03*
X0126456Y0205054D03*
D67*
X0072506Y0200654D03*
X0069206Y0210354D03*
X0010885Y0052806D03*
X0050985Y0040806D03*
D68*
X0031935Y0044206D03*
X0031935Y0052806D03*
X0021435Y0044206D03*
X0010835Y0044206D03*
X0116156Y0200754D03*
X0106756Y0209154D03*
X0098756Y0202654D03*
X0094756Y0209054D03*
X0094756Y0209154D03*
X0084656Y0209154D03*
X0127556Y0207554D03*
D69*
X0098556Y0202754D03*
X0072456Y0200754D03*
X0021435Y0052706D03*
X0031935Y0044306D03*
X0050835Y0040506D03*
X0010835Y0044306D03*
X0010835Y0044406D03*
D70*
X0010885Y0052706D03*
X0021385Y0044306D03*
X0031885Y0052706D03*
X0044385Y0040706D03*
X0116206Y0200854D03*
X0127606Y0207654D03*
X0069206Y0210254D03*
D71*
X0069256Y0210054D03*
X0072356Y0200854D03*
X0098256Y0202854D03*
X0031935Y0052606D03*
X0021335Y0052606D03*
X0010835Y0052606D03*
X0006535Y0038806D03*
X0006535Y0038706D03*
X0036735Y0041406D03*
X0050635Y0040206D03*
D72*
X0044335Y0040806D03*
X0116156Y0200954D03*
X0069256Y0210154D03*
D73*
X0069206Y0209954D03*
X0072306Y0200954D03*
X0116206Y0201154D03*
X0036885Y0041106D03*
X0006685Y0039706D03*
X0006685Y0039606D03*
X0006685Y0039506D03*
X0006685Y0039406D03*
D74*
X0006585Y0039006D03*
X0006585Y0038906D03*
X0010885Y0044506D03*
X0031885Y0044506D03*
X0116206Y0201054D03*
D75*
X0097756Y0203054D03*
X0072256Y0201054D03*
X0031935Y0044606D03*
X0037035Y0040806D03*
X0044335Y0040906D03*
X0050335Y0039806D03*
X0010835Y0044606D03*
X0006835Y0040506D03*
X0006835Y0040406D03*
X0006835Y0040306D03*
X0006835Y0040206D03*
D76*
X0006935Y0040706D03*
X0006935Y0040806D03*
X0006935Y0040906D03*
X0037135Y0040706D03*
X0072156Y0201154D03*
X0116256Y0201354D03*
D77*
X0116206Y0201254D03*
X0107006Y0209254D03*
X0091606Y0204554D03*
X0084906Y0209254D03*
X0069206Y0209854D03*
X0021385Y0044606D03*
X0006785Y0040106D03*
X0006785Y0040006D03*
X0006785Y0039906D03*
X0036985Y0040906D03*
X0036985Y0041006D03*
X0050385Y0039906D03*
D78*
X0047435Y0041906D03*
X0046135Y0048306D03*
X0047435Y0051506D03*
X0042435Y0048306D03*
X0041335Y0051506D03*
X0041135Y0042006D03*
X0041335Y0041906D03*
X0041435Y0041806D03*
X0031935Y0049906D03*
X0023835Y0049806D03*
X0022735Y0049306D03*
X0022535Y0049206D03*
X0021635Y0048806D03*
X0020335Y0048206D03*
X0020135Y0048106D03*
X0019835Y0048006D03*
X0009135Y0044706D03*
X0069956Y0201554D03*
X0073956Y0201554D03*
X0076556Y0202754D03*
X0076556Y0203054D03*
X0076556Y0203554D03*
X0076556Y0203654D03*
X0076556Y0203954D03*
X0076556Y0204054D03*
X0076556Y0204254D03*
X0076556Y0204354D03*
X0076556Y0204454D03*
X0076556Y0204654D03*
X0076556Y0204754D03*
X0076556Y0204854D03*
X0076656Y0204954D03*
X0076556Y0205054D03*
X0076656Y0205354D03*
X0076656Y0205754D03*
X0077056Y0210554D03*
X0077056Y0210654D03*
X0077056Y0210754D03*
X0077056Y0210854D03*
X0071256Y0209154D03*
X0066556Y0207754D03*
X0066556Y0207654D03*
X0066456Y0207354D03*
X0083656Y0205754D03*
X0083656Y0205654D03*
X0083656Y0205554D03*
X0083656Y0205454D03*
X0083656Y0205354D03*
X0083656Y0205254D03*
X0083556Y0204854D03*
X0083756Y0205954D03*
X0083756Y0206054D03*
X0083756Y0206154D03*
X0083756Y0206254D03*
X0083756Y0206354D03*
X0083856Y0206654D03*
X0083856Y0206754D03*
X0083856Y0206854D03*
X0083956Y0207154D03*
X0083956Y0207254D03*
X0083956Y0207354D03*
X0083956Y0207454D03*
X0084056Y0207654D03*
X0084056Y0207754D03*
X0084056Y0207854D03*
X0084056Y0207954D03*
X0084056Y0208054D03*
X0090656Y0201754D03*
X0091156Y0203254D03*
X0091956Y0205254D03*
X0091956Y0205354D03*
X0094656Y0210454D03*
X0094656Y0210554D03*
X0099556Y0201554D03*
X0099656Y0201354D03*
X0099656Y0201254D03*
X0105656Y0204854D03*
X0105756Y0205254D03*
X0105756Y0205354D03*
X0105756Y0205454D03*
X0105756Y0205554D03*
X0105756Y0205654D03*
X0105756Y0205754D03*
X0105856Y0205954D03*
X0105856Y0206054D03*
X0105856Y0206154D03*
X0105856Y0206254D03*
X0105856Y0206354D03*
X0105956Y0206654D03*
X0105956Y0206754D03*
X0105956Y0206854D03*
X0106056Y0207154D03*
X0106056Y0207254D03*
X0106056Y0207354D03*
X0106056Y0207454D03*
X0106156Y0207654D03*
X0106156Y0207754D03*
X0106156Y0207854D03*
X0106156Y0207954D03*
X0106156Y0208054D03*
X0112456Y0208654D03*
X0113956Y0202354D03*
X0118756Y0202354D03*
X0118856Y0202454D03*
X0119756Y0207154D03*
X0119756Y0207454D03*
X0119756Y0207554D03*
X0119656Y0208054D03*
X0119756Y0210054D03*
X0123356Y0211554D03*
X0127556Y0206654D03*
X0127356Y0206454D03*
X0127156Y0206254D03*
X0126956Y0206154D03*
X0126756Y0205954D03*
X0126556Y0205754D03*
X0126456Y0205554D03*
X0131356Y0203054D03*
X0131356Y0202754D03*
X0131356Y0202354D03*
X0131356Y0202054D03*
D79*
X0116256Y0201454D03*
X0097256Y0203254D03*
X0072156Y0201254D03*
X0069156Y0209554D03*
X0007035Y0041406D03*
X0007035Y0041306D03*
X0016335Y0040706D03*
X0016335Y0040606D03*
X0016335Y0040506D03*
X0016335Y0039606D03*
X0016335Y0039506D03*
X0016335Y0039306D03*
X0037235Y0040506D03*
X0050135Y0039606D03*
D80*
X0044335Y0041006D03*
X0037335Y0040306D03*
X0026935Y0041106D03*
X0016335Y0041006D03*
X0016335Y0040906D03*
X0016335Y0040406D03*
X0072056Y0201354D03*
X0069156Y0209454D03*
X0091856Y0204454D03*
D81*
X0091006Y0203454D03*
X0094706Y0210254D03*
X0099306Y0202054D03*
X0106206Y0208854D03*
X0112706Y0209354D03*
X0112706Y0209454D03*
X0112706Y0209554D03*
X0112806Y0209754D03*
X0112806Y0209854D03*
X0112806Y0209954D03*
X0112806Y0210054D03*
X0112806Y0210154D03*
X0114206Y0202154D03*
X0118506Y0202154D03*
X0125406Y0209154D03*
X0125306Y0209254D03*
X0125206Y0209354D03*
X0125106Y0209454D03*
X0123506Y0211154D03*
X0123506Y0211254D03*
X0127606Y0206954D03*
X0131106Y0210154D03*
X0084106Y0208854D03*
X0077006Y0209654D03*
X0076906Y0209354D03*
X0076906Y0209154D03*
X0076906Y0209054D03*
X0076906Y0208954D03*
X0076906Y0208854D03*
X0076906Y0208754D03*
X0076906Y0208654D03*
X0076906Y0208554D03*
X0076806Y0208154D03*
X0076806Y0208054D03*
X0076806Y0207954D03*
X0076806Y0207854D03*
X0076806Y0207754D03*
X0076806Y0207654D03*
X0076806Y0207454D03*
X0073806Y0201454D03*
X0070906Y0209354D03*
X0067006Y0208554D03*
X0066906Y0208454D03*
X0030485Y0052406D03*
X0022785Y0052406D03*
X0019985Y0052406D03*
X0019685Y0047906D03*
X0010785Y0053006D03*
X0009385Y0052406D03*
X0041685Y0051706D03*
X0046985Y0051706D03*
X0046085Y0048206D03*
X0051685Y0042506D03*
X0051685Y0042406D03*
D82*
X0051735Y0042606D03*
X0047035Y0041706D03*
X0041735Y0041706D03*
X0042435Y0045106D03*
X0033335Y0052406D03*
X0031935Y0053006D03*
X0031935Y0044006D03*
X0022935Y0049406D03*
X0021435Y0046706D03*
X0019635Y0047806D03*
X0018035Y0047206D03*
X0010835Y0046306D03*
X0010835Y0044006D03*
X0070156Y0201454D03*
X0066756Y0208154D03*
X0066756Y0208254D03*
X0066856Y0208354D03*
X0076656Y0206854D03*
X0076756Y0206954D03*
X0076756Y0207054D03*
X0076756Y0207154D03*
X0076756Y0207254D03*
X0076756Y0207354D03*
X0076756Y0207554D03*
X0076856Y0208254D03*
X0076856Y0208454D03*
X0076956Y0209254D03*
X0076956Y0209454D03*
X0076956Y0209554D03*
X0076956Y0209754D03*
X0076956Y0209854D03*
X0077056Y0209954D03*
X0077056Y0210254D03*
X0076756Y0206754D03*
X0076656Y0206554D03*
X0076656Y0206254D03*
X0076656Y0206054D03*
X0084156Y0208654D03*
X0084156Y0208754D03*
X0091856Y0205154D03*
X0094656Y0210354D03*
X0099356Y0201954D03*
X0099456Y0201854D03*
X0099456Y0201754D03*
X0106256Y0208654D03*
X0106256Y0208754D03*
X0112556Y0208954D03*
X0112656Y0209154D03*
X0112656Y0209254D03*
X0112856Y0210254D03*
X0112856Y0210354D03*
X0119656Y0209354D03*
X0119656Y0209054D03*
X0119656Y0208754D03*
X0119656Y0208454D03*
X0123456Y0211354D03*
X0124756Y0209854D03*
X0124856Y0209754D03*
X0124956Y0209654D03*
X0125056Y0209554D03*
X0127656Y0206854D03*
X0131156Y0210254D03*
X0118656Y0202254D03*
X0114056Y0202254D03*
D83*
X0116306Y0201554D03*
X0097006Y0203354D03*
X0026885Y0041406D03*
X0026885Y0041306D03*
X0026885Y0041206D03*
X0037285Y0040406D03*
X0016385Y0039206D03*
X0016385Y0039106D03*
X0016285Y0040806D03*
D84*
X0016385Y0039006D03*
X0026985Y0040906D03*
X0026985Y0041006D03*
X0044385Y0041106D03*
X0049985Y0039506D03*
X0044385Y0052306D03*
X0116306Y0201654D03*
D85*
X0116306Y0201754D03*
X0096606Y0203554D03*
X0037485Y0040106D03*
X0027085Y0040606D03*
X0016385Y0038906D03*
D86*
X0027185Y0040206D03*
X0027185Y0040306D03*
X0037585Y0040006D03*
X0044385Y0052206D03*
X0116306Y0201854D03*
D87*
X0116306Y0201954D03*
X0096306Y0203654D03*
X0027285Y0040006D03*
X0027285Y0039906D03*
D88*
X0021385Y0044106D03*
X0021485Y0046906D03*
X0024485Y0049906D03*
X0010885Y0044106D03*
X0051485Y0041906D03*
X0051485Y0041806D03*
X0099106Y0202354D03*
X0091706Y0204954D03*
X0094706Y0209954D03*
X0067506Y0209154D03*
X0067406Y0209054D03*
X0123706Y0210754D03*
X0131006Y0209954D03*
D89*
X0130756Y0209254D03*
X0130756Y0209154D03*
X0127556Y0207354D03*
X0123956Y0210154D03*
X0123856Y0210254D03*
X0098956Y0202554D03*
X0094756Y0209454D03*
X0094756Y0209554D03*
X0067856Y0209354D03*
X0010835Y0050306D03*
X0051235Y0041306D03*
X0051235Y0041206D03*
D90*
X0050535Y0040106D03*
X0050535Y0040006D03*
X0036835Y0041206D03*
X0036835Y0041306D03*
X0021335Y0044506D03*
X0006635Y0039306D03*
X0006635Y0039206D03*
X0006635Y0039106D03*
X0098056Y0202954D03*
D91*
X0097506Y0203154D03*
X0069206Y0209754D03*
X0044385Y0052406D03*
X0006885Y0040606D03*
D92*
X0016335Y0041106D03*
X0027035Y0040806D03*
X0027035Y0040706D03*
X0037435Y0040206D03*
X0049935Y0039406D03*
X0096756Y0203454D03*
D93*
X0090856Y0203554D03*
X0094756Y0209854D03*
X0069256Y0210654D03*
X0067656Y0209254D03*
X0123756Y0210654D03*
X0127556Y0207154D03*
X0130956Y0209854D03*
X0010835Y0050506D03*
X0010835Y0046506D03*
X0019335Y0047606D03*
X0021435Y0047106D03*
X0031935Y0044106D03*
X0042135Y0041506D03*
X0046535Y0041506D03*
X0046135Y0045406D03*
X0042435Y0048006D03*
X0051435Y0041706D03*
D94*
X0049435Y0039106D03*
X0044335Y0041406D03*
X0037935Y0039606D03*
X0092356Y0204254D03*
X0095956Y0203754D03*
D95*
X0090806Y0203754D03*
X0094706Y0209254D03*
X0127606Y0207454D03*
X0051085Y0040906D03*
D96*
X0094106Y0203854D03*
X0094106Y0203954D03*
X0094006Y0204054D03*
X0083806Y0209754D03*
X0105906Y0209754D03*
D97*
X0092706Y0204154D03*
X0017085Y0040006D03*
D98*
X0027235Y0040106D03*
X0037635Y0039906D03*
X0044435Y0041206D03*
X0049735Y0039306D03*
X0092056Y0204354D03*
D99*
X0091506Y0204654D03*
X0044385Y0052606D03*
X0050685Y0040306D03*
D100*
X0050935Y0040606D03*
X0050935Y0040706D03*
X0021335Y0052806D03*
X0091456Y0204754D03*
D101*
X0091756Y0205054D03*
X0094656Y0210154D03*
X0112756Y0209654D03*
X0123556Y0211054D03*
X0125456Y0209054D03*
X0125556Y0208954D03*
X0125656Y0208854D03*
X0125756Y0208754D03*
X0125856Y0208654D03*
X0125956Y0208554D03*
X0126656Y0207854D03*
X0131056Y0210054D03*
X0076856Y0208354D03*
X0069256Y0210754D03*
X0067156Y0208754D03*
X0067056Y0208654D03*
X0012235Y0052406D03*
X0021235Y0050306D03*
X0021235Y0050206D03*
X0023035Y0049506D03*
X0024535Y0050006D03*
X0021435Y0046806D03*
X0031935Y0047906D03*
X0031935Y0048006D03*
X0031935Y0048106D03*
X0031935Y0048206D03*
X0031935Y0048306D03*
X0031935Y0048406D03*
X0031935Y0048506D03*
X0031935Y0048606D03*
X0031935Y0048706D03*
X0031935Y0048806D03*
X0031935Y0048906D03*
X0031935Y0049006D03*
X0031935Y0049106D03*
X0031935Y0049206D03*
X0031935Y0049306D03*
X0031935Y0049406D03*
X0031935Y0049506D03*
X0031935Y0049606D03*
X0031935Y0049706D03*
X0031935Y0049806D03*
X0042435Y0048206D03*
X0046135Y0045206D03*
X0051635Y0042306D03*
D102*
X0051385Y0041606D03*
X0046085Y0047906D03*
X0046085Y0048006D03*
X0042485Y0045406D03*
X0023285Y0049706D03*
X0021485Y0047006D03*
X0084306Y0209054D03*
X0094706Y0209754D03*
X0106406Y0209054D03*
X0130906Y0209754D03*
D103*
X0106206Y0210754D03*
X0105806Y0209354D03*
X0084106Y0210754D03*
X0083706Y0209354D03*
D104*
X0094756Y0209354D03*
X0069256Y0210454D03*
X0123956Y0210054D03*
X0044435Y0052706D03*
X0051135Y0041006D03*
X0010835Y0046806D03*
D105*
X0083706Y0209454D03*
X0105806Y0209454D03*
D106*
X0105806Y0209554D03*
X0083706Y0209554D03*
D107*
X0083756Y0209654D03*
X0105856Y0209654D03*
D108*
X0069206Y0209654D03*
X0006985Y0041206D03*
X0006985Y0041106D03*
X0006985Y0041006D03*
X0016385Y0039406D03*
X0037185Y0040606D03*
X0050185Y0039706D03*
D109*
X0083806Y0209854D03*
X0105906Y0209854D03*
D110*
X0105956Y0209954D03*
X0105956Y0210054D03*
X0106056Y0210154D03*
X0106056Y0210254D03*
X0106156Y0210454D03*
X0084056Y0210454D03*
X0083956Y0210254D03*
X0083956Y0210154D03*
X0083856Y0210054D03*
X0083856Y0209954D03*
D111*
X0084006Y0210354D03*
X0106106Y0210354D03*
D112*
X0106256Y0210554D03*
X0084156Y0210554D03*
D113*
X0084206Y0210654D03*
X0106306Y0210654D03*
D114*
X0105656Y0210854D03*
X0083556Y0210854D03*
X0044335Y0052106D03*
X0027335Y0039806D03*
X0027335Y0039706D03*
X0027335Y0039606D03*
X0027335Y0039506D03*
X0027335Y0039406D03*
X0027335Y0039306D03*
X0027335Y0039206D03*
X0027335Y0039106D03*
X0027335Y0039006D03*
X0027335Y0038906D03*
X0027335Y0038806D03*
X0016435Y0038706D03*
X0015835Y0039706D03*
X0016435Y0041306D03*
D115*
X0012535Y0040606D03*
X0012435Y0040506D03*
X0011135Y0040506D03*
X0011135Y0040606D03*
X0011235Y0040006D03*
X0006835Y0047006D03*
X0006835Y0047106D03*
X0006735Y0047406D03*
X0006635Y0047806D03*
X0006635Y0047906D03*
X0006635Y0048006D03*
X0006635Y0048106D03*
X0006635Y0048206D03*
X0006535Y0048606D03*
X0006635Y0048806D03*
X0006635Y0048906D03*
X0006635Y0049006D03*
X0006635Y0049106D03*
X0006635Y0049206D03*
X0006635Y0049306D03*
X0006735Y0049606D03*
X0006735Y0049706D03*
X0006835Y0050006D03*
X0006935Y0050206D03*
X0004735Y0054206D03*
X0015035Y0049506D03*
X0015035Y0049406D03*
X0015035Y0049306D03*
X0015035Y0049206D03*
X0015035Y0049106D03*
X0015135Y0048806D03*
X0015135Y0048706D03*
X0015135Y0048606D03*
X0015135Y0048506D03*
X0015135Y0048406D03*
X0015135Y0048306D03*
X0015135Y0048206D03*
X0015035Y0047806D03*
X0015035Y0047706D03*
X0015035Y0047606D03*
X0014935Y0047406D03*
X0017135Y0048006D03*
X0017135Y0048106D03*
X0017135Y0048206D03*
X0017135Y0048306D03*
X0017135Y0048406D03*
X0017135Y0048506D03*
X0017135Y0048606D03*
X0017135Y0048706D03*
X0017135Y0048806D03*
X0017135Y0048906D03*
X0017135Y0049006D03*
X0017235Y0049506D03*
X0017235Y0049606D03*
X0017435Y0050106D03*
X0017235Y0047506D03*
X0022835Y0040906D03*
X0023135Y0039106D03*
X0023135Y0039006D03*
X0025335Y0046906D03*
X0025335Y0047006D03*
X0025435Y0047106D03*
X0025535Y0047506D03*
X0025535Y0047606D03*
X0025635Y0048106D03*
X0025635Y0048206D03*
X0025635Y0048306D03*
X0025635Y0048406D03*
X0025635Y0048506D03*
X0025635Y0048606D03*
X0025635Y0048706D03*
X0025635Y0048806D03*
X0025635Y0048906D03*
X0025635Y0049006D03*
X0025535Y0049606D03*
X0027735Y0049506D03*
X0027735Y0049406D03*
X0027735Y0049306D03*
X0027735Y0049206D03*
X0027735Y0049106D03*
X0027735Y0049006D03*
X0027635Y0048806D03*
X0027635Y0048706D03*
X0027635Y0048606D03*
X0027635Y0048506D03*
X0027635Y0048406D03*
X0027635Y0048306D03*
X0027735Y0047906D03*
X0027735Y0047806D03*
X0027735Y0047706D03*
X0027735Y0047606D03*
X0027735Y0047506D03*
X0027835Y0047406D03*
X0027935Y0047106D03*
X0027935Y0047006D03*
X0028135Y0046606D03*
X0027835Y0049606D03*
X0027835Y0049706D03*
X0027935Y0050106D03*
X0028235Y0050706D03*
X0035835Y0046906D03*
X0035935Y0047106D03*
X0036035Y0047406D03*
X0036035Y0047506D03*
X0036135Y0047806D03*
X0036135Y0047906D03*
X0036135Y0048006D03*
X0036135Y0048106D03*
X0036135Y0048206D03*
X0036135Y0048306D03*
X0036135Y0048806D03*
X0036135Y0048906D03*
X0036135Y0049006D03*
X0036135Y0049106D03*
X0036135Y0049206D03*
X0036135Y0049306D03*
X0036035Y0049606D03*
X0036035Y0049706D03*
X0035935Y0049906D03*
X0035935Y0050006D03*
X0035935Y0050106D03*
X0041435Y0047706D03*
X0033535Y0040406D03*
X0032535Y0041406D03*
X0030935Y0041006D03*
X0052435Y0054206D03*
X0112656Y0211354D03*
D116*
X0112706Y0211454D03*
X0119906Y0211554D03*
X0123106Y0212554D03*
X0052585Y0053906D03*
X0052585Y0042706D03*
X0032385Y0041206D03*
X0032285Y0041106D03*
X0032285Y0041006D03*
X0032185Y0040906D03*
X0032185Y0040806D03*
X0032085Y0040706D03*
X0031885Y0043906D03*
X0023285Y0039606D03*
X0023285Y0039506D03*
X0022685Y0040406D03*
X0022685Y0040506D03*
X0021585Y0040706D03*
X0021585Y0040806D03*
X0021585Y0039406D03*
X0021585Y0039306D03*
X0021385Y0046406D03*
X0012385Y0048606D03*
X0010085Y0039906D03*
X0010085Y0039806D03*
X0004585Y0053806D03*
X0004585Y0053906D03*
D117*
X0070460Y0093250D02*
X0070462Y0093408D01*
X0070468Y0093566D01*
X0070478Y0093724D01*
X0070492Y0093882D01*
X0070510Y0094039D01*
X0070531Y0094196D01*
X0070557Y0094352D01*
X0070587Y0094508D01*
X0070620Y0094663D01*
X0070658Y0094816D01*
X0070699Y0094969D01*
X0070744Y0095121D01*
X0070793Y0095272D01*
X0070846Y0095421D01*
X0070902Y0095569D01*
X0070962Y0095715D01*
X0071026Y0095860D01*
X0071094Y0096003D01*
X0071165Y0096145D01*
X0071239Y0096285D01*
X0071317Y0096422D01*
X0071399Y0096558D01*
X0071483Y0096692D01*
X0071572Y0096823D01*
X0071663Y0096952D01*
X0071758Y0097079D01*
X0071855Y0097204D01*
X0071956Y0097326D01*
X0072060Y0097445D01*
X0072167Y0097562D01*
X0072277Y0097676D01*
X0072390Y0097787D01*
X0072505Y0097896D01*
X0072623Y0098001D01*
X0072744Y0098103D01*
X0072867Y0098203D01*
X0072993Y0098299D01*
X0073121Y0098392D01*
X0073251Y0098482D01*
X0073384Y0098568D01*
X0073519Y0098652D01*
X0073655Y0098731D01*
X0073794Y0098808D01*
X0073935Y0098880D01*
X0074077Y0098950D01*
X0074221Y0099015D01*
X0074367Y0099077D01*
X0074514Y0099135D01*
X0074663Y0099190D01*
X0074813Y0099241D01*
X0074964Y0099288D01*
X0075116Y0099331D01*
X0075269Y0099370D01*
X0075424Y0099406D01*
X0075579Y0099437D01*
X0075735Y0099465D01*
X0075891Y0099489D01*
X0076048Y0099509D01*
X0076206Y0099525D01*
X0076363Y0099537D01*
X0076522Y0099545D01*
X0076680Y0099549D01*
X0076838Y0099549D01*
X0076996Y0099545D01*
X0077155Y0099537D01*
X0077312Y0099525D01*
X0077470Y0099509D01*
X0077627Y0099489D01*
X0077783Y0099465D01*
X0077939Y0099437D01*
X0078094Y0099406D01*
X0078249Y0099370D01*
X0078402Y0099331D01*
X0078554Y0099288D01*
X0078705Y0099241D01*
X0078855Y0099190D01*
X0079004Y0099135D01*
X0079151Y0099077D01*
X0079297Y0099015D01*
X0079441Y0098950D01*
X0079583Y0098880D01*
X0079724Y0098808D01*
X0079863Y0098731D01*
X0079999Y0098652D01*
X0080134Y0098568D01*
X0080267Y0098482D01*
X0080397Y0098392D01*
X0080525Y0098299D01*
X0080651Y0098203D01*
X0080774Y0098103D01*
X0080895Y0098001D01*
X0081013Y0097896D01*
X0081128Y0097787D01*
X0081241Y0097676D01*
X0081351Y0097562D01*
X0081458Y0097445D01*
X0081562Y0097326D01*
X0081663Y0097204D01*
X0081760Y0097079D01*
X0081855Y0096952D01*
X0081946Y0096823D01*
X0082035Y0096692D01*
X0082119Y0096558D01*
X0082201Y0096422D01*
X0082279Y0096285D01*
X0082353Y0096145D01*
X0082424Y0096003D01*
X0082492Y0095860D01*
X0082556Y0095715D01*
X0082616Y0095569D01*
X0082672Y0095421D01*
X0082725Y0095272D01*
X0082774Y0095121D01*
X0082819Y0094969D01*
X0082860Y0094816D01*
X0082898Y0094663D01*
X0082931Y0094508D01*
X0082961Y0094352D01*
X0082987Y0094196D01*
X0083008Y0094039D01*
X0083026Y0093882D01*
X0083040Y0093724D01*
X0083050Y0093566D01*
X0083056Y0093408D01*
X0083058Y0093250D01*
X0083056Y0093092D01*
X0083050Y0092934D01*
X0083040Y0092776D01*
X0083026Y0092618D01*
X0083008Y0092461D01*
X0082987Y0092304D01*
X0082961Y0092148D01*
X0082931Y0091992D01*
X0082898Y0091837D01*
X0082860Y0091684D01*
X0082819Y0091531D01*
X0082774Y0091379D01*
X0082725Y0091228D01*
X0082672Y0091079D01*
X0082616Y0090931D01*
X0082556Y0090785D01*
X0082492Y0090640D01*
X0082424Y0090497D01*
X0082353Y0090355D01*
X0082279Y0090215D01*
X0082201Y0090078D01*
X0082119Y0089942D01*
X0082035Y0089808D01*
X0081946Y0089677D01*
X0081855Y0089548D01*
X0081760Y0089421D01*
X0081663Y0089296D01*
X0081562Y0089174D01*
X0081458Y0089055D01*
X0081351Y0088938D01*
X0081241Y0088824D01*
X0081128Y0088713D01*
X0081013Y0088604D01*
X0080895Y0088499D01*
X0080774Y0088397D01*
X0080651Y0088297D01*
X0080525Y0088201D01*
X0080397Y0088108D01*
X0080267Y0088018D01*
X0080134Y0087932D01*
X0079999Y0087848D01*
X0079863Y0087769D01*
X0079724Y0087692D01*
X0079583Y0087620D01*
X0079441Y0087550D01*
X0079297Y0087485D01*
X0079151Y0087423D01*
X0079004Y0087365D01*
X0078855Y0087310D01*
X0078705Y0087259D01*
X0078554Y0087212D01*
X0078402Y0087169D01*
X0078249Y0087130D01*
X0078094Y0087094D01*
X0077939Y0087063D01*
X0077783Y0087035D01*
X0077627Y0087011D01*
X0077470Y0086991D01*
X0077312Y0086975D01*
X0077155Y0086963D01*
X0076996Y0086955D01*
X0076838Y0086951D01*
X0076680Y0086951D01*
X0076522Y0086955D01*
X0076363Y0086963D01*
X0076206Y0086975D01*
X0076048Y0086991D01*
X0075891Y0087011D01*
X0075735Y0087035D01*
X0075579Y0087063D01*
X0075424Y0087094D01*
X0075269Y0087130D01*
X0075116Y0087169D01*
X0074964Y0087212D01*
X0074813Y0087259D01*
X0074663Y0087310D01*
X0074514Y0087365D01*
X0074367Y0087423D01*
X0074221Y0087485D01*
X0074077Y0087550D01*
X0073935Y0087620D01*
X0073794Y0087692D01*
X0073655Y0087769D01*
X0073519Y0087848D01*
X0073384Y0087932D01*
X0073251Y0088018D01*
X0073121Y0088108D01*
X0072993Y0088201D01*
X0072867Y0088297D01*
X0072744Y0088397D01*
X0072623Y0088499D01*
X0072505Y0088604D01*
X0072390Y0088713D01*
X0072277Y0088824D01*
X0072167Y0088938D01*
X0072060Y0089055D01*
X0071956Y0089174D01*
X0071855Y0089296D01*
X0071758Y0089421D01*
X0071663Y0089548D01*
X0071572Y0089677D01*
X0071483Y0089808D01*
X0071399Y0089942D01*
X0071317Y0090078D01*
X0071239Y0090215D01*
X0071165Y0090355D01*
X0071094Y0090497D01*
X0071026Y0090640D01*
X0070962Y0090785D01*
X0070902Y0090931D01*
X0070846Y0091079D01*
X0070793Y0091228D01*
X0070744Y0091379D01*
X0070699Y0091531D01*
X0070658Y0091684D01*
X0070620Y0091837D01*
X0070587Y0091992D01*
X0070557Y0092148D01*
X0070531Y0092304D01*
X0070510Y0092461D01*
X0070492Y0092618D01*
X0070478Y0092776D01*
X0070468Y0092934D01*
X0070462Y0093092D01*
X0070460Y0093250D01*
X0070460Y0144038D02*
X0070462Y0144196D01*
X0070468Y0144354D01*
X0070478Y0144512D01*
X0070492Y0144670D01*
X0070510Y0144827D01*
X0070531Y0144984D01*
X0070557Y0145140D01*
X0070587Y0145296D01*
X0070620Y0145451D01*
X0070658Y0145604D01*
X0070699Y0145757D01*
X0070744Y0145909D01*
X0070793Y0146060D01*
X0070846Y0146209D01*
X0070902Y0146357D01*
X0070962Y0146503D01*
X0071026Y0146648D01*
X0071094Y0146791D01*
X0071165Y0146933D01*
X0071239Y0147073D01*
X0071317Y0147210D01*
X0071399Y0147346D01*
X0071483Y0147480D01*
X0071572Y0147611D01*
X0071663Y0147740D01*
X0071758Y0147867D01*
X0071855Y0147992D01*
X0071956Y0148114D01*
X0072060Y0148233D01*
X0072167Y0148350D01*
X0072277Y0148464D01*
X0072390Y0148575D01*
X0072505Y0148684D01*
X0072623Y0148789D01*
X0072744Y0148891D01*
X0072867Y0148991D01*
X0072993Y0149087D01*
X0073121Y0149180D01*
X0073251Y0149270D01*
X0073384Y0149356D01*
X0073519Y0149440D01*
X0073655Y0149519D01*
X0073794Y0149596D01*
X0073935Y0149668D01*
X0074077Y0149738D01*
X0074221Y0149803D01*
X0074367Y0149865D01*
X0074514Y0149923D01*
X0074663Y0149978D01*
X0074813Y0150029D01*
X0074964Y0150076D01*
X0075116Y0150119D01*
X0075269Y0150158D01*
X0075424Y0150194D01*
X0075579Y0150225D01*
X0075735Y0150253D01*
X0075891Y0150277D01*
X0076048Y0150297D01*
X0076206Y0150313D01*
X0076363Y0150325D01*
X0076522Y0150333D01*
X0076680Y0150337D01*
X0076838Y0150337D01*
X0076996Y0150333D01*
X0077155Y0150325D01*
X0077312Y0150313D01*
X0077470Y0150297D01*
X0077627Y0150277D01*
X0077783Y0150253D01*
X0077939Y0150225D01*
X0078094Y0150194D01*
X0078249Y0150158D01*
X0078402Y0150119D01*
X0078554Y0150076D01*
X0078705Y0150029D01*
X0078855Y0149978D01*
X0079004Y0149923D01*
X0079151Y0149865D01*
X0079297Y0149803D01*
X0079441Y0149738D01*
X0079583Y0149668D01*
X0079724Y0149596D01*
X0079863Y0149519D01*
X0079999Y0149440D01*
X0080134Y0149356D01*
X0080267Y0149270D01*
X0080397Y0149180D01*
X0080525Y0149087D01*
X0080651Y0148991D01*
X0080774Y0148891D01*
X0080895Y0148789D01*
X0081013Y0148684D01*
X0081128Y0148575D01*
X0081241Y0148464D01*
X0081351Y0148350D01*
X0081458Y0148233D01*
X0081562Y0148114D01*
X0081663Y0147992D01*
X0081760Y0147867D01*
X0081855Y0147740D01*
X0081946Y0147611D01*
X0082035Y0147480D01*
X0082119Y0147346D01*
X0082201Y0147210D01*
X0082279Y0147073D01*
X0082353Y0146933D01*
X0082424Y0146791D01*
X0082492Y0146648D01*
X0082556Y0146503D01*
X0082616Y0146357D01*
X0082672Y0146209D01*
X0082725Y0146060D01*
X0082774Y0145909D01*
X0082819Y0145757D01*
X0082860Y0145604D01*
X0082898Y0145451D01*
X0082931Y0145296D01*
X0082961Y0145140D01*
X0082987Y0144984D01*
X0083008Y0144827D01*
X0083026Y0144670D01*
X0083040Y0144512D01*
X0083050Y0144354D01*
X0083056Y0144196D01*
X0083058Y0144038D01*
X0083056Y0143880D01*
X0083050Y0143722D01*
X0083040Y0143564D01*
X0083026Y0143406D01*
X0083008Y0143249D01*
X0082987Y0143092D01*
X0082961Y0142936D01*
X0082931Y0142780D01*
X0082898Y0142625D01*
X0082860Y0142472D01*
X0082819Y0142319D01*
X0082774Y0142167D01*
X0082725Y0142016D01*
X0082672Y0141867D01*
X0082616Y0141719D01*
X0082556Y0141573D01*
X0082492Y0141428D01*
X0082424Y0141285D01*
X0082353Y0141143D01*
X0082279Y0141003D01*
X0082201Y0140866D01*
X0082119Y0140730D01*
X0082035Y0140596D01*
X0081946Y0140465D01*
X0081855Y0140336D01*
X0081760Y0140209D01*
X0081663Y0140084D01*
X0081562Y0139962D01*
X0081458Y0139843D01*
X0081351Y0139726D01*
X0081241Y0139612D01*
X0081128Y0139501D01*
X0081013Y0139392D01*
X0080895Y0139287D01*
X0080774Y0139185D01*
X0080651Y0139085D01*
X0080525Y0138989D01*
X0080397Y0138896D01*
X0080267Y0138806D01*
X0080134Y0138720D01*
X0079999Y0138636D01*
X0079863Y0138557D01*
X0079724Y0138480D01*
X0079583Y0138408D01*
X0079441Y0138338D01*
X0079297Y0138273D01*
X0079151Y0138211D01*
X0079004Y0138153D01*
X0078855Y0138098D01*
X0078705Y0138047D01*
X0078554Y0138000D01*
X0078402Y0137957D01*
X0078249Y0137918D01*
X0078094Y0137882D01*
X0077939Y0137851D01*
X0077783Y0137823D01*
X0077627Y0137799D01*
X0077470Y0137779D01*
X0077312Y0137763D01*
X0077155Y0137751D01*
X0076996Y0137743D01*
X0076838Y0137739D01*
X0076680Y0137739D01*
X0076522Y0137743D01*
X0076363Y0137751D01*
X0076206Y0137763D01*
X0076048Y0137779D01*
X0075891Y0137799D01*
X0075735Y0137823D01*
X0075579Y0137851D01*
X0075424Y0137882D01*
X0075269Y0137918D01*
X0075116Y0137957D01*
X0074964Y0138000D01*
X0074813Y0138047D01*
X0074663Y0138098D01*
X0074514Y0138153D01*
X0074367Y0138211D01*
X0074221Y0138273D01*
X0074077Y0138338D01*
X0073935Y0138408D01*
X0073794Y0138480D01*
X0073655Y0138557D01*
X0073519Y0138636D01*
X0073384Y0138720D01*
X0073251Y0138806D01*
X0073121Y0138896D01*
X0072993Y0138989D01*
X0072867Y0139085D01*
X0072744Y0139185D01*
X0072623Y0139287D01*
X0072505Y0139392D01*
X0072390Y0139501D01*
X0072277Y0139612D01*
X0072167Y0139726D01*
X0072060Y0139843D01*
X0071956Y0139962D01*
X0071855Y0140084D01*
X0071758Y0140209D01*
X0071663Y0140336D01*
X0071572Y0140465D01*
X0071483Y0140596D01*
X0071399Y0140730D01*
X0071317Y0140866D01*
X0071239Y0141003D01*
X0071165Y0141143D01*
X0071094Y0141285D01*
X0071026Y0141428D01*
X0070962Y0141573D01*
X0070902Y0141719D01*
X0070846Y0141867D01*
X0070793Y0142016D01*
X0070744Y0142167D01*
X0070699Y0142319D01*
X0070658Y0142472D01*
X0070620Y0142625D01*
X0070587Y0142780D01*
X0070557Y0142936D01*
X0070531Y0143092D01*
X0070510Y0143249D01*
X0070492Y0143406D01*
X0070478Y0143564D01*
X0070468Y0143722D01*
X0070462Y0143880D01*
X0070460Y0144038D01*
X0119279Y0144038D02*
X0119281Y0144196D01*
X0119287Y0144354D01*
X0119297Y0144512D01*
X0119311Y0144670D01*
X0119329Y0144827D01*
X0119350Y0144984D01*
X0119376Y0145140D01*
X0119406Y0145296D01*
X0119439Y0145451D01*
X0119477Y0145604D01*
X0119518Y0145757D01*
X0119563Y0145909D01*
X0119612Y0146060D01*
X0119665Y0146209D01*
X0119721Y0146357D01*
X0119781Y0146503D01*
X0119845Y0146648D01*
X0119913Y0146791D01*
X0119984Y0146933D01*
X0120058Y0147073D01*
X0120136Y0147210D01*
X0120218Y0147346D01*
X0120302Y0147480D01*
X0120391Y0147611D01*
X0120482Y0147740D01*
X0120577Y0147867D01*
X0120674Y0147992D01*
X0120775Y0148114D01*
X0120879Y0148233D01*
X0120986Y0148350D01*
X0121096Y0148464D01*
X0121209Y0148575D01*
X0121324Y0148684D01*
X0121442Y0148789D01*
X0121563Y0148891D01*
X0121686Y0148991D01*
X0121812Y0149087D01*
X0121940Y0149180D01*
X0122070Y0149270D01*
X0122203Y0149356D01*
X0122338Y0149440D01*
X0122474Y0149519D01*
X0122613Y0149596D01*
X0122754Y0149668D01*
X0122896Y0149738D01*
X0123040Y0149803D01*
X0123186Y0149865D01*
X0123333Y0149923D01*
X0123482Y0149978D01*
X0123632Y0150029D01*
X0123783Y0150076D01*
X0123935Y0150119D01*
X0124088Y0150158D01*
X0124243Y0150194D01*
X0124398Y0150225D01*
X0124554Y0150253D01*
X0124710Y0150277D01*
X0124867Y0150297D01*
X0125025Y0150313D01*
X0125182Y0150325D01*
X0125341Y0150333D01*
X0125499Y0150337D01*
X0125657Y0150337D01*
X0125815Y0150333D01*
X0125974Y0150325D01*
X0126131Y0150313D01*
X0126289Y0150297D01*
X0126446Y0150277D01*
X0126602Y0150253D01*
X0126758Y0150225D01*
X0126913Y0150194D01*
X0127068Y0150158D01*
X0127221Y0150119D01*
X0127373Y0150076D01*
X0127524Y0150029D01*
X0127674Y0149978D01*
X0127823Y0149923D01*
X0127970Y0149865D01*
X0128116Y0149803D01*
X0128260Y0149738D01*
X0128402Y0149668D01*
X0128543Y0149596D01*
X0128682Y0149519D01*
X0128818Y0149440D01*
X0128953Y0149356D01*
X0129086Y0149270D01*
X0129216Y0149180D01*
X0129344Y0149087D01*
X0129470Y0148991D01*
X0129593Y0148891D01*
X0129714Y0148789D01*
X0129832Y0148684D01*
X0129947Y0148575D01*
X0130060Y0148464D01*
X0130170Y0148350D01*
X0130277Y0148233D01*
X0130381Y0148114D01*
X0130482Y0147992D01*
X0130579Y0147867D01*
X0130674Y0147740D01*
X0130765Y0147611D01*
X0130854Y0147480D01*
X0130938Y0147346D01*
X0131020Y0147210D01*
X0131098Y0147073D01*
X0131172Y0146933D01*
X0131243Y0146791D01*
X0131311Y0146648D01*
X0131375Y0146503D01*
X0131435Y0146357D01*
X0131491Y0146209D01*
X0131544Y0146060D01*
X0131593Y0145909D01*
X0131638Y0145757D01*
X0131679Y0145604D01*
X0131717Y0145451D01*
X0131750Y0145296D01*
X0131780Y0145140D01*
X0131806Y0144984D01*
X0131827Y0144827D01*
X0131845Y0144670D01*
X0131859Y0144512D01*
X0131869Y0144354D01*
X0131875Y0144196D01*
X0131877Y0144038D01*
X0131875Y0143880D01*
X0131869Y0143722D01*
X0131859Y0143564D01*
X0131845Y0143406D01*
X0131827Y0143249D01*
X0131806Y0143092D01*
X0131780Y0142936D01*
X0131750Y0142780D01*
X0131717Y0142625D01*
X0131679Y0142472D01*
X0131638Y0142319D01*
X0131593Y0142167D01*
X0131544Y0142016D01*
X0131491Y0141867D01*
X0131435Y0141719D01*
X0131375Y0141573D01*
X0131311Y0141428D01*
X0131243Y0141285D01*
X0131172Y0141143D01*
X0131098Y0141003D01*
X0131020Y0140866D01*
X0130938Y0140730D01*
X0130854Y0140596D01*
X0130765Y0140465D01*
X0130674Y0140336D01*
X0130579Y0140209D01*
X0130482Y0140084D01*
X0130381Y0139962D01*
X0130277Y0139843D01*
X0130170Y0139726D01*
X0130060Y0139612D01*
X0129947Y0139501D01*
X0129832Y0139392D01*
X0129714Y0139287D01*
X0129593Y0139185D01*
X0129470Y0139085D01*
X0129344Y0138989D01*
X0129216Y0138896D01*
X0129086Y0138806D01*
X0128953Y0138720D01*
X0128818Y0138636D01*
X0128682Y0138557D01*
X0128543Y0138480D01*
X0128402Y0138408D01*
X0128260Y0138338D01*
X0128116Y0138273D01*
X0127970Y0138211D01*
X0127823Y0138153D01*
X0127674Y0138098D01*
X0127524Y0138047D01*
X0127373Y0138000D01*
X0127221Y0137957D01*
X0127068Y0137918D01*
X0126913Y0137882D01*
X0126758Y0137851D01*
X0126602Y0137823D01*
X0126446Y0137799D01*
X0126289Y0137779D01*
X0126131Y0137763D01*
X0125974Y0137751D01*
X0125815Y0137743D01*
X0125657Y0137739D01*
X0125499Y0137739D01*
X0125341Y0137743D01*
X0125182Y0137751D01*
X0125025Y0137763D01*
X0124867Y0137779D01*
X0124710Y0137799D01*
X0124554Y0137823D01*
X0124398Y0137851D01*
X0124243Y0137882D01*
X0124088Y0137918D01*
X0123935Y0137957D01*
X0123783Y0138000D01*
X0123632Y0138047D01*
X0123482Y0138098D01*
X0123333Y0138153D01*
X0123186Y0138211D01*
X0123040Y0138273D01*
X0122896Y0138338D01*
X0122754Y0138408D01*
X0122613Y0138480D01*
X0122474Y0138557D01*
X0122338Y0138636D01*
X0122203Y0138720D01*
X0122070Y0138806D01*
X0121940Y0138896D01*
X0121812Y0138989D01*
X0121686Y0139085D01*
X0121563Y0139185D01*
X0121442Y0139287D01*
X0121324Y0139392D01*
X0121209Y0139501D01*
X0121096Y0139612D01*
X0120986Y0139726D01*
X0120879Y0139843D01*
X0120775Y0139962D01*
X0120674Y0140084D01*
X0120577Y0140209D01*
X0120482Y0140336D01*
X0120391Y0140465D01*
X0120302Y0140596D01*
X0120218Y0140730D01*
X0120136Y0140866D01*
X0120058Y0141003D01*
X0119984Y0141143D01*
X0119913Y0141285D01*
X0119845Y0141428D01*
X0119781Y0141573D01*
X0119721Y0141719D01*
X0119665Y0141867D01*
X0119612Y0142016D01*
X0119563Y0142167D01*
X0119518Y0142319D01*
X0119477Y0142472D01*
X0119439Y0142625D01*
X0119406Y0142780D01*
X0119376Y0142936D01*
X0119350Y0143092D01*
X0119329Y0143249D01*
X0119311Y0143406D01*
X0119297Y0143564D01*
X0119287Y0143722D01*
X0119281Y0143880D01*
X0119279Y0144038D01*
X0119279Y0093250D02*
X0119281Y0093408D01*
X0119287Y0093566D01*
X0119297Y0093724D01*
X0119311Y0093882D01*
X0119329Y0094039D01*
X0119350Y0094196D01*
X0119376Y0094352D01*
X0119406Y0094508D01*
X0119439Y0094663D01*
X0119477Y0094816D01*
X0119518Y0094969D01*
X0119563Y0095121D01*
X0119612Y0095272D01*
X0119665Y0095421D01*
X0119721Y0095569D01*
X0119781Y0095715D01*
X0119845Y0095860D01*
X0119913Y0096003D01*
X0119984Y0096145D01*
X0120058Y0096285D01*
X0120136Y0096422D01*
X0120218Y0096558D01*
X0120302Y0096692D01*
X0120391Y0096823D01*
X0120482Y0096952D01*
X0120577Y0097079D01*
X0120674Y0097204D01*
X0120775Y0097326D01*
X0120879Y0097445D01*
X0120986Y0097562D01*
X0121096Y0097676D01*
X0121209Y0097787D01*
X0121324Y0097896D01*
X0121442Y0098001D01*
X0121563Y0098103D01*
X0121686Y0098203D01*
X0121812Y0098299D01*
X0121940Y0098392D01*
X0122070Y0098482D01*
X0122203Y0098568D01*
X0122338Y0098652D01*
X0122474Y0098731D01*
X0122613Y0098808D01*
X0122754Y0098880D01*
X0122896Y0098950D01*
X0123040Y0099015D01*
X0123186Y0099077D01*
X0123333Y0099135D01*
X0123482Y0099190D01*
X0123632Y0099241D01*
X0123783Y0099288D01*
X0123935Y0099331D01*
X0124088Y0099370D01*
X0124243Y0099406D01*
X0124398Y0099437D01*
X0124554Y0099465D01*
X0124710Y0099489D01*
X0124867Y0099509D01*
X0125025Y0099525D01*
X0125182Y0099537D01*
X0125341Y0099545D01*
X0125499Y0099549D01*
X0125657Y0099549D01*
X0125815Y0099545D01*
X0125974Y0099537D01*
X0126131Y0099525D01*
X0126289Y0099509D01*
X0126446Y0099489D01*
X0126602Y0099465D01*
X0126758Y0099437D01*
X0126913Y0099406D01*
X0127068Y0099370D01*
X0127221Y0099331D01*
X0127373Y0099288D01*
X0127524Y0099241D01*
X0127674Y0099190D01*
X0127823Y0099135D01*
X0127970Y0099077D01*
X0128116Y0099015D01*
X0128260Y0098950D01*
X0128402Y0098880D01*
X0128543Y0098808D01*
X0128682Y0098731D01*
X0128818Y0098652D01*
X0128953Y0098568D01*
X0129086Y0098482D01*
X0129216Y0098392D01*
X0129344Y0098299D01*
X0129470Y0098203D01*
X0129593Y0098103D01*
X0129714Y0098001D01*
X0129832Y0097896D01*
X0129947Y0097787D01*
X0130060Y0097676D01*
X0130170Y0097562D01*
X0130277Y0097445D01*
X0130381Y0097326D01*
X0130482Y0097204D01*
X0130579Y0097079D01*
X0130674Y0096952D01*
X0130765Y0096823D01*
X0130854Y0096692D01*
X0130938Y0096558D01*
X0131020Y0096422D01*
X0131098Y0096285D01*
X0131172Y0096145D01*
X0131243Y0096003D01*
X0131311Y0095860D01*
X0131375Y0095715D01*
X0131435Y0095569D01*
X0131491Y0095421D01*
X0131544Y0095272D01*
X0131593Y0095121D01*
X0131638Y0094969D01*
X0131679Y0094816D01*
X0131717Y0094663D01*
X0131750Y0094508D01*
X0131780Y0094352D01*
X0131806Y0094196D01*
X0131827Y0094039D01*
X0131845Y0093882D01*
X0131859Y0093724D01*
X0131869Y0093566D01*
X0131875Y0093408D01*
X0131877Y0093250D01*
X0131875Y0093092D01*
X0131869Y0092934D01*
X0131859Y0092776D01*
X0131845Y0092618D01*
X0131827Y0092461D01*
X0131806Y0092304D01*
X0131780Y0092148D01*
X0131750Y0091992D01*
X0131717Y0091837D01*
X0131679Y0091684D01*
X0131638Y0091531D01*
X0131593Y0091379D01*
X0131544Y0091228D01*
X0131491Y0091079D01*
X0131435Y0090931D01*
X0131375Y0090785D01*
X0131311Y0090640D01*
X0131243Y0090497D01*
X0131172Y0090355D01*
X0131098Y0090215D01*
X0131020Y0090078D01*
X0130938Y0089942D01*
X0130854Y0089808D01*
X0130765Y0089677D01*
X0130674Y0089548D01*
X0130579Y0089421D01*
X0130482Y0089296D01*
X0130381Y0089174D01*
X0130277Y0089055D01*
X0130170Y0088938D01*
X0130060Y0088824D01*
X0129947Y0088713D01*
X0129832Y0088604D01*
X0129714Y0088499D01*
X0129593Y0088397D01*
X0129470Y0088297D01*
X0129344Y0088201D01*
X0129216Y0088108D01*
X0129086Y0088018D01*
X0128953Y0087932D01*
X0128818Y0087848D01*
X0128682Y0087769D01*
X0128543Y0087692D01*
X0128402Y0087620D01*
X0128260Y0087550D01*
X0128116Y0087485D01*
X0127970Y0087423D01*
X0127823Y0087365D01*
X0127674Y0087310D01*
X0127524Y0087259D01*
X0127373Y0087212D01*
X0127221Y0087169D01*
X0127068Y0087130D01*
X0126913Y0087094D01*
X0126758Y0087063D01*
X0126602Y0087035D01*
X0126446Y0087011D01*
X0126289Y0086991D01*
X0126131Y0086975D01*
X0125974Y0086963D01*
X0125815Y0086955D01*
X0125657Y0086951D01*
X0125499Y0086951D01*
X0125341Y0086955D01*
X0125182Y0086963D01*
X0125025Y0086975D01*
X0124867Y0086991D01*
X0124710Y0087011D01*
X0124554Y0087035D01*
X0124398Y0087063D01*
X0124243Y0087094D01*
X0124088Y0087130D01*
X0123935Y0087169D01*
X0123783Y0087212D01*
X0123632Y0087259D01*
X0123482Y0087310D01*
X0123333Y0087365D01*
X0123186Y0087423D01*
X0123040Y0087485D01*
X0122896Y0087550D01*
X0122754Y0087620D01*
X0122613Y0087692D01*
X0122474Y0087769D01*
X0122338Y0087848D01*
X0122203Y0087932D01*
X0122070Y0088018D01*
X0121940Y0088108D01*
X0121812Y0088201D01*
X0121686Y0088297D01*
X0121563Y0088397D01*
X0121442Y0088499D01*
X0121324Y0088604D01*
X0121209Y0088713D01*
X0121096Y0088824D01*
X0120986Y0088938D01*
X0120879Y0089055D01*
X0120775Y0089174D01*
X0120674Y0089296D01*
X0120577Y0089421D01*
X0120482Y0089548D01*
X0120391Y0089677D01*
X0120302Y0089808D01*
X0120218Y0089942D01*
X0120136Y0090078D01*
X0120058Y0090215D01*
X0119984Y0090355D01*
X0119913Y0090497D01*
X0119845Y0090640D01*
X0119781Y0090785D01*
X0119721Y0090931D01*
X0119665Y0091079D01*
X0119612Y0091228D01*
X0119563Y0091379D01*
X0119518Y0091531D01*
X0119477Y0091684D01*
X0119439Y0091837D01*
X0119406Y0091992D01*
X0119376Y0092148D01*
X0119350Y0092304D01*
X0119329Y0092461D01*
X0119311Y0092618D01*
X0119297Y0092776D01*
X0119287Y0092934D01*
X0119281Y0093092D01*
X0119279Y0093250D01*
X0115221Y0030624D02*
X0115223Y0030707D01*
X0115229Y0030790D01*
X0115239Y0030873D01*
X0115253Y0030955D01*
X0115270Y0031037D01*
X0115292Y0031117D01*
X0115317Y0031196D01*
X0115346Y0031274D01*
X0115379Y0031351D01*
X0115416Y0031426D01*
X0115455Y0031499D01*
X0115499Y0031570D01*
X0115545Y0031639D01*
X0115595Y0031706D01*
X0115648Y0031770D01*
X0115704Y0031832D01*
X0115763Y0031891D01*
X0115825Y0031947D01*
X0115889Y0032000D01*
X0115956Y0032050D01*
X0116025Y0032096D01*
X0116096Y0032140D01*
X0116169Y0032179D01*
X0116244Y0032216D01*
X0116321Y0032249D01*
X0116399Y0032278D01*
X0116478Y0032303D01*
X0116558Y0032325D01*
X0116640Y0032342D01*
X0116722Y0032356D01*
X0116805Y0032366D01*
X0116888Y0032372D01*
X0116971Y0032374D01*
X0117054Y0032372D01*
X0117137Y0032366D01*
X0117220Y0032356D01*
X0117302Y0032342D01*
X0117384Y0032325D01*
X0117464Y0032303D01*
X0117543Y0032278D01*
X0117621Y0032249D01*
X0117698Y0032216D01*
X0117773Y0032179D01*
X0117846Y0032140D01*
X0117917Y0032096D01*
X0117986Y0032050D01*
X0118053Y0032000D01*
X0118117Y0031947D01*
X0118179Y0031891D01*
X0118238Y0031832D01*
X0118294Y0031770D01*
X0118347Y0031706D01*
X0118397Y0031639D01*
X0118443Y0031570D01*
X0118487Y0031499D01*
X0118526Y0031426D01*
X0118563Y0031351D01*
X0118596Y0031274D01*
X0118625Y0031196D01*
X0118650Y0031117D01*
X0118672Y0031037D01*
X0118689Y0030955D01*
X0118703Y0030873D01*
X0118713Y0030790D01*
X0118719Y0030707D01*
X0118721Y0030624D01*
X0118719Y0030541D01*
X0118713Y0030458D01*
X0118703Y0030375D01*
X0118689Y0030293D01*
X0118672Y0030211D01*
X0118650Y0030131D01*
X0118625Y0030052D01*
X0118596Y0029974D01*
X0118563Y0029897D01*
X0118526Y0029822D01*
X0118487Y0029749D01*
X0118443Y0029678D01*
X0118397Y0029609D01*
X0118347Y0029542D01*
X0118294Y0029478D01*
X0118238Y0029416D01*
X0118179Y0029357D01*
X0118117Y0029301D01*
X0118053Y0029248D01*
X0117986Y0029198D01*
X0117917Y0029152D01*
X0117846Y0029108D01*
X0117773Y0029069D01*
X0117698Y0029032D01*
X0117621Y0028999D01*
X0117543Y0028970D01*
X0117464Y0028945D01*
X0117384Y0028923D01*
X0117302Y0028906D01*
X0117220Y0028892D01*
X0117137Y0028882D01*
X0117054Y0028876D01*
X0116971Y0028874D01*
X0116888Y0028876D01*
X0116805Y0028882D01*
X0116722Y0028892D01*
X0116640Y0028906D01*
X0116558Y0028923D01*
X0116478Y0028945D01*
X0116399Y0028970D01*
X0116321Y0028999D01*
X0116244Y0029032D01*
X0116169Y0029069D01*
X0116096Y0029108D01*
X0116025Y0029152D01*
X0115956Y0029198D01*
X0115889Y0029248D01*
X0115825Y0029301D01*
X0115763Y0029357D01*
X0115704Y0029416D01*
X0115648Y0029478D01*
X0115595Y0029542D01*
X0115545Y0029609D01*
X0115499Y0029678D01*
X0115455Y0029749D01*
X0115416Y0029822D01*
X0115379Y0029897D01*
X0115346Y0029974D01*
X0115317Y0030052D01*
X0115292Y0030131D01*
X0115270Y0030211D01*
X0115253Y0030293D01*
X0115239Y0030375D01*
X0115229Y0030458D01*
X0115223Y0030541D01*
X0115221Y0030624D01*
X0083725Y0030624D02*
X0083727Y0030707D01*
X0083733Y0030790D01*
X0083743Y0030873D01*
X0083757Y0030955D01*
X0083774Y0031037D01*
X0083796Y0031117D01*
X0083821Y0031196D01*
X0083850Y0031274D01*
X0083883Y0031351D01*
X0083920Y0031426D01*
X0083959Y0031499D01*
X0084003Y0031570D01*
X0084049Y0031639D01*
X0084099Y0031706D01*
X0084152Y0031770D01*
X0084208Y0031832D01*
X0084267Y0031891D01*
X0084329Y0031947D01*
X0084393Y0032000D01*
X0084460Y0032050D01*
X0084529Y0032096D01*
X0084600Y0032140D01*
X0084673Y0032179D01*
X0084748Y0032216D01*
X0084825Y0032249D01*
X0084903Y0032278D01*
X0084982Y0032303D01*
X0085062Y0032325D01*
X0085144Y0032342D01*
X0085226Y0032356D01*
X0085309Y0032366D01*
X0085392Y0032372D01*
X0085475Y0032374D01*
X0085558Y0032372D01*
X0085641Y0032366D01*
X0085724Y0032356D01*
X0085806Y0032342D01*
X0085888Y0032325D01*
X0085968Y0032303D01*
X0086047Y0032278D01*
X0086125Y0032249D01*
X0086202Y0032216D01*
X0086277Y0032179D01*
X0086350Y0032140D01*
X0086421Y0032096D01*
X0086490Y0032050D01*
X0086557Y0032000D01*
X0086621Y0031947D01*
X0086683Y0031891D01*
X0086742Y0031832D01*
X0086798Y0031770D01*
X0086851Y0031706D01*
X0086901Y0031639D01*
X0086947Y0031570D01*
X0086991Y0031499D01*
X0087030Y0031426D01*
X0087067Y0031351D01*
X0087100Y0031274D01*
X0087129Y0031196D01*
X0087154Y0031117D01*
X0087176Y0031037D01*
X0087193Y0030955D01*
X0087207Y0030873D01*
X0087217Y0030790D01*
X0087223Y0030707D01*
X0087225Y0030624D01*
X0087223Y0030541D01*
X0087217Y0030458D01*
X0087207Y0030375D01*
X0087193Y0030293D01*
X0087176Y0030211D01*
X0087154Y0030131D01*
X0087129Y0030052D01*
X0087100Y0029974D01*
X0087067Y0029897D01*
X0087030Y0029822D01*
X0086991Y0029749D01*
X0086947Y0029678D01*
X0086901Y0029609D01*
X0086851Y0029542D01*
X0086798Y0029478D01*
X0086742Y0029416D01*
X0086683Y0029357D01*
X0086621Y0029301D01*
X0086557Y0029248D01*
X0086490Y0029198D01*
X0086421Y0029152D01*
X0086350Y0029108D01*
X0086277Y0029069D01*
X0086202Y0029032D01*
X0086125Y0028999D01*
X0086047Y0028970D01*
X0085968Y0028945D01*
X0085888Y0028923D01*
X0085806Y0028906D01*
X0085724Y0028892D01*
X0085641Y0028882D01*
X0085558Y0028876D01*
X0085475Y0028874D01*
X0085392Y0028876D01*
X0085309Y0028882D01*
X0085226Y0028892D01*
X0085144Y0028906D01*
X0085062Y0028923D01*
X0084982Y0028945D01*
X0084903Y0028970D01*
X0084825Y0028999D01*
X0084748Y0029032D01*
X0084673Y0029069D01*
X0084600Y0029108D01*
X0084529Y0029152D01*
X0084460Y0029198D01*
X0084393Y0029248D01*
X0084329Y0029301D01*
X0084267Y0029357D01*
X0084208Y0029416D01*
X0084152Y0029478D01*
X0084099Y0029542D01*
X0084049Y0029609D01*
X0084003Y0029678D01*
X0083959Y0029749D01*
X0083920Y0029822D01*
X0083883Y0029897D01*
X0083850Y0029974D01*
X0083821Y0030052D01*
X0083796Y0030131D01*
X0083774Y0030211D01*
X0083757Y0030293D01*
X0083743Y0030375D01*
X0083733Y0030458D01*
X0083727Y0030541D01*
X0083725Y0030624D01*
D118*
X0028585Y0037706D03*
X0028585Y0037806D03*
X0028585Y0037906D03*
X0028585Y0038006D03*
X0028585Y0038106D03*
X0028585Y0038206D03*
X0028585Y0038306D03*
X0028585Y0038406D03*
X0028585Y0038506D03*
X0028585Y0054306D03*
X0028585Y0054406D03*
X0028585Y0054506D03*
D119*
X0036585Y0038606D03*
D120*
X0016435Y0038606D03*
D121*
X0008285Y0038606D03*
X0038485Y0039206D03*
D122*
X0043685Y0038906D03*
X0043685Y0038806D03*
X0043685Y0038706D03*
D123*
X0049585Y0039206D03*
X0037785Y0039806D03*
X0027385Y0038706D03*
X0016385Y0041406D03*
D124*
X0016335Y0041206D03*
X0016435Y0038806D03*
X0027135Y0040406D03*
X0027135Y0040506D03*
D125*
X0017135Y0040106D03*
X0049135Y0039006D03*
D126*
X0038935Y0039006D03*
D127*
X0038635Y0039106D03*
D128*
X0038335Y0039306D03*
D129*
X0038185Y0039406D03*
X0017185Y0040206D03*
X0017185Y0040306D03*
D130*
X0038085Y0039506D03*
D131*
X0037835Y0039706D03*
X0044335Y0041306D03*
D132*
X0016835Y0039806D03*
D133*
X0006735Y0039806D03*
X0010835Y0052506D03*
X0021435Y0052506D03*
X0031935Y0052506D03*
X0044335Y0052506D03*
D134*
X0016985Y0039906D03*
D135*
X0021385Y0044406D03*
X0031885Y0044406D03*
X0050785Y0040406D03*
D136*
X0021585Y0041506D03*
X0021585Y0041606D03*
D137*
X0021535Y0041706D03*
D138*
X0021485Y0041806D03*
X0021485Y0041906D03*
D139*
X0021435Y0042006D03*
D140*
X0021385Y0042106D03*
X0021385Y0042206D03*
D141*
X0021335Y0042306D03*
D142*
X0021285Y0042406D03*
X0021285Y0042506D03*
D143*
X0021235Y0042606D03*
D144*
X0044335Y0051906D03*
D145*
X0044385Y0052006D03*
D146*
X0028585Y0054206D03*
D147*
X0024283Y0061893D02*
X0022587Y0063589D01*
X0024604Y0066063D01*
X0024091Y0067059D01*
X0023750Y0068127D01*
X0020574Y0068449D01*
X0020574Y0070848D01*
X0023750Y0071171D01*
X0024091Y0072238D01*
X0024604Y0073235D01*
X0022587Y0075709D01*
X0024283Y0077405D01*
X0026757Y0075387D01*
X0027753Y0075901D01*
X0028821Y0076242D01*
X0029143Y0079418D01*
X0031543Y0079418D01*
X0031865Y0076242D01*
X0032932Y0075901D01*
X0033929Y0075387D01*
X0036403Y0077405D01*
X0038099Y0075709D01*
X0036081Y0073235D01*
X0036595Y0072238D01*
X0036936Y0071171D01*
X0040112Y0070848D01*
X0040112Y0068449D01*
X0036936Y0068127D01*
X0036595Y0067059D01*
X0036081Y0066063D01*
X0038099Y0063589D01*
X0036403Y0061893D01*
X0033929Y0063910D01*
X0032933Y0063397D01*
X0031520Y0066807D01*
X0032052Y0067091D01*
X0032518Y0067474D01*
X0032901Y0067940D01*
X0033185Y0068472D01*
X0033360Y0069049D01*
X0033419Y0069649D01*
X0033354Y0070277D01*
X0033162Y0070879D01*
X0032852Y0071429D01*
X0032435Y0071904D01*
X0031930Y0072283D01*
X0031359Y0072552D01*
X0030745Y0072698D01*
X0030113Y0072716D01*
X0029491Y0072605D01*
X0028906Y0072368D01*
X0028381Y0072017D01*
X0027938Y0071567D01*
X0027597Y0071035D01*
X0027372Y0070445D01*
X0027272Y0069821D01*
X0027301Y0069190D01*
X0027459Y0068579D01*
X0027738Y0068012D01*
X0028128Y0067515D01*
X0028610Y0067107D01*
X0029166Y0066807D01*
X0027753Y0063397D01*
X0026757Y0063910D01*
X0024283Y0061893D01*
X0023943Y0062233D02*
X0024700Y0062233D01*
X0025423Y0062822D02*
X0023354Y0062822D01*
X0022765Y0063411D02*
X0026145Y0063411D01*
X0027725Y0063411D02*
X0027759Y0063411D01*
X0028003Y0064000D02*
X0022922Y0064000D01*
X0023403Y0064589D02*
X0028247Y0064589D01*
X0028491Y0065179D02*
X0023883Y0065179D01*
X0024363Y0065768D02*
X0028735Y0065768D01*
X0028979Y0066357D02*
X0024453Y0066357D01*
X0024150Y0066946D02*
X0028909Y0066946D01*
X0028112Y0067535D02*
X0023939Y0067535D01*
X0023751Y0068124D02*
X0027684Y0068124D01*
X0027425Y0068713D02*
X0020574Y0068713D01*
X0020574Y0069302D02*
X0027296Y0069302D01*
X0027283Y0069891D02*
X0020574Y0069891D01*
X0020574Y0070480D02*
X0027385Y0070480D01*
X0027619Y0071069D02*
X0022748Y0071069D01*
X0023906Y0071658D02*
X0028028Y0071658D01*
X0028725Y0072247D02*
X0024096Y0072247D01*
X0024399Y0072836D02*
X0036287Y0072836D01*
X0036237Y0073425D02*
X0024449Y0073425D01*
X0023968Y0074014D02*
X0036717Y0074014D01*
X0037198Y0074604D02*
X0023488Y0074604D01*
X0023008Y0075193D02*
X0037678Y0075193D01*
X0038026Y0075782D02*
X0034412Y0075782D01*
X0035135Y0076371D02*
X0037437Y0076371D01*
X0036848Y0076960D02*
X0035857Y0076960D01*
X0033163Y0075782D02*
X0027523Y0075782D01*
X0026274Y0075782D02*
X0022660Y0075782D01*
X0023249Y0076371D02*
X0025551Y0076371D01*
X0024829Y0076960D02*
X0023838Y0076960D01*
X0028834Y0076371D02*
X0031852Y0076371D01*
X0031792Y0076960D02*
X0028894Y0076960D01*
X0028954Y0077549D02*
X0031732Y0077549D01*
X0031672Y0078138D02*
X0029013Y0078138D01*
X0029073Y0078727D02*
X0031613Y0078727D01*
X0031553Y0079316D02*
X0029133Y0079316D01*
X0031978Y0072247D02*
X0036590Y0072247D01*
X0036780Y0071658D02*
X0032650Y0071658D01*
X0033055Y0071069D02*
X0037938Y0071069D01*
X0040112Y0070480D02*
X0033289Y0070480D01*
X0033394Y0069891D02*
X0040112Y0069891D01*
X0040112Y0069302D02*
X0033385Y0069302D01*
X0033258Y0068713D02*
X0040112Y0068713D01*
X0036935Y0068124D02*
X0032999Y0068124D01*
X0032568Y0067535D02*
X0036747Y0067535D01*
X0036536Y0066946D02*
X0031779Y0066946D01*
X0031707Y0066357D02*
X0036233Y0066357D01*
X0036322Y0065768D02*
X0031951Y0065768D01*
X0032195Y0065179D02*
X0036803Y0065179D01*
X0037283Y0064589D02*
X0032439Y0064589D01*
X0032683Y0064000D02*
X0037763Y0064000D01*
X0037921Y0063411D02*
X0034541Y0063411D01*
X0035263Y0062822D02*
X0037332Y0062822D01*
X0036743Y0062233D02*
X0035985Y0062233D01*
X0032961Y0063411D02*
X0032927Y0063411D01*
M02*
