G75*
%MOIN*%
%OFA0B0*%
%FSLAX25Y25*%
%IPPOS*%
%LPD*%
%AMOC8*
5,1,8,0,0,1.08239X$1,22.5*
%
%ADD10C,0.00700*%
%ADD11C,0.00000*%
%ADD12C,0.07600*%
%ADD13C,0.07000*%
%ADD14C,0.02400*%
%ADD15C,0.01000*%
%ADD16C,0.02400*%
%ADD17C,0.01200*%
D10*
X0016222Y0028529D02*
X0186207Y0028529D01*
X0186207Y0030229D02*
X0150081Y0030229D01*
X0150081Y0100329D01*
X0151466Y0100329D01*
X0152560Y0099235D01*
X0151966Y0097801D01*
X0151966Y0095951D01*
X0152674Y0094242D01*
X0153982Y0092934D01*
X0155691Y0092226D01*
X0157541Y0092226D01*
X0159250Y0092934D01*
X0160558Y0094242D01*
X0161266Y0095951D01*
X0161266Y0097801D01*
X0160558Y0099510D01*
X0159250Y0100818D01*
X0157541Y0101526D01*
X0155691Y0101526D01*
X0154257Y0100932D01*
X0153163Y0102026D01*
X0152460Y0102729D01*
X0150081Y0102729D01*
X0150081Y0174198D01*
X0152717Y0174198D01*
X0153982Y0172934D01*
X0155691Y0172226D01*
X0157541Y0172226D01*
X0159250Y0172934D01*
X0160515Y0174198D01*
X0160982Y0174198D01*
X0161851Y0173329D01*
X0173851Y0173329D01*
X0178148Y0169032D01*
X0178148Y0162026D01*
X0176851Y0160729D01*
X0173166Y0160729D01*
X0175137Y0162700D01*
X0176127Y0162700D01*
X0177328Y0163901D01*
X0177328Y0165599D01*
X0176127Y0166800D01*
X0175502Y0166800D01*
X0176540Y0167838D01*
X0176540Y0169536D01*
X0175339Y0170737D01*
X0173641Y0170737D01*
X0172941Y0170037D01*
X0160031Y0170037D01*
X0159250Y0170818D01*
X0157541Y0171526D01*
X0155691Y0171526D01*
X0153982Y0170818D01*
X0152674Y0169510D01*
X0151966Y0167801D01*
X0151966Y0165951D01*
X0152674Y0164242D01*
X0153982Y0162934D01*
X0155691Y0162226D01*
X0157541Y0162226D01*
X0159250Y0162934D01*
X0160558Y0164242D01*
X0161266Y0165951D01*
X0161266Y0167337D01*
X0172941Y0167337D01*
X0173641Y0166637D01*
X0174265Y0166637D01*
X0173228Y0165599D01*
X0173228Y0164609D01*
X0166844Y0158226D01*
X0161090Y0158226D01*
X0160558Y0159510D01*
X0159250Y0160818D01*
X0157541Y0161526D01*
X0155691Y0161526D01*
X0153982Y0160818D01*
X0152674Y0159510D01*
X0151966Y0157801D01*
X0151966Y0155951D01*
X0152674Y0154242D01*
X0153982Y0152934D01*
X0155691Y0152226D01*
X0157541Y0152226D01*
X0159250Y0152934D01*
X0160558Y0154242D01*
X0161090Y0155526D01*
X0167648Y0155526D01*
X0165148Y0153026D01*
X0165148Y0137459D01*
X0164883Y0137193D01*
X0163680Y0137193D01*
X0162480Y0135992D01*
X0162480Y0134294D01*
X0163680Y0133093D01*
X0165379Y0133093D01*
X0166580Y0134294D01*
X0166580Y0135496D01*
X0166846Y0135762D01*
X0167548Y0136465D01*
X0167548Y0152032D01*
X0173846Y0158329D01*
X0177846Y0158329D01*
X0179846Y0160329D01*
X0180548Y0161032D01*
X0180548Y0163666D01*
X0181014Y0163201D01*
X0181014Y0106254D01*
X0177868Y0103108D01*
X0175276Y0103108D01*
X0174120Y0104264D01*
X0172521Y0104926D01*
X0170790Y0104926D01*
X0169191Y0104264D01*
X0167968Y0103041D01*
X0167306Y0101442D01*
X0167306Y0099711D01*
X0167968Y0098112D01*
X0168572Y0097508D01*
X0166948Y0097508D01*
X0166611Y0097171D01*
X0166611Y0123166D01*
X0162052Y0127725D01*
X0160851Y0128926D01*
X0160800Y0128926D01*
X0160558Y0129510D01*
X0159250Y0130818D01*
X0157541Y0131526D01*
X0155691Y0131526D01*
X0153982Y0130818D01*
X0152674Y0129510D01*
X0151966Y0127801D01*
X0151966Y0125951D01*
X0152674Y0124242D01*
X0153982Y0122934D01*
X0155691Y0122226D01*
X0157541Y0122226D01*
X0159250Y0122934D01*
X0160148Y0123831D01*
X0162511Y0121467D01*
X0162511Y0076288D01*
X0162393Y0075632D01*
X0162511Y0075462D01*
X0162511Y0075255D01*
X0162982Y0074784D01*
X0164298Y0072887D01*
X0164298Y0072680D01*
X0164769Y0072209D01*
X0165149Y0071663D01*
X0165353Y0071626D01*
X0165499Y0071479D01*
X0166165Y0071479D01*
X0166820Y0071361D01*
X0166990Y0071479D01*
X0180499Y0071479D01*
X0183499Y0068479D01*
X0185198Y0068479D01*
X0186398Y0069680D01*
X0186398Y0071378D01*
X0183398Y0074378D01*
X0182198Y0075579D01*
X0167421Y0075579D01*
X0166611Y0076746D01*
X0166611Y0093745D01*
X0166948Y0093408D01*
X0168336Y0093408D01*
X0167968Y0093041D01*
X0167306Y0091442D01*
X0167306Y0089711D01*
X0167968Y0088112D01*
X0169191Y0086889D01*
X0170790Y0086226D01*
X0172521Y0086226D01*
X0174120Y0086889D01*
X0175343Y0088112D01*
X0175805Y0089226D01*
X0182766Y0089226D01*
X0183011Y0089471D01*
X0184001Y0089471D01*
X0185202Y0090672D01*
X0185202Y0092370D01*
X0184001Y0093571D01*
X0182302Y0093571D01*
X0181102Y0092370D01*
X0181102Y0091926D01*
X0175805Y0091926D01*
X0175343Y0093041D01*
X0174275Y0094108D01*
X0179774Y0094108D01*
X0180565Y0094899D01*
X0186160Y0100495D01*
X0187150Y0100495D01*
X0188351Y0101696D01*
X0188351Y0103394D01*
X0187150Y0104595D01*
X0185452Y0104595D01*
X0184251Y0103394D01*
X0184251Y0102404D01*
X0178655Y0096808D01*
X0173926Y0096808D01*
X0174120Y0096889D01*
X0175343Y0098112D01*
X0176006Y0099711D01*
X0176006Y0100408D01*
X0178986Y0100408D01*
X0182923Y0104345D01*
X0183714Y0105135D01*
X0183714Y0163201D01*
X0184414Y0163901D01*
X0184414Y0165599D01*
X0183213Y0166800D01*
X0181515Y0166800D01*
X0180548Y0165833D01*
X0180548Y0170026D01*
X0176376Y0174198D01*
X0192381Y0174198D01*
X0192381Y0036403D01*
X0192305Y0035437D01*
X0191708Y0033600D01*
X0190572Y0032037D01*
X0189010Y0030902D01*
X0187173Y0030305D01*
X0186207Y0030229D01*
X0188156Y0030625D02*
X0150081Y0030625D01*
X0150081Y0031323D02*
X0189589Y0031323D01*
X0190551Y0032022D02*
X0150081Y0032022D01*
X0150081Y0032720D02*
X0154497Y0032720D01*
X0153982Y0032934D02*
X0155691Y0032226D01*
X0157541Y0032226D01*
X0159250Y0032934D01*
X0160558Y0034242D01*
X0161266Y0035951D01*
X0161266Y0037801D01*
X0160558Y0039510D01*
X0159250Y0040818D01*
X0157541Y0041526D01*
X0155691Y0041526D01*
X0153982Y0040818D01*
X0152674Y0039510D01*
X0151966Y0037801D01*
X0151966Y0035951D01*
X0152674Y0034242D01*
X0153982Y0032934D01*
X0153497Y0033419D02*
X0150081Y0033419D01*
X0150081Y0034117D02*
X0152798Y0034117D01*
X0152436Y0034816D02*
X0150081Y0034816D01*
X0150081Y0035514D02*
X0152147Y0035514D01*
X0151966Y0036213D02*
X0150081Y0036213D01*
X0150081Y0036911D02*
X0151966Y0036911D01*
X0151966Y0037610D02*
X0150081Y0037610D01*
X0150081Y0038308D02*
X0152177Y0038308D01*
X0152466Y0039007D02*
X0150081Y0039007D01*
X0150081Y0039705D02*
X0152870Y0039705D01*
X0153568Y0040404D02*
X0150081Y0040404D01*
X0150081Y0041102D02*
X0154669Y0041102D01*
X0155030Y0042499D02*
X0150081Y0042499D01*
X0150081Y0041801D02*
X0192381Y0041801D01*
X0192381Y0042499D02*
X0158202Y0042499D01*
X0157541Y0042226D02*
X0159250Y0042934D01*
X0160558Y0044242D01*
X0161266Y0045951D01*
X0161266Y0047801D01*
X0160558Y0049510D01*
X0159250Y0050818D01*
X0157541Y0051526D01*
X0155691Y0051526D01*
X0153982Y0050818D01*
X0152674Y0049510D01*
X0151966Y0047801D01*
X0151966Y0045951D01*
X0152674Y0044242D01*
X0153982Y0042934D01*
X0155691Y0042226D01*
X0157541Y0042226D01*
X0158563Y0041102D02*
X0192381Y0041102D01*
X0192381Y0040404D02*
X0159664Y0040404D01*
X0160363Y0039705D02*
X0192381Y0039705D01*
X0192381Y0039007D02*
X0160767Y0039007D01*
X0161056Y0038308D02*
X0192381Y0038308D01*
X0192381Y0037610D02*
X0161266Y0037610D01*
X0161266Y0036911D02*
X0192381Y0036911D01*
X0192366Y0036213D02*
X0161266Y0036213D01*
X0161085Y0035514D02*
X0192311Y0035514D01*
X0192103Y0034816D02*
X0160796Y0034816D01*
X0160434Y0034117D02*
X0191876Y0034117D01*
X0191576Y0033419D02*
X0159735Y0033419D01*
X0158735Y0032720D02*
X0191068Y0032720D01*
X0194081Y0036403D02*
X0194081Y0217506D01*
X0194080Y0217505D02*
X0194054Y0217719D01*
X0194023Y0217932D01*
X0193986Y0218144D01*
X0193944Y0218356D01*
X0193897Y0218566D01*
X0193845Y0218775D01*
X0193788Y0218983D01*
X0193726Y0219189D01*
X0193659Y0219394D01*
X0193588Y0219597D01*
X0193511Y0219798D01*
X0193429Y0219997D01*
X0193343Y0220195D01*
X0193252Y0220390D01*
X0193156Y0220583D01*
X0193055Y0220773D01*
X0192950Y0220961D01*
X0192841Y0221147D01*
X0192727Y0221329D01*
X0192608Y0221509D01*
X0192486Y0221686D01*
X0192359Y0221860D01*
X0192228Y0222031D01*
X0192092Y0222199D01*
X0191953Y0222363D01*
X0191810Y0222524D01*
X0191663Y0222682D01*
X0191512Y0222835D01*
X0191358Y0222986D01*
X0191200Y0223132D01*
X0191038Y0223275D01*
X0190874Y0223413D01*
X0190705Y0223548D01*
X0190534Y0223678D01*
X0190360Y0223804D01*
X0190182Y0223926D01*
X0190002Y0224044D01*
X0189818Y0224157D01*
X0189633Y0224266D01*
X0189444Y0224371D01*
X0189253Y0224470D01*
X0189060Y0224565D01*
X0188864Y0224656D01*
X0188667Y0224741D01*
X0188467Y0224822D01*
X0188266Y0224898D01*
X0188062Y0224969D01*
X0187857Y0225035D01*
X0187651Y0225097D01*
X0187443Y0225153D01*
X0187234Y0225204D01*
X0187023Y0225250D01*
X0186812Y0225291D01*
X0186599Y0225327D01*
X0186386Y0225358D01*
X0186172Y0225383D01*
X0185958Y0225404D01*
X0185743Y0225419D01*
X0185528Y0225429D01*
X0185313Y0225434D01*
X0185097Y0225433D01*
X0184882Y0225428D01*
X0184667Y0225417D01*
X0184452Y0225401D01*
X0184238Y0225379D01*
X0184238Y0225380D02*
X0016222Y0225380D01*
X0016032Y0225378D01*
X0015842Y0225371D01*
X0015652Y0225359D01*
X0015462Y0225343D01*
X0015273Y0225323D01*
X0015084Y0225297D01*
X0014896Y0225268D01*
X0014709Y0225233D01*
X0014523Y0225194D01*
X0014338Y0225151D01*
X0014153Y0225103D01*
X0013970Y0225051D01*
X0013789Y0224995D01*
X0013609Y0224934D01*
X0013430Y0224868D01*
X0013253Y0224799D01*
X0013077Y0224725D01*
X0012904Y0224647D01*
X0012732Y0224564D01*
X0012563Y0224478D01*
X0012395Y0224388D01*
X0012230Y0224293D01*
X0012067Y0224195D01*
X0011907Y0224092D01*
X0011749Y0223986D01*
X0011594Y0223876D01*
X0011441Y0223763D01*
X0011291Y0223645D01*
X0011145Y0223524D01*
X0011001Y0223400D01*
X0010860Y0223272D01*
X0010722Y0223141D01*
X0010587Y0223006D01*
X0010456Y0222868D01*
X0010328Y0222727D01*
X0010204Y0222583D01*
X0010083Y0222437D01*
X0009965Y0222287D01*
X0009852Y0222134D01*
X0009742Y0221979D01*
X0009636Y0221821D01*
X0009533Y0221661D01*
X0009435Y0221498D01*
X0009340Y0221333D01*
X0009250Y0221165D01*
X0009164Y0220996D01*
X0009081Y0220824D01*
X0009003Y0220651D01*
X0008929Y0220475D01*
X0008860Y0220298D01*
X0008794Y0220119D01*
X0008733Y0219939D01*
X0008677Y0219758D01*
X0008625Y0219575D01*
X0008577Y0219390D01*
X0008534Y0219205D01*
X0008495Y0219019D01*
X0008460Y0218832D01*
X0008431Y0218644D01*
X0008405Y0218455D01*
X0008385Y0218266D01*
X0008369Y0218076D01*
X0008357Y0217886D01*
X0008350Y0217696D01*
X0008348Y0217506D01*
X0008348Y0036403D01*
X0008350Y0036213D01*
X0008357Y0036023D01*
X0008369Y0035833D01*
X0008385Y0035643D01*
X0008405Y0035454D01*
X0008431Y0035265D01*
X0008460Y0035077D01*
X0008495Y0034890D01*
X0008534Y0034704D01*
X0008577Y0034519D01*
X0008625Y0034334D01*
X0008677Y0034151D01*
X0008733Y0033970D01*
X0008794Y0033790D01*
X0008860Y0033611D01*
X0008929Y0033434D01*
X0009003Y0033258D01*
X0009081Y0033085D01*
X0009164Y0032913D01*
X0009250Y0032744D01*
X0009340Y0032576D01*
X0009435Y0032411D01*
X0009533Y0032248D01*
X0009636Y0032088D01*
X0009742Y0031930D01*
X0009852Y0031775D01*
X0009965Y0031622D01*
X0010083Y0031472D01*
X0010204Y0031326D01*
X0010328Y0031182D01*
X0010456Y0031041D01*
X0010587Y0030903D01*
X0010722Y0030768D01*
X0010860Y0030637D01*
X0011001Y0030509D01*
X0011145Y0030385D01*
X0011291Y0030264D01*
X0011441Y0030146D01*
X0011594Y0030033D01*
X0011749Y0029923D01*
X0011907Y0029817D01*
X0012067Y0029714D01*
X0012230Y0029616D01*
X0012395Y0029521D01*
X0012563Y0029431D01*
X0012732Y0029345D01*
X0012904Y0029262D01*
X0013077Y0029184D01*
X0013253Y0029110D01*
X0013430Y0029041D01*
X0013609Y0028975D01*
X0013789Y0028914D01*
X0013970Y0028858D01*
X0014153Y0028806D01*
X0014338Y0028758D01*
X0014523Y0028715D01*
X0014709Y0028676D01*
X0014896Y0028641D01*
X0015084Y0028612D01*
X0015273Y0028586D01*
X0015462Y0028566D01*
X0015652Y0028550D01*
X0015842Y0028538D01*
X0016032Y0028531D01*
X0016222Y0028529D01*
X0060348Y0040529D02*
X0063348Y0037529D01*
X0065963Y0037529D01*
X0066616Y0036876D01*
X0071931Y0041797D02*
X0077128Y0036600D01*
X0102049Y0036600D01*
X0106978Y0041529D01*
X0107348Y0041529D01*
X0107348Y0045382D02*
X0107348Y0046643D01*
X0107346Y0046704D01*
X0107340Y0046765D01*
X0107331Y0046826D01*
X0107317Y0046885D01*
X0107300Y0046944D01*
X0107280Y0047002D01*
X0107255Y0047058D01*
X0107227Y0047113D01*
X0107196Y0047165D01*
X0107162Y0047216D01*
X0107124Y0047264D01*
X0107084Y0047310D01*
X0107040Y0047354D01*
X0106994Y0047394D01*
X0106946Y0047432D01*
X0106895Y0047466D01*
X0106843Y0047497D01*
X0106788Y0047525D01*
X0106732Y0047550D01*
X0106674Y0047570D01*
X0106615Y0047587D01*
X0106556Y0047601D01*
X0106495Y0047610D01*
X0106434Y0047616D01*
X0106373Y0047618D01*
X0094323Y0047618D01*
X0094262Y0047620D01*
X0094201Y0047626D01*
X0094140Y0047635D01*
X0094081Y0047649D01*
X0094022Y0047666D01*
X0093964Y0047686D01*
X0093908Y0047711D01*
X0093853Y0047739D01*
X0093801Y0047770D01*
X0093750Y0047804D01*
X0093702Y0047842D01*
X0093656Y0047882D01*
X0093612Y0047926D01*
X0093572Y0047972D01*
X0093534Y0048020D01*
X0093500Y0048071D01*
X0093469Y0048123D01*
X0093441Y0048178D01*
X0093416Y0048234D01*
X0093396Y0048292D01*
X0093379Y0048351D01*
X0093365Y0048410D01*
X0093356Y0048471D01*
X0093350Y0048532D01*
X0093348Y0048593D01*
X0093348Y0048819D01*
X0093350Y0048880D01*
X0093356Y0048941D01*
X0093365Y0049002D01*
X0093379Y0049061D01*
X0093396Y0049120D01*
X0093416Y0049178D01*
X0093441Y0049234D01*
X0093469Y0049289D01*
X0093500Y0049341D01*
X0093534Y0049392D01*
X0093572Y0049440D01*
X0093612Y0049486D01*
X0093656Y0049530D01*
X0093702Y0049570D01*
X0093750Y0049608D01*
X0093801Y0049642D01*
X0093853Y0049673D01*
X0093908Y0049701D01*
X0093964Y0049726D01*
X0094022Y0049746D01*
X0094081Y0049763D01*
X0094140Y0049777D01*
X0094201Y0049786D01*
X0094262Y0049792D01*
X0094323Y0049794D01*
X0120373Y0049794D01*
X0120434Y0049796D01*
X0120495Y0049802D01*
X0120556Y0049811D01*
X0120615Y0049825D01*
X0120674Y0049842D01*
X0120732Y0049862D01*
X0120788Y0049887D01*
X0120843Y0049915D01*
X0120895Y0049946D01*
X0120946Y0049980D01*
X0120994Y0050018D01*
X0121040Y0050058D01*
X0121084Y0050102D01*
X0121124Y0050148D01*
X0121162Y0050196D01*
X0121196Y0050247D01*
X0121227Y0050299D01*
X0121255Y0050354D01*
X0121280Y0050410D01*
X0121300Y0050468D01*
X0121317Y0050527D01*
X0121331Y0050586D01*
X0121340Y0050647D01*
X0121346Y0050708D01*
X0121348Y0050769D01*
X0121348Y0050995D01*
X0121346Y0051056D01*
X0121340Y0051117D01*
X0121331Y0051178D01*
X0121317Y0051237D01*
X0121300Y0051296D01*
X0121280Y0051354D01*
X0121255Y0051410D01*
X0121227Y0051465D01*
X0121196Y0051517D01*
X0121162Y0051568D01*
X0121124Y0051616D01*
X0121084Y0051662D01*
X0121040Y0051706D01*
X0120994Y0051746D01*
X0120946Y0051784D01*
X0120895Y0051818D01*
X0120843Y0051849D01*
X0120788Y0051877D01*
X0120732Y0051902D01*
X0120674Y0051922D01*
X0120615Y0051939D01*
X0120556Y0051953D01*
X0120495Y0051962D01*
X0120434Y0051968D01*
X0120373Y0051970D01*
X0094323Y0051970D01*
X0094262Y0051972D01*
X0094201Y0051978D01*
X0094140Y0051987D01*
X0094081Y0052001D01*
X0094022Y0052018D01*
X0093964Y0052038D01*
X0093908Y0052063D01*
X0093853Y0052091D01*
X0093801Y0052122D01*
X0093750Y0052156D01*
X0093702Y0052194D01*
X0093656Y0052234D01*
X0093612Y0052278D01*
X0093572Y0052324D01*
X0093534Y0052372D01*
X0093500Y0052423D01*
X0093469Y0052475D01*
X0093441Y0052530D01*
X0093416Y0052586D01*
X0093396Y0052644D01*
X0093379Y0052703D01*
X0093365Y0052762D01*
X0093356Y0052823D01*
X0093350Y0052884D01*
X0093348Y0052945D01*
X0093348Y0053171D01*
X0093350Y0053232D01*
X0093356Y0053293D01*
X0093365Y0053354D01*
X0093379Y0053413D01*
X0093396Y0053472D01*
X0093416Y0053530D01*
X0093441Y0053586D01*
X0093469Y0053641D01*
X0093500Y0053693D01*
X0093534Y0053744D01*
X0093572Y0053792D01*
X0093612Y0053838D01*
X0093656Y0053882D01*
X0093702Y0053922D01*
X0093750Y0053960D01*
X0093801Y0053994D01*
X0093853Y0054025D01*
X0093908Y0054053D01*
X0093964Y0054078D01*
X0094022Y0054098D01*
X0094081Y0054115D01*
X0094140Y0054129D01*
X0094201Y0054138D01*
X0094262Y0054144D01*
X0094323Y0054146D01*
X0120373Y0054146D01*
X0120434Y0054148D01*
X0120495Y0054154D01*
X0120556Y0054163D01*
X0120615Y0054177D01*
X0120674Y0054194D01*
X0120732Y0054214D01*
X0120788Y0054239D01*
X0120843Y0054267D01*
X0120895Y0054298D01*
X0120946Y0054332D01*
X0120994Y0054370D01*
X0121040Y0054410D01*
X0121084Y0054454D01*
X0121124Y0054500D01*
X0121162Y0054548D01*
X0121196Y0054599D01*
X0121227Y0054651D01*
X0121255Y0054706D01*
X0121280Y0054762D01*
X0121300Y0054820D01*
X0121317Y0054879D01*
X0121331Y0054938D01*
X0121340Y0054999D01*
X0121346Y0055060D01*
X0121348Y0055121D01*
X0121348Y0055347D01*
X0121346Y0055408D01*
X0121340Y0055469D01*
X0121331Y0055530D01*
X0121317Y0055589D01*
X0121300Y0055648D01*
X0121280Y0055706D01*
X0121255Y0055762D01*
X0121227Y0055817D01*
X0121196Y0055869D01*
X0121162Y0055920D01*
X0121124Y0055968D01*
X0121084Y0056014D01*
X0121040Y0056058D01*
X0120994Y0056098D01*
X0120946Y0056136D01*
X0120895Y0056170D01*
X0120843Y0056201D01*
X0120788Y0056229D01*
X0120732Y0056254D01*
X0120674Y0056274D01*
X0120615Y0056291D01*
X0120556Y0056305D01*
X0120495Y0056314D01*
X0120434Y0056320D01*
X0120373Y0056322D01*
X0094323Y0056322D01*
X0094262Y0056324D01*
X0094201Y0056330D01*
X0094140Y0056339D01*
X0094081Y0056353D01*
X0094022Y0056370D01*
X0093964Y0056390D01*
X0093908Y0056415D01*
X0093853Y0056443D01*
X0093801Y0056474D01*
X0093750Y0056508D01*
X0093702Y0056546D01*
X0093656Y0056586D01*
X0093612Y0056630D01*
X0093572Y0056676D01*
X0093534Y0056724D01*
X0093500Y0056775D01*
X0093469Y0056827D01*
X0093441Y0056882D01*
X0093416Y0056938D01*
X0093396Y0056996D01*
X0093379Y0057055D01*
X0093365Y0057114D01*
X0093356Y0057175D01*
X0093350Y0057236D01*
X0093348Y0057297D01*
X0093348Y0057523D01*
X0093350Y0057584D01*
X0093356Y0057645D01*
X0093365Y0057706D01*
X0093379Y0057765D01*
X0093396Y0057824D01*
X0093416Y0057882D01*
X0093441Y0057938D01*
X0093469Y0057993D01*
X0093500Y0058045D01*
X0093534Y0058096D01*
X0093572Y0058144D01*
X0093612Y0058190D01*
X0093656Y0058234D01*
X0093702Y0058274D01*
X0093750Y0058312D01*
X0093801Y0058346D01*
X0093853Y0058377D01*
X0093908Y0058405D01*
X0093964Y0058430D01*
X0094022Y0058450D01*
X0094081Y0058467D01*
X0094140Y0058481D01*
X0094201Y0058490D01*
X0094262Y0058496D01*
X0094323Y0058498D01*
X0120373Y0058498D01*
X0120434Y0058500D01*
X0120495Y0058506D01*
X0120556Y0058515D01*
X0120615Y0058529D01*
X0120674Y0058546D01*
X0120732Y0058566D01*
X0120788Y0058591D01*
X0120843Y0058619D01*
X0120895Y0058650D01*
X0120946Y0058684D01*
X0120994Y0058722D01*
X0121040Y0058762D01*
X0121084Y0058806D01*
X0121124Y0058852D01*
X0121162Y0058900D01*
X0121196Y0058951D01*
X0121227Y0059003D01*
X0121255Y0059058D01*
X0121280Y0059114D01*
X0121300Y0059172D01*
X0121317Y0059231D01*
X0121331Y0059290D01*
X0121340Y0059351D01*
X0121346Y0059412D01*
X0121348Y0059473D01*
X0121348Y0059699D01*
X0121346Y0059760D01*
X0121340Y0059821D01*
X0121331Y0059882D01*
X0121317Y0059941D01*
X0121300Y0060000D01*
X0121280Y0060058D01*
X0121255Y0060114D01*
X0121227Y0060169D01*
X0121196Y0060221D01*
X0121162Y0060272D01*
X0121124Y0060320D01*
X0121084Y0060366D01*
X0121040Y0060410D01*
X0120994Y0060450D01*
X0120946Y0060488D01*
X0120895Y0060522D01*
X0120843Y0060553D01*
X0120788Y0060581D01*
X0120732Y0060606D01*
X0120674Y0060626D01*
X0120615Y0060643D01*
X0120556Y0060657D01*
X0120495Y0060666D01*
X0120434Y0060672D01*
X0120373Y0060674D01*
X0094323Y0060674D01*
X0094262Y0060676D01*
X0094201Y0060682D01*
X0094140Y0060691D01*
X0094081Y0060705D01*
X0094022Y0060722D01*
X0093964Y0060742D01*
X0093908Y0060767D01*
X0093853Y0060795D01*
X0093801Y0060826D01*
X0093750Y0060860D01*
X0093702Y0060898D01*
X0093656Y0060938D01*
X0093612Y0060982D01*
X0093572Y0061028D01*
X0093534Y0061076D01*
X0093500Y0061127D01*
X0093469Y0061179D01*
X0093441Y0061234D01*
X0093416Y0061290D01*
X0093396Y0061348D01*
X0093379Y0061407D01*
X0093365Y0061466D01*
X0093356Y0061527D01*
X0093350Y0061588D01*
X0093348Y0061649D01*
X0093348Y0061875D01*
X0093350Y0061936D01*
X0093356Y0061997D01*
X0093365Y0062058D01*
X0093379Y0062117D01*
X0093396Y0062176D01*
X0093416Y0062234D01*
X0093441Y0062290D01*
X0093469Y0062345D01*
X0093500Y0062397D01*
X0093534Y0062448D01*
X0093572Y0062496D01*
X0093612Y0062542D01*
X0093656Y0062586D01*
X0093702Y0062626D01*
X0093750Y0062664D01*
X0093801Y0062698D01*
X0093853Y0062729D01*
X0093908Y0062757D01*
X0093964Y0062782D01*
X0094022Y0062802D01*
X0094081Y0062819D01*
X0094140Y0062833D01*
X0094201Y0062842D01*
X0094262Y0062848D01*
X0094323Y0062850D01*
X0120373Y0062850D01*
X0120434Y0062852D01*
X0120495Y0062858D01*
X0120556Y0062867D01*
X0120615Y0062881D01*
X0120674Y0062898D01*
X0120732Y0062918D01*
X0120788Y0062943D01*
X0120843Y0062971D01*
X0120895Y0063002D01*
X0120946Y0063036D01*
X0120994Y0063074D01*
X0121040Y0063114D01*
X0121084Y0063158D01*
X0121124Y0063204D01*
X0121162Y0063252D01*
X0121196Y0063303D01*
X0121227Y0063355D01*
X0121255Y0063410D01*
X0121280Y0063466D01*
X0121300Y0063524D01*
X0121317Y0063583D01*
X0121331Y0063642D01*
X0121340Y0063703D01*
X0121346Y0063764D01*
X0121348Y0063825D01*
X0121348Y0064051D01*
X0121346Y0064112D01*
X0121340Y0064173D01*
X0121331Y0064234D01*
X0121317Y0064293D01*
X0121300Y0064352D01*
X0121280Y0064410D01*
X0121255Y0064466D01*
X0121227Y0064521D01*
X0121196Y0064573D01*
X0121162Y0064624D01*
X0121124Y0064672D01*
X0121084Y0064718D01*
X0121040Y0064762D01*
X0120994Y0064802D01*
X0120946Y0064840D01*
X0120895Y0064874D01*
X0120843Y0064905D01*
X0120788Y0064933D01*
X0120732Y0064958D01*
X0120674Y0064978D01*
X0120615Y0064995D01*
X0120556Y0065009D01*
X0120495Y0065018D01*
X0120434Y0065024D01*
X0120373Y0065026D01*
X0094323Y0065026D01*
X0094262Y0065028D01*
X0094201Y0065034D01*
X0094140Y0065043D01*
X0094081Y0065057D01*
X0094022Y0065074D01*
X0093964Y0065094D01*
X0093908Y0065119D01*
X0093853Y0065147D01*
X0093801Y0065178D01*
X0093750Y0065212D01*
X0093702Y0065250D01*
X0093656Y0065290D01*
X0093612Y0065334D01*
X0093572Y0065380D01*
X0093534Y0065428D01*
X0093500Y0065479D01*
X0093469Y0065531D01*
X0093441Y0065586D01*
X0093416Y0065642D01*
X0093396Y0065700D01*
X0093379Y0065759D01*
X0093365Y0065818D01*
X0093356Y0065879D01*
X0093350Y0065940D01*
X0093348Y0066001D01*
X0093348Y0066227D01*
X0093350Y0066288D01*
X0093356Y0066349D01*
X0093365Y0066410D01*
X0093379Y0066469D01*
X0093396Y0066528D01*
X0093416Y0066586D01*
X0093441Y0066642D01*
X0093469Y0066697D01*
X0093500Y0066749D01*
X0093534Y0066800D01*
X0093572Y0066848D01*
X0093612Y0066894D01*
X0093656Y0066938D01*
X0093702Y0066978D01*
X0093750Y0067016D01*
X0093801Y0067050D01*
X0093853Y0067081D01*
X0093908Y0067109D01*
X0093964Y0067134D01*
X0094022Y0067154D01*
X0094081Y0067171D01*
X0094140Y0067185D01*
X0094201Y0067194D01*
X0094262Y0067200D01*
X0094323Y0067202D01*
X0120373Y0067202D01*
X0120434Y0067204D01*
X0120495Y0067210D01*
X0120556Y0067219D01*
X0120615Y0067233D01*
X0120674Y0067250D01*
X0120732Y0067270D01*
X0120788Y0067295D01*
X0120843Y0067323D01*
X0120895Y0067354D01*
X0120946Y0067388D01*
X0120994Y0067426D01*
X0121040Y0067466D01*
X0121084Y0067510D01*
X0121124Y0067556D01*
X0121162Y0067604D01*
X0121196Y0067655D01*
X0121227Y0067707D01*
X0121255Y0067762D01*
X0121280Y0067818D01*
X0121300Y0067876D01*
X0121317Y0067935D01*
X0121331Y0067994D01*
X0121340Y0068055D01*
X0121346Y0068116D01*
X0121348Y0068177D01*
X0121348Y0068403D01*
X0121346Y0068464D01*
X0121340Y0068525D01*
X0121331Y0068586D01*
X0121317Y0068645D01*
X0121300Y0068704D01*
X0121280Y0068762D01*
X0121255Y0068818D01*
X0121227Y0068873D01*
X0121196Y0068925D01*
X0121162Y0068976D01*
X0121124Y0069024D01*
X0121084Y0069070D01*
X0121040Y0069114D01*
X0120994Y0069154D01*
X0120946Y0069192D01*
X0120895Y0069226D01*
X0120843Y0069257D01*
X0120788Y0069285D01*
X0120732Y0069310D01*
X0120674Y0069330D01*
X0120615Y0069347D01*
X0120556Y0069361D01*
X0120495Y0069370D01*
X0120434Y0069376D01*
X0120373Y0069378D01*
X0094323Y0069378D01*
X0094262Y0069380D01*
X0094201Y0069386D01*
X0094140Y0069395D01*
X0094081Y0069409D01*
X0094022Y0069426D01*
X0093964Y0069446D01*
X0093908Y0069471D01*
X0093853Y0069499D01*
X0093801Y0069530D01*
X0093750Y0069564D01*
X0093702Y0069602D01*
X0093656Y0069642D01*
X0093612Y0069686D01*
X0093572Y0069732D01*
X0093534Y0069780D01*
X0093500Y0069831D01*
X0093469Y0069883D01*
X0093441Y0069938D01*
X0093416Y0069994D01*
X0093396Y0070052D01*
X0093379Y0070111D01*
X0093365Y0070170D01*
X0093356Y0070231D01*
X0093350Y0070292D01*
X0093348Y0070353D01*
X0093348Y0070579D01*
X0093350Y0070640D01*
X0093356Y0070701D01*
X0093365Y0070762D01*
X0093379Y0070821D01*
X0093396Y0070880D01*
X0093416Y0070938D01*
X0093441Y0070994D01*
X0093469Y0071049D01*
X0093500Y0071101D01*
X0093534Y0071152D01*
X0093572Y0071200D01*
X0093612Y0071246D01*
X0093656Y0071290D01*
X0093702Y0071330D01*
X0093750Y0071368D01*
X0093801Y0071402D01*
X0093853Y0071433D01*
X0093908Y0071461D01*
X0093964Y0071486D01*
X0094022Y0071506D01*
X0094081Y0071523D01*
X0094140Y0071537D01*
X0094201Y0071546D01*
X0094262Y0071552D01*
X0094323Y0071554D01*
X0106373Y0071554D01*
X0106434Y0071556D01*
X0106495Y0071562D01*
X0106556Y0071571D01*
X0106615Y0071585D01*
X0106674Y0071602D01*
X0106732Y0071622D01*
X0106788Y0071647D01*
X0106843Y0071675D01*
X0106895Y0071706D01*
X0106946Y0071740D01*
X0106994Y0071778D01*
X0107040Y0071818D01*
X0107084Y0071862D01*
X0107124Y0071908D01*
X0107162Y0071956D01*
X0107196Y0072007D01*
X0107227Y0072059D01*
X0107255Y0072114D01*
X0107280Y0072170D01*
X0107300Y0072228D01*
X0107317Y0072287D01*
X0107331Y0072346D01*
X0107340Y0072407D01*
X0107346Y0072468D01*
X0107348Y0072529D01*
X0107348Y0100529D01*
X0107350Y0100590D01*
X0107356Y0100651D01*
X0107365Y0100712D01*
X0107379Y0100771D01*
X0107396Y0100830D01*
X0107416Y0100888D01*
X0107441Y0100944D01*
X0107469Y0100999D01*
X0107500Y0101051D01*
X0107534Y0101102D01*
X0107572Y0101150D01*
X0107612Y0101196D01*
X0107656Y0101240D01*
X0107702Y0101280D01*
X0107750Y0101318D01*
X0107801Y0101352D01*
X0107853Y0101383D01*
X0107908Y0101411D01*
X0107964Y0101436D01*
X0108022Y0101456D01*
X0108081Y0101473D01*
X0108140Y0101487D01*
X0108201Y0101496D01*
X0108262Y0101502D01*
X0108323Y0101504D01*
X0119373Y0101504D01*
X0119434Y0101506D01*
X0119495Y0101512D01*
X0119556Y0101521D01*
X0119615Y0101535D01*
X0119674Y0101552D01*
X0119732Y0101572D01*
X0119788Y0101597D01*
X0119843Y0101625D01*
X0119895Y0101656D01*
X0119946Y0101690D01*
X0119994Y0101728D01*
X0120040Y0101768D01*
X0120084Y0101812D01*
X0120124Y0101858D01*
X0120162Y0101906D01*
X0120196Y0101957D01*
X0120227Y0102009D01*
X0120255Y0102064D01*
X0120280Y0102120D01*
X0120300Y0102178D01*
X0120317Y0102237D01*
X0120331Y0102296D01*
X0120340Y0102357D01*
X0120346Y0102418D01*
X0120348Y0102479D01*
X0120348Y0102589D01*
X0120346Y0102650D01*
X0120340Y0102711D01*
X0120331Y0102772D01*
X0120317Y0102831D01*
X0120300Y0102890D01*
X0120280Y0102948D01*
X0120255Y0103004D01*
X0120227Y0103059D01*
X0120196Y0103111D01*
X0120162Y0103162D01*
X0120124Y0103210D01*
X0120084Y0103256D01*
X0120040Y0103300D01*
X0119994Y0103340D01*
X0119946Y0103378D01*
X0119895Y0103412D01*
X0119843Y0103443D01*
X0119788Y0103471D01*
X0119732Y0103496D01*
X0119674Y0103516D01*
X0119615Y0103533D01*
X0119556Y0103547D01*
X0119495Y0103556D01*
X0119434Y0103562D01*
X0119373Y0103564D01*
X0095323Y0103564D01*
X0095262Y0103566D01*
X0095201Y0103572D01*
X0095140Y0103581D01*
X0095081Y0103595D01*
X0095022Y0103612D01*
X0094964Y0103632D01*
X0094908Y0103657D01*
X0094853Y0103685D01*
X0094801Y0103716D01*
X0094750Y0103750D01*
X0094702Y0103788D01*
X0094656Y0103828D01*
X0094612Y0103872D01*
X0094572Y0103918D01*
X0094534Y0103966D01*
X0094500Y0104017D01*
X0094469Y0104069D01*
X0094441Y0104124D01*
X0094416Y0104180D01*
X0094396Y0104238D01*
X0094379Y0104297D01*
X0094365Y0104356D01*
X0094356Y0104417D01*
X0094350Y0104478D01*
X0094348Y0104539D01*
X0094348Y0104650D01*
X0094350Y0104711D01*
X0094356Y0104772D01*
X0094365Y0104833D01*
X0094379Y0104892D01*
X0094396Y0104951D01*
X0094416Y0105009D01*
X0094441Y0105065D01*
X0094469Y0105120D01*
X0094500Y0105172D01*
X0094534Y0105223D01*
X0094572Y0105271D01*
X0094612Y0105317D01*
X0094656Y0105361D01*
X0094702Y0105401D01*
X0094750Y0105439D01*
X0094801Y0105473D01*
X0094853Y0105504D01*
X0094908Y0105532D01*
X0094964Y0105557D01*
X0095022Y0105577D01*
X0095081Y0105594D01*
X0095140Y0105608D01*
X0095201Y0105617D01*
X0095262Y0105623D01*
X0095323Y0105625D01*
X0119373Y0105625D01*
X0119434Y0105627D01*
X0119495Y0105633D01*
X0119556Y0105642D01*
X0119615Y0105656D01*
X0119674Y0105673D01*
X0119732Y0105693D01*
X0119788Y0105718D01*
X0119843Y0105746D01*
X0119895Y0105777D01*
X0119946Y0105811D01*
X0119994Y0105849D01*
X0120040Y0105889D01*
X0120084Y0105933D01*
X0120124Y0105979D01*
X0120162Y0106027D01*
X0120196Y0106078D01*
X0120227Y0106130D01*
X0120255Y0106185D01*
X0120280Y0106241D01*
X0120300Y0106299D01*
X0120317Y0106358D01*
X0120331Y0106417D01*
X0120340Y0106478D01*
X0120346Y0106539D01*
X0120348Y0106600D01*
X0120348Y0106710D01*
X0120346Y0106771D01*
X0120340Y0106832D01*
X0120331Y0106893D01*
X0120317Y0106952D01*
X0120300Y0107011D01*
X0120280Y0107069D01*
X0120255Y0107125D01*
X0120227Y0107180D01*
X0120196Y0107232D01*
X0120162Y0107283D01*
X0120124Y0107331D01*
X0120084Y0107377D01*
X0120040Y0107421D01*
X0119994Y0107461D01*
X0119946Y0107499D01*
X0119895Y0107533D01*
X0119843Y0107564D01*
X0119788Y0107592D01*
X0119732Y0107617D01*
X0119674Y0107637D01*
X0119615Y0107654D01*
X0119556Y0107668D01*
X0119495Y0107677D01*
X0119434Y0107683D01*
X0119373Y0107685D01*
X0095323Y0107685D01*
X0095262Y0107687D01*
X0095201Y0107693D01*
X0095140Y0107702D01*
X0095081Y0107716D01*
X0095022Y0107733D01*
X0094964Y0107753D01*
X0094908Y0107778D01*
X0094853Y0107806D01*
X0094801Y0107837D01*
X0094750Y0107871D01*
X0094702Y0107909D01*
X0094656Y0107949D01*
X0094612Y0107993D01*
X0094572Y0108039D01*
X0094534Y0108087D01*
X0094500Y0108138D01*
X0094469Y0108190D01*
X0094441Y0108245D01*
X0094416Y0108301D01*
X0094396Y0108359D01*
X0094379Y0108418D01*
X0094365Y0108477D01*
X0094356Y0108538D01*
X0094350Y0108599D01*
X0094348Y0108660D01*
X0094348Y0108770D01*
X0094350Y0108831D01*
X0094356Y0108892D01*
X0094365Y0108953D01*
X0094379Y0109012D01*
X0094396Y0109071D01*
X0094416Y0109129D01*
X0094441Y0109185D01*
X0094469Y0109240D01*
X0094500Y0109292D01*
X0094534Y0109343D01*
X0094572Y0109391D01*
X0094612Y0109437D01*
X0094656Y0109481D01*
X0094702Y0109521D01*
X0094750Y0109559D01*
X0094801Y0109593D01*
X0094853Y0109624D01*
X0094908Y0109652D01*
X0094964Y0109677D01*
X0095022Y0109697D01*
X0095081Y0109714D01*
X0095140Y0109728D01*
X0095201Y0109737D01*
X0095262Y0109743D01*
X0095323Y0109745D01*
X0119373Y0109745D01*
X0119434Y0109747D01*
X0119495Y0109753D01*
X0119556Y0109762D01*
X0119615Y0109776D01*
X0119674Y0109793D01*
X0119732Y0109813D01*
X0119788Y0109838D01*
X0119843Y0109866D01*
X0119895Y0109897D01*
X0119946Y0109931D01*
X0119994Y0109969D01*
X0120040Y0110009D01*
X0120084Y0110053D01*
X0120124Y0110099D01*
X0120162Y0110147D01*
X0120196Y0110198D01*
X0120227Y0110250D01*
X0120255Y0110305D01*
X0120280Y0110361D01*
X0120300Y0110419D01*
X0120317Y0110478D01*
X0120331Y0110537D01*
X0120340Y0110598D01*
X0120346Y0110659D01*
X0120348Y0110720D01*
X0120348Y0110831D01*
X0120346Y0110892D01*
X0120340Y0110953D01*
X0120331Y0111014D01*
X0120317Y0111073D01*
X0120300Y0111132D01*
X0120280Y0111190D01*
X0120255Y0111246D01*
X0120227Y0111301D01*
X0120196Y0111353D01*
X0120162Y0111404D01*
X0120124Y0111452D01*
X0120084Y0111498D01*
X0120040Y0111542D01*
X0119994Y0111582D01*
X0119946Y0111620D01*
X0119895Y0111654D01*
X0119843Y0111685D01*
X0119788Y0111713D01*
X0119732Y0111738D01*
X0119674Y0111758D01*
X0119615Y0111775D01*
X0119556Y0111789D01*
X0119495Y0111798D01*
X0119434Y0111804D01*
X0119373Y0111806D01*
X0095323Y0111806D01*
X0095262Y0111808D01*
X0095201Y0111814D01*
X0095140Y0111823D01*
X0095081Y0111837D01*
X0095022Y0111854D01*
X0094964Y0111874D01*
X0094908Y0111899D01*
X0094853Y0111927D01*
X0094801Y0111958D01*
X0094750Y0111992D01*
X0094702Y0112030D01*
X0094656Y0112070D01*
X0094612Y0112114D01*
X0094572Y0112160D01*
X0094534Y0112208D01*
X0094500Y0112259D01*
X0094469Y0112311D01*
X0094441Y0112366D01*
X0094416Y0112422D01*
X0094396Y0112480D01*
X0094379Y0112539D01*
X0094365Y0112598D01*
X0094356Y0112659D01*
X0094350Y0112720D01*
X0094348Y0112781D01*
X0094348Y0112891D01*
X0094350Y0112952D01*
X0094356Y0113013D01*
X0094365Y0113074D01*
X0094379Y0113133D01*
X0094396Y0113192D01*
X0094416Y0113250D01*
X0094441Y0113306D01*
X0094469Y0113361D01*
X0094500Y0113413D01*
X0094534Y0113464D01*
X0094572Y0113512D01*
X0094612Y0113558D01*
X0094656Y0113602D01*
X0094702Y0113642D01*
X0094750Y0113680D01*
X0094801Y0113714D01*
X0094853Y0113745D01*
X0094908Y0113773D01*
X0094964Y0113798D01*
X0095022Y0113818D01*
X0095081Y0113835D01*
X0095140Y0113849D01*
X0095201Y0113858D01*
X0095262Y0113864D01*
X0095323Y0113866D01*
X0119373Y0113866D01*
X0119434Y0113868D01*
X0119495Y0113874D01*
X0119556Y0113883D01*
X0119615Y0113897D01*
X0119674Y0113914D01*
X0119732Y0113934D01*
X0119788Y0113959D01*
X0119843Y0113987D01*
X0119895Y0114018D01*
X0119946Y0114052D01*
X0119994Y0114090D01*
X0120040Y0114130D01*
X0120084Y0114174D01*
X0120124Y0114220D01*
X0120162Y0114268D01*
X0120196Y0114319D01*
X0120227Y0114371D01*
X0120255Y0114426D01*
X0120280Y0114482D01*
X0120300Y0114540D01*
X0120317Y0114599D01*
X0120331Y0114658D01*
X0120340Y0114719D01*
X0120346Y0114780D01*
X0120348Y0114841D01*
X0120348Y0114951D01*
X0120346Y0115012D01*
X0120340Y0115073D01*
X0120331Y0115134D01*
X0120317Y0115193D01*
X0120300Y0115252D01*
X0120280Y0115310D01*
X0120255Y0115366D01*
X0120227Y0115421D01*
X0120196Y0115473D01*
X0120162Y0115524D01*
X0120124Y0115572D01*
X0120084Y0115618D01*
X0120040Y0115662D01*
X0119994Y0115702D01*
X0119946Y0115740D01*
X0119895Y0115774D01*
X0119843Y0115805D01*
X0119788Y0115833D01*
X0119732Y0115858D01*
X0119674Y0115878D01*
X0119615Y0115895D01*
X0119556Y0115909D01*
X0119495Y0115918D01*
X0119434Y0115924D01*
X0119373Y0115926D01*
X0095323Y0115926D01*
X0095262Y0115928D01*
X0095201Y0115934D01*
X0095140Y0115943D01*
X0095081Y0115957D01*
X0095022Y0115974D01*
X0094964Y0115994D01*
X0094908Y0116019D01*
X0094853Y0116047D01*
X0094801Y0116078D01*
X0094750Y0116112D01*
X0094702Y0116150D01*
X0094656Y0116190D01*
X0094612Y0116234D01*
X0094572Y0116280D01*
X0094534Y0116328D01*
X0094500Y0116379D01*
X0094469Y0116431D01*
X0094441Y0116486D01*
X0094416Y0116542D01*
X0094396Y0116600D01*
X0094379Y0116659D01*
X0094365Y0116718D01*
X0094356Y0116779D01*
X0094350Y0116840D01*
X0094348Y0116901D01*
X0094348Y0117012D01*
X0094350Y0117073D01*
X0094356Y0117134D01*
X0094365Y0117195D01*
X0094379Y0117254D01*
X0094396Y0117313D01*
X0094416Y0117371D01*
X0094441Y0117427D01*
X0094469Y0117482D01*
X0094500Y0117534D01*
X0094534Y0117585D01*
X0094572Y0117633D01*
X0094612Y0117679D01*
X0094656Y0117723D01*
X0094702Y0117763D01*
X0094750Y0117801D01*
X0094801Y0117835D01*
X0094853Y0117866D01*
X0094908Y0117894D01*
X0094964Y0117919D01*
X0095022Y0117939D01*
X0095081Y0117956D01*
X0095140Y0117970D01*
X0095201Y0117979D01*
X0095262Y0117985D01*
X0095323Y0117987D01*
X0119373Y0117987D01*
X0119434Y0117989D01*
X0119495Y0117995D01*
X0119556Y0118004D01*
X0119615Y0118018D01*
X0119674Y0118035D01*
X0119732Y0118055D01*
X0119788Y0118080D01*
X0119843Y0118108D01*
X0119895Y0118139D01*
X0119946Y0118173D01*
X0119994Y0118211D01*
X0120040Y0118251D01*
X0120084Y0118295D01*
X0120124Y0118341D01*
X0120162Y0118389D01*
X0120196Y0118440D01*
X0120227Y0118492D01*
X0120255Y0118547D01*
X0120280Y0118603D01*
X0120300Y0118661D01*
X0120317Y0118720D01*
X0120331Y0118779D01*
X0120340Y0118840D01*
X0120346Y0118901D01*
X0120348Y0118962D01*
X0120348Y0119072D01*
X0120346Y0119133D01*
X0120340Y0119194D01*
X0120331Y0119255D01*
X0120317Y0119314D01*
X0120300Y0119373D01*
X0120280Y0119431D01*
X0120255Y0119487D01*
X0120227Y0119542D01*
X0120196Y0119594D01*
X0120162Y0119645D01*
X0120124Y0119693D01*
X0120084Y0119739D01*
X0120040Y0119783D01*
X0119994Y0119823D01*
X0119946Y0119861D01*
X0119895Y0119895D01*
X0119843Y0119926D01*
X0119788Y0119954D01*
X0119732Y0119979D01*
X0119674Y0119999D01*
X0119615Y0120016D01*
X0119556Y0120030D01*
X0119495Y0120039D01*
X0119434Y0120045D01*
X0119373Y0120047D01*
X0095323Y0120047D01*
X0095262Y0120049D01*
X0095201Y0120055D01*
X0095140Y0120064D01*
X0095081Y0120078D01*
X0095022Y0120095D01*
X0094964Y0120115D01*
X0094908Y0120140D01*
X0094853Y0120168D01*
X0094801Y0120199D01*
X0094750Y0120233D01*
X0094702Y0120271D01*
X0094656Y0120311D01*
X0094612Y0120355D01*
X0094572Y0120401D01*
X0094534Y0120449D01*
X0094500Y0120500D01*
X0094469Y0120552D01*
X0094441Y0120607D01*
X0094416Y0120663D01*
X0094396Y0120721D01*
X0094379Y0120780D01*
X0094365Y0120839D01*
X0094356Y0120900D01*
X0094350Y0120961D01*
X0094348Y0121022D01*
X0094348Y0121132D01*
X0094350Y0121193D01*
X0094356Y0121254D01*
X0094365Y0121315D01*
X0094379Y0121374D01*
X0094396Y0121433D01*
X0094416Y0121491D01*
X0094441Y0121547D01*
X0094469Y0121602D01*
X0094500Y0121654D01*
X0094534Y0121705D01*
X0094572Y0121753D01*
X0094612Y0121799D01*
X0094656Y0121843D01*
X0094702Y0121883D01*
X0094750Y0121921D01*
X0094801Y0121955D01*
X0094853Y0121986D01*
X0094908Y0122014D01*
X0094964Y0122039D01*
X0095022Y0122059D01*
X0095081Y0122076D01*
X0095140Y0122090D01*
X0095201Y0122099D01*
X0095262Y0122105D01*
X0095323Y0122107D01*
X0119373Y0122107D01*
X0119434Y0122109D01*
X0119495Y0122115D01*
X0119556Y0122124D01*
X0119615Y0122138D01*
X0119674Y0122155D01*
X0119732Y0122175D01*
X0119788Y0122200D01*
X0119843Y0122228D01*
X0119895Y0122259D01*
X0119946Y0122293D01*
X0119994Y0122331D01*
X0120040Y0122371D01*
X0120084Y0122415D01*
X0120124Y0122461D01*
X0120162Y0122509D01*
X0120196Y0122560D01*
X0120227Y0122612D01*
X0120255Y0122667D01*
X0120280Y0122723D01*
X0120300Y0122781D01*
X0120317Y0122840D01*
X0120331Y0122899D01*
X0120340Y0122960D01*
X0120346Y0123021D01*
X0120348Y0123082D01*
X0120348Y0123193D01*
X0120346Y0123254D01*
X0120340Y0123315D01*
X0120331Y0123376D01*
X0120317Y0123435D01*
X0120300Y0123494D01*
X0120280Y0123552D01*
X0120255Y0123608D01*
X0120227Y0123663D01*
X0120196Y0123715D01*
X0120162Y0123766D01*
X0120124Y0123814D01*
X0120084Y0123860D01*
X0120040Y0123904D01*
X0119994Y0123944D01*
X0119946Y0123982D01*
X0119895Y0124016D01*
X0119843Y0124047D01*
X0119788Y0124075D01*
X0119732Y0124100D01*
X0119674Y0124120D01*
X0119615Y0124137D01*
X0119556Y0124151D01*
X0119495Y0124160D01*
X0119434Y0124166D01*
X0119373Y0124168D01*
X0095323Y0124168D01*
X0095262Y0124170D01*
X0095201Y0124176D01*
X0095140Y0124185D01*
X0095081Y0124199D01*
X0095022Y0124216D01*
X0094964Y0124236D01*
X0094908Y0124261D01*
X0094853Y0124289D01*
X0094801Y0124320D01*
X0094750Y0124354D01*
X0094702Y0124392D01*
X0094656Y0124432D01*
X0094612Y0124476D01*
X0094572Y0124522D01*
X0094534Y0124570D01*
X0094500Y0124621D01*
X0094469Y0124673D01*
X0094441Y0124728D01*
X0094416Y0124784D01*
X0094396Y0124842D01*
X0094379Y0124901D01*
X0094365Y0124960D01*
X0094356Y0125021D01*
X0094350Y0125082D01*
X0094348Y0125143D01*
X0094348Y0125253D01*
X0094350Y0125314D01*
X0094356Y0125375D01*
X0094365Y0125436D01*
X0094379Y0125495D01*
X0094396Y0125554D01*
X0094416Y0125612D01*
X0094441Y0125668D01*
X0094469Y0125723D01*
X0094500Y0125775D01*
X0094534Y0125826D01*
X0094572Y0125874D01*
X0094612Y0125920D01*
X0094656Y0125964D01*
X0094702Y0126004D01*
X0094750Y0126042D01*
X0094801Y0126076D01*
X0094853Y0126107D01*
X0094908Y0126135D01*
X0094964Y0126160D01*
X0095022Y0126180D01*
X0095081Y0126197D01*
X0095140Y0126211D01*
X0095201Y0126220D01*
X0095262Y0126226D01*
X0095323Y0126228D01*
X0119373Y0126228D01*
X0119434Y0126230D01*
X0119495Y0126236D01*
X0119556Y0126245D01*
X0119615Y0126259D01*
X0119674Y0126276D01*
X0119732Y0126296D01*
X0119788Y0126321D01*
X0119843Y0126349D01*
X0119895Y0126380D01*
X0119946Y0126414D01*
X0119994Y0126452D01*
X0120040Y0126492D01*
X0120084Y0126536D01*
X0120124Y0126582D01*
X0120162Y0126630D01*
X0120196Y0126681D01*
X0120227Y0126733D01*
X0120255Y0126788D01*
X0120280Y0126844D01*
X0120300Y0126902D01*
X0120317Y0126961D01*
X0120331Y0127020D01*
X0120340Y0127081D01*
X0120346Y0127142D01*
X0120348Y0127203D01*
X0120348Y0127313D01*
X0120346Y0127374D01*
X0120340Y0127435D01*
X0120331Y0127496D01*
X0120317Y0127555D01*
X0120300Y0127614D01*
X0120280Y0127672D01*
X0120255Y0127728D01*
X0120227Y0127783D01*
X0120196Y0127835D01*
X0120162Y0127886D01*
X0120124Y0127934D01*
X0120084Y0127980D01*
X0120040Y0128024D01*
X0119994Y0128064D01*
X0119946Y0128102D01*
X0119895Y0128136D01*
X0119843Y0128167D01*
X0119788Y0128195D01*
X0119732Y0128220D01*
X0119674Y0128240D01*
X0119615Y0128257D01*
X0119556Y0128271D01*
X0119495Y0128280D01*
X0119434Y0128286D01*
X0119373Y0128288D01*
X0095323Y0128288D01*
X0095262Y0128290D01*
X0095201Y0128296D01*
X0095140Y0128305D01*
X0095081Y0128319D01*
X0095022Y0128336D01*
X0094964Y0128356D01*
X0094908Y0128381D01*
X0094853Y0128409D01*
X0094801Y0128440D01*
X0094750Y0128474D01*
X0094702Y0128512D01*
X0094656Y0128552D01*
X0094612Y0128596D01*
X0094572Y0128642D01*
X0094534Y0128690D01*
X0094500Y0128741D01*
X0094469Y0128793D01*
X0094441Y0128848D01*
X0094416Y0128904D01*
X0094396Y0128962D01*
X0094379Y0129021D01*
X0094365Y0129080D01*
X0094356Y0129141D01*
X0094350Y0129202D01*
X0094348Y0129263D01*
X0094348Y0129374D01*
X0094350Y0129435D01*
X0094356Y0129496D01*
X0094365Y0129557D01*
X0094379Y0129616D01*
X0094396Y0129675D01*
X0094416Y0129733D01*
X0094441Y0129789D01*
X0094469Y0129844D01*
X0094500Y0129896D01*
X0094534Y0129947D01*
X0094572Y0129995D01*
X0094612Y0130041D01*
X0094656Y0130085D01*
X0094702Y0130125D01*
X0094750Y0130163D01*
X0094801Y0130197D01*
X0094853Y0130228D01*
X0094908Y0130256D01*
X0094964Y0130281D01*
X0095022Y0130301D01*
X0095081Y0130318D01*
X0095140Y0130332D01*
X0095201Y0130341D01*
X0095262Y0130347D01*
X0095323Y0130349D01*
X0119373Y0130349D01*
X0119434Y0130351D01*
X0119495Y0130357D01*
X0119556Y0130366D01*
X0119615Y0130380D01*
X0119674Y0130397D01*
X0119732Y0130417D01*
X0119788Y0130442D01*
X0119843Y0130470D01*
X0119895Y0130501D01*
X0119946Y0130535D01*
X0119994Y0130573D01*
X0120040Y0130613D01*
X0120084Y0130657D01*
X0120124Y0130703D01*
X0120162Y0130751D01*
X0120196Y0130802D01*
X0120227Y0130854D01*
X0120255Y0130909D01*
X0120280Y0130965D01*
X0120300Y0131023D01*
X0120317Y0131082D01*
X0120331Y0131141D01*
X0120340Y0131202D01*
X0120346Y0131263D01*
X0120348Y0131324D01*
X0120348Y0131434D01*
X0120346Y0131495D01*
X0120340Y0131556D01*
X0120331Y0131617D01*
X0120317Y0131676D01*
X0120300Y0131735D01*
X0120280Y0131793D01*
X0120255Y0131849D01*
X0120227Y0131904D01*
X0120196Y0131956D01*
X0120162Y0132007D01*
X0120124Y0132055D01*
X0120084Y0132101D01*
X0120040Y0132145D01*
X0119994Y0132185D01*
X0119946Y0132223D01*
X0119895Y0132257D01*
X0119843Y0132288D01*
X0119788Y0132316D01*
X0119732Y0132341D01*
X0119674Y0132361D01*
X0119615Y0132378D01*
X0119556Y0132392D01*
X0119495Y0132401D01*
X0119434Y0132407D01*
X0119373Y0132409D01*
X0095323Y0132409D01*
X0095262Y0132411D01*
X0095201Y0132417D01*
X0095140Y0132426D01*
X0095081Y0132440D01*
X0095022Y0132457D01*
X0094964Y0132477D01*
X0094908Y0132502D01*
X0094853Y0132530D01*
X0094801Y0132561D01*
X0094750Y0132595D01*
X0094702Y0132633D01*
X0094656Y0132673D01*
X0094612Y0132717D01*
X0094572Y0132763D01*
X0094534Y0132811D01*
X0094500Y0132862D01*
X0094469Y0132914D01*
X0094441Y0132969D01*
X0094416Y0133025D01*
X0094396Y0133083D01*
X0094379Y0133142D01*
X0094365Y0133201D01*
X0094356Y0133262D01*
X0094350Y0133323D01*
X0094348Y0133384D01*
X0094348Y0133494D01*
X0094350Y0133555D01*
X0094356Y0133616D01*
X0094365Y0133677D01*
X0094379Y0133736D01*
X0094396Y0133795D01*
X0094416Y0133853D01*
X0094441Y0133909D01*
X0094469Y0133964D01*
X0094500Y0134016D01*
X0094534Y0134067D01*
X0094572Y0134115D01*
X0094612Y0134161D01*
X0094656Y0134205D01*
X0094702Y0134245D01*
X0094750Y0134283D01*
X0094801Y0134317D01*
X0094853Y0134348D01*
X0094908Y0134376D01*
X0094964Y0134401D01*
X0095022Y0134421D01*
X0095081Y0134438D01*
X0095140Y0134452D01*
X0095201Y0134461D01*
X0095262Y0134467D01*
X0095323Y0134469D01*
X0119373Y0134469D01*
X0119434Y0134471D01*
X0119495Y0134477D01*
X0119556Y0134486D01*
X0119615Y0134500D01*
X0119674Y0134517D01*
X0119732Y0134537D01*
X0119788Y0134562D01*
X0119843Y0134590D01*
X0119895Y0134621D01*
X0119946Y0134655D01*
X0119994Y0134693D01*
X0120040Y0134733D01*
X0120084Y0134777D01*
X0120124Y0134823D01*
X0120162Y0134871D01*
X0120196Y0134922D01*
X0120227Y0134974D01*
X0120255Y0135029D01*
X0120280Y0135085D01*
X0120300Y0135143D01*
X0120317Y0135202D01*
X0120331Y0135261D01*
X0120340Y0135322D01*
X0120346Y0135383D01*
X0120348Y0135444D01*
X0120348Y0135554D01*
X0120346Y0135615D01*
X0120340Y0135676D01*
X0120331Y0135737D01*
X0120317Y0135796D01*
X0120300Y0135855D01*
X0120280Y0135913D01*
X0120255Y0135969D01*
X0120227Y0136024D01*
X0120196Y0136076D01*
X0120162Y0136127D01*
X0120124Y0136175D01*
X0120084Y0136221D01*
X0120040Y0136265D01*
X0119994Y0136305D01*
X0119946Y0136343D01*
X0119895Y0136377D01*
X0119843Y0136408D01*
X0119788Y0136436D01*
X0119732Y0136461D01*
X0119674Y0136481D01*
X0119615Y0136498D01*
X0119556Y0136512D01*
X0119495Y0136521D01*
X0119434Y0136527D01*
X0119373Y0136529D01*
X0095323Y0136529D01*
X0095262Y0136531D01*
X0095201Y0136537D01*
X0095140Y0136546D01*
X0095081Y0136560D01*
X0095022Y0136577D01*
X0094964Y0136597D01*
X0094908Y0136622D01*
X0094853Y0136650D01*
X0094801Y0136681D01*
X0094750Y0136715D01*
X0094702Y0136753D01*
X0094656Y0136793D01*
X0094612Y0136837D01*
X0094572Y0136883D01*
X0094534Y0136931D01*
X0094500Y0136982D01*
X0094469Y0137034D01*
X0094441Y0137089D01*
X0094416Y0137145D01*
X0094396Y0137203D01*
X0094379Y0137262D01*
X0094365Y0137321D01*
X0094356Y0137382D01*
X0094350Y0137443D01*
X0094348Y0137504D01*
X0094348Y0137615D01*
X0094350Y0137676D01*
X0094356Y0137737D01*
X0094365Y0137798D01*
X0094379Y0137857D01*
X0094396Y0137916D01*
X0094416Y0137974D01*
X0094441Y0138030D01*
X0094469Y0138085D01*
X0094500Y0138137D01*
X0094534Y0138188D01*
X0094572Y0138236D01*
X0094612Y0138282D01*
X0094656Y0138326D01*
X0094702Y0138366D01*
X0094750Y0138404D01*
X0094801Y0138438D01*
X0094853Y0138469D01*
X0094908Y0138497D01*
X0094964Y0138522D01*
X0095022Y0138542D01*
X0095081Y0138559D01*
X0095140Y0138573D01*
X0095201Y0138582D01*
X0095262Y0138588D01*
X0095323Y0138590D01*
X0119373Y0138590D01*
X0119434Y0138592D01*
X0119495Y0138598D01*
X0119556Y0138607D01*
X0119615Y0138621D01*
X0119674Y0138638D01*
X0119732Y0138658D01*
X0119788Y0138683D01*
X0119843Y0138711D01*
X0119895Y0138742D01*
X0119946Y0138776D01*
X0119994Y0138814D01*
X0120040Y0138854D01*
X0120084Y0138898D01*
X0120124Y0138944D01*
X0120162Y0138992D01*
X0120196Y0139043D01*
X0120227Y0139095D01*
X0120255Y0139150D01*
X0120280Y0139206D01*
X0120300Y0139264D01*
X0120317Y0139323D01*
X0120331Y0139382D01*
X0120340Y0139443D01*
X0120346Y0139504D01*
X0120348Y0139565D01*
X0120348Y0139675D01*
X0120346Y0139736D01*
X0120340Y0139797D01*
X0120331Y0139858D01*
X0120317Y0139917D01*
X0120300Y0139976D01*
X0120280Y0140034D01*
X0120255Y0140090D01*
X0120227Y0140145D01*
X0120196Y0140197D01*
X0120162Y0140248D01*
X0120124Y0140296D01*
X0120084Y0140342D01*
X0120040Y0140386D01*
X0119994Y0140426D01*
X0119946Y0140464D01*
X0119895Y0140498D01*
X0119843Y0140529D01*
X0119788Y0140557D01*
X0119732Y0140582D01*
X0119674Y0140602D01*
X0119615Y0140619D01*
X0119556Y0140633D01*
X0119495Y0140642D01*
X0119434Y0140648D01*
X0119373Y0140650D01*
X0095323Y0140650D01*
X0095262Y0140652D01*
X0095201Y0140658D01*
X0095140Y0140667D01*
X0095081Y0140681D01*
X0095022Y0140698D01*
X0094964Y0140718D01*
X0094908Y0140743D01*
X0094853Y0140771D01*
X0094801Y0140802D01*
X0094750Y0140836D01*
X0094702Y0140874D01*
X0094656Y0140914D01*
X0094612Y0140958D01*
X0094572Y0141004D01*
X0094534Y0141052D01*
X0094500Y0141103D01*
X0094469Y0141155D01*
X0094441Y0141210D01*
X0094416Y0141266D01*
X0094396Y0141324D01*
X0094379Y0141383D01*
X0094365Y0141442D01*
X0094356Y0141503D01*
X0094350Y0141564D01*
X0094348Y0141625D01*
X0094348Y0141735D01*
X0094350Y0141796D01*
X0094356Y0141857D01*
X0094365Y0141918D01*
X0094379Y0141977D01*
X0094396Y0142036D01*
X0094416Y0142094D01*
X0094441Y0142150D01*
X0094469Y0142205D01*
X0094500Y0142257D01*
X0094534Y0142308D01*
X0094572Y0142356D01*
X0094612Y0142402D01*
X0094656Y0142446D01*
X0094702Y0142486D01*
X0094750Y0142524D01*
X0094801Y0142558D01*
X0094853Y0142589D01*
X0094908Y0142617D01*
X0094964Y0142642D01*
X0095022Y0142662D01*
X0095081Y0142679D01*
X0095140Y0142693D01*
X0095201Y0142702D01*
X0095262Y0142708D01*
X0095323Y0142710D01*
X0119373Y0142710D01*
X0119434Y0142712D01*
X0119495Y0142718D01*
X0119556Y0142727D01*
X0119615Y0142741D01*
X0119674Y0142758D01*
X0119732Y0142778D01*
X0119788Y0142803D01*
X0119843Y0142831D01*
X0119895Y0142862D01*
X0119946Y0142896D01*
X0119994Y0142934D01*
X0120040Y0142974D01*
X0120084Y0143018D01*
X0120124Y0143064D01*
X0120162Y0143112D01*
X0120196Y0143163D01*
X0120227Y0143215D01*
X0120255Y0143270D01*
X0120280Y0143326D01*
X0120300Y0143384D01*
X0120317Y0143443D01*
X0120331Y0143502D01*
X0120340Y0143563D01*
X0120346Y0143624D01*
X0120348Y0143685D01*
X0120348Y0143796D01*
X0120346Y0143857D01*
X0120340Y0143918D01*
X0120331Y0143979D01*
X0120317Y0144038D01*
X0120300Y0144097D01*
X0120280Y0144155D01*
X0120255Y0144211D01*
X0120227Y0144266D01*
X0120196Y0144318D01*
X0120162Y0144369D01*
X0120124Y0144417D01*
X0120084Y0144463D01*
X0120040Y0144507D01*
X0119994Y0144547D01*
X0119946Y0144585D01*
X0119895Y0144619D01*
X0119843Y0144650D01*
X0119788Y0144678D01*
X0119732Y0144703D01*
X0119674Y0144723D01*
X0119615Y0144740D01*
X0119556Y0144754D01*
X0119495Y0144763D01*
X0119434Y0144769D01*
X0119373Y0144771D01*
X0095323Y0144771D01*
X0095262Y0144773D01*
X0095201Y0144779D01*
X0095140Y0144788D01*
X0095081Y0144802D01*
X0095022Y0144819D01*
X0094964Y0144839D01*
X0094908Y0144864D01*
X0094853Y0144892D01*
X0094801Y0144923D01*
X0094750Y0144957D01*
X0094702Y0144995D01*
X0094656Y0145035D01*
X0094612Y0145079D01*
X0094572Y0145125D01*
X0094534Y0145173D01*
X0094500Y0145224D01*
X0094469Y0145276D01*
X0094441Y0145331D01*
X0094416Y0145387D01*
X0094396Y0145445D01*
X0094379Y0145504D01*
X0094365Y0145563D01*
X0094356Y0145624D01*
X0094350Y0145685D01*
X0094348Y0145746D01*
X0094348Y0145856D01*
X0094350Y0145917D01*
X0094356Y0145978D01*
X0094365Y0146039D01*
X0094379Y0146098D01*
X0094396Y0146157D01*
X0094416Y0146215D01*
X0094441Y0146271D01*
X0094469Y0146326D01*
X0094500Y0146378D01*
X0094534Y0146429D01*
X0094572Y0146477D01*
X0094612Y0146523D01*
X0094656Y0146567D01*
X0094702Y0146607D01*
X0094750Y0146645D01*
X0094801Y0146679D01*
X0094853Y0146710D01*
X0094908Y0146738D01*
X0094964Y0146763D01*
X0095022Y0146783D01*
X0095081Y0146800D01*
X0095140Y0146814D01*
X0095201Y0146823D01*
X0095262Y0146829D01*
X0095323Y0146831D01*
X0119373Y0146831D01*
X0119434Y0146833D01*
X0119495Y0146839D01*
X0119556Y0146848D01*
X0119615Y0146862D01*
X0119674Y0146879D01*
X0119732Y0146899D01*
X0119788Y0146924D01*
X0119843Y0146952D01*
X0119895Y0146983D01*
X0119946Y0147017D01*
X0119994Y0147055D01*
X0120040Y0147095D01*
X0120084Y0147139D01*
X0120124Y0147185D01*
X0120162Y0147233D01*
X0120196Y0147284D01*
X0120227Y0147336D01*
X0120255Y0147391D01*
X0120280Y0147447D01*
X0120300Y0147505D01*
X0120317Y0147564D01*
X0120331Y0147623D01*
X0120340Y0147684D01*
X0120346Y0147745D01*
X0120348Y0147806D01*
X0120348Y0147916D01*
X0120346Y0147977D01*
X0120340Y0148038D01*
X0120331Y0148099D01*
X0120317Y0148158D01*
X0120300Y0148217D01*
X0120280Y0148275D01*
X0120255Y0148331D01*
X0120227Y0148386D01*
X0120196Y0148438D01*
X0120162Y0148489D01*
X0120124Y0148537D01*
X0120084Y0148583D01*
X0120040Y0148627D01*
X0119994Y0148667D01*
X0119946Y0148705D01*
X0119895Y0148739D01*
X0119843Y0148770D01*
X0119788Y0148798D01*
X0119732Y0148823D01*
X0119674Y0148843D01*
X0119615Y0148860D01*
X0119556Y0148874D01*
X0119495Y0148883D01*
X0119434Y0148889D01*
X0119373Y0148891D01*
X0095323Y0148891D01*
X0095262Y0148893D01*
X0095201Y0148899D01*
X0095140Y0148908D01*
X0095081Y0148922D01*
X0095022Y0148939D01*
X0094964Y0148959D01*
X0094908Y0148984D01*
X0094853Y0149012D01*
X0094801Y0149043D01*
X0094750Y0149077D01*
X0094702Y0149115D01*
X0094656Y0149155D01*
X0094612Y0149199D01*
X0094572Y0149245D01*
X0094534Y0149293D01*
X0094500Y0149344D01*
X0094469Y0149396D01*
X0094441Y0149451D01*
X0094416Y0149507D01*
X0094396Y0149565D01*
X0094379Y0149624D01*
X0094365Y0149683D01*
X0094356Y0149744D01*
X0094350Y0149805D01*
X0094348Y0149866D01*
X0094348Y0149977D01*
X0094350Y0150038D01*
X0094356Y0150099D01*
X0094365Y0150160D01*
X0094379Y0150219D01*
X0094396Y0150278D01*
X0094416Y0150336D01*
X0094441Y0150392D01*
X0094469Y0150447D01*
X0094500Y0150499D01*
X0094534Y0150550D01*
X0094572Y0150598D01*
X0094612Y0150644D01*
X0094656Y0150688D01*
X0094702Y0150728D01*
X0094750Y0150766D01*
X0094801Y0150800D01*
X0094853Y0150831D01*
X0094908Y0150859D01*
X0094964Y0150884D01*
X0095022Y0150904D01*
X0095081Y0150921D01*
X0095140Y0150935D01*
X0095201Y0150944D01*
X0095262Y0150950D01*
X0095323Y0150952D01*
X0119373Y0150952D01*
X0119434Y0150954D01*
X0119495Y0150960D01*
X0119556Y0150969D01*
X0119615Y0150983D01*
X0119674Y0151000D01*
X0119732Y0151020D01*
X0119788Y0151045D01*
X0119843Y0151073D01*
X0119895Y0151104D01*
X0119946Y0151138D01*
X0119994Y0151176D01*
X0120040Y0151216D01*
X0120084Y0151260D01*
X0120124Y0151306D01*
X0120162Y0151354D01*
X0120196Y0151405D01*
X0120227Y0151457D01*
X0120255Y0151512D01*
X0120280Y0151568D01*
X0120300Y0151626D01*
X0120317Y0151685D01*
X0120331Y0151744D01*
X0120340Y0151805D01*
X0120346Y0151866D01*
X0120348Y0151927D01*
X0120348Y0152037D01*
X0120346Y0152098D01*
X0120340Y0152159D01*
X0120331Y0152220D01*
X0120317Y0152279D01*
X0120300Y0152338D01*
X0120280Y0152396D01*
X0120255Y0152452D01*
X0120227Y0152507D01*
X0120196Y0152559D01*
X0120162Y0152610D01*
X0120124Y0152658D01*
X0120084Y0152704D01*
X0120040Y0152748D01*
X0119994Y0152788D01*
X0119946Y0152826D01*
X0119895Y0152860D01*
X0119843Y0152891D01*
X0119788Y0152919D01*
X0119732Y0152944D01*
X0119674Y0152964D01*
X0119615Y0152981D01*
X0119556Y0152995D01*
X0119495Y0153004D01*
X0119434Y0153010D01*
X0119373Y0153012D01*
X0108323Y0153012D01*
X0108262Y0153014D01*
X0108201Y0153020D01*
X0108140Y0153029D01*
X0108081Y0153043D01*
X0108022Y0153060D01*
X0107964Y0153080D01*
X0107908Y0153105D01*
X0107853Y0153133D01*
X0107801Y0153164D01*
X0107750Y0153198D01*
X0107702Y0153236D01*
X0107656Y0153276D01*
X0107612Y0153320D01*
X0107572Y0153366D01*
X0107534Y0153414D01*
X0107500Y0153465D01*
X0107469Y0153517D01*
X0107441Y0153572D01*
X0107416Y0153628D01*
X0107396Y0153686D01*
X0107379Y0153745D01*
X0107365Y0153804D01*
X0107356Y0153865D01*
X0107350Y0153926D01*
X0107348Y0153987D01*
X0107348Y0155529D01*
X0150081Y0155658D02*
X0152087Y0155658D01*
X0151966Y0156357D02*
X0150081Y0156357D01*
X0150081Y0157055D02*
X0151966Y0157055D01*
X0151966Y0157754D02*
X0150081Y0157754D01*
X0150081Y0158452D02*
X0152236Y0158452D01*
X0152525Y0159151D02*
X0150081Y0159151D01*
X0150081Y0159849D02*
X0153014Y0159849D01*
X0153712Y0160548D02*
X0150081Y0160548D01*
X0150081Y0161246D02*
X0155017Y0161246D01*
X0154683Y0162643D02*
X0150081Y0162643D01*
X0150081Y0161945D02*
X0170564Y0161945D01*
X0171262Y0162643D02*
X0158550Y0162643D01*
X0159659Y0163342D02*
X0171961Y0163342D01*
X0172659Y0164040D02*
X0160357Y0164040D01*
X0160764Y0164739D02*
X0173228Y0164739D01*
X0173228Y0165437D02*
X0161054Y0165437D01*
X0161266Y0166136D02*
X0173765Y0166136D01*
X0173443Y0166834D02*
X0161266Y0166834D01*
X0159741Y0170327D02*
X0173231Y0170327D01*
X0175749Y0170327D02*
X0176854Y0170327D01*
X0176448Y0169628D02*
X0177552Y0169628D01*
X0178148Y0168930D02*
X0176540Y0168930D01*
X0176540Y0168231D02*
X0178148Y0168231D01*
X0178148Y0167533D02*
X0176236Y0167533D01*
X0175537Y0166834D02*
X0178148Y0166834D01*
X0178148Y0166136D02*
X0176790Y0166136D01*
X0177328Y0165437D02*
X0178148Y0165437D01*
X0178148Y0164739D02*
X0177328Y0164739D01*
X0177328Y0164040D02*
X0178148Y0164040D01*
X0178148Y0163342D02*
X0176769Y0163342D01*
X0178148Y0162643D02*
X0175080Y0162643D01*
X0174382Y0161945D02*
X0178067Y0161945D01*
X0177369Y0161246D02*
X0173683Y0161246D01*
X0173348Y0159529D02*
X0177348Y0159529D01*
X0179348Y0161529D01*
X0179348Y0169529D01*
X0174348Y0174529D01*
X0162348Y0174529D01*
X0159348Y0177529D01*
X0157348Y0177529D01*
X0157002Y0176876D01*
X0156616Y0176876D01*
X0160136Y0173820D02*
X0161361Y0173820D01*
X0159438Y0173121D02*
X0174060Y0173121D01*
X0174758Y0172423D02*
X0158016Y0172423D01*
X0158749Y0171025D02*
X0176155Y0171025D01*
X0175457Y0171724D02*
X0150081Y0171724D01*
X0150081Y0171025D02*
X0154484Y0171025D01*
X0153491Y0170327D02*
X0150081Y0170327D01*
X0150081Y0169628D02*
X0152793Y0169628D01*
X0152434Y0168930D02*
X0150081Y0168930D01*
X0150081Y0168231D02*
X0152145Y0168231D01*
X0151966Y0167533D02*
X0150081Y0167533D01*
X0150081Y0166834D02*
X0151966Y0166834D01*
X0151966Y0166136D02*
X0150081Y0166136D01*
X0150081Y0165437D02*
X0152179Y0165437D01*
X0152468Y0164739D02*
X0150081Y0164739D01*
X0150081Y0164040D02*
X0152875Y0164040D01*
X0153574Y0163342D02*
X0150081Y0163342D01*
X0150081Y0154960D02*
X0152377Y0154960D01*
X0152666Y0154261D02*
X0150081Y0154261D01*
X0150081Y0153563D02*
X0153353Y0153563D01*
X0154150Y0152864D02*
X0150081Y0152864D01*
X0150081Y0152166D02*
X0165148Y0152166D01*
X0165148Y0152864D02*
X0159083Y0152864D01*
X0159879Y0153563D02*
X0165685Y0153563D01*
X0166383Y0154261D02*
X0160566Y0154261D01*
X0160856Y0154960D02*
X0167082Y0154960D01*
X0169079Y0153563D02*
X0181014Y0153563D01*
X0181014Y0154261D02*
X0169778Y0154261D01*
X0170476Y0154960D02*
X0181014Y0154960D01*
X0181014Y0155658D02*
X0171175Y0155658D01*
X0171873Y0156357D02*
X0181014Y0156357D01*
X0181014Y0157055D02*
X0172572Y0157055D01*
X0173270Y0157754D02*
X0181014Y0157754D01*
X0181014Y0158452D02*
X0177969Y0158452D01*
X0178667Y0159151D02*
X0181014Y0159151D01*
X0181014Y0159849D02*
X0179366Y0159849D01*
X0180064Y0160548D02*
X0181014Y0160548D01*
X0181014Y0161246D02*
X0180548Y0161246D01*
X0180548Y0161945D02*
X0181014Y0161945D01*
X0181014Y0162643D02*
X0180548Y0162643D01*
X0180548Y0163342D02*
X0180873Y0163342D01*
X0180851Y0166136D02*
X0180548Y0166136D01*
X0180548Y0166834D02*
X0192381Y0166834D01*
X0192381Y0166136D02*
X0183877Y0166136D01*
X0184414Y0165437D02*
X0192381Y0165437D01*
X0192381Y0164739D02*
X0184414Y0164739D01*
X0184414Y0164040D02*
X0192381Y0164040D01*
X0192381Y0163342D02*
X0183856Y0163342D01*
X0183714Y0162643D02*
X0192381Y0162643D01*
X0192381Y0161945D02*
X0183714Y0161945D01*
X0183714Y0161246D02*
X0192381Y0161246D01*
X0192381Y0160548D02*
X0183714Y0160548D01*
X0183714Y0159849D02*
X0192381Y0159849D01*
X0192381Y0159151D02*
X0183714Y0159151D01*
X0183714Y0158452D02*
X0192381Y0158452D01*
X0192381Y0157754D02*
X0183714Y0157754D01*
X0183714Y0157055D02*
X0192381Y0157055D01*
X0192381Y0156357D02*
X0183714Y0156357D01*
X0183714Y0155658D02*
X0192381Y0155658D01*
X0192381Y0154960D02*
X0183714Y0154960D01*
X0183714Y0154261D02*
X0192381Y0154261D01*
X0192381Y0153563D02*
X0183714Y0153563D01*
X0183714Y0152864D02*
X0192381Y0152864D01*
X0192381Y0152166D02*
X0183714Y0152166D01*
X0183714Y0151467D02*
X0192381Y0151467D01*
X0192381Y0150769D02*
X0183714Y0150769D01*
X0183714Y0150070D02*
X0192381Y0150070D01*
X0192381Y0149372D02*
X0183714Y0149372D01*
X0183714Y0148673D02*
X0192381Y0148673D01*
X0192381Y0147975D02*
X0183714Y0147975D01*
X0183714Y0147276D02*
X0192381Y0147276D01*
X0192381Y0146578D02*
X0183714Y0146578D01*
X0183714Y0145879D02*
X0192381Y0145879D01*
X0192381Y0145181D02*
X0183714Y0145181D01*
X0183714Y0144482D02*
X0192381Y0144482D01*
X0192381Y0143784D02*
X0183714Y0143784D01*
X0183714Y0143085D02*
X0192381Y0143085D01*
X0192381Y0142387D02*
X0183714Y0142387D01*
X0183714Y0141688D02*
X0192381Y0141688D01*
X0192381Y0140990D02*
X0183714Y0140990D01*
X0183714Y0140291D02*
X0192381Y0140291D01*
X0192381Y0139592D02*
X0183714Y0139592D01*
X0183714Y0138894D02*
X0192381Y0138894D01*
X0192381Y0138195D02*
X0183714Y0138195D01*
X0183714Y0137497D02*
X0192381Y0137497D01*
X0192381Y0136798D02*
X0183714Y0136798D01*
X0183714Y0136100D02*
X0192381Y0136100D01*
X0192381Y0135401D02*
X0183714Y0135401D01*
X0183714Y0134703D02*
X0192381Y0134703D01*
X0192381Y0134004D02*
X0183714Y0134004D01*
X0183714Y0133306D02*
X0192381Y0133306D01*
X0192381Y0132607D02*
X0183714Y0132607D01*
X0183714Y0131909D02*
X0192381Y0131909D01*
X0192381Y0131210D02*
X0183714Y0131210D01*
X0183714Y0130512D02*
X0192381Y0130512D01*
X0192381Y0129813D02*
X0183714Y0129813D01*
X0183714Y0129115D02*
X0192381Y0129115D01*
X0192381Y0128416D02*
X0183714Y0128416D01*
X0183714Y0127718D02*
X0192381Y0127718D01*
X0192381Y0127019D02*
X0183714Y0127019D01*
X0183714Y0126321D02*
X0192381Y0126321D01*
X0192381Y0125622D02*
X0183714Y0125622D01*
X0183714Y0124924D02*
X0192381Y0124924D01*
X0192381Y0124225D02*
X0183714Y0124225D01*
X0183714Y0123527D02*
X0192381Y0123527D01*
X0192381Y0122828D02*
X0183714Y0122828D01*
X0183714Y0122130D02*
X0192381Y0122130D01*
X0192381Y0121431D02*
X0183714Y0121431D01*
X0183714Y0120733D02*
X0192381Y0120733D01*
X0192381Y0120034D02*
X0183714Y0120034D01*
X0183714Y0119336D02*
X0192381Y0119336D01*
X0192381Y0118637D02*
X0183714Y0118637D01*
X0183714Y0117939D02*
X0192381Y0117939D01*
X0192381Y0117240D02*
X0183714Y0117240D01*
X0183714Y0116542D02*
X0192381Y0116542D01*
X0192381Y0115843D02*
X0183714Y0115843D01*
X0183714Y0115145D02*
X0192381Y0115145D01*
X0192381Y0114446D02*
X0183714Y0114446D01*
X0183714Y0113748D02*
X0192381Y0113748D01*
X0192381Y0113049D02*
X0183714Y0113049D01*
X0183714Y0112351D02*
X0192381Y0112351D01*
X0192381Y0111652D02*
X0183714Y0111652D01*
X0183714Y0110954D02*
X0192381Y0110954D01*
X0192381Y0110255D02*
X0183714Y0110255D01*
X0183714Y0109556D02*
X0192381Y0109556D01*
X0192381Y0108858D02*
X0183714Y0108858D01*
X0183714Y0108159D02*
X0192381Y0108159D01*
X0192381Y0107461D02*
X0183714Y0107461D01*
X0183714Y0106762D02*
X0192381Y0106762D01*
X0192381Y0106064D02*
X0183714Y0106064D01*
X0183714Y0105365D02*
X0192381Y0105365D01*
X0192381Y0104667D02*
X0183246Y0104667D01*
X0182547Y0103968D02*
X0184826Y0103968D01*
X0184251Y0103270D02*
X0181849Y0103270D01*
X0181150Y0102571D02*
X0184251Y0102571D01*
X0183720Y0101873D02*
X0180452Y0101873D01*
X0179753Y0101174D02*
X0183021Y0101174D01*
X0182323Y0100476D02*
X0179055Y0100476D01*
X0180926Y0099079D02*
X0175744Y0099079D01*
X0176006Y0099777D02*
X0181624Y0099777D01*
X0180227Y0098380D02*
X0175454Y0098380D01*
X0174913Y0097682D02*
X0179529Y0097682D01*
X0178830Y0096983D02*
X0174214Y0096983D01*
X0174893Y0093491D02*
X0182222Y0093491D01*
X0181523Y0092792D02*
X0175446Y0092792D01*
X0175735Y0092094D02*
X0181102Y0092094D01*
X0179855Y0094189D02*
X0192381Y0094189D01*
X0192381Y0093491D02*
X0184081Y0093491D01*
X0184780Y0092792D02*
X0192381Y0092792D01*
X0192381Y0092094D02*
X0185202Y0092094D01*
X0185202Y0091395D02*
X0192381Y0091395D01*
X0192381Y0090697D02*
X0185202Y0090697D01*
X0184528Y0089998D02*
X0192381Y0089998D01*
X0192381Y0089300D02*
X0182839Y0089300D01*
X0180553Y0094888D02*
X0192381Y0094888D01*
X0192381Y0095586D02*
X0181252Y0095586D01*
X0181950Y0096285D02*
X0192381Y0096285D01*
X0192381Y0096983D02*
X0182649Y0096983D01*
X0183347Y0097682D02*
X0192381Y0097682D01*
X0192381Y0098380D02*
X0184046Y0098380D01*
X0184744Y0099079D02*
X0192381Y0099079D01*
X0192381Y0099777D02*
X0185443Y0099777D01*
X0186141Y0100476D02*
X0192381Y0100476D01*
X0192381Y0101174D02*
X0187830Y0101174D01*
X0188351Y0101873D02*
X0192381Y0101873D01*
X0192381Y0102571D02*
X0188351Y0102571D01*
X0188351Y0103270D02*
X0192381Y0103270D01*
X0192381Y0103968D02*
X0187777Y0103968D01*
X0180824Y0106064D02*
X0166611Y0106064D01*
X0166611Y0106762D02*
X0169496Y0106762D01*
X0169191Y0106889D02*
X0170790Y0106226D01*
X0172521Y0106226D01*
X0174120Y0106889D01*
X0175343Y0108112D01*
X0176006Y0109711D01*
X0176006Y0111442D01*
X0175343Y0113041D01*
X0174120Y0114264D01*
X0172521Y0114926D01*
X0170790Y0114926D01*
X0169191Y0114264D01*
X0167968Y0113041D01*
X0167306Y0111442D01*
X0167306Y0109711D01*
X0167968Y0108112D01*
X0169191Y0106889D01*
X0168619Y0107461D02*
X0166611Y0107461D01*
X0166611Y0108159D02*
X0167948Y0108159D01*
X0167659Y0108858D02*
X0166611Y0108858D01*
X0166611Y0109556D02*
X0167370Y0109556D01*
X0167306Y0110255D02*
X0166611Y0110255D01*
X0166611Y0110954D02*
X0167306Y0110954D01*
X0167393Y0111652D02*
X0166611Y0111652D01*
X0166611Y0112351D02*
X0167682Y0112351D01*
X0167976Y0113049D02*
X0166611Y0113049D01*
X0166611Y0113748D02*
X0168675Y0113748D01*
X0169631Y0114446D02*
X0166611Y0114446D01*
X0166611Y0115145D02*
X0181014Y0115145D01*
X0181014Y0115843D02*
X0166611Y0115843D01*
X0166611Y0116542D02*
X0170029Y0116542D01*
X0170790Y0116226D02*
X0172521Y0116226D01*
X0174120Y0116889D01*
X0175343Y0118112D01*
X0176006Y0119711D01*
X0176006Y0121442D01*
X0175343Y0123041D01*
X0174120Y0124264D01*
X0172521Y0124926D01*
X0170790Y0124926D01*
X0169191Y0124264D01*
X0167968Y0123041D01*
X0167306Y0121442D01*
X0167306Y0119711D01*
X0167968Y0118112D01*
X0169191Y0116889D01*
X0170790Y0116226D01*
X0168840Y0117240D02*
X0166611Y0117240D01*
X0166611Y0117939D02*
X0168142Y0117939D01*
X0167750Y0118637D02*
X0166611Y0118637D01*
X0166611Y0119336D02*
X0167461Y0119336D01*
X0167306Y0120034D02*
X0166611Y0120034D01*
X0166611Y0120733D02*
X0167306Y0120733D01*
X0167306Y0121431D02*
X0166611Y0121431D01*
X0166611Y0122130D02*
X0167591Y0122130D01*
X0167880Y0122828D02*
X0166611Y0122828D01*
X0166250Y0123527D02*
X0168454Y0123527D01*
X0169153Y0124225D02*
X0165552Y0124225D01*
X0164853Y0124924D02*
X0170784Y0124924D01*
X0170790Y0126226D02*
X0172521Y0126226D01*
X0174120Y0126889D01*
X0175343Y0128112D01*
X0176006Y0129711D01*
X0176006Y0131442D01*
X0175343Y0133041D01*
X0174120Y0134264D01*
X0172521Y0134926D01*
X0170790Y0134926D01*
X0169191Y0134264D01*
X0167968Y0133041D01*
X0167306Y0131442D01*
X0167306Y0129711D01*
X0167968Y0128112D01*
X0169191Y0126889D01*
X0170790Y0126226D01*
X0170563Y0126321D02*
X0163456Y0126321D01*
X0162758Y0127019D02*
X0169061Y0127019D01*
X0168362Y0127718D02*
X0162059Y0127718D01*
X0161360Y0128416D02*
X0167842Y0128416D01*
X0167553Y0129115D02*
X0160722Y0129115D01*
X0160255Y0129813D02*
X0167306Y0129813D01*
X0167306Y0130512D02*
X0159556Y0130512D01*
X0158302Y0131210D02*
X0167306Y0131210D01*
X0167499Y0131909D02*
X0150081Y0131909D01*
X0150081Y0132607D02*
X0154770Y0132607D01*
X0153982Y0132934D02*
X0155691Y0132226D01*
X0157541Y0132226D01*
X0159250Y0132934D01*
X0160558Y0134242D01*
X0161266Y0135951D01*
X0161266Y0137801D01*
X0160558Y0139510D01*
X0159250Y0140818D01*
X0157541Y0141526D01*
X0155691Y0141526D01*
X0153982Y0140818D01*
X0152674Y0139510D01*
X0151966Y0137801D01*
X0151966Y0135951D01*
X0152674Y0134242D01*
X0153982Y0132934D01*
X0153610Y0133306D02*
X0150081Y0133306D01*
X0150081Y0134004D02*
X0152911Y0134004D01*
X0152483Y0134703D02*
X0150081Y0134703D01*
X0150081Y0135401D02*
X0152194Y0135401D01*
X0151966Y0136100D02*
X0150081Y0136100D01*
X0150081Y0136798D02*
X0151966Y0136798D01*
X0151966Y0137497D02*
X0150081Y0137497D01*
X0150081Y0138195D02*
X0152130Y0138195D01*
X0152419Y0138894D02*
X0150081Y0138894D01*
X0150081Y0139592D02*
X0152757Y0139592D01*
X0153455Y0140291D02*
X0150081Y0140291D01*
X0150081Y0140990D02*
X0154397Y0140990D01*
X0155303Y0142387D02*
X0150081Y0142387D01*
X0150081Y0143085D02*
X0153831Y0143085D01*
X0153982Y0142934D02*
X0155691Y0142226D01*
X0157541Y0142226D01*
X0159250Y0142934D01*
X0160558Y0144242D01*
X0161266Y0145951D01*
X0161266Y0147801D01*
X0160558Y0149510D01*
X0159250Y0150818D01*
X0157541Y0151526D01*
X0155691Y0151526D01*
X0153982Y0150818D01*
X0152674Y0149510D01*
X0151966Y0147801D01*
X0151966Y0145951D01*
X0152674Y0144242D01*
X0153982Y0142934D01*
X0153132Y0143784D02*
X0150081Y0143784D01*
X0150081Y0144482D02*
X0152575Y0144482D01*
X0152285Y0145181D02*
X0150081Y0145181D01*
X0150081Y0145879D02*
X0151996Y0145879D01*
X0151966Y0146578D02*
X0150081Y0146578D01*
X0150081Y0147276D02*
X0151966Y0147276D01*
X0152038Y0147975D02*
X0150081Y0147975D01*
X0150081Y0148673D02*
X0152328Y0148673D01*
X0152617Y0149372D02*
X0150081Y0149372D01*
X0150081Y0150070D02*
X0153235Y0150070D01*
X0153933Y0150769D02*
X0150081Y0150769D01*
X0150081Y0151467D02*
X0155550Y0151467D01*
X0157682Y0151467D02*
X0165148Y0151467D01*
X0165148Y0150769D02*
X0159299Y0150769D01*
X0159998Y0150070D02*
X0165148Y0150070D01*
X0165148Y0149372D02*
X0160615Y0149372D01*
X0160905Y0148673D02*
X0165148Y0148673D01*
X0165148Y0147975D02*
X0161194Y0147975D01*
X0161266Y0147276D02*
X0165148Y0147276D01*
X0165148Y0146578D02*
X0161266Y0146578D01*
X0161237Y0145879D02*
X0165148Y0145879D01*
X0165148Y0145181D02*
X0160947Y0145181D01*
X0160658Y0144482D02*
X0165148Y0144482D01*
X0165148Y0143784D02*
X0160100Y0143784D01*
X0159402Y0143085D02*
X0165148Y0143085D01*
X0165148Y0142387D02*
X0157930Y0142387D01*
X0158835Y0140990D02*
X0165148Y0140990D01*
X0165148Y0141688D02*
X0150081Y0141688D01*
X0159777Y0140291D02*
X0165148Y0140291D01*
X0165148Y0139592D02*
X0160475Y0139592D01*
X0160813Y0138894D02*
X0165148Y0138894D01*
X0165148Y0138195D02*
X0161103Y0138195D01*
X0161266Y0137497D02*
X0165148Y0137497D01*
X0166348Y0136962D02*
X0164530Y0135143D01*
X0166580Y0135401D02*
X0181014Y0135401D01*
X0181014Y0134703D02*
X0173060Y0134703D01*
X0174379Y0134004D02*
X0181014Y0134004D01*
X0181014Y0133306D02*
X0175078Y0133306D01*
X0175523Y0132607D02*
X0181014Y0132607D01*
X0181014Y0131909D02*
X0175812Y0131909D01*
X0176006Y0131210D02*
X0181014Y0131210D01*
X0181014Y0130512D02*
X0176006Y0130512D01*
X0176006Y0129813D02*
X0181014Y0129813D01*
X0181014Y0129115D02*
X0175759Y0129115D01*
X0175469Y0128416D02*
X0181014Y0128416D01*
X0181014Y0127718D02*
X0174949Y0127718D01*
X0174250Y0127019D02*
X0181014Y0127019D01*
X0181014Y0126321D02*
X0172749Y0126321D01*
X0172527Y0124924D02*
X0181014Y0124924D01*
X0181014Y0125622D02*
X0164155Y0125622D01*
X0161150Y0122828D02*
X0158996Y0122828D01*
X0159843Y0123527D02*
X0160452Y0123527D01*
X0161849Y0122130D02*
X0150081Y0122130D01*
X0150081Y0122828D02*
X0154237Y0122828D01*
X0153389Y0123527D02*
X0150081Y0123527D01*
X0150081Y0124225D02*
X0152691Y0124225D01*
X0152392Y0124924D02*
X0150081Y0124924D01*
X0150081Y0125622D02*
X0152102Y0125622D01*
X0151966Y0126321D02*
X0150081Y0126321D01*
X0150081Y0127019D02*
X0151966Y0127019D01*
X0151966Y0127718D02*
X0150081Y0127718D01*
X0150081Y0128416D02*
X0152221Y0128416D01*
X0152511Y0129115D02*
X0150081Y0129115D01*
X0150081Y0129813D02*
X0152978Y0129813D01*
X0153676Y0130512D02*
X0150081Y0130512D01*
X0150081Y0131210D02*
X0154930Y0131210D01*
X0158463Y0132607D02*
X0167788Y0132607D01*
X0168233Y0133306D02*
X0165591Y0133306D01*
X0166290Y0134004D02*
X0168932Y0134004D01*
X0170251Y0134703D02*
X0166580Y0134703D01*
X0167183Y0136100D02*
X0181014Y0136100D01*
X0181014Y0136798D02*
X0167548Y0136798D01*
X0167548Y0137497D02*
X0181014Y0137497D01*
X0181014Y0138195D02*
X0167548Y0138195D01*
X0167548Y0138894D02*
X0181014Y0138894D01*
X0181014Y0139592D02*
X0167548Y0139592D01*
X0167548Y0140291D02*
X0181014Y0140291D01*
X0181014Y0140990D02*
X0167548Y0140990D01*
X0167548Y0141688D02*
X0181014Y0141688D01*
X0181014Y0142387D02*
X0167548Y0142387D01*
X0167548Y0143085D02*
X0181014Y0143085D01*
X0181014Y0143784D02*
X0167548Y0143784D01*
X0167548Y0144482D02*
X0181014Y0144482D01*
X0181014Y0145181D02*
X0167548Y0145181D01*
X0167548Y0145879D02*
X0181014Y0145879D01*
X0181014Y0146578D02*
X0167548Y0146578D01*
X0167548Y0147276D02*
X0181014Y0147276D01*
X0181014Y0147975D02*
X0167548Y0147975D01*
X0167548Y0148673D02*
X0181014Y0148673D01*
X0181014Y0149372D02*
X0167548Y0149372D01*
X0167548Y0150070D02*
X0181014Y0150070D01*
X0181014Y0150769D02*
X0167548Y0150769D01*
X0167548Y0151467D02*
X0181014Y0151467D01*
X0181014Y0152166D02*
X0167682Y0152166D01*
X0168381Y0152864D02*
X0181014Y0152864D01*
X0173348Y0159529D02*
X0166348Y0152529D01*
X0166348Y0136962D01*
X0163286Y0136798D02*
X0161266Y0136798D01*
X0161266Y0136100D02*
X0162587Y0136100D01*
X0162480Y0135401D02*
X0161039Y0135401D01*
X0160749Y0134703D02*
X0162480Y0134703D01*
X0162769Y0134004D02*
X0160321Y0134004D01*
X0159623Y0133306D02*
X0163468Y0133306D01*
X0162511Y0121431D02*
X0159019Y0121431D01*
X0159315Y0121280D02*
X0158593Y0121648D01*
X0157822Y0121899D01*
X0157022Y0122026D01*
X0156966Y0122026D01*
X0156966Y0117226D01*
X0156266Y0117226D01*
X0156266Y0122026D01*
X0156211Y0122026D01*
X0155410Y0121899D01*
X0154639Y0121648D01*
X0153917Y0121280D01*
X0153261Y0120804D01*
X0152688Y0120231D01*
X0152212Y0119575D01*
X0151844Y0118853D01*
X0151593Y0118082D01*
X0151466Y0117281D01*
X0151466Y0117226D01*
X0156266Y0117226D01*
X0156266Y0116526D01*
X0151466Y0116526D01*
X0151466Y0116470D01*
X0151593Y0115670D01*
X0151844Y0114899D01*
X0152212Y0114176D01*
X0152688Y0113521D01*
X0153261Y0112947D01*
X0153917Y0112471D01*
X0154639Y0112103D01*
X0155410Y0111852D01*
X0156211Y0111726D01*
X0156266Y0111726D01*
X0156266Y0116526D01*
X0156966Y0116526D01*
X0156966Y0117226D01*
X0161766Y0117226D01*
X0161766Y0117281D01*
X0161639Y0118082D01*
X0161389Y0118853D01*
X0161021Y0119575D01*
X0160544Y0120231D01*
X0159971Y0120804D01*
X0159315Y0121280D01*
X0160042Y0120733D02*
X0162511Y0120733D01*
X0162511Y0120034D02*
X0160687Y0120034D01*
X0161143Y0119336D02*
X0162511Y0119336D01*
X0162511Y0118637D02*
X0161459Y0118637D01*
X0161662Y0117939D02*
X0162511Y0117939D01*
X0162511Y0117240D02*
X0161766Y0117240D01*
X0161766Y0116526D02*
X0156966Y0116526D01*
X0156966Y0111726D01*
X0157022Y0111726D01*
X0157822Y0111852D01*
X0158593Y0112103D01*
X0159315Y0112471D01*
X0159971Y0112947D01*
X0160544Y0113521D01*
X0161021Y0114176D01*
X0161389Y0114899D01*
X0161639Y0115670D01*
X0161766Y0116470D01*
X0161766Y0116526D01*
X0161667Y0115843D02*
X0162511Y0115843D01*
X0162511Y0115145D02*
X0161469Y0115145D01*
X0161158Y0114446D02*
X0162511Y0114446D01*
X0162511Y0113748D02*
X0160709Y0113748D01*
X0160073Y0113049D02*
X0162511Y0113049D01*
X0162511Y0112351D02*
X0159079Y0112351D01*
X0158922Y0110954D02*
X0162511Y0110954D01*
X0162511Y0111652D02*
X0150081Y0111652D01*
X0150081Y0110954D02*
X0154310Y0110954D01*
X0153982Y0110818D02*
X0152674Y0109510D01*
X0151966Y0107801D01*
X0151966Y0105951D01*
X0152674Y0104242D01*
X0153982Y0102934D01*
X0155691Y0102226D01*
X0157541Y0102226D01*
X0159250Y0102934D01*
X0160558Y0104242D01*
X0161266Y0105951D01*
X0161266Y0107801D01*
X0160558Y0109510D01*
X0159250Y0110818D01*
X0157541Y0111526D01*
X0155691Y0111526D01*
X0153982Y0110818D01*
X0153419Y0110255D02*
X0150081Y0110255D01*
X0150081Y0109556D02*
X0152721Y0109556D01*
X0152404Y0108858D02*
X0150081Y0108858D01*
X0150081Y0108159D02*
X0152115Y0108159D01*
X0151966Y0107461D02*
X0150081Y0107461D01*
X0150081Y0106762D02*
X0151966Y0106762D01*
X0151966Y0106064D02*
X0150081Y0106064D01*
X0150081Y0105365D02*
X0152209Y0105365D01*
X0152498Y0104667D02*
X0150081Y0104667D01*
X0150081Y0103968D02*
X0152947Y0103968D01*
X0153646Y0103270D02*
X0150081Y0103270D01*
X0148348Y0101529D02*
X0151963Y0101529D01*
X0156616Y0096876D01*
X0159807Y0093491D02*
X0162511Y0093491D01*
X0162511Y0094189D02*
X0160506Y0094189D01*
X0160826Y0094888D02*
X0162511Y0094888D01*
X0162511Y0095586D02*
X0161115Y0095586D01*
X0161266Y0096285D02*
X0162511Y0096285D01*
X0162511Y0096983D02*
X0161266Y0096983D01*
X0161266Y0097682D02*
X0162511Y0097682D01*
X0162511Y0098380D02*
X0161026Y0098380D01*
X0160737Y0099079D02*
X0162511Y0099079D01*
X0162511Y0099777D02*
X0160291Y0099777D01*
X0159592Y0100476D02*
X0162511Y0100476D01*
X0162511Y0101174D02*
X0158389Y0101174D01*
X0158376Y0102571D02*
X0162511Y0102571D01*
X0162511Y0101873D02*
X0153316Y0101873D01*
X0152617Y0102571D02*
X0154857Y0102571D01*
X0154843Y0101174D02*
X0154015Y0101174D01*
X0152017Y0099777D02*
X0150081Y0099777D01*
X0150081Y0099079D02*
X0152496Y0099079D01*
X0152206Y0098380D02*
X0150081Y0098380D01*
X0150081Y0097682D02*
X0151966Y0097682D01*
X0151966Y0096983D02*
X0150081Y0096983D01*
X0150081Y0096285D02*
X0151966Y0096285D01*
X0152117Y0095586D02*
X0150081Y0095586D01*
X0150081Y0094888D02*
X0152406Y0094888D01*
X0152726Y0094189D02*
X0150081Y0094189D01*
X0150348Y0094529D02*
X0141994Y0093624D01*
X0150081Y0093491D02*
X0153425Y0093491D01*
X0154323Y0092792D02*
X0150081Y0092792D01*
X0150081Y0092094D02*
X0162511Y0092094D01*
X0162511Y0092792D02*
X0158909Y0092792D01*
X0157856Y0091395D02*
X0162511Y0091395D01*
X0162511Y0090697D02*
X0159371Y0090697D01*
X0159250Y0090818D02*
X0157541Y0091526D01*
X0155691Y0091526D01*
X0153982Y0090818D01*
X0152674Y0089510D01*
X0151966Y0087801D01*
X0151966Y0085951D01*
X0152674Y0084242D01*
X0153982Y0082934D01*
X0155691Y0082226D01*
X0157541Y0082226D01*
X0159250Y0082934D01*
X0160558Y0084242D01*
X0161266Y0085951D01*
X0161266Y0087801D01*
X0160558Y0089510D01*
X0159250Y0090818D01*
X0160070Y0089998D02*
X0162511Y0089998D01*
X0162511Y0089300D02*
X0160645Y0089300D01*
X0160935Y0088601D02*
X0162511Y0088601D01*
X0162511Y0087903D02*
X0161224Y0087903D01*
X0161266Y0087204D02*
X0162511Y0087204D01*
X0162511Y0086506D02*
X0161266Y0086506D01*
X0161207Y0085807D02*
X0162511Y0085807D01*
X0162511Y0085109D02*
X0160917Y0085109D01*
X0160628Y0084410D02*
X0162511Y0084410D01*
X0162511Y0083712D02*
X0160028Y0083712D01*
X0159330Y0083013D02*
X0162511Y0083013D01*
X0162511Y0082315D02*
X0157756Y0082315D01*
X0157541Y0081526D02*
X0155691Y0081526D01*
X0153982Y0080818D01*
X0152674Y0079510D01*
X0151966Y0077801D01*
X0151966Y0075951D01*
X0152674Y0074242D01*
X0153982Y0072934D01*
X0155691Y0072226D01*
X0157541Y0072226D01*
X0159250Y0072934D01*
X0160558Y0074242D01*
X0161266Y0075951D01*
X0161266Y0077801D01*
X0160558Y0079510D01*
X0159250Y0080818D01*
X0157541Y0081526D01*
X0159009Y0080918D02*
X0162511Y0080918D01*
X0162511Y0081616D02*
X0150081Y0081616D01*
X0150081Y0080918D02*
X0154223Y0080918D01*
X0153383Y0080219D02*
X0150081Y0080219D01*
X0150081Y0079521D02*
X0152685Y0079521D01*
X0152389Y0078822D02*
X0150081Y0078822D01*
X0150081Y0078123D02*
X0152100Y0078123D01*
X0151966Y0077425D02*
X0150081Y0077425D01*
X0150081Y0076726D02*
X0151966Y0076726D01*
X0151966Y0076028D02*
X0150081Y0076028D01*
X0150081Y0075329D02*
X0152224Y0075329D01*
X0152513Y0074631D02*
X0150081Y0074631D01*
X0150081Y0073932D02*
X0152983Y0073932D01*
X0153682Y0073234D02*
X0150081Y0073234D01*
X0150081Y0072535D02*
X0154943Y0072535D01*
X0155691Y0071526D02*
X0153982Y0070818D01*
X0152674Y0069510D01*
X0151966Y0067801D01*
X0151966Y0065951D01*
X0152674Y0064242D01*
X0153982Y0062934D01*
X0155691Y0062226D01*
X0157541Y0062226D01*
X0159250Y0062934D01*
X0160558Y0064242D01*
X0161266Y0065951D01*
X0161266Y0067801D01*
X0160558Y0069510D01*
X0159250Y0070818D01*
X0157541Y0071526D01*
X0155691Y0071526D01*
X0154756Y0071138D02*
X0150081Y0071138D01*
X0150081Y0070440D02*
X0153604Y0070440D01*
X0152906Y0069741D02*
X0150081Y0069741D01*
X0150081Y0069043D02*
X0152481Y0069043D01*
X0152191Y0068344D02*
X0150081Y0068344D01*
X0150081Y0067646D02*
X0151966Y0067646D01*
X0151966Y0066947D02*
X0150081Y0066947D01*
X0150081Y0066249D02*
X0151966Y0066249D01*
X0152132Y0065550D02*
X0150081Y0065550D01*
X0150081Y0064852D02*
X0152421Y0064852D01*
X0152762Y0064153D02*
X0150081Y0064153D01*
X0150081Y0063455D02*
X0153461Y0063455D01*
X0154410Y0062756D02*
X0150081Y0062756D01*
X0150081Y0062058D02*
X0192381Y0062058D01*
X0192381Y0062756D02*
X0158822Y0062756D01*
X0159771Y0063455D02*
X0192381Y0063455D01*
X0192381Y0064153D02*
X0160470Y0064153D01*
X0160811Y0064852D02*
X0192381Y0064852D01*
X0192381Y0065550D02*
X0161100Y0065550D01*
X0161266Y0066249D02*
X0192381Y0066249D01*
X0192381Y0066947D02*
X0161266Y0066947D01*
X0161266Y0067646D02*
X0192381Y0067646D01*
X0192381Y0068344D02*
X0161041Y0068344D01*
X0160752Y0069043D02*
X0182936Y0069043D01*
X0182237Y0069741D02*
X0160327Y0069741D01*
X0159628Y0070440D02*
X0181539Y0070440D01*
X0180840Y0071138D02*
X0158476Y0071138D01*
X0158289Y0072535D02*
X0164443Y0072535D01*
X0164058Y0073234D02*
X0159551Y0073234D01*
X0160249Y0073932D02*
X0163573Y0073932D01*
X0163088Y0074631D02*
X0160720Y0074631D01*
X0161009Y0075329D02*
X0162511Y0075329D01*
X0162464Y0076028D02*
X0161266Y0076028D01*
X0161266Y0076726D02*
X0162511Y0076726D01*
X0162511Y0077425D02*
X0161266Y0077425D01*
X0161132Y0078123D02*
X0162511Y0078123D01*
X0162511Y0078822D02*
X0160843Y0078822D01*
X0160547Y0079521D02*
X0162511Y0079521D01*
X0162511Y0080219D02*
X0159849Y0080219D01*
X0155477Y0082315D02*
X0150081Y0082315D01*
X0150081Y0083013D02*
X0153903Y0083013D01*
X0153204Y0083712D02*
X0150081Y0083712D01*
X0150081Y0084410D02*
X0152604Y0084410D01*
X0152315Y0085109D02*
X0150081Y0085109D01*
X0150081Y0085807D02*
X0152026Y0085807D01*
X0151966Y0086506D02*
X0150081Y0086506D01*
X0150081Y0087204D02*
X0151966Y0087204D01*
X0152008Y0087903D02*
X0150081Y0087903D01*
X0150081Y0088601D02*
X0152298Y0088601D01*
X0152587Y0089300D02*
X0150081Y0089300D01*
X0150081Y0089998D02*
X0153163Y0089998D01*
X0153861Y0090697D02*
X0150081Y0090697D01*
X0150081Y0091395D02*
X0155376Y0091395D01*
X0159587Y0103270D02*
X0162511Y0103270D01*
X0162511Y0103968D02*
X0160285Y0103968D01*
X0160734Y0104667D02*
X0162511Y0104667D01*
X0162511Y0105365D02*
X0161024Y0105365D01*
X0161266Y0106064D02*
X0162511Y0106064D01*
X0162511Y0106762D02*
X0161266Y0106762D01*
X0161266Y0107461D02*
X0162511Y0107461D01*
X0162511Y0108159D02*
X0161118Y0108159D01*
X0160828Y0108858D02*
X0162511Y0108858D01*
X0162511Y0109556D02*
X0160511Y0109556D01*
X0159813Y0110255D02*
X0162511Y0110255D01*
X0166611Y0105365D02*
X0180126Y0105365D01*
X0179427Y0104667D02*
X0173147Y0104667D01*
X0174415Y0103968D02*
X0178729Y0103968D01*
X0178030Y0103270D02*
X0175114Y0103270D01*
X0173815Y0106762D02*
X0181014Y0106762D01*
X0181014Y0107461D02*
X0174692Y0107461D01*
X0175363Y0108159D02*
X0181014Y0108159D01*
X0181014Y0108858D02*
X0175652Y0108858D01*
X0175941Y0109556D02*
X0181014Y0109556D01*
X0181014Y0110255D02*
X0176006Y0110255D01*
X0176006Y0110954D02*
X0181014Y0110954D01*
X0181014Y0111652D02*
X0175918Y0111652D01*
X0175629Y0112351D02*
X0181014Y0112351D01*
X0181014Y0113049D02*
X0175335Y0113049D01*
X0174636Y0113748D02*
X0181014Y0113748D01*
X0181014Y0114446D02*
X0173680Y0114446D01*
X0173282Y0116542D02*
X0181014Y0116542D01*
X0181014Y0117240D02*
X0174471Y0117240D01*
X0175170Y0117939D02*
X0181014Y0117939D01*
X0181014Y0118637D02*
X0175561Y0118637D01*
X0175850Y0119336D02*
X0181014Y0119336D01*
X0181014Y0120034D02*
X0176006Y0120034D01*
X0176006Y0120733D02*
X0181014Y0120733D01*
X0181014Y0121431D02*
X0176006Y0121431D01*
X0175721Y0122130D02*
X0181014Y0122130D01*
X0181014Y0122828D02*
X0175431Y0122828D01*
X0174857Y0123527D02*
X0181014Y0123527D01*
X0181014Y0124225D02*
X0174159Y0124225D01*
X0162511Y0116542D02*
X0156966Y0116542D01*
X0156966Y0117240D02*
X0156266Y0117240D01*
X0156266Y0116542D02*
X0150081Y0116542D01*
X0150081Y0117240D02*
X0151466Y0117240D01*
X0151570Y0117939D02*
X0150081Y0117939D01*
X0150081Y0118637D02*
X0151774Y0118637D01*
X0152090Y0119336D02*
X0150081Y0119336D01*
X0150081Y0120034D02*
X0152545Y0120034D01*
X0153190Y0120733D02*
X0150081Y0120733D01*
X0150081Y0121431D02*
X0154213Y0121431D01*
X0156266Y0121431D02*
X0156966Y0121431D01*
X0156966Y0120733D02*
X0156266Y0120733D01*
X0156266Y0120034D02*
X0156966Y0120034D01*
X0156966Y0119336D02*
X0156266Y0119336D01*
X0156266Y0118637D02*
X0156966Y0118637D01*
X0156966Y0117939D02*
X0156266Y0117939D01*
X0156266Y0115843D02*
X0156966Y0115843D01*
X0156966Y0115145D02*
X0156266Y0115145D01*
X0156266Y0114446D02*
X0156966Y0114446D01*
X0156966Y0113748D02*
X0156266Y0113748D01*
X0156266Y0113049D02*
X0156966Y0113049D01*
X0156966Y0112351D02*
X0156266Y0112351D01*
X0154153Y0112351D02*
X0150081Y0112351D01*
X0150081Y0113049D02*
X0153160Y0113049D01*
X0152523Y0113748D02*
X0150081Y0113748D01*
X0150081Y0114446D02*
X0152074Y0114446D01*
X0151764Y0115145D02*
X0150081Y0115145D01*
X0150081Y0115843D02*
X0151566Y0115843D01*
X0166611Y0104667D02*
X0170164Y0104667D01*
X0168896Y0103968D02*
X0166611Y0103968D01*
X0166611Y0103270D02*
X0168197Y0103270D01*
X0167773Y0102571D02*
X0166611Y0102571D01*
X0166611Y0101873D02*
X0167484Y0101873D01*
X0167306Y0101174D02*
X0166611Y0101174D01*
X0166611Y0100476D02*
X0167306Y0100476D01*
X0167306Y0099777D02*
X0166611Y0099777D01*
X0166611Y0099079D02*
X0167567Y0099079D01*
X0167857Y0098380D02*
X0166611Y0098380D01*
X0166611Y0097682D02*
X0168398Y0097682D01*
X0166866Y0093491D02*
X0166611Y0093491D01*
X0166611Y0092792D02*
X0167865Y0092792D01*
X0167576Y0092094D02*
X0166611Y0092094D01*
X0166611Y0091395D02*
X0167306Y0091395D01*
X0167306Y0090697D02*
X0166611Y0090697D01*
X0166611Y0089998D02*
X0167306Y0089998D01*
X0167476Y0089300D02*
X0166611Y0089300D01*
X0166611Y0088601D02*
X0167765Y0088601D01*
X0168177Y0087903D02*
X0166611Y0087903D01*
X0166611Y0087204D02*
X0168876Y0087204D01*
X0170116Y0086506D02*
X0166611Y0086506D01*
X0166611Y0085807D02*
X0192381Y0085807D01*
X0192381Y0085109D02*
X0173402Y0085109D01*
X0173517Y0085071D02*
X0172791Y0085307D01*
X0172037Y0085426D01*
X0172006Y0085426D01*
X0172006Y0080926D01*
X0176506Y0080926D01*
X0176506Y0080958D01*
X0176386Y0081712D01*
X0176150Y0082438D01*
X0175804Y0083118D01*
X0175355Y0083736D01*
X0174815Y0084276D01*
X0174198Y0084725D01*
X0173517Y0085071D01*
X0174630Y0084410D02*
X0192381Y0084410D01*
X0192381Y0083712D02*
X0175373Y0083712D01*
X0175857Y0083013D02*
X0192381Y0083013D01*
X0192381Y0082315D02*
X0176190Y0082315D01*
X0176401Y0081616D02*
X0192381Y0081616D01*
X0192381Y0080918D02*
X0172006Y0080918D01*
X0172006Y0080926D02*
X0172006Y0080226D01*
X0176506Y0080226D01*
X0176506Y0080195D01*
X0176386Y0079441D01*
X0176150Y0078715D01*
X0175804Y0078034D01*
X0175355Y0077417D01*
X0174815Y0076877D01*
X0174198Y0076428D01*
X0173517Y0076082D01*
X0172791Y0075846D01*
X0172037Y0075726D01*
X0172006Y0075726D01*
X0172006Y0080226D01*
X0171306Y0080226D01*
X0171306Y0075726D01*
X0171274Y0075726D01*
X0170520Y0075846D01*
X0169794Y0076082D01*
X0169114Y0076428D01*
X0168496Y0076877D01*
X0167956Y0077417D01*
X0167507Y0078034D01*
X0167161Y0078715D01*
X0166925Y0079441D01*
X0166806Y0080195D01*
X0166806Y0080226D01*
X0171305Y0080226D01*
X0171305Y0080926D01*
X0166806Y0080926D01*
X0166806Y0080958D01*
X0166925Y0081712D01*
X0167161Y0082438D01*
X0167507Y0083118D01*
X0167956Y0083736D01*
X0168496Y0084276D01*
X0169114Y0084725D01*
X0169794Y0085071D01*
X0170520Y0085307D01*
X0171274Y0085426D01*
X0171306Y0085426D01*
X0171306Y0080926D01*
X0172006Y0080926D01*
X0172006Y0081616D02*
X0171306Y0081616D01*
X0171305Y0080918D02*
X0166611Y0080918D01*
X0166611Y0081616D02*
X0166910Y0081616D01*
X0167121Y0082315D02*
X0166611Y0082315D01*
X0166611Y0083013D02*
X0167454Y0083013D01*
X0167938Y0083712D02*
X0166611Y0083712D01*
X0166611Y0084410D02*
X0168681Y0084410D01*
X0169909Y0085109D02*
X0166611Y0085109D01*
X0171306Y0085109D02*
X0172006Y0085109D01*
X0172006Y0084410D02*
X0171306Y0084410D01*
X0171306Y0083712D02*
X0172006Y0083712D01*
X0172006Y0083013D02*
X0171306Y0083013D01*
X0171306Y0082315D02*
X0172006Y0082315D01*
X0172006Y0080219D02*
X0171306Y0080219D01*
X0171306Y0079521D02*
X0172006Y0079521D01*
X0172006Y0078822D02*
X0171306Y0078822D01*
X0171306Y0078123D02*
X0172006Y0078123D01*
X0172006Y0077425D02*
X0171306Y0077425D01*
X0171306Y0076726D02*
X0172006Y0076726D01*
X0172006Y0076028D02*
X0171306Y0076028D01*
X0169959Y0076028D02*
X0167109Y0076028D01*
X0166624Y0076726D02*
X0168703Y0076726D01*
X0167950Y0077425D02*
X0166611Y0077425D01*
X0166611Y0078123D02*
X0167462Y0078123D01*
X0167126Y0078822D02*
X0166611Y0078822D01*
X0166611Y0079521D02*
X0166912Y0079521D01*
X0166806Y0080219D02*
X0166611Y0080219D01*
X0173352Y0076028D02*
X0192381Y0076028D01*
X0192381Y0076726D02*
X0174608Y0076726D01*
X0175361Y0077425D02*
X0192381Y0077425D01*
X0192381Y0078123D02*
X0175849Y0078123D01*
X0176185Y0078822D02*
X0192381Y0078822D01*
X0192381Y0079521D02*
X0176399Y0079521D01*
X0176506Y0080219D02*
X0192381Y0080219D01*
X0192381Y0075329D02*
X0182447Y0075329D01*
X0183146Y0074631D02*
X0192381Y0074631D01*
X0192381Y0073932D02*
X0183844Y0073932D01*
X0184543Y0073234D02*
X0192381Y0073234D01*
X0192381Y0072535D02*
X0185241Y0072535D01*
X0185940Y0071837D02*
X0192381Y0071837D01*
X0192381Y0071138D02*
X0186398Y0071138D01*
X0186398Y0070440D02*
X0192381Y0070440D01*
X0192381Y0069741D02*
X0186398Y0069741D01*
X0185761Y0069043D02*
X0192381Y0069043D01*
X0192381Y0061359D02*
X0157943Y0061359D01*
X0157541Y0061526D02*
X0155691Y0061526D01*
X0153982Y0060818D01*
X0152674Y0059510D01*
X0151966Y0057801D01*
X0151966Y0055951D01*
X0152674Y0054242D01*
X0153982Y0052934D01*
X0155691Y0052226D01*
X0157541Y0052226D01*
X0159250Y0052934D01*
X0160558Y0054242D01*
X0161266Y0055951D01*
X0161266Y0057801D01*
X0160558Y0059510D01*
X0159250Y0060818D01*
X0157541Y0061526D01*
X0159407Y0060661D02*
X0192381Y0060661D01*
X0192381Y0059962D02*
X0160106Y0059962D01*
X0160660Y0059264D02*
X0192381Y0059264D01*
X0192381Y0058565D02*
X0160949Y0058565D01*
X0161239Y0057867D02*
X0192381Y0057867D01*
X0192381Y0057168D02*
X0161266Y0057168D01*
X0161266Y0056470D02*
X0192381Y0056470D01*
X0192381Y0055771D02*
X0161192Y0055771D01*
X0160902Y0055073D02*
X0192381Y0055073D01*
X0192381Y0054374D02*
X0160613Y0054374D01*
X0159992Y0053676D02*
X0192381Y0053676D01*
X0192381Y0052977D02*
X0159294Y0052977D01*
X0157669Y0052279D02*
X0192381Y0052279D01*
X0192381Y0051580D02*
X0150081Y0051580D01*
X0150081Y0050882D02*
X0154136Y0050882D01*
X0153348Y0050183D02*
X0150081Y0050183D01*
X0150081Y0049485D02*
X0152664Y0049485D01*
X0152374Y0048786D02*
X0150081Y0048786D01*
X0150081Y0048087D02*
X0152085Y0048087D01*
X0151966Y0047389D02*
X0150081Y0047389D01*
X0150081Y0046690D02*
X0151966Y0046690D01*
X0151966Y0045992D02*
X0150081Y0045992D01*
X0150081Y0045293D02*
X0152238Y0045293D01*
X0152528Y0044595D02*
X0150081Y0044595D01*
X0150081Y0043896D02*
X0153019Y0043896D01*
X0153718Y0043198D02*
X0150081Y0043198D01*
X0150081Y0052279D02*
X0155563Y0052279D01*
X0153939Y0052977D02*
X0150081Y0052977D01*
X0150081Y0053676D02*
X0153240Y0053676D01*
X0152619Y0054374D02*
X0150081Y0054374D01*
X0150081Y0055073D02*
X0152330Y0055073D01*
X0152041Y0055771D02*
X0150081Y0055771D01*
X0150081Y0056470D02*
X0151966Y0056470D01*
X0151966Y0057168D02*
X0150081Y0057168D01*
X0150081Y0057867D02*
X0151994Y0057867D01*
X0152283Y0058565D02*
X0150081Y0058565D01*
X0150081Y0059264D02*
X0152572Y0059264D01*
X0153127Y0059962D02*
X0150081Y0059962D01*
X0150081Y0060661D02*
X0153825Y0060661D01*
X0155289Y0061359D02*
X0150081Y0061359D01*
X0150081Y0071837D02*
X0165028Y0071837D01*
X0173195Y0086506D02*
X0192381Y0086506D01*
X0192381Y0087204D02*
X0174435Y0087204D01*
X0175134Y0087903D02*
X0192381Y0087903D01*
X0192381Y0088601D02*
X0175546Y0088601D01*
X0159096Y0050882D02*
X0192381Y0050882D01*
X0192381Y0050183D02*
X0159885Y0050183D01*
X0160569Y0049485D02*
X0192381Y0049485D01*
X0192381Y0048786D02*
X0160858Y0048786D01*
X0161147Y0048087D02*
X0192381Y0048087D01*
X0192381Y0047389D02*
X0161266Y0047389D01*
X0161266Y0046690D02*
X0192381Y0046690D01*
X0192381Y0045992D02*
X0161266Y0045992D01*
X0160994Y0045293D02*
X0192381Y0045293D01*
X0192381Y0044595D02*
X0160705Y0044595D01*
X0160213Y0043896D02*
X0192381Y0043896D01*
X0192381Y0043198D02*
X0159515Y0043198D01*
X0186207Y0028529D02*
X0186397Y0028531D01*
X0186587Y0028538D01*
X0186777Y0028550D01*
X0186967Y0028566D01*
X0187156Y0028586D01*
X0187345Y0028612D01*
X0187533Y0028641D01*
X0187720Y0028676D01*
X0187906Y0028715D01*
X0188091Y0028758D01*
X0188276Y0028806D01*
X0188459Y0028858D01*
X0188640Y0028914D01*
X0188820Y0028975D01*
X0188999Y0029041D01*
X0189176Y0029110D01*
X0189352Y0029184D01*
X0189525Y0029262D01*
X0189697Y0029345D01*
X0189866Y0029431D01*
X0190034Y0029521D01*
X0190199Y0029616D01*
X0190362Y0029714D01*
X0190522Y0029817D01*
X0190680Y0029923D01*
X0190835Y0030033D01*
X0190988Y0030146D01*
X0191138Y0030264D01*
X0191284Y0030385D01*
X0191428Y0030509D01*
X0191569Y0030637D01*
X0191707Y0030768D01*
X0191842Y0030903D01*
X0191973Y0031041D01*
X0192101Y0031182D01*
X0192225Y0031326D01*
X0192346Y0031472D01*
X0192464Y0031622D01*
X0192577Y0031775D01*
X0192687Y0031930D01*
X0192793Y0032088D01*
X0192896Y0032248D01*
X0192994Y0032411D01*
X0193089Y0032576D01*
X0193179Y0032744D01*
X0193265Y0032913D01*
X0193348Y0033085D01*
X0193426Y0033258D01*
X0193500Y0033434D01*
X0193569Y0033611D01*
X0193635Y0033790D01*
X0193696Y0033970D01*
X0193752Y0034151D01*
X0193804Y0034334D01*
X0193852Y0034519D01*
X0193895Y0034704D01*
X0193934Y0034890D01*
X0193969Y0035077D01*
X0193998Y0035265D01*
X0194024Y0035454D01*
X0194044Y0035643D01*
X0194060Y0035833D01*
X0194072Y0036023D01*
X0194079Y0036213D01*
X0194081Y0036403D01*
X0167071Y0158452D02*
X0160996Y0158452D01*
X0160707Y0159151D02*
X0167770Y0159151D01*
X0168468Y0159849D02*
X0160219Y0159849D01*
X0159520Y0160548D02*
X0169167Y0160548D01*
X0169865Y0161246D02*
X0158215Y0161246D01*
X0155216Y0172423D02*
X0150081Y0172423D01*
X0150081Y0173121D02*
X0153795Y0173121D01*
X0153096Y0173820D02*
X0150081Y0173820D01*
X0176755Y0173820D02*
X0192381Y0173820D01*
X0192381Y0173121D02*
X0177454Y0173121D01*
X0178152Y0172423D02*
X0192381Y0172423D01*
X0192381Y0171724D02*
X0178851Y0171724D01*
X0179549Y0171025D02*
X0192381Y0171025D01*
X0192381Y0170327D02*
X0180248Y0170327D01*
X0180548Y0169628D02*
X0192381Y0169628D01*
X0192381Y0168930D02*
X0180548Y0168930D01*
X0180548Y0168231D02*
X0192381Y0168231D01*
X0192381Y0167533D02*
X0180548Y0167533D01*
X0060348Y0088529D02*
X0060348Y0040529D01*
X0060348Y0088529D02*
X0057348Y0091529D01*
X0057348Y0103529D01*
X0053348Y0107529D01*
X0044348Y0107529D01*
X0044348Y0143529D01*
X0034348Y0143529D01*
X0035176Y0146529D02*
X0035254Y0146529D01*
X0035315Y0146531D01*
X0035376Y0146537D01*
X0035437Y0146546D01*
X0035496Y0146560D01*
X0035555Y0146577D01*
X0035613Y0146597D01*
X0035669Y0146622D01*
X0035724Y0146650D01*
X0035776Y0146681D01*
X0035827Y0146715D01*
X0035875Y0146753D01*
X0035921Y0146793D01*
X0035965Y0146837D01*
X0036005Y0146883D01*
X0036043Y0146931D01*
X0036077Y0146982D01*
X0036108Y0147034D01*
X0036136Y0147089D01*
X0036161Y0147145D01*
X0036181Y0147203D01*
X0036198Y0147262D01*
X0036212Y0147321D01*
X0036221Y0147382D01*
X0036227Y0147443D01*
X0036229Y0147504D01*
X0036229Y0171554D01*
X0036231Y0171615D01*
X0036237Y0171676D01*
X0036246Y0171737D01*
X0036260Y0171796D01*
X0036277Y0171855D01*
X0036297Y0171913D01*
X0036322Y0171969D01*
X0036350Y0172024D01*
X0036381Y0172076D01*
X0036415Y0172127D01*
X0036453Y0172175D01*
X0036493Y0172221D01*
X0036537Y0172265D01*
X0036583Y0172305D01*
X0036631Y0172343D01*
X0036682Y0172377D01*
X0036734Y0172408D01*
X0036789Y0172436D01*
X0036845Y0172461D01*
X0036903Y0172481D01*
X0036962Y0172498D01*
X0037021Y0172512D01*
X0037082Y0172521D01*
X0037143Y0172527D01*
X0037204Y0172529D01*
X0037283Y0172529D01*
X0037344Y0172527D01*
X0037405Y0172521D01*
X0037466Y0172512D01*
X0037525Y0172498D01*
X0037584Y0172481D01*
X0037642Y0172461D01*
X0037698Y0172436D01*
X0037753Y0172408D01*
X0037805Y0172377D01*
X0037856Y0172343D01*
X0037904Y0172305D01*
X0037950Y0172265D01*
X0037994Y0172221D01*
X0038034Y0172175D01*
X0038072Y0172127D01*
X0038106Y0172076D01*
X0038137Y0172024D01*
X0038165Y0171969D01*
X0038190Y0171913D01*
X0038210Y0171855D01*
X0038227Y0171796D01*
X0038241Y0171737D01*
X0038250Y0171676D01*
X0038256Y0171615D01*
X0038258Y0171554D01*
X0038258Y0147504D01*
X0038260Y0147443D01*
X0038266Y0147382D01*
X0038275Y0147321D01*
X0038289Y0147262D01*
X0038306Y0147203D01*
X0038326Y0147145D01*
X0038351Y0147089D01*
X0038379Y0147034D01*
X0038410Y0146982D01*
X0038444Y0146931D01*
X0038482Y0146883D01*
X0038522Y0146837D01*
X0038566Y0146793D01*
X0038612Y0146753D01*
X0038660Y0146715D01*
X0038711Y0146681D01*
X0038763Y0146650D01*
X0038818Y0146622D01*
X0038874Y0146597D01*
X0038932Y0146577D01*
X0038991Y0146560D01*
X0039050Y0146546D01*
X0039111Y0146537D01*
X0039172Y0146531D01*
X0039233Y0146529D01*
X0039312Y0146529D01*
X0039373Y0146531D01*
X0039434Y0146537D01*
X0039495Y0146546D01*
X0039554Y0146560D01*
X0039613Y0146577D01*
X0039671Y0146597D01*
X0039727Y0146622D01*
X0039782Y0146650D01*
X0039834Y0146681D01*
X0039885Y0146715D01*
X0039933Y0146753D01*
X0039979Y0146793D01*
X0040023Y0146837D01*
X0040063Y0146883D01*
X0040101Y0146931D01*
X0040135Y0146982D01*
X0040166Y0147034D01*
X0040194Y0147089D01*
X0040219Y0147145D01*
X0040239Y0147203D01*
X0040256Y0147262D01*
X0040270Y0147321D01*
X0040279Y0147382D01*
X0040285Y0147443D01*
X0040287Y0147504D01*
X0040287Y0171554D01*
X0040289Y0171615D01*
X0040295Y0171676D01*
X0040304Y0171737D01*
X0040318Y0171796D01*
X0040335Y0171855D01*
X0040355Y0171913D01*
X0040380Y0171969D01*
X0040408Y0172024D01*
X0040439Y0172076D01*
X0040473Y0172127D01*
X0040511Y0172175D01*
X0040551Y0172221D01*
X0040595Y0172265D01*
X0040641Y0172305D01*
X0040689Y0172343D01*
X0040740Y0172377D01*
X0040792Y0172408D01*
X0040847Y0172436D01*
X0040903Y0172461D01*
X0040961Y0172481D01*
X0041020Y0172498D01*
X0041079Y0172512D01*
X0041140Y0172521D01*
X0041201Y0172527D01*
X0041262Y0172529D01*
X0041341Y0172529D01*
X0041402Y0172527D01*
X0041463Y0172521D01*
X0041524Y0172512D01*
X0041583Y0172498D01*
X0041642Y0172481D01*
X0041700Y0172461D01*
X0041756Y0172436D01*
X0041811Y0172408D01*
X0041863Y0172377D01*
X0041914Y0172343D01*
X0041962Y0172305D01*
X0042008Y0172265D01*
X0042052Y0172221D01*
X0042092Y0172175D01*
X0042130Y0172127D01*
X0042164Y0172076D01*
X0042195Y0172024D01*
X0042223Y0171969D01*
X0042248Y0171913D01*
X0042268Y0171855D01*
X0042285Y0171796D01*
X0042299Y0171737D01*
X0042308Y0171676D01*
X0042314Y0171615D01*
X0042316Y0171554D01*
X0042316Y0147504D01*
X0042318Y0147443D01*
X0042324Y0147382D01*
X0042333Y0147321D01*
X0042347Y0147262D01*
X0042364Y0147203D01*
X0042384Y0147145D01*
X0042409Y0147089D01*
X0042437Y0147034D01*
X0042468Y0146982D01*
X0042502Y0146931D01*
X0042540Y0146883D01*
X0042580Y0146837D01*
X0042624Y0146793D01*
X0042670Y0146753D01*
X0042718Y0146715D01*
X0042769Y0146681D01*
X0042821Y0146650D01*
X0042876Y0146622D01*
X0042932Y0146597D01*
X0042990Y0146577D01*
X0043049Y0146560D01*
X0043108Y0146546D01*
X0043169Y0146537D01*
X0043230Y0146531D01*
X0043291Y0146529D01*
X0043370Y0146529D01*
X0043431Y0146531D01*
X0043492Y0146537D01*
X0043553Y0146546D01*
X0043612Y0146560D01*
X0043671Y0146577D01*
X0043729Y0146597D01*
X0043785Y0146622D01*
X0043840Y0146650D01*
X0043892Y0146681D01*
X0043943Y0146715D01*
X0043991Y0146753D01*
X0044037Y0146793D01*
X0044081Y0146837D01*
X0044121Y0146883D01*
X0044159Y0146931D01*
X0044193Y0146982D01*
X0044224Y0147034D01*
X0044252Y0147089D01*
X0044277Y0147145D01*
X0044297Y0147203D01*
X0044314Y0147262D01*
X0044328Y0147321D01*
X0044337Y0147382D01*
X0044343Y0147443D01*
X0044345Y0147504D01*
X0044345Y0171554D01*
X0044347Y0171615D01*
X0044353Y0171676D01*
X0044362Y0171737D01*
X0044376Y0171796D01*
X0044393Y0171855D01*
X0044413Y0171913D01*
X0044438Y0171969D01*
X0044466Y0172024D01*
X0044497Y0172076D01*
X0044531Y0172127D01*
X0044569Y0172175D01*
X0044609Y0172221D01*
X0044653Y0172265D01*
X0044699Y0172305D01*
X0044747Y0172343D01*
X0044798Y0172377D01*
X0044850Y0172408D01*
X0044905Y0172436D01*
X0044961Y0172461D01*
X0045019Y0172481D01*
X0045078Y0172498D01*
X0045137Y0172512D01*
X0045198Y0172521D01*
X0045259Y0172527D01*
X0045320Y0172529D01*
X0045398Y0172529D01*
X0045459Y0172527D01*
X0045520Y0172521D01*
X0045581Y0172512D01*
X0045640Y0172498D01*
X0045699Y0172481D01*
X0045757Y0172461D01*
X0045813Y0172436D01*
X0045868Y0172408D01*
X0045920Y0172377D01*
X0045971Y0172343D01*
X0046019Y0172305D01*
X0046065Y0172265D01*
X0046109Y0172221D01*
X0046149Y0172175D01*
X0046187Y0172127D01*
X0046221Y0172076D01*
X0046252Y0172024D01*
X0046280Y0171969D01*
X0046305Y0171913D01*
X0046325Y0171855D01*
X0046342Y0171796D01*
X0046356Y0171737D01*
X0046365Y0171676D01*
X0046371Y0171615D01*
X0046373Y0171554D01*
X0046373Y0147504D01*
X0046375Y0147443D01*
X0046381Y0147382D01*
X0046390Y0147321D01*
X0046404Y0147262D01*
X0046421Y0147203D01*
X0046441Y0147145D01*
X0046466Y0147089D01*
X0046494Y0147034D01*
X0046525Y0146982D01*
X0046559Y0146931D01*
X0046597Y0146883D01*
X0046637Y0146837D01*
X0046681Y0146793D01*
X0046727Y0146753D01*
X0046775Y0146715D01*
X0046826Y0146681D01*
X0046878Y0146650D01*
X0046933Y0146622D01*
X0046989Y0146597D01*
X0047047Y0146577D01*
X0047106Y0146560D01*
X0047165Y0146546D01*
X0047226Y0146537D01*
X0047287Y0146531D01*
X0047348Y0146529D01*
X0054348Y0146529D01*
X0054348Y0157529D01*
X0057348Y0157529D01*
X0035176Y0146529D02*
X0035115Y0146531D01*
X0035054Y0146537D01*
X0034993Y0146546D01*
X0034934Y0146560D01*
X0034875Y0146577D01*
X0034817Y0146597D01*
X0034761Y0146622D01*
X0034706Y0146650D01*
X0034654Y0146681D01*
X0034603Y0146715D01*
X0034555Y0146753D01*
X0034509Y0146793D01*
X0034465Y0146837D01*
X0034425Y0146883D01*
X0034387Y0146931D01*
X0034353Y0146982D01*
X0034322Y0147034D01*
X0034294Y0147089D01*
X0034269Y0147145D01*
X0034249Y0147203D01*
X0034232Y0147262D01*
X0034218Y0147321D01*
X0034209Y0147382D01*
X0034203Y0147443D01*
X0034201Y0147504D01*
X0034201Y0171554D01*
X0034199Y0171615D01*
X0034193Y0171676D01*
X0034184Y0171737D01*
X0034170Y0171796D01*
X0034153Y0171855D01*
X0034133Y0171913D01*
X0034108Y0171969D01*
X0034080Y0172024D01*
X0034049Y0172076D01*
X0034015Y0172127D01*
X0033977Y0172175D01*
X0033937Y0172221D01*
X0033893Y0172265D01*
X0033847Y0172305D01*
X0033799Y0172343D01*
X0033748Y0172377D01*
X0033696Y0172408D01*
X0033641Y0172436D01*
X0033585Y0172461D01*
X0033527Y0172481D01*
X0033468Y0172498D01*
X0033409Y0172512D01*
X0033348Y0172521D01*
X0033287Y0172527D01*
X0033226Y0172529D01*
X0033147Y0172529D01*
X0033086Y0172527D01*
X0033025Y0172521D01*
X0032964Y0172512D01*
X0032905Y0172498D01*
X0032846Y0172481D01*
X0032788Y0172461D01*
X0032732Y0172436D01*
X0032677Y0172408D01*
X0032625Y0172377D01*
X0032574Y0172343D01*
X0032526Y0172305D01*
X0032480Y0172265D01*
X0032436Y0172221D01*
X0032396Y0172175D01*
X0032358Y0172127D01*
X0032324Y0172076D01*
X0032293Y0172024D01*
X0032265Y0171969D01*
X0032240Y0171913D01*
X0032220Y0171855D01*
X0032203Y0171796D01*
X0032189Y0171737D01*
X0032180Y0171676D01*
X0032174Y0171615D01*
X0032172Y0171554D01*
X0032172Y0147504D01*
X0032170Y0147443D01*
X0032164Y0147382D01*
X0032155Y0147321D01*
X0032141Y0147262D01*
X0032124Y0147203D01*
X0032104Y0147145D01*
X0032079Y0147089D01*
X0032051Y0147034D01*
X0032020Y0146982D01*
X0031986Y0146931D01*
X0031948Y0146883D01*
X0031908Y0146837D01*
X0031864Y0146793D01*
X0031818Y0146753D01*
X0031770Y0146715D01*
X0031719Y0146681D01*
X0031667Y0146650D01*
X0031612Y0146622D01*
X0031556Y0146597D01*
X0031498Y0146577D01*
X0031439Y0146560D01*
X0031380Y0146546D01*
X0031319Y0146537D01*
X0031258Y0146531D01*
X0031197Y0146529D01*
X0031118Y0146529D01*
X0031057Y0146531D01*
X0030996Y0146537D01*
X0030935Y0146546D01*
X0030876Y0146560D01*
X0030817Y0146577D01*
X0030759Y0146597D01*
X0030703Y0146622D01*
X0030648Y0146650D01*
X0030596Y0146681D01*
X0030545Y0146715D01*
X0030497Y0146753D01*
X0030451Y0146793D01*
X0030407Y0146837D01*
X0030367Y0146883D01*
X0030329Y0146931D01*
X0030295Y0146982D01*
X0030264Y0147034D01*
X0030236Y0147089D01*
X0030211Y0147145D01*
X0030191Y0147203D01*
X0030174Y0147262D01*
X0030160Y0147321D01*
X0030151Y0147382D01*
X0030145Y0147443D01*
X0030143Y0147504D01*
X0030143Y0171554D01*
X0030141Y0171615D01*
X0030135Y0171676D01*
X0030126Y0171737D01*
X0030112Y0171796D01*
X0030095Y0171855D01*
X0030075Y0171913D01*
X0030050Y0171969D01*
X0030022Y0172024D01*
X0029991Y0172076D01*
X0029957Y0172127D01*
X0029919Y0172175D01*
X0029879Y0172221D01*
X0029835Y0172265D01*
X0029789Y0172305D01*
X0029741Y0172343D01*
X0029690Y0172377D01*
X0029638Y0172408D01*
X0029583Y0172436D01*
X0029527Y0172461D01*
X0029469Y0172481D01*
X0029410Y0172498D01*
X0029351Y0172512D01*
X0029290Y0172521D01*
X0029229Y0172527D01*
X0029168Y0172529D01*
X0029089Y0172529D01*
X0029028Y0172527D01*
X0028967Y0172521D01*
X0028906Y0172512D01*
X0028847Y0172498D01*
X0028788Y0172481D01*
X0028730Y0172461D01*
X0028674Y0172436D01*
X0028619Y0172408D01*
X0028567Y0172377D01*
X0028516Y0172343D01*
X0028468Y0172305D01*
X0028422Y0172265D01*
X0028378Y0172221D01*
X0028338Y0172175D01*
X0028300Y0172127D01*
X0028266Y0172076D01*
X0028235Y0172024D01*
X0028207Y0171969D01*
X0028182Y0171913D01*
X0028162Y0171855D01*
X0028145Y0171796D01*
X0028131Y0171737D01*
X0028122Y0171676D01*
X0028116Y0171615D01*
X0028114Y0171554D01*
X0028114Y0147504D01*
X0028112Y0147443D01*
X0028106Y0147382D01*
X0028097Y0147321D01*
X0028083Y0147262D01*
X0028066Y0147203D01*
X0028046Y0147145D01*
X0028021Y0147089D01*
X0027993Y0147034D01*
X0027962Y0146982D01*
X0027928Y0146931D01*
X0027890Y0146883D01*
X0027850Y0146837D01*
X0027806Y0146793D01*
X0027760Y0146753D01*
X0027712Y0146715D01*
X0027661Y0146681D01*
X0027609Y0146650D01*
X0027554Y0146622D01*
X0027498Y0146597D01*
X0027440Y0146577D01*
X0027381Y0146560D01*
X0027322Y0146546D01*
X0027261Y0146537D01*
X0027200Y0146531D01*
X0027139Y0146529D01*
X0027060Y0146529D01*
X0026999Y0146531D01*
X0026938Y0146537D01*
X0026877Y0146546D01*
X0026818Y0146560D01*
X0026759Y0146577D01*
X0026701Y0146597D01*
X0026645Y0146622D01*
X0026590Y0146650D01*
X0026538Y0146681D01*
X0026487Y0146715D01*
X0026439Y0146753D01*
X0026393Y0146793D01*
X0026349Y0146837D01*
X0026309Y0146883D01*
X0026271Y0146931D01*
X0026237Y0146982D01*
X0026206Y0147034D01*
X0026178Y0147089D01*
X0026153Y0147145D01*
X0026133Y0147203D01*
X0026116Y0147262D01*
X0026102Y0147321D01*
X0026093Y0147382D01*
X0026087Y0147443D01*
X0026085Y0147504D01*
X0026085Y0171554D01*
X0026083Y0171615D01*
X0026077Y0171676D01*
X0026068Y0171737D01*
X0026054Y0171796D01*
X0026037Y0171855D01*
X0026017Y0171913D01*
X0025992Y0171969D01*
X0025964Y0172024D01*
X0025933Y0172076D01*
X0025899Y0172127D01*
X0025861Y0172175D01*
X0025821Y0172221D01*
X0025777Y0172265D01*
X0025731Y0172305D01*
X0025683Y0172343D01*
X0025632Y0172377D01*
X0025580Y0172408D01*
X0025525Y0172436D01*
X0025469Y0172461D01*
X0025411Y0172481D01*
X0025352Y0172498D01*
X0025293Y0172512D01*
X0025232Y0172521D01*
X0025171Y0172527D01*
X0025110Y0172529D01*
X0025031Y0172529D01*
X0024970Y0172527D01*
X0024909Y0172521D01*
X0024848Y0172512D01*
X0024789Y0172498D01*
X0024730Y0172481D01*
X0024672Y0172461D01*
X0024616Y0172436D01*
X0024561Y0172408D01*
X0024509Y0172377D01*
X0024458Y0172343D01*
X0024410Y0172305D01*
X0024364Y0172265D01*
X0024320Y0172221D01*
X0024280Y0172175D01*
X0024242Y0172127D01*
X0024208Y0172076D01*
X0024177Y0172024D01*
X0024149Y0171969D01*
X0024124Y0171913D01*
X0024104Y0171855D01*
X0024087Y0171796D01*
X0024073Y0171737D01*
X0024064Y0171676D01*
X0024058Y0171615D01*
X0024056Y0171554D01*
X0024056Y0147504D01*
X0024054Y0147443D01*
X0024048Y0147382D01*
X0024039Y0147321D01*
X0024025Y0147262D01*
X0024008Y0147203D01*
X0023988Y0147145D01*
X0023963Y0147089D01*
X0023935Y0147034D01*
X0023904Y0146982D01*
X0023870Y0146931D01*
X0023832Y0146883D01*
X0023792Y0146837D01*
X0023748Y0146793D01*
X0023702Y0146753D01*
X0023654Y0146715D01*
X0023603Y0146681D01*
X0023551Y0146650D01*
X0023496Y0146622D01*
X0023440Y0146597D01*
X0023382Y0146577D01*
X0023323Y0146560D01*
X0023264Y0146546D01*
X0023203Y0146537D01*
X0023142Y0146531D01*
X0023081Y0146529D01*
X0023003Y0146529D01*
X0022942Y0146531D01*
X0022881Y0146537D01*
X0022820Y0146546D01*
X0022761Y0146560D01*
X0022702Y0146577D01*
X0022644Y0146597D01*
X0022588Y0146622D01*
X0022533Y0146650D01*
X0022481Y0146681D01*
X0022430Y0146715D01*
X0022382Y0146753D01*
X0022336Y0146793D01*
X0022292Y0146837D01*
X0022252Y0146883D01*
X0022214Y0146931D01*
X0022180Y0146982D01*
X0022149Y0147034D01*
X0022121Y0147089D01*
X0022096Y0147145D01*
X0022076Y0147203D01*
X0022059Y0147262D01*
X0022045Y0147321D01*
X0022036Y0147382D01*
X0022030Y0147443D01*
X0022028Y0147504D01*
X0022028Y0171554D01*
X0022026Y0171615D01*
X0022020Y0171676D01*
X0022011Y0171737D01*
X0021997Y0171796D01*
X0021980Y0171855D01*
X0021960Y0171913D01*
X0021935Y0171969D01*
X0021907Y0172024D01*
X0021876Y0172076D01*
X0021842Y0172127D01*
X0021804Y0172175D01*
X0021764Y0172221D01*
X0021720Y0172265D01*
X0021674Y0172305D01*
X0021626Y0172343D01*
X0021575Y0172377D01*
X0021523Y0172408D01*
X0021468Y0172436D01*
X0021412Y0172461D01*
X0021354Y0172481D01*
X0021295Y0172498D01*
X0021236Y0172512D01*
X0021175Y0172521D01*
X0021114Y0172527D01*
X0021053Y0172529D01*
X0020974Y0172529D01*
X0020913Y0172527D01*
X0020852Y0172521D01*
X0020791Y0172512D01*
X0020732Y0172498D01*
X0020673Y0172481D01*
X0020615Y0172461D01*
X0020559Y0172436D01*
X0020504Y0172408D01*
X0020452Y0172377D01*
X0020401Y0172343D01*
X0020353Y0172305D01*
X0020307Y0172265D01*
X0020263Y0172221D01*
X0020223Y0172175D01*
X0020185Y0172127D01*
X0020151Y0172076D01*
X0020120Y0172024D01*
X0020092Y0171969D01*
X0020067Y0171913D01*
X0020047Y0171855D01*
X0020030Y0171796D01*
X0020016Y0171737D01*
X0020007Y0171676D01*
X0020001Y0171615D01*
X0019999Y0171554D01*
X0019999Y0147504D01*
X0019997Y0147443D01*
X0019991Y0147382D01*
X0019982Y0147321D01*
X0019968Y0147262D01*
X0019951Y0147203D01*
X0019931Y0147145D01*
X0019906Y0147089D01*
X0019878Y0147034D01*
X0019847Y0146982D01*
X0019813Y0146931D01*
X0019775Y0146883D01*
X0019735Y0146837D01*
X0019691Y0146793D01*
X0019645Y0146753D01*
X0019597Y0146715D01*
X0019546Y0146681D01*
X0019494Y0146650D01*
X0019439Y0146622D01*
X0019383Y0146597D01*
X0019325Y0146577D01*
X0019266Y0146560D01*
X0019207Y0146546D01*
X0019146Y0146537D01*
X0019085Y0146531D01*
X0019024Y0146529D01*
X0018945Y0146529D01*
X0018884Y0146531D01*
X0018823Y0146537D01*
X0018762Y0146546D01*
X0018703Y0146560D01*
X0018644Y0146577D01*
X0018586Y0146597D01*
X0018530Y0146622D01*
X0018475Y0146650D01*
X0018423Y0146681D01*
X0018372Y0146715D01*
X0018324Y0146753D01*
X0018278Y0146793D01*
X0018234Y0146837D01*
X0018194Y0146883D01*
X0018156Y0146931D01*
X0018122Y0146982D01*
X0018091Y0147034D01*
X0018063Y0147089D01*
X0018038Y0147145D01*
X0018018Y0147203D01*
X0018001Y0147262D01*
X0017987Y0147321D01*
X0017978Y0147382D01*
X0017972Y0147443D01*
X0017970Y0147504D01*
X0017970Y0171554D01*
X0017968Y0171615D01*
X0017962Y0171676D01*
X0017953Y0171737D01*
X0017939Y0171796D01*
X0017922Y0171855D01*
X0017902Y0171913D01*
X0017877Y0171969D01*
X0017849Y0172024D01*
X0017818Y0172076D01*
X0017784Y0172127D01*
X0017746Y0172175D01*
X0017706Y0172221D01*
X0017662Y0172265D01*
X0017616Y0172305D01*
X0017568Y0172343D01*
X0017517Y0172377D01*
X0017465Y0172408D01*
X0017410Y0172436D01*
X0017354Y0172461D01*
X0017296Y0172481D01*
X0017237Y0172498D01*
X0017178Y0172512D01*
X0017117Y0172521D01*
X0017056Y0172527D01*
X0016995Y0172529D01*
X0016916Y0172529D01*
X0016855Y0172527D01*
X0016794Y0172521D01*
X0016733Y0172512D01*
X0016674Y0172498D01*
X0016615Y0172481D01*
X0016557Y0172461D01*
X0016501Y0172436D01*
X0016446Y0172408D01*
X0016394Y0172377D01*
X0016343Y0172343D01*
X0016295Y0172305D01*
X0016249Y0172265D01*
X0016205Y0172221D01*
X0016165Y0172175D01*
X0016127Y0172127D01*
X0016093Y0172076D01*
X0016062Y0172024D01*
X0016034Y0171969D01*
X0016009Y0171913D01*
X0015989Y0171855D01*
X0015972Y0171796D01*
X0015958Y0171737D01*
X0015949Y0171676D01*
X0015943Y0171615D01*
X0015941Y0171554D01*
X0015941Y0147504D01*
X0015939Y0147443D01*
X0015933Y0147382D01*
X0015924Y0147321D01*
X0015910Y0147262D01*
X0015893Y0147203D01*
X0015873Y0147145D01*
X0015848Y0147089D01*
X0015820Y0147034D01*
X0015789Y0146982D01*
X0015755Y0146931D01*
X0015717Y0146883D01*
X0015677Y0146837D01*
X0015633Y0146793D01*
X0015587Y0146753D01*
X0015539Y0146715D01*
X0015488Y0146681D01*
X0015436Y0146650D01*
X0015381Y0146622D01*
X0015325Y0146597D01*
X0015267Y0146577D01*
X0015208Y0146560D01*
X0015149Y0146546D01*
X0015088Y0146537D01*
X0015027Y0146531D01*
X0014966Y0146529D01*
X0013348Y0146529D01*
X0013348Y0145049D01*
X0013350Y0144988D01*
X0013356Y0144927D01*
X0013365Y0144866D01*
X0013379Y0144807D01*
X0013396Y0144748D01*
X0013416Y0144690D01*
X0013441Y0144634D01*
X0013469Y0144579D01*
X0013500Y0144527D01*
X0013534Y0144476D01*
X0013572Y0144428D01*
X0013612Y0144382D01*
X0013656Y0144338D01*
X0013702Y0144298D01*
X0013750Y0144260D01*
X0013801Y0144226D01*
X0013853Y0144195D01*
X0013908Y0144167D01*
X0013964Y0144142D01*
X0014022Y0144122D01*
X0014081Y0144105D01*
X0014140Y0144091D01*
X0014201Y0144082D01*
X0014262Y0144076D01*
X0014323Y0144074D01*
X0017373Y0144074D01*
X0017434Y0144072D01*
X0017495Y0144066D01*
X0017556Y0144057D01*
X0017615Y0144043D01*
X0017674Y0144026D01*
X0017732Y0144006D01*
X0017788Y0143981D01*
X0017843Y0143953D01*
X0017895Y0143922D01*
X0017946Y0143888D01*
X0017994Y0143850D01*
X0018040Y0143810D01*
X0018084Y0143766D01*
X0018124Y0143720D01*
X0018162Y0143672D01*
X0018196Y0143621D01*
X0018227Y0143569D01*
X0018255Y0143514D01*
X0018280Y0143458D01*
X0018300Y0143400D01*
X0018317Y0143341D01*
X0018331Y0143282D01*
X0018340Y0143221D01*
X0018346Y0143160D01*
X0018348Y0143099D01*
X0018348Y0142479D01*
X0018346Y0142418D01*
X0018340Y0142357D01*
X0018331Y0142296D01*
X0018317Y0142237D01*
X0018300Y0142178D01*
X0018280Y0142120D01*
X0018255Y0142064D01*
X0018227Y0142009D01*
X0018196Y0141957D01*
X0018162Y0141906D01*
X0018124Y0141858D01*
X0018084Y0141812D01*
X0018040Y0141768D01*
X0017994Y0141728D01*
X0017946Y0141690D01*
X0017895Y0141656D01*
X0017843Y0141625D01*
X0017788Y0141597D01*
X0017732Y0141572D01*
X0017674Y0141552D01*
X0017615Y0141535D01*
X0017556Y0141521D01*
X0017495Y0141512D01*
X0017434Y0141506D01*
X0017373Y0141504D01*
X0014323Y0141504D01*
X0014262Y0141502D01*
X0014201Y0141496D01*
X0014140Y0141487D01*
X0014081Y0141473D01*
X0014022Y0141456D01*
X0013964Y0141436D01*
X0013908Y0141411D01*
X0013853Y0141383D01*
X0013801Y0141352D01*
X0013750Y0141318D01*
X0013702Y0141280D01*
X0013656Y0141240D01*
X0013612Y0141196D01*
X0013572Y0141150D01*
X0013534Y0141102D01*
X0013500Y0141051D01*
X0013469Y0140999D01*
X0013441Y0140944D01*
X0013416Y0140888D01*
X0013396Y0140830D01*
X0013379Y0140771D01*
X0013365Y0140712D01*
X0013356Y0140651D01*
X0013350Y0140590D01*
X0013348Y0140529D01*
X0013348Y0136529D01*
D11*
X0076853Y0154513D02*
X0076855Y0154671D01*
X0076861Y0154829D01*
X0076871Y0154987D01*
X0076885Y0155145D01*
X0076903Y0155302D01*
X0076924Y0155459D01*
X0076950Y0155615D01*
X0076980Y0155771D01*
X0077013Y0155926D01*
X0077051Y0156079D01*
X0077092Y0156232D01*
X0077137Y0156384D01*
X0077186Y0156535D01*
X0077239Y0156684D01*
X0077295Y0156832D01*
X0077355Y0156978D01*
X0077419Y0157123D01*
X0077487Y0157266D01*
X0077558Y0157408D01*
X0077632Y0157548D01*
X0077710Y0157685D01*
X0077792Y0157821D01*
X0077876Y0157955D01*
X0077965Y0158086D01*
X0078056Y0158215D01*
X0078151Y0158342D01*
X0078248Y0158467D01*
X0078349Y0158589D01*
X0078453Y0158708D01*
X0078560Y0158825D01*
X0078670Y0158939D01*
X0078783Y0159050D01*
X0078898Y0159159D01*
X0079016Y0159264D01*
X0079137Y0159366D01*
X0079260Y0159466D01*
X0079386Y0159562D01*
X0079514Y0159655D01*
X0079644Y0159745D01*
X0079777Y0159831D01*
X0079912Y0159915D01*
X0080048Y0159994D01*
X0080187Y0160071D01*
X0080328Y0160143D01*
X0080470Y0160213D01*
X0080614Y0160278D01*
X0080760Y0160340D01*
X0080907Y0160398D01*
X0081056Y0160453D01*
X0081206Y0160504D01*
X0081357Y0160551D01*
X0081509Y0160594D01*
X0081662Y0160633D01*
X0081817Y0160669D01*
X0081972Y0160700D01*
X0082128Y0160728D01*
X0082284Y0160752D01*
X0082441Y0160772D01*
X0082599Y0160788D01*
X0082756Y0160800D01*
X0082915Y0160808D01*
X0083073Y0160812D01*
X0083231Y0160812D01*
X0083389Y0160808D01*
X0083548Y0160800D01*
X0083705Y0160788D01*
X0083863Y0160772D01*
X0084020Y0160752D01*
X0084176Y0160728D01*
X0084332Y0160700D01*
X0084487Y0160669D01*
X0084642Y0160633D01*
X0084795Y0160594D01*
X0084947Y0160551D01*
X0085098Y0160504D01*
X0085248Y0160453D01*
X0085397Y0160398D01*
X0085544Y0160340D01*
X0085690Y0160278D01*
X0085834Y0160213D01*
X0085976Y0160143D01*
X0086117Y0160071D01*
X0086256Y0159994D01*
X0086392Y0159915D01*
X0086527Y0159831D01*
X0086660Y0159745D01*
X0086790Y0159655D01*
X0086918Y0159562D01*
X0087044Y0159466D01*
X0087167Y0159366D01*
X0087288Y0159264D01*
X0087406Y0159159D01*
X0087521Y0159050D01*
X0087634Y0158939D01*
X0087744Y0158825D01*
X0087851Y0158708D01*
X0087955Y0158589D01*
X0088056Y0158467D01*
X0088153Y0158342D01*
X0088248Y0158215D01*
X0088339Y0158086D01*
X0088428Y0157955D01*
X0088512Y0157821D01*
X0088594Y0157685D01*
X0088672Y0157548D01*
X0088746Y0157408D01*
X0088817Y0157266D01*
X0088885Y0157123D01*
X0088949Y0156978D01*
X0089009Y0156832D01*
X0089065Y0156684D01*
X0089118Y0156535D01*
X0089167Y0156384D01*
X0089212Y0156232D01*
X0089253Y0156079D01*
X0089291Y0155926D01*
X0089324Y0155771D01*
X0089354Y0155615D01*
X0089380Y0155459D01*
X0089401Y0155302D01*
X0089419Y0155145D01*
X0089433Y0154987D01*
X0089443Y0154829D01*
X0089449Y0154671D01*
X0089451Y0154513D01*
X0089449Y0154355D01*
X0089443Y0154197D01*
X0089433Y0154039D01*
X0089419Y0153881D01*
X0089401Y0153724D01*
X0089380Y0153567D01*
X0089354Y0153411D01*
X0089324Y0153255D01*
X0089291Y0153100D01*
X0089253Y0152947D01*
X0089212Y0152794D01*
X0089167Y0152642D01*
X0089118Y0152491D01*
X0089065Y0152342D01*
X0089009Y0152194D01*
X0088949Y0152048D01*
X0088885Y0151903D01*
X0088817Y0151760D01*
X0088746Y0151618D01*
X0088672Y0151478D01*
X0088594Y0151341D01*
X0088512Y0151205D01*
X0088428Y0151071D01*
X0088339Y0150940D01*
X0088248Y0150811D01*
X0088153Y0150684D01*
X0088056Y0150559D01*
X0087955Y0150437D01*
X0087851Y0150318D01*
X0087744Y0150201D01*
X0087634Y0150087D01*
X0087521Y0149976D01*
X0087406Y0149867D01*
X0087288Y0149762D01*
X0087167Y0149660D01*
X0087044Y0149560D01*
X0086918Y0149464D01*
X0086790Y0149371D01*
X0086660Y0149281D01*
X0086527Y0149195D01*
X0086392Y0149111D01*
X0086256Y0149032D01*
X0086117Y0148955D01*
X0085976Y0148883D01*
X0085834Y0148813D01*
X0085690Y0148748D01*
X0085544Y0148686D01*
X0085397Y0148628D01*
X0085248Y0148573D01*
X0085098Y0148522D01*
X0084947Y0148475D01*
X0084795Y0148432D01*
X0084642Y0148393D01*
X0084487Y0148357D01*
X0084332Y0148326D01*
X0084176Y0148298D01*
X0084020Y0148274D01*
X0083863Y0148254D01*
X0083705Y0148238D01*
X0083548Y0148226D01*
X0083389Y0148218D01*
X0083231Y0148214D01*
X0083073Y0148214D01*
X0082915Y0148218D01*
X0082756Y0148226D01*
X0082599Y0148238D01*
X0082441Y0148254D01*
X0082284Y0148274D01*
X0082128Y0148298D01*
X0081972Y0148326D01*
X0081817Y0148357D01*
X0081662Y0148393D01*
X0081509Y0148432D01*
X0081357Y0148475D01*
X0081206Y0148522D01*
X0081056Y0148573D01*
X0080907Y0148628D01*
X0080760Y0148686D01*
X0080614Y0148748D01*
X0080470Y0148813D01*
X0080328Y0148883D01*
X0080187Y0148955D01*
X0080048Y0149032D01*
X0079912Y0149111D01*
X0079777Y0149195D01*
X0079644Y0149281D01*
X0079514Y0149371D01*
X0079386Y0149464D01*
X0079260Y0149560D01*
X0079137Y0149660D01*
X0079016Y0149762D01*
X0078898Y0149867D01*
X0078783Y0149976D01*
X0078670Y0150087D01*
X0078560Y0150201D01*
X0078453Y0150318D01*
X0078349Y0150437D01*
X0078248Y0150559D01*
X0078151Y0150684D01*
X0078056Y0150811D01*
X0077965Y0150940D01*
X0077876Y0151071D01*
X0077792Y0151205D01*
X0077710Y0151341D01*
X0077632Y0151478D01*
X0077558Y0151618D01*
X0077487Y0151760D01*
X0077419Y0151903D01*
X0077355Y0152048D01*
X0077295Y0152194D01*
X0077239Y0152342D01*
X0077186Y0152491D01*
X0077137Y0152642D01*
X0077092Y0152794D01*
X0077051Y0152947D01*
X0077013Y0153100D01*
X0076980Y0153255D01*
X0076950Y0153411D01*
X0076924Y0153567D01*
X0076903Y0153724D01*
X0076885Y0153881D01*
X0076871Y0154039D01*
X0076861Y0154197D01*
X0076855Y0154355D01*
X0076853Y0154513D01*
X0076853Y0103726D02*
X0076855Y0103884D01*
X0076861Y0104042D01*
X0076871Y0104200D01*
X0076885Y0104358D01*
X0076903Y0104515D01*
X0076924Y0104672D01*
X0076950Y0104828D01*
X0076980Y0104984D01*
X0077013Y0105139D01*
X0077051Y0105292D01*
X0077092Y0105445D01*
X0077137Y0105597D01*
X0077186Y0105748D01*
X0077239Y0105897D01*
X0077295Y0106045D01*
X0077355Y0106191D01*
X0077419Y0106336D01*
X0077487Y0106479D01*
X0077558Y0106621D01*
X0077632Y0106761D01*
X0077710Y0106898D01*
X0077792Y0107034D01*
X0077876Y0107168D01*
X0077965Y0107299D01*
X0078056Y0107428D01*
X0078151Y0107555D01*
X0078248Y0107680D01*
X0078349Y0107802D01*
X0078453Y0107921D01*
X0078560Y0108038D01*
X0078670Y0108152D01*
X0078783Y0108263D01*
X0078898Y0108372D01*
X0079016Y0108477D01*
X0079137Y0108579D01*
X0079260Y0108679D01*
X0079386Y0108775D01*
X0079514Y0108868D01*
X0079644Y0108958D01*
X0079777Y0109044D01*
X0079912Y0109128D01*
X0080048Y0109207D01*
X0080187Y0109284D01*
X0080328Y0109356D01*
X0080470Y0109426D01*
X0080614Y0109491D01*
X0080760Y0109553D01*
X0080907Y0109611D01*
X0081056Y0109666D01*
X0081206Y0109717D01*
X0081357Y0109764D01*
X0081509Y0109807D01*
X0081662Y0109846D01*
X0081817Y0109882D01*
X0081972Y0109913D01*
X0082128Y0109941D01*
X0082284Y0109965D01*
X0082441Y0109985D01*
X0082599Y0110001D01*
X0082756Y0110013D01*
X0082915Y0110021D01*
X0083073Y0110025D01*
X0083231Y0110025D01*
X0083389Y0110021D01*
X0083548Y0110013D01*
X0083705Y0110001D01*
X0083863Y0109985D01*
X0084020Y0109965D01*
X0084176Y0109941D01*
X0084332Y0109913D01*
X0084487Y0109882D01*
X0084642Y0109846D01*
X0084795Y0109807D01*
X0084947Y0109764D01*
X0085098Y0109717D01*
X0085248Y0109666D01*
X0085397Y0109611D01*
X0085544Y0109553D01*
X0085690Y0109491D01*
X0085834Y0109426D01*
X0085976Y0109356D01*
X0086117Y0109284D01*
X0086256Y0109207D01*
X0086392Y0109128D01*
X0086527Y0109044D01*
X0086660Y0108958D01*
X0086790Y0108868D01*
X0086918Y0108775D01*
X0087044Y0108679D01*
X0087167Y0108579D01*
X0087288Y0108477D01*
X0087406Y0108372D01*
X0087521Y0108263D01*
X0087634Y0108152D01*
X0087744Y0108038D01*
X0087851Y0107921D01*
X0087955Y0107802D01*
X0088056Y0107680D01*
X0088153Y0107555D01*
X0088248Y0107428D01*
X0088339Y0107299D01*
X0088428Y0107168D01*
X0088512Y0107034D01*
X0088594Y0106898D01*
X0088672Y0106761D01*
X0088746Y0106621D01*
X0088817Y0106479D01*
X0088885Y0106336D01*
X0088949Y0106191D01*
X0089009Y0106045D01*
X0089065Y0105897D01*
X0089118Y0105748D01*
X0089167Y0105597D01*
X0089212Y0105445D01*
X0089253Y0105292D01*
X0089291Y0105139D01*
X0089324Y0104984D01*
X0089354Y0104828D01*
X0089380Y0104672D01*
X0089401Y0104515D01*
X0089419Y0104358D01*
X0089433Y0104200D01*
X0089443Y0104042D01*
X0089449Y0103884D01*
X0089451Y0103726D01*
X0089449Y0103568D01*
X0089443Y0103410D01*
X0089433Y0103252D01*
X0089419Y0103094D01*
X0089401Y0102937D01*
X0089380Y0102780D01*
X0089354Y0102624D01*
X0089324Y0102468D01*
X0089291Y0102313D01*
X0089253Y0102160D01*
X0089212Y0102007D01*
X0089167Y0101855D01*
X0089118Y0101704D01*
X0089065Y0101555D01*
X0089009Y0101407D01*
X0088949Y0101261D01*
X0088885Y0101116D01*
X0088817Y0100973D01*
X0088746Y0100831D01*
X0088672Y0100691D01*
X0088594Y0100554D01*
X0088512Y0100418D01*
X0088428Y0100284D01*
X0088339Y0100153D01*
X0088248Y0100024D01*
X0088153Y0099897D01*
X0088056Y0099772D01*
X0087955Y0099650D01*
X0087851Y0099531D01*
X0087744Y0099414D01*
X0087634Y0099300D01*
X0087521Y0099189D01*
X0087406Y0099080D01*
X0087288Y0098975D01*
X0087167Y0098873D01*
X0087044Y0098773D01*
X0086918Y0098677D01*
X0086790Y0098584D01*
X0086660Y0098494D01*
X0086527Y0098408D01*
X0086392Y0098324D01*
X0086256Y0098245D01*
X0086117Y0098168D01*
X0085976Y0098096D01*
X0085834Y0098026D01*
X0085690Y0097961D01*
X0085544Y0097899D01*
X0085397Y0097841D01*
X0085248Y0097786D01*
X0085098Y0097735D01*
X0084947Y0097688D01*
X0084795Y0097645D01*
X0084642Y0097606D01*
X0084487Y0097570D01*
X0084332Y0097539D01*
X0084176Y0097511D01*
X0084020Y0097487D01*
X0083863Y0097467D01*
X0083705Y0097451D01*
X0083548Y0097439D01*
X0083389Y0097431D01*
X0083231Y0097427D01*
X0083073Y0097427D01*
X0082915Y0097431D01*
X0082756Y0097439D01*
X0082599Y0097451D01*
X0082441Y0097467D01*
X0082284Y0097487D01*
X0082128Y0097511D01*
X0081972Y0097539D01*
X0081817Y0097570D01*
X0081662Y0097606D01*
X0081509Y0097645D01*
X0081357Y0097688D01*
X0081206Y0097735D01*
X0081056Y0097786D01*
X0080907Y0097841D01*
X0080760Y0097899D01*
X0080614Y0097961D01*
X0080470Y0098026D01*
X0080328Y0098096D01*
X0080187Y0098168D01*
X0080048Y0098245D01*
X0079912Y0098324D01*
X0079777Y0098408D01*
X0079644Y0098494D01*
X0079514Y0098584D01*
X0079386Y0098677D01*
X0079260Y0098773D01*
X0079137Y0098873D01*
X0079016Y0098975D01*
X0078898Y0099080D01*
X0078783Y0099189D01*
X0078670Y0099300D01*
X0078560Y0099414D01*
X0078453Y0099531D01*
X0078349Y0099650D01*
X0078248Y0099772D01*
X0078151Y0099897D01*
X0078056Y0100024D01*
X0077965Y0100153D01*
X0077876Y0100284D01*
X0077792Y0100418D01*
X0077710Y0100554D01*
X0077632Y0100691D01*
X0077558Y0100831D01*
X0077487Y0100973D01*
X0077419Y0101116D01*
X0077355Y0101261D01*
X0077295Y0101407D01*
X0077239Y0101555D01*
X0077186Y0101704D01*
X0077137Y0101855D01*
X0077092Y0102007D01*
X0077051Y0102160D01*
X0077013Y0102313D01*
X0076980Y0102468D01*
X0076950Y0102624D01*
X0076924Y0102780D01*
X0076903Y0102937D01*
X0076885Y0103094D01*
X0076871Y0103252D01*
X0076861Y0103410D01*
X0076855Y0103568D01*
X0076853Y0103726D01*
X0090118Y0041100D02*
X0090120Y0041183D01*
X0090126Y0041266D01*
X0090136Y0041349D01*
X0090150Y0041431D01*
X0090167Y0041513D01*
X0090189Y0041593D01*
X0090214Y0041672D01*
X0090243Y0041750D01*
X0090276Y0041827D01*
X0090313Y0041902D01*
X0090352Y0041975D01*
X0090396Y0042046D01*
X0090442Y0042115D01*
X0090492Y0042182D01*
X0090545Y0042246D01*
X0090601Y0042308D01*
X0090660Y0042367D01*
X0090722Y0042423D01*
X0090786Y0042476D01*
X0090853Y0042526D01*
X0090922Y0042572D01*
X0090993Y0042616D01*
X0091066Y0042655D01*
X0091141Y0042692D01*
X0091218Y0042725D01*
X0091296Y0042754D01*
X0091375Y0042779D01*
X0091455Y0042801D01*
X0091537Y0042818D01*
X0091619Y0042832D01*
X0091702Y0042842D01*
X0091785Y0042848D01*
X0091868Y0042850D01*
X0091951Y0042848D01*
X0092034Y0042842D01*
X0092117Y0042832D01*
X0092199Y0042818D01*
X0092281Y0042801D01*
X0092361Y0042779D01*
X0092440Y0042754D01*
X0092518Y0042725D01*
X0092595Y0042692D01*
X0092670Y0042655D01*
X0092743Y0042616D01*
X0092814Y0042572D01*
X0092883Y0042526D01*
X0092950Y0042476D01*
X0093014Y0042423D01*
X0093076Y0042367D01*
X0093135Y0042308D01*
X0093191Y0042246D01*
X0093244Y0042182D01*
X0093294Y0042115D01*
X0093340Y0042046D01*
X0093384Y0041975D01*
X0093423Y0041902D01*
X0093460Y0041827D01*
X0093493Y0041750D01*
X0093522Y0041672D01*
X0093547Y0041593D01*
X0093569Y0041513D01*
X0093586Y0041431D01*
X0093600Y0041349D01*
X0093610Y0041266D01*
X0093616Y0041183D01*
X0093618Y0041100D01*
X0093616Y0041017D01*
X0093610Y0040934D01*
X0093600Y0040851D01*
X0093586Y0040769D01*
X0093569Y0040687D01*
X0093547Y0040607D01*
X0093522Y0040528D01*
X0093493Y0040450D01*
X0093460Y0040373D01*
X0093423Y0040298D01*
X0093384Y0040225D01*
X0093340Y0040154D01*
X0093294Y0040085D01*
X0093244Y0040018D01*
X0093191Y0039954D01*
X0093135Y0039892D01*
X0093076Y0039833D01*
X0093014Y0039777D01*
X0092950Y0039724D01*
X0092883Y0039674D01*
X0092814Y0039628D01*
X0092743Y0039584D01*
X0092670Y0039545D01*
X0092595Y0039508D01*
X0092518Y0039475D01*
X0092440Y0039446D01*
X0092361Y0039421D01*
X0092281Y0039399D01*
X0092199Y0039382D01*
X0092117Y0039368D01*
X0092034Y0039358D01*
X0091951Y0039352D01*
X0091868Y0039350D01*
X0091785Y0039352D01*
X0091702Y0039358D01*
X0091619Y0039368D01*
X0091537Y0039382D01*
X0091455Y0039399D01*
X0091375Y0039421D01*
X0091296Y0039446D01*
X0091218Y0039475D01*
X0091141Y0039508D01*
X0091066Y0039545D01*
X0090993Y0039584D01*
X0090922Y0039628D01*
X0090853Y0039674D01*
X0090786Y0039724D01*
X0090722Y0039777D01*
X0090660Y0039833D01*
X0090601Y0039892D01*
X0090545Y0039954D01*
X0090492Y0040018D01*
X0090442Y0040085D01*
X0090396Y0040154D01*
X0090352Y0040225D01*
X0090313Y0040298D01*
X0090276Y0040373D01*
X0090243Y0040450D01*
X0090214Y0040528D01*
X0090189Y0040607D01*
X0090167Y0040687D01*
X0090150Y0040769D01*
X0090136Y0040851D01*
X0090126Y0040934D01*
X0090120Y0041017D01*
X0090118Y0041100D01*
X0121614Y0041100D02*
X0121616Y0041183D01*
X0121622Y0041266D01*
X0121632Y0041349D01*
X0121646Y0041431D01*
X0121663Y0041513D01*
X0121685Y0041593D01*
X0121710Y0041672D01*
X0121739Y0041750D01*
X0121772Y0041827D01*
X0121809Y0041902D01*
X0121848Y0041975D01*
X0121892Y0042046D01*
X0121938Y0042115D01*
X0121988Y0042182D01*
X0122041Y0042246D01*
X0122097Y0042308D01*
X0122156Y0042367D01*
X0122218Y0042423D01*
X0122282Y0042476D01*
X0122349Y0042526D01*
X0122418Y0042572D01*
X0122489Y0042616D01*
X0122562Y0042655D01*
X0122637Y0042692D01*
X0122714Y0042725D01*
X0122792Y0042754D01*
X0122871Y0042779D01*
X0122951Y0042801D01*
X0123033Y0042818D01*
X0123115Y0042832D01*
X0123198Y0042842D01*
X0123281Y0042848D01*
X0123364Y0042850D01*
X0123447Y0042848D01*
X0123530Y0042842D01*
X0123613Y0042832D01*
X0123695Y0042818D01*
X0123777Y0042801D01*
X0123857Y0042779D01*
X0123936Y0042754D01*
X0124014Y0042725D01*
X0124091Y0042692D01*
X0124166Y0042655D01*
X0124239Y0042616D01*
X0124310Y0042572D01*
X0124379Y0042526D01*
X0124446Y0042476D01*
X0124510Y0042423D01*
X0124572Y0042367D01*
X0124631Y0042308D01*
X0124687Y0042246D01*
X0124740Y0042182D01*
X0124790Y0042115D01*
X0124836Y0042046D01*
X0124880Y0041975D01*
X0124919Y0041902D01*
X0124956Y0041827D01*
X0124989Y0041750D01*
X0125018Y0041672D01*
X0125043Y0041593D01*
X0125065Y0041513D01*
X0125082Y0041431D01*
X0125096Y0041349D01*
X0125106Y0041266D01*
X0125112Y0041183D01*
X0125114Y0041100D01*
X0125112Y0041017D01*
X0125106Y0040934D01*
X0125096Y0040851D01*
X0125082Y0040769D01*
X0125065Y0040687D01*
X0125043Y0040607D01*
X0125018Y0040528D01*
X0124989Y0040450D01*
X0124956Y0040373D01*
X0124919Y0040298D01*
X0124880Y0040225D01*
X0124836Y0040154D01*
X0124790Y0040085D01*
X0124740Y0040018D01*
X0124687Y0039954D01*
X0124631Y0039892D01*
X0124572Y0039833D01*
X0124510Y0039777D01*
X0124446Y0039724D01*
X0124379Y0039674D01*
X0124310Y0039628D01*
X0124239Y0039584D01*
X0124166Y0039545D01*
X0124091Y0039508D01*
X0124014Y0039475D01*
X0123936Y0039446D01*
X0123857Y0039421D01*
X0123777Y0039399D01*
X0123695Y0039382D01*
X0123613Y0039368D01*
X0123530Y0039358D01*
X0123447Y0039352D01*
X0123364Y0039350D01*
X0123281Y0039352D01*
X0123198Y0039358D01*
X0123115Y0039368D01*
X0123033Y0039382D01*
X0122951Y0039399D01*
X0122871Y0039421D01*
X0122792Y0039446D01*
X0122714Y0039475D01*
X0122637Y0039508D01*
X0122562Y0039545D01*
X0122489Y0039584D01*
X0122418Y0039628D01*
X0122349Y0039674D01*
X0122282Y0039724D01*
X0122218Y0039777D01*
X0122156Y0039833D01*
X0122097Y0039892D01*
X0122041Y0039954D01*
X0121988Y0040018D01*
X0121938Y0040085D01*
X0121892Y0040154D01*
X0121848Y0040225D01*
X0121809Y0040298D01*
X0121772Y0040373D01*
X0121739Y0040450D01*
X0121710Y0040528D01*
X0121685Y0040607D01*
X0121663Y0040687D01*
X0121646Y0040769D01*
X0121632Y0040851D01*
X0121622Y0040934D01*
X0121616Y0041017D01*
X0121614Y0041100D01*
X0125672Y0103726D02*
X0125674Y0103884D01*
X0125680Y0104042D01*
X0125690Y0104200D01*
X0125704Y0104358D01*
X0125722Y0104515D01*
X0125743Y0104672D01*
X0125769Y0104828D01*
X0125799Y0104984D01*
X0125832Y0105139D01*
X0125870Y0105292D01*
X0125911Y0105445D01*
X0125956Y0105597D01*
X0126005Y0105748D01*
X0126058Y0105897D01*
X0126114Y0106045D01*
X0126174Y0106191D01*
X0126238Y0106336D01*
X0126306Y0106479D01*
X0126377Y0106621D01*
X0126451Y0106761D01*
X0126529Y0106898D01*
X0126611Y0107034D01*
X0126695Y0107168D01*
X0126784Y0107299D01*
X0126875Y0107428D01*
X0126970Y0107555D01*
X0127067Y0107680D01*
X0127168Y0107802D01*
X0127272Y0107921D01*
X0127379Y0108038D01*
X0127489Y0108152D01*
X0127602Y0108263D01*
X0127717Y0108372D01*
X0127835Y0108477D01*
X0127956Y0108579D01*
X0128079Y0108679D01*
X0128205Y0108775D01*
X0128333Y0108868D01*
X0128463Y0108958D01*
X0128596Y0109044D01*
X0128731Y0109128D01*
X0128867Y0109207D01*
X0129006Y0109284D01*
X0129147Y0109356D01*
X0129289Y0109426D01*
X0129433Y0109491D01*
X0129579Y0109553D01*
X0129726Y0109611D01*
X0129875Y0109666D01*
X0130025Y0109717D01*
X0130176Y0109764D01*
X0130328Y0109807D01*
X0130481Y0109846D01*
X0130636Y0109882D01*
X0130791Y0109913D01*
X0130947Y0109941D01*
X0131103Y0109965D01*
X0131260Y0109985D01*
X0131418Y0110001D01*
X0131575Y0110013D01*
X0131734Y0110021D01*
X0131892Y0110025D01*
X0132050Y0110025D01*
X0132208Y0110021D01*
X0132367Y0110013D01*
X0132524Y0110001D01*
X0132682Y0109985D01*
X0132839Y0109965D01*
X0132995Y0109941D01*
X0133151Y0109913D01*
X0133306Y0109882D01*
X0133461Y0109846D01*
X0133614Y0109807D01*
X0133766Y0109764D01*
X0133917Y0109717D01*
X0134067Y0109666D01*
X0134216Y0109611D01*
X0134363Y0109553D01*
X0134509Y0109491D01*
X0134653Y0109426D01*
X0134795Y0109356D01*
X0134936Y0109284D01*
X0135075Y0109207D01*
X0135211Y0109128D01*
X0135346Y0109044D01*
X0135479Y0108958D01*
X0135609Y0108868D01*
X0135737Y0108775D01*
X0135863Y0108679D01*
X0135986Y0108579D01*
X0136107Y0108477D01*
X0136225Y0108372D01*
X0136340Y0108263D01*
X0136453Y0108152D01*
X0136563Y0108038D01*
X0136670Y0107921D01*
X0136774Y0107802D01*
X0136875Y0107680D01*
X0136972Y0107555D01*
X0137067Y0107428D01*
X0137158Y0107299D01*
X0137247Y0107168D01*
X0137331Y0107034D01*
X0137413Y0106898D01*
X0137491Y0106761D01*
X0137565Y0106621D01*
X0137636Y0106479D01*
X0137704Y0106336D01*
X0137768Y0106191D01*
X0137828Y0106045D01*
X0137884Y0105897D01*
X0137937Y0105748D01*
X0137986Y0105597D01*
X0138031Y0105445D01*
X0138072Y0105292D01*
X0138110Y0105139D01*
X0138143Y0104984D01*
X0138173Y0104828D01*
X0138199Y0104672D01*
X0138220Y0104515D01*
X0138238Y0104358D01*
X0138252Y0104200D01*
X0138262Y0104042D01*
X0138268Y0103884D01*
X0138270Y0103726D01*
X0138268Y0103568D01*
X0138262Y0103410D01*
X0138252Y0103252D01*
X0138238Y0103094D01*
X0138220Y0102937D01*
X0138199Y0102780D01*
X0138173Y0102624D01*
X0138143Y0102468D01*
X0138110Y0102313D01*
X0138072Y0102160D01*
X0138031Y0102007D01*
X0137986Y0101855D01*
X0137937Y0101704D01*
X0137884Y0101555D01*
X0137828Y0101407D01*
X0137768Y0101261D01*
X0137704Y0101116D01*
X0137636Y0100973D01*
X0137565Y0100831D01*
X0137491Y0100691D01*
X0137413Y0100554D01*
X0137331Y0100418D01*
X0137247Y0100284D01*
X0137158Y0100153D01*
X0137067Y0100024D01*
X0136972Y0099897D01*
X0136875Y0099772D01*
X0136774Y0099650D01*
X0136670Y0099531D01*
X0136563Y0099414D01*
X0136453Y0099300D01*
X0136340Y0099189D01*
X0136225Y0099080D01*
X0136107Y0098975D01*
X0135986Y0098873D01*
X0135863Y0098773D01*
X0135737Y0098677D01*
X0135609Y0098584D01*
X0135479Y0098494D01*
X0135346Y0098408D01*
X0135211Y0098324D01*
X0135075Y0098245D01*
X0134936Y0098168D01*
X0134795Y0098096D01*
X0134653Y0098026D01*
X0134509Y0097961D01*
X0134363Y0097899D01*
X0134216Y0097841D01*
X0134067Y0097786D01*
X0133917Y0097735D01*
X0133766Y0097688D01*
X0133614Y0097645D01*
X0133461Y0097606D01*
X0133306Y0097570D01*
X0133151Y0097539D01*
X0132995Y0097511D01*
X0132839Y0097487D01*
X0132682Y0097467D01*
X0132524Y0097451D01*
X0132367Y0097439D01*
X0132208Y0097431D01*
X0132050Y0097427D01*
X0131892Y0097427D01*
X0131734Y0097431D01*
X0131575Y0097439D01*
X0131418Y0097451D01*
X0131260Y0097467D01*
X0131103Y0097487D01*
X0130947Y0097511D01*
X0130791Y0097539D01*
X0130636Y0097570D01*
X0130481Y0097606D01*
X0130328Y0097645D01*
X0130176Y0097688D01*
X0130025Y0097735D01*
X0129875Y0097786D01*
X0129726Y0097841D01*
X0129579Y0097899D01*
X0129433Y0097961D01*
X0129289Y0098026D01*
X0129147Y0098096D01*
X0129006Y0098168D01*
X0128867Y0098245D01*
X0128731Y0098324D01*
X0128596Y0098408D01*
X0128463Y0098494D01*
X0128333Y0098584D01*
X0128205Y0098677D01*
X0128079Y0098773D01*
X0127956Y0098873D01*
X0127835Y0098975D01*
X0127717Y0099080D01*
X0127602Y0099189D01*
X0127489Y0099300D01*
X0127379Y0099414D01*
X0127272Y0099531D01*
X0127168Y0099650D01*
X0127067Y0099772D01*
X0126970Y0099897D01*
X0126875Y0100024D01*
X0126784Y0100153D01*
X0126695Y0100284D01*
X0126611Y0100418D01*
X0126529Y0100554D01*
X0126451Y0100691D01*
X0126377Y0100831D01*
X0126306Y0100973D01*
X0126238Y0101116D01*
X0126174Y0101261D01*
X0126114Y0101407D01*
X0126058Y0101555D01*
X0126005Y0101704D01*
X0125956Y0101855D01*
X0125911Y0102007D01*
X0125870Y0102160D01*
X0125832Y0102313D01*
X0125799Y0102468D01*
X0125769Y0102624D01*
X0125743Y0102780D01*
X0125722Y0102937D01*
X0125704Y0103094D01*
X0125690Y0103252D01*
X0125680Y0103410D01*
X0125674Y0103568D01*
X0125672Y0103726D01*
X0125672Y0154513D02*
X0125674Y0154671D01*
X0125680Y0154829D01*
X0125690Y0154987D01*
X0125704Y0155145D01*
X0125722Y0155302D01*
X0125743Y0155459D01*
X0125769Y0155615D01*
X0125799Y0155771D01*
X0125832Y0155926D01*
X0125870Y0156079D01*
X0125911Y0156232D01*
X0125956Y0156384D01*
X0126005Y0156535D01*
X0126058Y0156684D01*
X0126114Y0156832D01*
X0126174Y0156978D01*
X0126238Y0157123D01*
X0126306Y0157266D01*
X0126377Y0157408D01*
X0126451Y0157548D01*
X0126529Y0157685D01*
X0126611Y0157821D01*
X0126695Y0157955D01*
X0126784Y0158086D01*
X0126875Y0158215D01*
X0126970Y0158342D01*
X0127067Y0158467D01*
X0127168Y0158589D01*
X0127272Y0158708D01*
X0127379Y0158825D01*
X0127489Y0158939D01*
X0127602Y0159050D01*
X0127717Y0159159D01*
X0127835Y0159264D01*
X0127956Y0159366D01*
X0128079Y0159466D01*
X0128205Y0159562D01*
X0128333Y0159655D01*
X0128463Y0159745D01*
X0128596Y0159831D01*
X0128731Y0159915D01*
X0128867Y0159994D01*
X0129006Y0160071D01*
X0129147Y0160143D01*
X0129289Y0160213D01*
X0129433Y0160278D01*
X0129579Y0160340D01*
X0129726Y0160398D01*
X0129875Y0160453D01*
X0130025Y0160504D01*
X0130176Y0160551D01*
X0130328Y0160594D01*
X0130481Y0160633D01*
X0130636Y0160669D01*
X0130791Y0160700D01*
X0130947Y0160728D01*
X0131103Y0160752D01*
X0131260Y0160772D01*
X0131418Y0160788D01*
X0131575Y0160800D01*
X0131734Y0160808D01*
X0131892Y0160812D01*
X0132050Y0160812D01*
X0132208Y0160808D01*
X0132367Y0160800D01*
X0132524Y0160788D01*
X0132682Y0160772D01*
X0132839Y0160752D01*
X0132995Y0160728D01*
X0133151Y0160700D01*
X0133306Y0160669D01*
X0133461Y0160633D01*
X0133614Y0160594D01*
X0133766Y0160551D01*
X0133917Y0160504D01*
X0134067Y0160453D01*
X0134216Y0160398D01*
X0134363Y0160340D01*
X0134509Y0160278D01*
X0134653Y0160213D01*
X0134795Y0160143D01*
X0134936Y0160071D01*
X0135075Y0159994D01*
X0135211Y0159915D01*
X0135346Y0159831D01*
X0135479Y0159745D01*
X0135609Y0159655D01*
X0135737Y0159562D01*
X0135863Y0159466D01*
X0135986Y0159366D01*
X0136107Y0159264D01*
X0136225Y0159159D01*
X0136340Y0159050D01*
X0136453Y0158939D01*
X0136563Y0158825D01*
X0136670Y0158708D01*
X0136774Y0158589D01*
X0136875Y0158467D01*
X0136972Y0158342D01*
X0137067Y0158215D01*
X0137158Y0158086D01*
X0137247Y0157955D01*
X0137331Y0157821D01*
X0137413Y0157685D01*
X0137491Y0157548D01*
X0137565Y0157408D01*
X0137636Y0157266D01*
X0137704Y0157123D01*
X0137768Y0156978D01*
X0137828Y0156832D01*
X0137884Y0156684D01*
X0137937Y0156535D01*
X0137986Y0156384D01*
X0138031Y0156232D01*
X0138072Y0156079D01*
X0138110Y0155926D01*
X0138143Y0155771D01*
X0138173Y0155615D01*
X0138199Y0155459D01*
X0138220Y0155302D01*
X0138238Y0155145D01*
X0138252Y0154987D01*
X0138262Y0154829D01*
X0138268Y0154671D01*
X0138270Y0154513D01*
X0138268Y0154355D01*
X0138262Y0154197D01*
X0138252Y0154039D01*
X0138238Y0153881D01*
X0138220Y0153724D01*
X0138199Y0153567D01*
X0138173Y0153411D01*
X0138143Y0153255D01*
X0138110Y0153100D01*
X0138072Y0152947D01*
X0138031Y0152794D01*
X0137986Y0152642D01*
X0137937Y0152491D01*
X0137884Y0152342D01*
X0137828Y0152194D01*
X0137768Y0152048D01*
X0137704Y0151903D01*
X0137636Y0151760D01*
X0137565Y0151618D01*
X0137491Y0151478D01*
X0137413Y0151341D01*
X0137331Y0151205D01*
X0137247Y0151071D01*
X0137158Y0150940D01*
X0137067Y0150811D01*
X0136972Y0150684D01*
X0136875Y0150559D01*
X0136774Y0150437D01*
X0136670Y0150318D01*
X0136563Y0150201D01*
X0136453Y0150087D01*
X0136340Y0149976D01*
X0136225Y0149867D01*
X0136107Y0149762D01*
X0135986Y0149660D01*
X0135863Y0149560D01*
X0135737Y0149464D01*
X0135609Y0149371D01*
X0135479Y0149281D01*
X0135346Y0149195D01*
X0135211Y0149111D01*
X0135075Y0149032D01*
X0134936Y0148955D01*
X0134795Y0148883D01*
X0134653Y0148813D01*
X0134509Y0148748D01*
X0134363Y0148686D01*
X0134216Y0148628D01*
X0134067Y0148573D01*
X0133917Y0148522D01*
X0133766Y0148475D01*
X0133614Y0148432D01*
X0133461Y0148393D01*
X0133306Y0148357D01*
X0133151Y0148326D01*
X0132995Y0148298D01*
X0132839Y0148274D01*
X0132682Y0148254D01*
X0132524Y0148238D01*
X0132367Y0148226D01*
X0132208Y0148218D01*
X0132050Y0148214D01*
X0131892Y0148214D01*
X0131734Y0148218D01*
X0131575Y0148226D01*
X0131418Y0148238D01*
X0131260Y0148254D01*
X0131103Y0148274D01*
X0130947Y0148298D01*
X0130791Y0148326D01*
X0130636Y0148357D01*
X0130481Y0148393D01*
X0130328Y0148432D01*
X0130176Y0148475D01*
X0130025Y0148522D01*
X0129875Y0148573D01*
X0129726Y0148628D01*
X0129579Y0148686D01*
X0129433Y0148748D01*
X0129289Y0148813D01*
X0129147Y0148883D01*
X0129006Y0148955D01*
X0128867Y0149032D01*
X0128731Y0149111D01*
X0128596Y0149195D01*
X0128463Y0149281D01*
X0128333Y0149371D01*
X0128205Y0149464D01*
X0128079Y0149560D01*
X0127956Y0149660D01*
X0127835Y0149762D01*
X0127717Y0149867D01*
X0127602Y0149976D01*
X0127489Y0150087D01*
X0127379Y0150201D01*
X0127272Y0150318D01*
X0127168Y0150437D01*
X0127067Y0150559D01*
X0126970Y0150684D01*
X0126875Y0150811D01*
X0126784Y0150940D01*
X0126695Y0151071D01*
X0126611Y0151205D01*
X0126529Y0151341D01*
X0126451Y0151478D01*
X0126377Y0151618D01*
X0126306Y0151760D01*
X0126238Y0151903D01*
X0126174Y0152048D01*
X0126114Y0152194D01*
X0126058Y0152342D01*
X0126005Y0152491D01*
X0125956Y0152642D01*
X0125911Y0152794D01*
X0125870Y0152947D01*
X0125832Y0153100D01*
X0125799Y0153255D01*
X0125769Y0153411D01*
X0125743Y0153567D01*
X0125722Y0153724D01*
X0125704Y0153881D01*
X0125690Y0154039D01*
X0125680Y0154197D01*
X0125674Y0154355D01*
X0125672Y0154513D01*
D12*
X0156616Y0156876D03*
X0156616Y0166876D03*
X0156616Y0176876D03*
X0156616Y0146876D03*
X0156616Y0136876D03*
X0156616Y0126876D03*
X0156616Y0116876D03*
X0156616Y0106876D03*
X0156616Y0096876D03*
X0156616Y0086876D03*
X0156616Y0076876D03*
X0156616Y0066876D03*
X0156616Y0056876D03*
X0156616Y0046876D03*
X0156616Y0036876D03*
X0066616Y0036876D03*
X0066616Y0046876D03*
X0066616Y0056876D03*
X0066616Y0066876D03*
X0066616Y0076876D03*
X0066616Y0086876D03*
X0066616Y0096876D03*
X0066616Y0106876D03*
X0066616Y0116876D03*
X0066616Y0126876D03*
X0066616Y0136876D03*
X0066616Y0146876D03*
X0066616Y0156876D03*
X0066616Y0166876D03*
X0066616Y0176876D03*
D13*
X0171656Y0130576D03*
X0171656Y0120576D03*
X0171656Y0110576D03*
X0171656Y0100576D03*
X0171656Y0090576D03*
X0171656Y0080576D03*
X0042994Y0037191D03*
D14*
X0034404Y0041135D03*
X0028348Y0050529D03*
X0018348Y0059529D03*
X0011128Y0069891D03*
X0019348Y0072529D03*
X0026348Y0071529D03*
X0038404Y0079135D03*
X0048404Y0079135D03*
X0054348Y0101529D03*
X0039348Y0108529D03*
X0032348Y0107529D03*
X0022348Y0103529D03*
X0017348Y0106529D03*
X0014348Y0117529D03*
X0013348Y0130529D03*
X0013348Y0136529D03*
X0028404Y0128135D03*
X0039348Y0140529D03*
X0044348Y0143529D03*
X0034348Y0143529D03*
X0029348Y0143529D03*
X0012348Y0155529D03*
X0049404Y0159135D03*
X0057348Y0157529D03*
X0059404Y0165135D03*
X0051404Y0172135D03*
X0070404Y0152135D03*
X0073348Y0157529D03*
X0079191Y0144198D03*
X0070404Y0142135D03*
X0079404Y0130135D03*
X0070545Y0102041D03*
X0092608Y0098033D03*
X0072404Y0072135D03*
X0077404Y0056135D03*
X0088097Y0051324D03*
X0071931Y0041797D03*
X0056404Y0056135D03*
X0026404Y0093135D03*
X0021128Y0034891D03*
X0107348Y0041529D03*
X0114404Y0042135D03*
X0126679Y0048962D03*
X0132191Y0073372D03*
X0126404Y0086135D03*
X0122923Y0098821D03*
X0141994Y0093624D03*
X0148348Y0101529D03*
X0150348Y0094529D03*
X0167797Y0095458D03*
X0183152Y0091521D03*
X0186301Y0102545D03*
X0184348Y0070529D03*
X0164530Y0135143D03*
X0175278Y0164750D03*
X0174490Y0168687D03*
X0173152Y0171954D03*
X0163624Y0171876D03*
X0182364Y0164750D03*
X0129585Y0142624D03*
X0130404Y0129135D03*
X0121404Y0162135D03*
X0123404Y0169135D03*
X0127404Y0169135D03*
X0119404Y0169135D03*
X0114404Y0169135D03*
X0109404Y0169135D03*
X0103404Y0169135D03*
X0098404Y0169135D03*
X0092404Y0169135D03*
X0087404Y0169135D03*
X0099404Y0162135D03*
D15*
X0105998Y0156088D02*
X0105998Y0153364D01*
X0106612Y0152302D01*
X0094700Y0152302D01*
X0093621Y0151679D01*
X0093621Y0151679D01*
X0093621Y0151679D01*
X0092998Y0150600D01*
X0092998Y0149243D01*
X0093621Y0148164D01*
X0094147Y0147861D01*
X0093621Y0147558D01*
X0092998Y0146479D01*
X0092998Y0145123D01*
X0093621Y0144044D01*
X0093621Y0144044D01*
X0094147Y0143741D01*
X0093621Y0143437D01*
X0092998Y0142358D01*
X0092998Y0141002D01*
X0093621Y0139923D01*
X0093621Y0139923D01*
X0094147Y0139620D01*
X0093621Y0139317D01*
X0093621Y0139317D01*
X0093621Y0139317D01*
X0092998Y0138238D01*
X0092998Y0136881D01*
X0093621Y0135802D01*
X0094147Y0135499D01*
X0093621Y0135196D01*
X0092998Y0134117D01*
X0092998Y0132761D01*
X0093621Y0131682D01*
X0093621Y0131682D01*
X0093621Y0131682D01*
X0094147Y0131379D01*
X0093621Y0131076D01*
X0093621Y0131076D01*
X0093621Y0131076D01*
X0092998Y0129997D01*
X0092998Y0128640D01*
X0093621Y0127561D01*
X0093621Y0127561D01*
X0093621Y0127561D01*
X0094147Y0127258D01*
X0093621Y0126955D01*
X0092998Y0125876D01*
X0092998Y0124520D01*
X0093621Y0123441D01*
X0094147Y0123137D01*
X0093621Y0122834D01*
X0092998Y0121755D01*
X0092998Y0120399D01*
X0093621Y0119320D01*
X0093621Y0119320D01*
X0093621Y0119320D01*
X0094147Y0119017D01*
X0093621Y0118714D01*
X0093621Y0118714D01*
X0093621Y0118714D01*
X0092998Y0117635D01*
X0092998Y0116278D01*
X0093621Y0115199D01*
X0093621Y0115199D01*
X0093621Y0115199D01*
X0094147Y0114896D01*
X0093621Y0114593D01*
X0092998Y0113514D01*
X0092998Y0112158D01*
X0093621Y0111079D01*
X0093621Y0111079D01*
X0094147Y0110776D01*
X0093621Y0110472D01*
X0092998Y0109393D01*
X0092998Y0108037D01*
X0093621Y0106958D01*
X0093621Y0106958D01*
X0093621Y0106958D01*
X0094147Y0106655D01*
X0093621Y0106352D01*
X0092998Y0105273D01*
X0092998Y0103916D01*
X0093621Y0102837D01*
X0093621Y0102837D01*
X0094700Y0102215D01*
X0094700Y0102214D01*
X0106612Y0102214D01*
X0105998Y0101152D01*
X0105998Y0072904D01*
X0093700Y0072904D01*
X0092621Y0072281D01*
X0091998Y0071202D01*
X0091998Y0069730D01*
X0092621Y0068651D01*
X0092621Y0068651D01*
X0092621Y0068651D01*
X0093247Y0068290D01*
X0092621Y0067929D01*
X0091998Y0066850D01*
X0091998Y0065378D01*
X0092621Y0064299D01*
X0093247Y0063938D01*
X0092621Y0063577D01*
X0091998Y0062498D01*
X0091998Y0061026D01*
X0092621Y0059947D01*
X0092621Y0059947D01*
X0092621Y0059947D01*
X0093247Y0059586D01*
X0092621Y0059225D01*
X0091998Y0058146D01*
X0091998Y0056674D01*
X0092621Y0055595D01*
X0092621Y0055595D01*
X0092621Y0055595D01*
X0093247Y0055234D01*
X0092621Y0054873D01*
X0091998Y0053794D01*
X0091998Y0052322D01*
X0092621Y0051243D01*
X0092621Y0051243D01*
X0092621Y0051243D01*
X0093247Y0050882D01*
X0092621Y0050521D01*
X0091998Y0049442D01*
X0091998Y0047970D01*
X0092621Y0046891D01*
X0092621Y0046891D01*
X0092621Y0046891D01*
X0093700Y0046268D01*
X0105998Y0046268D01*
X0105998Y0046154D01*
X0105848Y0046004D01*
X0105848Y0043140D01*
X0105148Y0042440D01*
X0105148Y0041608D01*
X0101490Y0037950D01*
X0092756Y0037950D01*
X0093709Y0038345D01*
X0094623Y0039259D01*
X0095118Y0040454D01*
X0095118Y0041747D01*
X0094623Y0042941D01*
X0093709Y0043855D01*
X0092515Y0044350D01*
X0091222Y0044350D01*
X0090027Y0043855D01*
X0089113Y0042941D01*
X0088618Y0041747D01*
X0088618Y0040454D01*
X0089113Y0039259D01*
X0090027Y0038345D01*
X0090980Y0037950D01*
X0077687Y0037950D01*
X0074131Y0041506D01*
X0074131Y0042708D01*
X0072842Y0043997D01*
X0071020Y0043997D01*
X0069731Y0042708D01*
X0069731Y0040886D01*
X0071020Y0039597D01*
X0072222Y0039597D01*
X0075778Y0036041D01*
X0076569Y0035250D01*
X0102608Y0035250D01*
X0106688Y0039329D01*
X0108260Y0039329D01*
X0109548Y0040618D01*
X0109548Y0042440D01*
X0108848Y0043140D01*
X0108848Y0046004D01*
X0108698Y0046154D01*
X0108698Y0047266D01*
X0108075Y0048345D01*
X0107904Y0048444D01*
X0120996Y0048444D01*
X0122075Y0049067D01*
X0122075Y0049067D01*
X0122075Y0049067D01*
X0122698Y0050146D01*
X0122698Y0051618D01*
X0122075Y0052697D01*
X0121450Y0053058D01*
X0122075Y0053419D01*
X0122075Y0053419D01*
X0122698Y0054498D01*
X0122698Y0055970D01*
X0122075Y0057049D01*
X0121450Y0057410D01*
X0122075Y0057771D01*
X0122075Y0057771D01*
X0122698Y0058850D01*
X0122698Y0060322D01*
X0122075Y0061401D01*
X0122075Y0061401D01*
X0121450Y0061762D01*
X0122075Y0062123D01*
X0122075Y0062123D01*
X0122698Y0063202D01*
X0122698Y0064674D01*
X0122075Y0065753D01*
X0121450Y0066114D01*
X0122075Y0066475D01*
X0122075Y0066475D01*
X0122075Y0066475D01*
X0122698Y0067554D01*
X0122698Y0069026D01*
X0122075Y0070105D01*
X0120996Y0070728D01*
X0107904Y0070728D01*
X0108075Y0070827D01*
X0108075Y0070827D01*
X0108698Y0071906D01*
X0108698Y0100154D01*
X0119996Y0100154D01*
X0121075Y0100777D01*
X0121075Y0100777D01*
X0121698Y0101856D01*
X0121698Y0103212D01*
X0121075Y0104291D01*
X0120550Y0104595D01*
X0121075Y0104898D01*
X0121075Y0104898D01*
X0121698Y0105977D01*
X0121698Y0107333D01*
X0121075Y0108412D01*
X0120550Y0108715D01*
X0121075Y0109018D01*
X0121075Y0109018D01*
X0121075Y0109018D01*
X0121698Y0110097D01*
X0121698Y0111454D01*
X0121075Y0112533D01*
X0120550Y0112836D01*
X0121075Y0113139D01*
X0121075Y0113139D01*
X0121698Y0114218D01*
X0121698Y0115574D01*
X0121075Y0116653D01*
X0120550Y0116957D01*
X0121075Y0117260D01*
X0121698Y0118339D01*
X0121698Y0119695D01*
X0121075Y0120774D01*
X0120550Y0121077D01*
X0121075Y0121380D01*
X0121075Y0121380D01*
X0121075Y0121380D01*
X0121698Y0122459D01*
X0121698Y0123816D01*
X0121075Y0124895D01*
X0120550Y0125198D01*
X0121075Y0125501D01*
X0121075Y0125501D01*
X0121698Y0126580D01*
X0121698Y0127936D01*
X0121075Y0129015D01*
X0120550Y0129318D01*
X0121075Y0129622D01*
X0121698Y0130701D01*
X0121698Y0132057D01*
X0121075Y0133136D01*
X0120550Y0133439D01*
X0121075Y0133742D01*
X0121075Y0133742D01*
X0121698Y0134821D01*
X0121698Y0136177D01*
X0121075Y0137256D01*
X0120550Y0137560D01*
X0121075Y0137863D01*
X0121075Y0137863D01*
X0121698Y0138942D01*
X0121698Y0140298D01*
X0121075Y0141377D01*
X0120550Y0141680D01*
X0121075Y0141983D01*
X0121075Y0141983D01*
X0121075Y0141983D01*
X0121698Y0143062D01*
X0121698Y0144419D01*
X0121075Y0145498D01*
X0120550Y0145801D01*
X0121075Y0146104D01*
X0121075Y0146104D01*
X0121698Y0147183D01*
X0121698Y0148539D01*
X0121075Y0149618D01*
X0120550Y0149922D01*
X0121075Y0150225D01*
X0121075Y0150225D01*
X0121698Y0151304D01*
X0121698Y0152660D01*
X0121075Y0153739D01*
X0119996Y0154362D01*
X0108698Y0154362D01*
X0108698Y0154413D01*
X0108698Y0156088D01*
X0107908Y0156879D01*
X0106789Y0156879D01*
X0105998Y0156088D01*
X0106249Y0156339D02*
X0090837Y0156339D01*
X0090951Y0156065D02*
X0089763Y0158931D01*
X0087570Y0161125D01*
X0084703Y0162313D01*
X0081600Y0162313D01*
X0078734Y0161125D01*
X0076540Y0158931D01*
X0075352Y0156065D01*
X0075352Y0152962D01*
X0076540Y0150096D01*
X0078734Y0147902D01*
X0081600Y0146714D01*
X0084703Y0146714D01*
X0087570Y0147902D01*
X0089763Y0150096D01*
X0090951Y0152962D01*
X0090951Y0156065D01*
X0090951Y0155340D02*
X0105998Y0155340D01*
X0105998Y0154342D02*
X0090951Y0154342D01*
X0090951Y0153343D02*
X0106011Y0153343D01*
X0106587Y0152345D02*
X0090695Y0152345D01*
X0090281Y0151346D02*
X0093429Y0151346D01*
X0092998Y0150348D02*
X0089868Y0150348D01*
X0089017Y0149349D02*
X0092998Y0149349D01*
X0093514Y0148351D02*
X0088018Y0148351D01*
X0086243Y0147352D02*
X0093503Y0147352D01*
X0093621Y0147558D02*
X0093621Y0147558D01*
X0093621Y0148164D02*
X0093621Y0148164D01*
X0093621Y0148164D01*
X0092998Y0146354D02*
X0071416Y0146354D01*
X0071416Y0145921D02*
X0070685Y0144157D01*
X0069335Y0142806D01*
X0067571Y0142076D01*
X0065661Y0142076D01*
X0063897Y0142806D01*
X0062547Y0144157D01*
X0061816Y0145921D01*
X0061816Y0147830D01*
X0062547Y0149595D01*
X0063897Y0150945D01*
X0065661Y0151676D01*
X0067571Y0151676D01*
X0069335Y0150945D01*
X0070685Y0149595D01*
X0071416Y0147830D01*
X0071416Y0145921D01*
X0071182Y0145355D02*
X0092998Y0145355D01*
X0093441Y0144356D02*
X0070768Y0144356D01*
X0069887Y0143358D02*
X0093576Y0143358D01*
X0093621Y0143437D02*
X0093621Y0143437D01*
X0093621Y0143437D01*
X0093621Y0144044D02*
X0093621Y0144044D01*
X0092999Y0142359D02*
X0068256Y0142359D01*
X0067571Y0141676D02*
X0065661Y0141676D01*
X0063897Y0140945D01*
X0062547Y0139595D01*
X0061816Y0137830D01*
X0061816Y0135921D01*
X0062547Y0134157D01*
X0063897Y0132806D01*
X0065661Y0132076D01*
X0067571Y0132076D01*
X0069335Y0132806D01*
X0070685Y0134157D01*
X0071416Y0135921D01*
X0071416Y0137830D01*
X0070685Y0139595D01*
X0069335Y0140945D01*
X0067571Y0141676D01*
X0068331Y0141361D02*
X0092998Y0141361D01*
X0093368Y0140362D02*
X0069918Y0140362D01*
X0070781Y0139364D02*
X0093703Y0139364D01*
X0093072Y0138365D02*
X0071195Y0138365D01*
X0071416Y0137367D02*
X0092998Y0137367D01*
X0093295Y0136368D02*
X0071416Y0136368D01*
X0071188Y0135370D02*
X0093922Y0135370D01*
X0093621Y0135196D02*
X0093621Y0135196D01*
X0093621Y0135196D01*
X0093621Y0135802D02*
X0093621Y0135802D01*
X0093621Y0135802D01*
X0093145Y0134371D02*
X0070774Y0134371D01*
X0069902Y0133373D02*
X0092998Y0133373D01*
X0093222Y0132374D02*
X0068292Y0132374D01*
X0068295Y0131376D02*
X0094142Y0131376D01*
X0093218Y0130377D02*
X0069903Y0130377D01*
X0069335Y0130945D02*
X0067571Y0131676D01*
X0065661Y0131676D01*
X0063897Y0130945D01*
X0062547Y0129595D01*
X0061816Y0127830D01*
X0061816Y0125921D01*
X0062547Y0124157D01*
X0063897Y0122806D01*
X0065661Y0122076D01*
X0067571Y0122076D01*
X0069335Y0122806D01*
X0070685Y0124157D01*
X0071416Y0125921D01*
X0071416Y0127830D01*
X0070685Y0129595D01*
X0069335Y0130945D01*
X0070775Y0129379D02*
X0092998Y0129379D01*
X0093149Y0128380D02*
X0071188Y0128380D01*
X0071416Y0127382D02*
X0093932Y0127382D01*
X0093621Y0126955D02*
X0093621Y0126955D01*
X0093621Y0126955D01*
X0093291Y0126383D02*
X0071416Y0126383D01*
X0071194Y0125385D02*
X0092998Y0125385D01*
X0093075Y0124386D02*
X0070781Y0124386D01*
X0069917Y0123388D02*
X0093713Y0123388D01*
X0093621Y0123441D02*
X0093621Y0123441D01*
X0093621Y0122834D02*
X0093621Y0122834D01*
X0093621Y0122834D01*
X0093365Y0122389D02*
X0068328Y0122389D01*
X0068259Y0121391D02*
X0092998Y0121391D01*
X0093002Y0120392D02*
X0069888Y0120392D01*
X0069335Y0120945D02*
X0067571Y0121676D01*
X0065661Y0121676D01*
X0063897Y0120945D01*
X0062547Y0119595D01*
X0061816Y0117830D01*
X0061816Y0115921D01*
X0062547Y0114157D01*
X0063897Y0112806D01*
X0065661Y0112076D01*
X0067571Y0112076D01*
X0069335Y0112806D01*
X0070685Y0114157D01*
X0071416Y0115921D01*
X0071416Y0117830D01*
X0070685Y0119595D01*
X0069335Y0120945D01*
X0070769Y0119394D02*
X0093579Y0119394D01*
X0093438Y0118395D02*
X0071182Y0118395D01*
X0071416Y0117397D02*
X0092998Y0117397D01*
X0092998Y0116398D02*
X0071416Y0116398D01*
X0071200Y0115400D02*
X0093506Y0115400D01*
X0093621Y0114593D02*
X0093621Y0114593D01*
X0093621Y0114593D01*
X0093511Y0114401D02*
X0070787Y0114401D01*
X0069931Y0113403D02*
X0092998Y0113403D01*
X0092998Y0112404D02*
X0068364Y0112404D01*
X0068223Y0111406D02*
X0081311Y0111406D01*
X0081600Y0111525D02*
X0078734Y0110338D01*
X0076540Y0108144D01*
X0075352Y0105277D01*
X0075352Y0102175D01*
X0076540Y0099308D01*
X0078734Y0097114D01*
X0081600Y0095927D01*
X0084703Y0095927D01*
X0087570Y0097114D01*
X0089763Y0099308D01*
X0090951Y0102175D01*
X0090951Y0105277D01*
X0089763Y0108144D01*
X0087570Y0110338D01*
X0084703Y0111525D01*
X0081600Y0111525D01*
X0078901Y0110407D02*
X0069873Y0110407D01*
X0069335Y0110945D02*
X0067571Y0111676D01*
X0065661Y0111676D01*
X0063897Y0110945D01*
X0062547Y0109595D01*
X0061816Y0107830D01*
X0061816Y0105921D01*
X0062547Y0104157D01*
X0063897Y0102806D01*
X0065661Y0102076D01*
X0067571Y0102076D01*
X0069335Y0102806D01*
X0070685Y0104157D01*
X0071416Y0105921D01*
X0071416Y0107830D01*
X0070685Y0109595D01*
X0069335Y0110945D01*
X0070762Y0109409D02*
X0077804Y0109409D01*
X0076806Y0108410D02*
X0071176Y0108410D01*
X0071416Y0107412D02*
X0076236Y0107412D01*
X0075823Y0106413D02*
X0071416Y0106413D01*
X0071206Y0105415D02*
X0075409Y0105415D01*
X0075352Y0104416D02*
X0070793Y0104416D01*
X0069946Y0103418D02*
X0075352Y0103418D01*
X0075352Y0102419D02*
X0068400Y0102419D01*
X0068187Y0101421D02*
X0075665Y0101421D01*
X0076078Y0100422D02*
X0069858Y0100422D01*
X0069335Y0100945D02*
X0067571Y0101676D01*
X0065661Y0101676D01*
X0063897Y0100945D01*
X0062547Y0099595D01*
X0061816Y0097830D01*
X0061816Y0095921D01*
X0062547Y0094157D01*
X0063897Y0092806D01*
X0065661Y0092076D01*
X0067571Y0092076D01*
X0069335Y0092806D01*
X0070685Y0094157D01*
X0071416Y0095921D01*
X0071416Y0097830D01*
X0070685Y0099595D01*
X0069335Y0100945D01*
X0070756Y0099423D02*
X0076492Y0099423D01*
X0077423Y0098425D02*
X0071170Y0098425D01*
X0071416Y0097426D02*
X0078421Y0097426D01*
X0080390Y0096428D02*
X0071416Y0096428D01*
X0071213Y0095429D02*
X0105998Y0095429D01*
X0105998Y0094431D02*
X0070799Y0094431D01*
X0069961Y0093432D02*
X0105998Y0093432D01*
X0105998Y0092434D02*
X0068436Y0092434D01*
X0068151Y0091435D02*
X0105998Y0091435D01*
X0105998Y0090437D02*
X0069843Y0090437D01*
X0069335Y0090945D02*
X0067571Y0091676D01*
X0065661Y0091676D01*
X0063897Y0090945D01*
X0062547Y0089595D01*
X0061816Y0087830D01*
X0061816Y0085921D01*
X0062547Y0084157D01*
X0063897Y0082806D01*
X0065661Y0082076D01*
X0067571Y0082076D01*
X0069335Y0082806D01*
X0070685Y0084157D01*
X0071416Y0085921D01*
X0071416Y0087830D01*
X0070685Y0089595D01*
X0069335Y0090945D01*
X0070750Y0089438D02*
X0105998Y0089438D01*
X0105998Y0088440D02*
X0071164Y0088440D01*
X0071416Y0087441D02*
X0105998Y0087441D01*
X0105998Y0086443D02*
X0071416Y0086443D01*
X0071219Y0085444D02*
X0105998Y0085444D01*
X0105998Y0084446D02*
X0070805Y0084446D01*
X0069976Y0083447D02*
X0105998Y0083447D01*
X0105998Y0082449D02*
X0068472Y0082449D01*
X0068115Y0081450D02*
X0105998Y0081450D01*
X0105998Y0080452D02*
X0069828Y0080452D01*
X0069335Y0080945D02*
X0067571Y0081676D01*
X0065661Y0081676D01*
X0063897Y0080945D01*
X0062547Y0079595D01*
X0061816Y0077830D01*
X0061816Y0075921D01*
X0062547Y0074157D01*
X0063897Y0072806D01*
X0065661Y0072076D01*
X0067571Y0072076D01*
X0069335Y0072806D01*
X0070685Y0074157D01*
X0071416Y0075921D01*
X0071416Y0077830D01*
X0070685Y0079595D01*
X0069335Y0080945D01*
X0070744Y0079453D02*
X0105998Y0079453D01*
X0105998Y0078455D02*
X0071158Y0078455D01*
X0071416Y0077456D02*
X0105998Y0077456D01*
X0105998Y0076458D02*
X0071416Y0076458D01*
X0071225Y0075459D02*
X0105998Y0075459D01*
X0105998Y0074461D02*
X0070811Y0074461D01*
X0069991Y0073462D02*
X0105998Y0073462D01*
X0108698Y0073462D02*
X0146144Y0073462D01*
X0146144Y0072464D02*
X0108698Y0072464D01*
X0108444Y0071465D02*
X0146144Y0071465D01*
X0146144Y0070467D02*
X0121449Y0070467D01*
X0122075Y0070105D02*
X0122075Y0070105D01*
X0122075Y0070105D01*
X0122443Y0069468D02*
X0146144Y0069468D01*
X0146144Y0068470D02*
X0122698Y0068470D01*
X0122650Y0067471D02*
X0146144Y0067471D01*
X0146144Y0066473D02*
X0122071Y0066473D01*
X0122075Y0065753D02*
X0122075Y0065753D01*
X0122075Y0065753D01*
X0122237Y0065474D02*
X0146144Y0065474D01*
X0146144Y0064476D02*
X0122698Y0064476D01*
X0122698Y0063477D02*
X0146144Y0063477D01*
X0146144Y0062479D02*
X0122281Y0062479D01*
X0122075Y0062123D02*
X0122075Y0062123D01*
X0121939Y0061480D02*
X0146144Y0061480D01*
X0146144Y0060482D02*
X0122606Y0060482D01*
X0122698Y0059483D02*
X0146144Y0059483D01*
X0146144Y0058485D02*
X0122487Y0058485D01*
X0122075Y0057771D02*
X0122075Y0057771D01*
X0121581Y0057486D02*
X0146144Y0057486D01*
X0146144Y0056487D02*
X0122400Y0056487D01*
X0122075Y0057049D02*
X0122075Y0057049D01*
X0122075Y0057049D01*
X0122698Y0055489D02*
X0146144Y0055489D01*
X0146144Y0054490D02*
X0122694Y0054490D01*
X0122117Y0053492D02*
X0146144Y0053492D01*
X0146144Y0052493D02*
X0122193Y0052493D01*
X0122075Y0052697D02*
X0122075Y0052697D01*
X0122075Y0052697D01*
X0122075Y0053419D02*
X0122075Y0053419D01*
X0122698Y0051495D02*
X0146144Y0051495D01*
X0146144Y0050496D02*
X0122698Y0050496D01*
X0122324Y0049498D02*
X0146144Y0049498D01*
X0146144Y0048499D02*
X0121092Y0048499D01*
X0122718Y0044350D02*
X0121523Y0043855D01*
X0120609Y0042941D01*
X0120114Y0041747D01*
X0120114Y0040454D01*
X0120609Y0039259D01*
X0121523Y0038345D01*
X0122718Y0037850D01*
X0124011Y0037850D01*
X0125205Y0038345D01*
X0126119Y0039259D01*
X0126614Y0040454D01*
X0126614Y0041747D01*
X0126119Y0042941D01*
X0125205Y0043855D01*
X0124011Y0044350D01*
X0122718Y0044350D01*
X0121175Y0043507D02*
X0108848Y0043507D01*
X0108848Y0044505D02*
X0146144Y0044505D01*
X0146144Y0043507D02*
X0125554Y0043507D01*
X0126299Y0042508D02*
X0146144Y0042508D01*
X0146144Y0041510D02*
X0126614Y0041510D01*
X0126614Y0040511D02*
X0146144Y0040511D01*
X0146144Y0039513D02*
X0126225Y0039513D01*
X0125375Y0038514D02*
X0146144Y0038514D01*
X0146144Y0037516D02*
X0104874Y0037516D01*
X0105873Y0038514D02*
X0121354Y0038514D01*
X0120504Y0039513D02*
X0108443Y0039513D01*
X0109442Y0040511D02*
X0120114Y0040511D01*
X0120114Y0041510D02*
X0109548Y0041510D01*
X0109481Y0042508D02*
X0120430Y0042508D01*
X0108848Y0045504D02*
X0146144Y0045504D01*
X0146144Y0046502D02*
X0108698Y0046502D01*
X0108563Y0047501D02*
X0146144Y0047501D01*
X0146144Y0036517D02*
X0103876Y0036517D01*
X0102877Y0035519D02*
X0146144Y0035519D01*
X0146144Y0034520D02*
X0070836Y0034520D01*
X0070685Y0034157D02*
X0071416Y0035921D01*
X0071416Y0037830D01*
X0070685Y0039595D01*
X0069335Y0040945D01*
X0067571Y0041676D01*
X0065661Y0041676D01*
X0063897Y0040945D01*
X0062870Y0039917D01*
X0061698Y0041088D01*
X0061698Y0089088D01*
X0060908Y0089879D01*
X0058698Y0092088D01*
X0058698Y0104088D01*
X0057908Y0104879D01*
X0053908Y0108879D01*
X0045698Y0108879D01*
X0045698Y0141768D01*
X0046548Y0142618D01*
X0046548Y0144440D01*
X0045260Y0145729D01*
X0044945Y0145729D01*
X0045072Y0145802D01*
X0045072Y0145802D01*
X0045072Y0145802D01*
X0045359Y0146300D01*
X0045646Y0145802D01*
X0046725Y0145179D01*
X0054908Y0145179D01*
X0055698Y0145970D01*
X0055698Y0156068D01*
X0056437Y0155329D01*
X0058260Y0155329D01*
X0059548Y0156618D01*
X0059548Y0158440D01*
X0058260Y0159729D01*
X0056437Y0159729D01*
X0055587Y0158879D01*
X0053789Y0158879D01*
X0052998Y0158088D01*
X0052998Y0147879D01*
X0047723Y0147879D01*
X0047723Y0172177D01*
X0047100Y0173256D01*
X0046021Y0173879D01*
X0044697Y0173879D01*
X0043618Y0173256D01*
X0043618Y0173256D01*
X0043330Y0172758D01*
X0043043Y0173256D01*
X0043043Y0173256D01*
X0041964Y0173879D01*
X0040639Y0173879D01*
X0039560Y0173256D01*
X0039273Y0172758D01*
X0038985Y0173256D01*
X0037906Y0173879D01*
X0036581Y0173879D01*
X0035502Y0173256D01*
X0035215Y0172758D01*
X0034928Y0173256D01*
X0034928Y0173256D01*
X0034928Y0173256D01*
X0033849Y0173879D01*
X0032524Y0173879D01*
X0031445Y0173256D01*
X0031157Y0172758D01*
X0030870Y0173256D01*
X0030870Y0173256D01*
X0030870Y0173256D01*
X0029791Y0173879D01*
X0028466Y0173879D01*
X0027387Y0173256D01*
X0027100Y0172758D01*
X0026812Y0173256D01*
X0025733Y0173879D01*
X0024408Y0173879D01*
X0023329Y0173256D01*
X0023042Y0172758D01*
X0022755Y0173256D01*
X0022755Y0173256D01*
X0022755Y0173256D01*
X0021676Y0173879D01*
X0020351Y0173879D01*
X0019272Y0173256D01*
X0018984Y0172758D01*
X0018697Y0173256D01*
X0018697Y0173256D01*
X0017618Y0173879D01*
X0016293Y0173879D01*
X0015214Y0173256D01*
X0014591Y0172177D01*
X0014591Y0147879D01*
X0012789Y0147879D01*
X0011998Y0147088D01*
X0011998Y0144426D01*
X0012621Y0143347D01*
X0012621Y0143347D01*
X0012621Y0143347D01*
X0013588Y0142789D01*
X0012621Y0142231D01*
X0011998Y0141152D01*
X0011998Y0138290D01*
X0011148Y0137440D01*
X0011148Y0135618D01*
X0012437Y0134329D01*
X0014260Y0134329D01*
X0015548Y0135618D01*
X0015548Y0137440D01*
X0014698Y0138290D01*
X0014698Y0140154D01*
X0017996Y0140154D01*
X0019075Y0140777D01*
X0019075Y0140777D01*
X0019698Y0141856D01*
X0019698Y0143722D01*
X0019075Y0144801D01*
X0018420Y0145179D01*
X0019647Y0145179D01*
X0020726Y0145802D01*
X0021013Y0146300D01*
X0021301Y0145802D01*
X0022380Y0145179D01*
X0023704Y0145179D01*
X0024783Y0145802D01*
X0024783Y0145802D01*
X0025071Y0146300D01*
X0025358Y0145802D01*
X0025358Y0145802D01*
X0025358Y0145802D01*
X0026437Y0145179D01*
X0027762Y0145179D01*
X0028841Y0145802D01*
X0028841Y0145802D01*
X0028841Y0145802D01*
X0029128Y0146300D01*
X0029416Y0145802D01*
X0030495Y0145179D01*
X0031820Y0145179D01*
X0032899Y0145802D01*
X0033186Y0146300D01*
X0033474Y0145802D01*
X0033600Y0145729D01*
X0033437Y0145729D01*
X0032148Y0144440D01*
X0032148Y0142618D01*
X0033437Y0141329D01*
X0035260Y0141329D01*
X0036110Y0142179D01*
X0037887Y0142179D01*
X0037148Y0141440D01*
X0037148Y0139618D01*
X0037748Y0139018D01*
X0037748Y0110040D01*
X0037148Y0109440D01*
X0037148Y0107618D01*
X0038437Y0106329D01*
X0040260Y0106329D01*
X0041548Y0107618D01*
X0041548Y0109440D01*
X0040948Y0110040D01*
X0040948Y0139018D01*
X0041548Y0139618D01*
X0041548Y0141440D01*
X0040810Y0142179D01*
X0042587Y0142179D01*
X0042998Y0141768D01*
X0042998Y0106970D01*
X0043789Y0106179D01*
X0052789Y0106179D01*
X0055239Y0103729D01*
X0053437Y0103729D01*
X0052148Y0102440D01*
X0052148Y0100618D01*
X0052232Y0100534D01*
X0050727Y0099029D01*
X0028970Y0099029D01*
X0024548Y0103451D01*
X0024548Y0104440D01*
X0023260Y0105729D01*
X0021437Y0105729D01*
X0020148Y0104440D01*
X0020148Y0102618D01*
X0021437Y0101329D01*
X0022427Y0101329D01*
X0027727Y0096029D01*
X0051970Y0096029D01*
X0052848Y0096908D01*
X0055848Y0099908D01*
X0055848Y0099918D01*
X0055998Y0100068D01*
X0055998Y0090970D01*
X0058998Y0087970D01*
X0058998Y0039970D01*
X0061816Y0037152D01*
X0061816Y0035921D01*
X0062547Y0034157D01*
X0063897Y0032806D01*
X0065661Y0032076D01*
X0067571Y0032076D01*
X0069335Y0032806D01*
X0070685Y0034157D01*
X0070051Y0033522D02*
X0146144Y0033522D01*
X0146144Y0032523D02*
X0068652Y0032523D01*
X0071250Y0035519D02*
X0076300Y0035519D01*
X0075302Y0036517D02*
X0071416Y0036517D01*
X0071416Y0037516D02*
X0074303Y0037516D01*
X0073305Y0038514D02*
X0071133Y0038514D01*
X0070719Y0039513D02*
X0072306Y0039513D01*
X0070105Y0040511D02*
X0069769Y0040511D01*
X0069731Y0041510D02*
X0067971Y0041510D01*
X0067571Y0042076D02*
X0069335Y0042806D01*
X0070685Y0044157D01*
X0071416Y0045921D01*
X0071416Y0047830D01*
X0070685Y0049595D01*
X0069335Y0050945D01*
X0067571Y0051676D01*
X0065661Y0051676D01*
X0063897Y0050945D01*
X0062547Y0049595D01*
X0061816Y0047830D01*
X0061816Y0045921D01*
X0062547Y0044157D01*
X0063897Y0042806D01*
X0065661Y0042076D01*
X0067571Y0042076D01*
X0068616Y0042508D02*
X0069731Y0042508D01*
X0070036Y0043507D02*
X0070530Y0043507D01*
X0070830Y0044505D02*
X0105848Y0044505D01*
X0105848Y0043507D02*
X0094058Y0043507D01*
X0094803Y0042508D02*
X0105216Y0042508D01*
X0105050Y0041510D02*
X0095118Y0041510D01*
X0095118Y0040511D02*
X0104051Y0040511D01*
X0103053Y0039513D02*
X0094728Y0039513D01*
X0093879Y0038514D02*
X0102054Y0038514D01*
X0107348Y0041529D02*
X0107348Y0045382D01*
X0105848Y0045504D02*
X0071243Y0045504D01*
X0071416Y0046502D02*
X0093295Y0046502D01*
X0092269Y0047501D02*
X0071416Y0047501D01*
X0071139Y0048499D02*
X0091998Y0048499D01*
X0092031Y0049498D02*
X0070725Y0049498D01*
X0069784Y0050496D02*
X0092607Y0050496D01*
X0092621Y0050521D02*
X0092621Y0050521D01*
X0092621Y0050521D01*
X0092476Y0051495D02*
X0068007Y0051495D01*
X0067571Y0052076D02*
X0069335Y0052806D01*
X0070685Y0054157D01*
X0071416Y0055921D01*
X0071416Y0057830D01*
X0070685Y0059595D01*
X0069335Y0060945D01*
X0067571Y0061676D01*
X0065661Y0061676D01*
X0063897Y0060945D01*
X0062547Y0059595D01*
X0061816Y0057830D01*
X0061816Y0055921D01*
X0062547Y0054157D01*
X0063897Y0052806D01*
X0065661Y0052076D01*
X0067571Y0052076D01*
X0068580Y0052493D02*
X0091998Y0052493D01*
X0091998Y0053492D02*
X0070021Y0053492D01*
X0070824Y0054490D02*
X0092400Y0054490D01*
X0092621Y0054873D02*
X0092621Y0054873D01*
X0092621Y0054873D01*
X0092805Y0055489D02*
X0071237Y0055489D01*
X0071416Y0056487D02*
X0092106Y0056487D01*
X0091998Y0057486D02*
X0071416Y0057486D01*
X0071145Y0058485D02*
X0092194Y0058485D01*
X0092621Y0059225D02*
X0092621Y0059225D01*
X0092621Y0059225D01*
X0093068Y0059483D02*
X0070732Y0059483D01*
X0069798Y0060482D02*
X0092313Y0060482D01*
X0091998Y0061480D02*
X0068043Y0061480D01*
X0067571Y0062076D02*
X0069335Y0062806D01*
X0070685Y0064157D01*
X0071416Y0065921D01*
X0071416Y0067830D01*
X0070685Y0069595D01*
X0069335Y0070945D01*
X0067571Y0071676D01*
X0065661Y0071676D01*
X0063897Y0070945D01*
X0062547Y0069595D01*
X0061816Y0067830D01*
X0061816Y0065921D01*
X0062547Y0064157D01*
X0063897Y0062806D01*
X0065661Y0062076D01*
X0067571Y0062076D01*
X0068544Y0062479D02*
X0091998Y0062479D01*
X0092564Y0063477D02*
X0070006Y0063477D01*
X0070818Y0064476D02*
X0092520Y0064476D01*
X0092621Y0064299D02*
X0092621Y0064299D01*
X0092621Y0063577D02*
X0092621Y0063577D01*
X0092621Y0063577D01*
X0091998Y0065474D02*
X0071231Y0065474D01*
X0071416Y0066473D02*
X0091998Y0066473D01*
X0092357Y0067471D02*
X0071416Y0067471D01*
X0071151Y0068470D02*
X0092936Y0068470D01*
X0092621Y0067929D02*
X0092621Y0067929D01*
X0092621Y0067929D01*
X0092150Y0069468D02*
X0070738Y0069468D01*
X0069813Y0070467D02*
X0091998Y0070467D01*
X0092150Y0071465D02*
X0068079Y0071465D01*
X0068508Y0072464D02*
X0092938Y0072464D01*
X0092621Y0072281D02*
X0092621Y0072281D01*
X0108075Y0070827D02*
X0108075Y0070827D01*
X0108698Y0074461D02*
X0146144Y0074461D01*
X0146144Y0075459D02*
X0108698Y0075459D01*
X0108698Y0076458D02*
X0146144Y0076458D01*
X0146144Y0077456D02*
X0108698Y0077456D01*
X0108698Y0078455D02*
X0146144Y0078455D01*
X0146144Y0079453D02*
X0108698Y0079453D01*
X0108698Y0080452D02*
X0146144Y0080452D01*
X0146144Y0081450D02*
X0108698Y0081450D01*
X0108698Y0082449D02*
X0146144Y0082449D01*
X0146144Y0083447D02*
X0108698Y0083447D01*
X0108698Y0084446D02*
X0146144Y0084446D01*
X0146144Y0085444D02*
X0108698Y0085444D01*
X0108698Y0086443D02*
X0146144Y0086443D01*
X0146144Y0087441D02*
X0108698Y0087441D01*
X0108698Y0088440D02*
X0146144Y0088440D01*
X0146144Y0089438D02*
X0108698Y0089438D01*
X0108698Y0090437D02*
X0146144Y0090437D01*
X0146144Y0091435D02*
X0142917Y0091435D01*
X0142905Y0091424D02*
X0143961Y0092479D01*
X0146144Y0092716D01*
X0146144Y0030379D01*
X0016222Y0030379D01*
X0015280Y0030453D01*
X0013488Y0031036D01*
X0011963Y0032144D01*
X0010855Y0033668D01*
X0010273Y0035461D01*
X0010198Y0036403D01*
X0010198Y0175773D01*
X0061877Y0175773D01*
X0062547Y0174157D01*
X0063897Y0172806D01*
X0065661Y0172076D01*
X0067571Y0172076D01*
X0069335Y0172806D01*
X0070643Y0174114D01*
X0071848Y0172908D01*
X0071848Y0159140D01*
X0071159Y0158451D01*
X0070685Y0159595D01*
X0069335Y0160945D01*
X0067571Y0161676D01*
X0065661Y0161676D01*
X0063897Y0160945D01*
X0062547Y0159595D01*
X0061816Y0157830D01*
X0061816Y0155921D01*
X0062547Y0154157D01*
X0063897Y0152806D01*
X0065661Y0152076D01*
X0067571Y0152076D01*
X0069335Y0152806D01*
X0070685Y0154157D01*
X0071416Y0155921D01*
X0071416Y0156350D01*
X0072437Y0155329D01*
X0074260Y0155329D01*
X0075548Y0156618D01*
X0075548Y0158440D01*
X0074848Y0159140D01*
X0074848Y0174151D01*
X0073226Y0175773D01*
X0146144Y0175773D01*
X0146144Y0095431D01*
X0143576Y0095153D01*
X0142905Y0095824D01*
X0141083Y0095824D01*
X0139794Y0094535D01*
X0139794Y0092712D01*
X0141083Y0091424D01*
X0142905Y0091424D01*
X0143916Y0092434D02*
X0146144Y0092434D01*
X0146126Y0095429D02*
X0143300Y0095429D01*
X0146144Y0096428D02*
X0134732Y0096428D01*
X0133522Y0095927D02*
X0136388Y0097114D01*
X0138582Y0099308D01*
X0139770Y0102175D01*
X0139770Y0105277D01*
X0138582Y0108144D01*
X0136388Y0110338D01*
X0133522Y0111525D01*
X0130419Y0111525D01*
X0127553Y0110338D01*
X0125359Y0108144D01*
X0124171Y0105277D01*
X0124171Y0102175D01*
X0125359Y0099308D01*
X0127553Y0097114D01*
X0130419Y0095927D01*
X0133522Y0095927D01*
X0136701Y0097426D02*
X0146144Y0097426D01*
X0146144Y0098425D02*
X0137699Y0098425D01*
X0138630Y0099423D02*
X0146144Y0099423D01*
X0146144Y0100422D02*
X0139044Y0100422D01*
X0139457Y0101421D02*
X0146144Y0101421D01*
X0146144Y0102419D02*
X0139770Y0102419D01*
X0139770Y0103418D02*
X0146144Y0103418D01*
X0146144Y0104416D02*
X0139770Y0104416D01*
X0139713Y0105415D02*
X0146144Y0105415D01*
X0146144Y0106413D02*
X0139299Y0106413D01*
X0138886Y0107412D02*
X0146144Y0107412D01*
X0146144Y0108410D02*
X0138316Y0108410D01*
X0137318Y0109409D02*
X0146144Y0109409D01*
X0146144Y0110407D02*
X0136221Y0110407D01*
X0133811Y0111406D02*
X0146144Y0111406D01*
X0146144Y0112404D02*
X0121150Y0112404D01*
X0121075Y0112533D02*
X0121075Y0112533D01*
X0121075Y0112533D01*
X0121228Y0113403D02*
X0146144Y0113403D01*
X0146144Y0114401D02*
X0121698Y0114401D01*
X0121698Y0115400D02*
X0146144Y0115400D01*
X0146144Y0116398D02*
X0121223Y0116398D01*
X0121075Y0116653D02*
X0121075Y0116653D01*
X0121075Y0116653D01*
X0121075Y0117260D02*
X0121075Y0117260D01*
X0121075Y0117260D01*
X0121155Y0117397D02*
X0146144Y0117397D01*
X0146144Y0118395D02*
X0121698Y0118395D01*
X0121698Y0119394D02*
X0146144Y0119394D01*
X0146144Y0120392D02*
X0121296Y0120392D01*
X0121075Y0120774D02*
X0121075Y0120774D01*
X0121081Y0121391D02*
X0146144Y0121391D01*
X0146144Y0122389D02*
X0121658Y0122389D01*
X0121698Y0123388D02*
X0146144Y0123388D01*
X0146144Y0124386D02*
X0121369Y0124386D01*
X0121075Y0124895D02*
X0121075Y0124895D01*
X0121075Y0124895D01*
X0120874Y0125385D02*
X0146144Y0125385D01*
X0146144Y0126383D02*
X0121585Y0126383D01*
X0121698Y0127382D02*
X0146144Y0127382D01*
X0146144Y0128380D02*
X0121442Y0128380D01*
X0121075Y0129015D02*
X0121075Y0129015D01*
X0121075Y0129015D01*
X0120655Y0129379D02*
X0146144Y0129379D01*
X0146144Y0130377D02*
X0121512Y0130377D01*
X0121075Y0129622D02*
X0121075Y0129622D01*
X0121075Y0129622D01*
X0121698Y0131376D02*
X0146144Y0131376D01*
X0146144Y0132374D02*
X0121515Y0132374D01*
X0121075Y0133136D02*
X0121075Y0133136D01*
X0121075Y0133136D01*
X0120665Y0133373D02*
X0146144Y0133373D01*
X0146144Y0134371D02*
X0121439Y0134371D01*
X0121075Y0133742D02*
X0121075Y0133742D01*
X0121698Y0135370D02*
X0146144Y0135370D01*
X0146144Y0136368D02*
X0121588Y0136368D01*
X0121075Y0137256D02*
X0121075Y0137256D01*
X0121075Y0137256D01*
X0120884Y0137367D02*
X0146144Y0137367D01*
X0146144Y0138365D02*
X0121366Y0138365D01*
X0121075Y0137863D02*
X0121075Y0137863D01*
X0121698Y0139364D02*
X0146144Y0139364D01*
X0146144Y0140362D02*
X0121661Y0140362D01*
X0121085Y0141361D02*
X0146144Y0141361D01*
X0146144Y0142359D02*
X0121293Y0142359D01*
X0121075Y0141377D02*
X0121075Y0141377D01*
X0121075Y0141377D01*
X0121698Y0143358D02*
X0146144Y0143358D01*
X0146144Y0144356D02*
X0121698Y0144356D01*
X0121158Y0145355D02*
X0146144Y0145355D01*
X0146144Y0146354D02*
X0121220Y0146354D01*
X0121075Y0146104D02*
X0121075Y0146104D01*
X0121075Y0145498D02*
X0121075Y0145498D01*
X0121075Y0145498D01*
X0121698Y0147352D02*
X0128879Y0147352D01*
X0127553Y0147902D02*
X0130419Y0146714D01*
X0133522Y0146714D01*
X0136388Y0147902D01*
X0138582Y0150096D01*
X0139770Y0152962D01*
X0139770Y0156065D01*
X0138582Y0158931D01*
X0136388Y0161125D01*
X0133522Y0162313D01*
X0130419Y0162313D01*
X0127553Y0161125D01*
X0125359Y0158931D01*
X0124171Y0156065D01*
X0124171Y0152962D01*
X0125359Y0150096D01*
X0127553Y0147902D01*
X0127104Y0148351D02*
X0121698Y0148351D01*
X0121231Y0149349D02*
X0126105Y0149349D01*
X0125254Y0150348D02*
X0121146Y0150348D01*
X0121075Y0149618D02*
X0121075Y0149618D01*
X0121075Y0149618D01*
X0121698Y0151346D02*
X0124841Y0151346D01*
X0124427Y0152345D02*
X0121698Y0152345D01*
X0121304Y0153343D02*
X0124171Y0153343D01*
X0124171Y0154342D02*
X0120032Y0154342D01*
X0121075Y0153739D02*
X0121075Y0153739D01*
X0121075Y0153739D01*
X0124171Y0155340D02*
X0108698Y0155340D01*
X0108448Y0156339D02*
X0124285Y0156339D01*
X0124698Y0157337D02*
X0090424Y0157337D01*
X0090010Y0158336D02*
X0125112Y0158336D01*
X0125762Y0159334D02*
X0089361Y0159334D01*
X0088362Y0160333D02*
X0126760Y0160333D01*
X0128050Y0161331D02*
X0087072Y0161331D01*
X0079231Y0161331D02*
X0074848Y0161331D01*
X0074848Y0160333D02*
X0077941Y0160333D01*
X0076943Y0159334D02*
X0074848Y0159334D01*
X0075548Y0158336D02*
X0076293Y0158336D01*
X0075879Y0157337D02*
X0075548Y0157337D01*
X0075466Y0156339D02*
X0075269Y0156339D01*
X0075352Y0155340D02*
X0074271Y0155340D01*
X0075352Y0154342D02*
X0070762Y0154342D01*
X0071176Y0155340D02*
X0072426Y0155340D01*
X0071428Y0156339D02*
X0071416Y0156339D01*
X0073348Y0157529D02*
X0073348Y0173529D01*
X0070002Y0176876D01*
X0066616Y0176876D01*
X0069842Y0173313D02*
X0071443Y0173313D01*
X0071848Y0172315D02*
X0068148Y0172315D01*
X0067571Y0171676D02*
X0065661Y0171676D01*
X0063897Y0170945D01*
X0062547Y0169595D01*
X0061816Y0167830D01*
X0061816Y0165921D01*
X0062547Y0164157D01*
X0063897Y0162806D01*
X0065661Y0162076D01*
X0067571Y0162076D01*
X0069335Y0162806D01*
X0070685Y0164157D01*
X0071416Y0165921D01*
X0071416Y0167830D01*
X0070685Y0169595D01*
X0069335Y0170945D01*
X0067571Y0171676D01*
X0068438Y0171316D02*
X0071848Y0171316D01*
X0071848Y0170318D02*
X0069962Y0170318D01*
X0070799Y0169319D02*
X0071848Y0169319D01*
X0071848Y0168321D02*
X0071213Y0168321D01*
X0071416Y0167322D02*
X0071848Y0167322D01*
X0071848Y0166324D02*
X0071416Y0166324D01*
X0071169Y0165325D02*
X0071848Y0165325D01*
X0071848Y0164327D02*
X0070756Y0164327D01*
X0069857Y0163328D02*
X0071848Y0163328D01*
X0071848Y0162330D02*
X0068184Y0162330D01*
X0068403Y0161331D02*
X0071848Y0161331D01*
X0071848Y0160333D02*
X0069947Y0160333D01*
X0070793Y0159334D02*
X0071848Y0159334D01*
X0074848Y0162330D02*
X0146144Y0162330D01*
X0146144Y0163328D02*
X0074848Y0163328D01*
X0074848Y0164327D02*
X0146144Y0164327D01*
X0146144Y0165325D02*
X0074848Y0165325D01*
X0074848Y0166324D02*
X0146144Y0166324D01*
X0146144Y0167322D02*
X0074848Y0167322D01*
X0074848Y0168321D02*
X0146144Y0168321D01*
X0146144Y0169319D02*
X0074848Y0169319D01*
X0074848Y0170318D02*
X0146144Y0170318D01*
X0146144Y0171316D02*
X0074848Y0171316D01*
X0074848Y0172315D02*
X0146144Y0172315D01*
X0146144Y0173313D02*
X0074848Y0173313D01*
X0074687Y0174312D02*
X0146144Y0174312D01*
X0146144Y0175310D02*
X0073689Y0175310D01*
X0065084Y0172315D02*
X0047644Y0172315D01*
X0047723Y0171316D02*
X0064794Y0171316D01*
X0063270Y0170318D02*
X0047723Y0170318D01*
X0047723Y0169319D02*
X0062433Y0169319D01*
X0062019Y0168321D02*
X0047723Y0168321D01*
X0047723Y0167322D02*
X0061816Y0167322D01*
X0061816Y0166324D02*
X0047723Y0166324D01*
X0047723Y0165325D02*
X0062063Y0165325D01*
X0062477Y0164327D02*
X0047723Y0164327D01*
X0047723Y0163328D02*
X0063375Y0163328D01*
X0065048Y0162330D02*
X0047723Y0162330D01*
X0047723Y0161331D02*
X0064830Y0161331D01*
X0063285Y0160333D02*
X0047723Y0160333D01*
X0047723Y0159334D02*
X0056042Y0159334D01*
X0053246Y0158336D02*
X0047723Y0158336D01*
X0047723Y0157337D02*
X0052998Y0157337D01*
X0052998Y0156339D02*
X0047723Y0156339D01*
X0047723Y0155340D02*
X0052998Y0155340D01*
X0052998Y0154342D02*
X0047723Y0154342D01*
X0047723Y0153343D02*
X0052998Y0153343D01*
X0052998Y0152345D02*
X0047723Y0152345D01*
X0047723Y0151346D02*
X0052998Y0151346D01*
X0052998Y0150348D02*
X0047723Y0150348D01*
X0047723Y0149349D02*
X0052998Y0149349D01*
X0052998Y0148351D02*
X0047723Y0148351D01*
X0046421Y0145355D02*
X0045634Y0145355D01*
X0045646Y0145802D02*
X0045646Y0145802D01*
X0046548Y0144356D02*
X0062464Y0144356D01*
X0062051Y0145355D02*
X0055083Y0145355D01*
X0055698Y0146354D02*
X0061816Y0146354D01*
X0061816Y0147352D02*
X0055698Y0147352D01*
X0055698Y0148351D02*
X0062032Y0148351D01*
X0062445Y0149349D02*
X0055698Y0149349D01*
X0055698Y0150348D02*
X0063300Y0150348D01*
X0064866Y0151346D02*
X0055698Y0151346D01*
X0055698Y0152345D02*
X0065012Y0152345D01*
X0063361Y0153343D02*
X0055698Y0153343D01*
X0055698Y0154342D02*
X0062470Y0154342D01*
X0062057Y0155340D02*
X0058271Y0155340D01*
X0059269Y0156339D02*
X0061816Y0156339D01*
X0061816Y0157337D02*
X0059548Y0157337D01*
X0059548Y0158336D02*
X0062025Y0158336D01*
X0062439Y0159334D02*
X0058655Y0159334D01*
X0056426Y0155340D02*
X0055698Y0155340D01*
X0063346Y0143358D02*
X0046548Y0143358D01*
X0046290Y0142359D02*
X0064976Y0142359D01*
X0064902Y0141361D02*
X0045698Y0141361D01*
X0045698Y0140362D02*
X0063315Y0140362D01*
X0062451Y0139364D02*
X0045698Y0139364D01*
X0045698Y0138365D02*
X0062038Y0138365D01*
X0061816Y0137367D02*
X0045698Y0137367D01*
X0045698Y0136368D02*
X0061816Y0136368D01*
X0062044Y0135370D02*
X0045698Y0135370D01*
X0045698Y0134371D02*
X0062458Y0134371D01*
X0063331Y0133373D02*
X0045698Y0133373D01*
X0045698Y0132374D02*
X0064940Y0132374D01*
X0064938Y0131376D02*
X0045698Y0131376D01*
X0045698Y0130377D02*
X0063330Y0130377D01*
X0062458Y0129379D02*
X0045698Y0129379D01*
X0045698Y0128380D02*
X0062044Y0128380D01*
X0061816Y0127382D02*
X0045698Y0127382D01*
X0045698Y0126383D02*
X0061816Y0126383D01*
X0062038Y0125385D02*
X0045698Y0125385D01*
X0045698Y0124386D02*
X0062452Y0124386D01*
X0063316Y0123388D02*
X0045698Y0123388D01*
X0045698Y0122389D02*
X0064904Y0122389D01*
X0064974Y0121391D02*
X0045698Y0121391D01*
X0045698Y0120392D02*
X0063345Y0120392D01*
X0062464Y0119394D02*
X0045698Y0119394D01*
X0045698Y0118395D02*
X0062050Y0118395D01*
X0061816Y0117397D02*
X0045698Y0117397D01*
X0045698Y0116398D02*
X0061816Y0116398D01*
X0062032Y0115400D02*
X0045698Y0115400D01*
X0045698Y0114401D02*
X0062446Y0114401D01*
X0063301Y0113403D02*
X0045698Y0113403D01*
X0045698Y0112404D02*
X0064868Y0112404D01*
X0065010Y0111406D02*
X0045698Y0111406D01*
X0045698Y0110407D02*
X0063359Y0110407D01*
X0062470Y0109409D02*
X0045698Y0109409D01*
X0042998Y0109409D02*
X0041548Y0109409D01*
X0041548Y0108410D02*
X0042998Y0108410D01*
X0042998Y0107412D02*
X0041342Y0107412D01*
X0040344Y0106413D02*
X0043555Y0106413D01*
X0042998Y0110407D02*
X0040948Y0110407D01*
X0040948Y0111406D02*
X0042998Y0111406D01*
X0042998Y0112404D02*
X0040948Y0112404D01*
X0040948Y0113403D02*
X0042998Y0113403D01*
X0042998Y0114401D02*
X0040948Y0114401D01*
X0040948Y0115400D02*
X0042998Y0115400D01*
X0042998Y0116398D02*
X0040948Y0116398D01*
X0040948Y0117397D02*
X0042998Y0117397D01*
X0042998Y0118395D02*
X0040948Y0118395D01*
X0040948Y0119394D02*
X0042998Y0119394D01*
X0042998Y0120392D02*
X0040948Y0120392D01*
X0040948Y0121391D02*
X0042998Y0121391D01*
X0042998Y0122389D02*
X0040948Y0122389D01*
X0040948Y0123388D02*
X0042998Y0123388D01*
X0042998Y0124386D02*
X0040948Y0124386D01*
X0040948Y0125385D02*
X0042998Y0125385D01*
X0042998Y0126383D02*
X0040948Y0126383D01*
X0040948Y0127382D02*
X0042998Y0127382D01*
X0042998Y0128380D02*
X0040948Y0128380D01*
X0040948Y0129379D02*
X0042998Y0129379D01*
X0042998Y0130377D02*
X0040948Y0130377D01*
X0040948Y0131376D02*
X0042998Y0131376D01*
X0042998Y0132374D02*
X0040948Y0132374D01*
X0040948Y0133373D02*
X0042998Y0133373D01*
X0042998Y0134371D02*
X0040948Y0134371D01*
X0040948Y0135370D02*
X0042998Y0135370D01*
X0042998Y0136368D02*
X0040948Y0136368D01*
X0040948Y0137367D02*
X0042998Y0137367D01*
X0042998Y0138365D02*
X0040948Y0138365D01*
X0041295Y0139364D02*
X0042998Y0139364D01*
X0042998Y0140362D02*
X0041548Y0140362D01*
X0041548Y0141361D02*
X0042998Y0141361D01*
X0037148Y0141361D02*
X0035292Y0141361D01*
X0033405Y0141361D02*
X0019413Y0141361D01*
X0019075Y0140777D02*
X0019075Y0140777D01*
X0018357Y0140362D02*
X0037148Y0140362D01*
X0037402Y0139364D02*
X0014698Y0139364D01*
X0014698Y0138365D02*
X0037748Y0138365D01*
X0037748Y0137367D02*
X0015548Y0137367D01*
X0015548Y0136368D02*
X0037748Y0136368D01*
X0037748Y0135370D02*
X0015300Y0135370D01*
X0014302Y0134371D02*
X0037748Y0134371D01*
X0037748Y0133373D02*
X0010198Y0133373D01*
X0010198Y0134371D02*
X0012395Y0134371D01*
X0011396Y0135370D02*
X0010198Y0135370D01*
X0010198Y0136368D02*
X0011148Y0136368D01*
X0011148Y0137367D02*
X0010198Y0137367D01*
X0010198Y0138365D02*
X0011998Y0138365D01*
X0011998Y0139364D02*
X0010198Y0139364D01*
X0010198Y0140362D02*
X0011998Y0140362D01*
X0012119Y0141361D02*
X0010198Y0141361D01*
X0010198Y0142359D02*
X0012844Y0142359D01*
X0012621Y0142231D02*
X0012621Y0142231D01*
X0012621Y0142231D01*
X0012615Y0143358D02*
X0010198Y0143358D01*
X0010198Y0144356D02*
X0012039Y0144356D01*
X0011998Y0145355D02*
X0010198Y0145355D01*
X0010198Y0146354D02*
X0011998Y0146354D01*
X0012262Y0147352D02*
X0010198Y0147352D01*
X0010198Y0148351D02*
X0014591Y0148351D01*
X0014591Y0149349D02*
X0010198Y0149349D01*
X0010198Y0150348D02*
X0014591Y0150348D01*
X0014591Y0151346D02*
X0010198Y0151346D01*
X0010198Y0152345D02*
X0014591Y0152345D01*
X0014591Y0153343D02*
X0010198Y0153343D01*
X0010198Y0154342D02*
X0014591Y0154342D01*
X0014591Y0155340D02*
X0010198Y0155340D01*
X0010198Y0156339D02*
X0014591Y0156339D01*
X0014591Y0157337D02*
X0010198Y0157337D01*
X0010198Y0158336D02*
X0014591Y0158336D01*
X0014591Y0159334D02*
X0010198Y0159334D01*
X0010198Y0160333D02*
X0014591Y0160333D01*
X0014591Y0161331D02*
X0010198Y0161331D01*
X0010198Y0162330D02*
X0014591Y0162330D01*
X0014591Y0163328D02*
X0010198Y0163328D01*
X0010198Y0164327D02*
X0014591Y0164327D01*
X0014591Y0165325D02*
X0010198Y0165325D01*
X0010198Y0166324D02*
X0014591Y0166324D01*
X0014591Y0167322D02*
X0010198Y0167322D01*
X0010198Y0168321D02*
X0014591Y0168321D01*
X0014591Y0169319D02*
X0010198Y0169319D01*
X0010198Y0170318D02*
X0014591Y0170318D01*
X0014591Y0171316D02*
X0010198Y0171316D01*
X0010198Y0172315D02*
X0014671Y0172315D01*
X0015214Y0173256D02*
X0015214Y0173256D01*
X0015214Y0173256D01*
X0015313Y0173313D02*
X0010198Y0173313D01*
X0010198Y0174312D02*
X0062483Y0174312D01*
X0062069Y0175310D02*
X0010198Y0175310D01*
X0018598Y0173313D02*
X0019371Y0173313D01*
X0019272Y0173256D02*
X0019272Y0173256D01*
X0018697Y0173256D02*
X0018697Y0173256D01*
X0022656Y0173313D02*
X0023428Y0173313D01*
X0023329Y0173256D02*
X0023329Y0173256D01*
X0023329Y0173256D01*
X0026713Y0173313D02*
X0027486Y0173313D01*
X0027387Y0173256D02*
X0027387Y0173256D01*
X0027387Y0173256D01*
X0026812Y0173256D02*
X0026812Y0173256D01*
X0026812Y0173256D01*
X0030771Y0173313D02*
X0031544Y0173313D01*
X0031445Y0173256D02*
X0031445Y0173256D01*
X0031445Y0173256D01*
X0034829Y0173313D02*
X0035601Y0173313D01*
X0035502Y0173256D02*
X0035502Y0173256D01*
X0038886Y0173313D02*
X0039659Y0173313D01*
X0039560Y0173256D02*
X0039560Y0173256D01*
X0039560Y0173256D01*
X0038985Y0173256D02*
X0038985Y0173256D01*
X0038985Y0173256D01*
X0042944Y0173313D02*
X0043717Y0173313D01*
X0043618Y0173256D02*
X0043618Y0173256D01*
X0047002Y0173313D02*
X0063390Y0173313D01*
X0047100Y0173256D02*
X0047100Y0173256D01*
X0047100Y0173256D01*
X0068220Y0152345D02*
X0075608Y0152345D01*
X0075352Y0153343D02*
X0069872Y0153343D01*
X0068367Y0151346D02*
X0076022Y0151346D01*
X0076435Y0150348D02*
X0069932Y0150348D01*
X0070787Y0149349D02*
X0077286Y0149349D01*
X0078285Y0148351D02*
X0071201Y0148351D01*
X0071416Y0147352D02*
X0080060Y0147352D01*
X0084992Y0111406D02*
X0093433Y0111406D01*
X0093621Y0111079D02*
X0093621Y0111079D01*
X0093621Y0110472D02*
X0093621Y0110472D01*
X0093584Y0110407D02*
X0087402Y0110407D01*
X0088499Y0109409D02*
X0093007Y0109409D01*
X0092998Y0108410D02*
X0089497Y0108410D01*
X0090067Y0107412D02*
X0093360Y0107412D01*
X0093728Y0106413D02*
X0090480Y0106413D01*
X0090894Y0105415D02*
X0093080Y0105415D01*
X0092998Y0104416D02*
X0090951Y0104416D01*
X0090951Y0103418D02*
X0093287Y0103418D01*
X0094346Y0102419D02*
X0090951Y0102419D01*
X0090638Y0101421D02*
X0106153Y0101421D01*
X0105998Y0100422D02*
X0090225Y0100422D01*
X0089811Y0099423D02*
X0105998Y0099423D01*
X0105998Y0098425D02*
X0088880Y0098425D01*
X0087882Y0097426D02*
X0105998Y0097426D01*
X0105998Y0096428D02*
X0085913Y0096428D01*
X0093621Y0106352D02*
X0093621Y0106352D01*
X0093621Y0106352D01*
X0108698Y0099423D02*
X0125311Y0099423D01*
X0124897Y0100422D02*
X0120460Y0100422D01*
X0121075Y0100777D02*
X0121075Y0100777D01*
X0121447Y0101421D02*
X0124484Y0101421D01*
X0124171Y0102419D02*
X0121698Y0102419D01*
X0121580Y0103418D02*
X0124171Y0103418D01*
X0124171Y0104416D02*
X0120860Y0104416D01*
X0121075Y0104291D02*
X0121075Y0104291D01*
X0121075Y0104291D01*
X0121075Y0104898D02*
X0121075Y0104898D01*
X0121374Y0105415D02*
X0124228Y0105415D01*
X0124642Y0106413D02*
X0121698Y0106413D01*
X0121653Y0107412D02*
X0125055Y0107412D01*
X0125625Y0108410D02*
X0121077Y0108410D01*
X0121075Y0108412D02*
X0121075Y0108412D01*
X0121075Y0108412D01*
X0121301Y0109409D02*
X0126623Y0109409D01*
X0127720Y0110407D02*
X0121698Y0110407D01*
X0121698Y0111406D02*
X0130130Y0111406D01*
X0126242Y0098425D02*
X0108698Y0098425D01*
X0108698Y0097426D02*
X0127240Y0097426D01*
X0129209Y0096428D02*
X0108698Y0096428D01*
X0108698Y0095429D02*
X0140689Y0095429D01*
X0139794Y0094431D02*
X0108698Y0094431D01*
X0108698Y0093432D02*
X0139794Y0093432D01*
X0140073Y0092434D02*
X0108698Y0092434D01*
X0108698Y0091435D02*
X0141071Y0091435D01*
X0167797Y0095458D02*
X0179215Y0095458D01*
X0186301Y0102545D01*
X0182364Y0105695D02*
X0182364Y0164750D01*
X0175278Y0164750D02*
X0167404Y0156876D01*
X0156616Y0156876D01*
X0156616Y0166876D02*
X0158427Y0168687D01*
X0174490Y0168687D01*
X0146144Y0161331D02*
X0135891Y0161331D01*
X0137181Y0160333D02*
X0146144Y0160333D01*
X0146144Y0159334D02*
X0138180Y0159334D01*
X0138829Y0158336D02*
X0146144Y0158336D01*
X0146144Y0157337D02*
X0139243Y0157337D01*
X0139656Y0156339D02*
X0146144Y0156339D01*
X0146144Y0155340D02*
X0139770Y0155340D01*
X0139770Y0154342D02*
X0146144Y0154342D01*
X0146144Y0153343D02*
X0139770Y0153343D01*
X0139514Y0152345D02*
X0146144Y0152345D01*
X0146144Y0151346D02*
X0139100Y0151346D01*
X0138687Y0150348D02*
X0146144Y0150348D01*
X0146144Y0149349D02*
X0137836Y0149349D01*
X0136837Y0148351D02*
X0146144Y0148351D01*
X0146144Y0147352D02*
X0135062Y0147352D01*
X0121075Y0125501D02*
X0121075Y0125501D01*
X0171656Y0100576D02*
X0172837Y0101758D01*
X0178427Y0101758D01*
X0182364Y0105695D01*
X0183152Y0091521D02*
X0182207Y0090576D01*
X0171656Y0090576D01*
X0146144Y0031525D02*
X0012815Y0031525D01*
X0011687Y0032523D02*
X0064581Y0032523D01*
X0063182Y0033522D02*
X0045689Y0033522D01*
X0045543Y0033376D02*
X0046809Y0034642D01*
X0047494Y0036295D01*
X0047494Y0038086D01*
X0046809Y0039740D01*
X0045543Y0041006D01*
X0043889Y0041691D01*
X0042099Y0041691D01*
X0040445Y0041006D01*
X0039179Y0039740D01*
X0038494Y0038086D01*
X0038494Y0036295D01*
X0039179Y0034642D01*
X0040445Y0033376D01*
X0042099Y0032691D01*
X0043889Y0032691D01*
X0045543Y0033376D01*
X0046688Y0034520D02*
X0062396Y0034520D01*
X0061983Y0035519D02*
X0047172Y0035519D01*
X0047494Y0036517D02*
X0061816Y0036517D01*
X0061453Y0037516D02*
X0047494Y0037516D01*
X0047317Y0038514D02*
X0060454Y0038514D01*
X0059456Y0039513D02*
X0046903Y0039513D01*
X0046037Y0040511D02*
X0058998Y0040511D01*
X0058998Y0041510D02*
X0044326Y0041510D01*
X0041663Y0041510D02*
X0010198Y0041510D01*
X0010198Y0042508D02*
X0058998Y0042508D01*
X0058998Y0043507D02*
X0010198Y0043507D01*
X0010198Y0044505D02*
X0058998Y0044505D01*
X0058998Y0045504D02*
X0010198Y0045504D01*
X0010198Y0046502D02*
X0058998Y0046502D01*
X0058998Y0047501D02*
X0010198Y0047501D01*
X0010198Y0048499D02*
X0027267Y0048499D01*
X0027437Y0048329D02*
X0026148Y0049618D01*
X0026148Y0051440D01*
X0026848Y0052140D01*
X0026848Y0053380D01*
X0021900Y0058328D01*
X0020259Y0058328D01*
X0019260Y0057329D01*
X0017437Y0057329D01*
X0016148Y0058618D01*
X0016148Y0060440D01*
X0017148Y0061440D01*
X0017148Y0072450D01*
X0017148Y0072451D01*
X0017148Y0073440D01*
X0017848Y0074140D01*
X0017848Y0089908D01*
X0012848Y0094908D01*
X0012848Y0115918D01*
X0012148Y0116618D01*
X0012148Y0118440D01*
X0013437Y0119729D01*
X0015260Y0119729D01*
X0016548Y0118440D01*
X0016548Y0116618D01*
X0015848Y0115918D01*
X0015848Y0096151D01*
X0019970Y0092029D01*
X0020848Y0091151D01*
X0020848Y0074140D01*
X0021548Y0073440D01*
X0021548Y0071618D01*
X0020260Y0070329D01*
X0020148Y0070329D01*
X0020148Y0061328D01*
X0023143Y0061328D01*
X0024022Y0060450D01*
X0029848Y0054623D01*
X0029848Y0052140D01*
X0030548Y0051440D01*
X0030548Y0049618D01*
X0029260Y0048329D01*
X0027437Y0048329D01*
X0026268Y0049498D02*
X0010198Y0049498D01*
X0010198Y0050496D02*
X0026148Y0050496D01*
X0026203Y0051495D02*
X0010198Y0051495D01*
X0010198Y0052493D02*
X0026848Y0052493D01*
X0026737Y0053492D02*
X0010198Y0053492D01*
X0010198Y0054490D02*
X0025738Y0054490D01*
X0024740Y0055489D02*
X0010198Y0055489D01*
X0010198Y0056487D02*
X0023741Y0056487D01*
X0022743Y0057486D02*
X0019417Y0057486D01*
X0017280Y0057486D02*
X0010198Y0057486D01*
X0010198Y0058485D02*
X0016282Y0058485D01*
X0016148Y0059483D02*
X0010198Y0059483D01*
X0010198Y0060482D02*
X0016190Y0060482D01*
X0017148Y0061480D02*
X0010198Y0061480D01*
X0010198Y0062479D02*
X0017148Y0062479D01*
X0017148Y0063477D02*
X0010198Y0063477D01*
X0010198Y0064476D02*
X0017148Y0064476D01*
X0017148Y0065474D02*
X0010198Y0065474D01*
X0010198Y0066473D02*
X0017148Y0066473D01*
X0017148Y0067471D02*
X0010198Y0067471D01*
X0010198Y0068470D02*
X0017148Y0068470D01*
X0017148Y0069468D02*
X0010198Y0069468D01*
X0010198Y0070467D02*
X0017148Y0070467D01*
X0017148Y0071465D02*
X0010198Y0071465D01*
X0010198Y0072464D02*
X0017148Y0072464D01*
X0017170Y0073462D02*
X0010198Y0073462D01*
X0010198Y0074461D02*
X0017848Y0074461D01*
X0017848Y0075459D02*
X0010198Y0075459D01*
X0010198Y0076458D02*
X0017848Y0076458D01*
X0017848Y0077456D02*
X0010198Y0077456D01*
X0010198Y0078455D02*
X0017848Y0078455D01*
X0017848Y0079453D02*
X0010198Y0079453D01*
X0010198Y0080452D02*
X0017848Y0080452D01*
X0017848Y0081450D02*
X0010198Y0081450D01*
X0010198Y0082449D02*
X0017848Y0082449D01*
X0017848Y0083447D02*
X0010198Y0083447D01*
X0010198Y0084446D02*
X0017848Y0084446D01*
X0017848Y0085444D02*
X0010198Y0085444D01*
X0010198Y0086443D02*
X0017848Y0086443D01*
X0017848Y0087441D02*
X0010198Y0087441D01*
X0010198Y0088440D02*
X0017848Y0088440D01*
X0017848Y0089438D02*
X0010198Y0089438D01*
X0010198Y0090437D02*
X0017319Y0090437D01*
X0016321Y0091435D02*
X0010198Y0091435D01*
X0010198Y0092434D02*
X0015322Y0092434D01*
X0014324Y0093432D02*
X0010198Y0093432D01*
X0010198Y0094431D02*
X0013325Y0094431D01*
X0012848Y0095429D02*
X0010198Y0095429D01*
X0010198Y0096428D02*
X0012848Y0096428D01*
X0012848Y0097426D02*
X0010198Y0097426D01*
X0010198Y0098425D02*
X0012848Y0098425D01*
X0012848Y0099423D02*
X0010198Y0099423D01*
X0010198Y0100422D02*
X0012848Y0100422D01*
X0012848Y0101421D02*
X0010198Y0101421D01*
X0010198Y0102419D02*
X0012848Y0102419D01*
X0012848Y0103418D02*
X0010198Y0103418D01*
X0010198Y0104416D02*
X0012848Y0104416D01*
X0012848Y0105415D02*
X0010198Y0105415D01*
X0010198Y0106413D02*
X0012848Y0106413D01*
X0012848Y0107412D02*
X0010198Y0107412D01*
X0010198Y0108410D02*
X0012848Y0108410D01*
X0012848Y0109409D02*
X0010198Y0109409D01*
X0010198Y0110407D02*
X0012848Y0110407D01*
X0012848Y0111406D02*
X0010198Y0111406D01*
X0010198Y0112404D02*
X0012848Y0112404D01*
X0012848Y0113403D02*
X0010198Y0113403D01*
X0010198Y0114401D02*
X0012848Y0114401D01*
X0012848Y0115400D02*
X0010198Y0115400D01*
X0010198Y0116398D02*
X0012368Y0116398D01*
X0012148Y0117397D02*
X0010198Y0117397D01*
X0010198Y0118395D02*
X0012148Y0118395D01*
X0013102Y0119394D02*
X0010198Y0119394D01*
X0010198Y0120392D02*
X0037748Y0120392D01*
X0037748Y0119394D02*
X0015595Y0119394D01*
X0016548Y0118395D02*
X0037748Y0118395D01*
X0037748Y0117397D02*
X0016548Y0117397D01*
X0016329Y0116398D02*
X0037748Y0116398D01*
X0037748Y0115400D02*
X0015848Y0115400D01*
X0015848Y0114401D02*
X0037748Y0114401D01*
X0037748Y0113403D02*
X0015848Y0113403D01*
X0015848Y0112404D02*
X0037748Y0112404D01*
X0037748Y0111406D02*
X0015848Y0111406D01*
X0015848Y0110407D02*
X0037748Y0110407D01*
X0037148Y0109409D02*
X0015848Y0109409D01*
X0015848Y0108410D02*
X0037148Y0108410D01*
X0037355Y0107412D02*
X0015848Y0107412D01*
X0015848Y0106413D02*
X0038353Y0106413D01*
X0028575Y0099423D02*
X0051121Y0099423D01*
X0052120Y0100422D02*
X0027577Y0100422D01*
X0026578Y0101421D02*
X0052148Y0101421D01*
X0052148Y0102419D02*
X0025580Y0102419D01*
X0024581Y0103418D02*
X0053126Y0103418D01*
X0054552Y0104416D02*
X0024548Y0104416D01*
X0023574Y0105415D02*
X0053554Y0105415D01*
X0055375Y0107412D02*
X0061816Y0107412D01*
X0061816Y0106413D02*
X0056374Y0106413D01*
X0057372Y0105415D02*
X0062026Y0105415D01*
X0062440Y0104416D02*
X0058371Y0104416D01*
X0058698Y0103418D02*
X0063286Y0103418D01*
X0064832Y0102419D02*
X0058698Y0102419D01*
X0058698Y0101421D02*
X0065046Y0101421D01*
X0063374Y0100422D02*
X0058698Y0100422D01*
X0058698Y0099423D02*
X0062476Y0099423D01*
X0062062Y0098425D02*
X0058698Y0098425D01*
X0058698Y0097426D02*
X0061816Y0097426D01*
X0061816Y0096428D02*
X0058698Y0096428D01*
X0058698Y0095429D02*
X0062020Y0095429D01*
X0062433Y0094431D02*
X0058698Y0094431D01*
X0058698Y0093432D02*
X0063271Y0093432D01*
X0064796Y0092434D02*
X0058698Y0092434D01*
X0059351Y0091435D02*
X0065081Y0091435D01*
X0063389Y0090437D02*
X0060350Y0090437D01*
X0061348Y0089438D02*
X0062482Y0089438D01*
X0062069Y0088440D02*
X0061698Y0088440D01*
X0061698Y0087441D02*
X0061816Y0087441D01*
X0061816Y0086443D02*
X0061698Y0086443D01*
X0061698Y0085444D02*
X0062014Y0085444D01*
X0061698Y0084446D02*
X0062427Y0084446D01*
X0061698Y0083447D02*
X0063256Y0083447D01*
X0064761Y0082449D02*
X0061698Y0082449D01*
X0061698Y0081450D02*
X0065117Y0081450D01*
X0063404Y0080452D02*
X0061698Y0080452D01*
X0061698Y0079453D02*
X0062488Y0079453D01*
X0062075Y0078455D02*
X0061698Y0078455D01*
X0061698Y0077456D02*
X0061816Y0077456D01*
X0061816Y0076458D02*
X0061698Y0076458D01*
X0061698Y0075459D02*
X0062007Y0075459D01*
X0061698Y0074461D02*
X0062421Y0074461D01*
X0061698Y0073462D02*
X0063241Y0073462D01*
X0064725Y0072464D02*
X0061698Y0072464D01*
X0061698Y0071465D02*
X0065153Y0071465D01*
X0063419Y0070467D02*
X0061698Y0070467D01*
X0061698Y0069468D02*
X0062495Y0069468D01*
X0062081Y0068470D02*
X0061698Y0068470D01*
X0061698Y0067471D02*
X0061816Y0067471D01*
X0061816Y0066473D02*
X0061698Y0066473D01*
X0061698Y0065474D02*
X0062001Y0065474D01*
X0061698Y0064476D02*
X0062415Y0064476D01*
X0061698Y0063477D02*
X0063227Y0063477D01*
X0064689Y0062479D02*
X0061698Y0062479D01*
X0061698Y0061480D02*
X0065189Y0061480D01*
X0063434Y0060482D02*
X0061698Y0060482D01*
X0061698Y0059483D02*
X0062501Y0059483D01*
X0062087Y0058485D02*
X0061698Y0058485D01*
X0061698Y0057486D02*
X0061816Y0057486D01*
X0061816Y0056487D02*
X0061698Y0056487D01*
X0061698Y0055489D02*
X0061995Y0055489D01*
X0061698Y0054490D02*
X0062409Y0054490D01*
X0061698Y0053492D02*
X0063212Y0053492D01*
X0064653Y0052493D02*
X0061698Y0052493D01*
X0061698Y0051495D02*
X0065225Y0051495D01*
X0063449Y0050496D02*
X0061698Y0050496D01*
X0061698Y0049498D02*
X0062507Y0049498D01*
X0062093Y0048499D02*
X0061698Y0048499D01*
X0061698Y0047501D02*
X0061816Y0047501D01*
X0061816Y0046502D02*
X0061698Y0046502D01*
X0061698Y0045504D02*
X0061989Y0045504D01*
X0061698Y0044505D02*
X0062402Y0044505D01*
X0061698Y0043507D02*
X0063197Y0043507D01*
X0064617Y0042508D02*
X0061698Y0042508D01*
X0061698Y0041510D02*
X0065261Y0041510D01*
X0063464Y0040511D02*
X0062276Y0040511D01*
X0058998Y0048499D02*
X0029430Y0048499D01*
X0030428Y0049498D02*
X0058998Y0049498D01*
X0058998Y0050496D02*
X0030548Y0050496D01*
X0030494Y0051495D02*
X0058998Y0051495D01*
X0058998Y0052493D02*
X0029848Y0052493D01*
X0029848Y0053492D02*
X0058998Y0053492D01*
X0058998Y0054490D02*
X0029848Y0054490D01*
X0028982Y0055489D02*
X0058998Y0055489D01*
X0058998Y0056487D02*
X0027984Y0056487D01*
X0026985Y0057486D02*
X0058998Y0057486D01*
X0058998Y0058485D02*
X0025987Y0058485D01*
X0024988Y0059483D02*
X0058998Y0059483D01*
X0058998Y0060482D02*
X0023990Y0060482D01*
X0022522Y0059828D02*
X0018648Y0059828D01*
X0018648Y0071828D01*
X0019348Y0072529D01*
X0019348Y0090529D01*
X0014348Y0095529D01*
X0014348Y0117529D01*
X0010198Y0121391D02*
X0037748Y0121391D01*
X0037748Y0122389D02*
X0010198Y0122389D01*
X0010198Y0123388D02*
X0037748Y0123388D01*
X0037748Y0124386D02*
X0010198Y0124386D01*
X0010198Y0125385D02*
X0037748Y0125385D01*
X0037748Y0126383D02*
X0010198Y0126383D01*
X0010198Y0127382D02*
X0037748Y0127382D01*
X0037748Y0128380D02*
X0010198Y0128380D01*
X0010198Y0129379D02*
X0037748Y0129379D01*
X0037748Y0130377D02*
X0010198Y0130377D01*
X0010198Y0131376D02*
X0037748Y0131376D01*
X0037748Y0132374D02*
X0010198Y0132374D01*
X0019698Y0142359D02*
X0032407Y0142359D01*
X0032148Y0143358D02*
X0019698Y0143358D01*
X0019332Y0144356D02*
X0032148Y0144356D01*
X0032124Y0145355D02*
X0033063Y0145355D01*
X0032899Y0145802D02*
X0032899Y0145802D01*
X0032899Y0145802D01*
X0033474Y0145802D02*
X0033474Y0145802D01*
X0033474Y0145802D01*
X0030190Y0145355D02*
X0028067Y0145355D01*
X0029416Y0145802D02*
X0029416Y0145802D01*
X0029416Y0145802D01*
X0026133Y0145355D02*
X0024009Y0145355D01*
X0024783Y0145802D02*
X0024783Y0145802D01*
X0022075Y0145355D02*
X0019951Y0145355D01*
X0020726Y0145802D02*
X0020726Y0145802D01*
X0020726Y0145802D01*
X0021301Y0145802D02*
X0021301Y0145802D01*
X0021301Y0145802D01*
X0019075Y0144801D02*
X0019075Y0144801D01*
X0019075Y0144801D01*
X0021123Y0105415D02*
X0015848Y0105415D01*
X0015848Y0104416D02*
X0020148Y0104416D01*
X0020148Y0103418D02*
X0015848Y0103418D01*
X0015848Y0102419D02*
X0020347Y0102419D01*
X0021346Y0101421D02*
X0015848Y0101421D01*
X0015848Y0100422D02*
X0023334Y0100422D01*
X0024333Y0099423D02*
X0015848Y0099423D01*
X0015848Y0098425D02*
X0025331Y0098425D01*
X0026330Y0097426D02*
X0015848Y0097426D01*
X0015848Y0096428D02*
X0027328Y0096428D01*
X0028348Y0097529D02*
X0022348Y0103529D01*
X0028348Y0097529D02*
X0051348Y0097529D01*
X0054348Y0100529D01*
X0054348Y0101529D01*
X0055364Y0099423D02*
X0055998Y0099423D01*
X0055998Y0098425D02*
X0054366Y0098425D01*
X0053367Y0097426D02*
X0055998Y0097426D01*
X0055998Y0096428D02*
X0052369Y0096428D01*
X0055998Y0095429D02*
X0016570Y0095429D01*
X0017568Y0094431D02*
X0055998Y0094431D01*
X0055998Y0093432D02*
X0018567Y0093432D01*
X0019565Y0092434D02*
X0055998Y0092434D01*
X0055998Y0091435D02*
X0020564Y0091435D01*
X0020848Y0090437D02*
X0056532Y0090437D01*
X0057530Y0089438D02*
X0020848Y0089438D01*
X0020848Y0088440D02*
X0058529Y0088440D01*
X0058998Y0087441D02*
X0020848Y0087441D01*
X0020848Y0086443D02*
X0058998Y0086443D01*
X0058998Y0085444D02*
X0020848Y0085444D01*
X0020848Y0084446D02*
X0058998Y0084446D01*
X0058998Y0083447D02*
X0020848Y0083447D01*
X0020848Y0082449D02*
X0058998Y0082449D01*
X0058998Y0081450D02*
X0020848Y0081450D01*
X0020848Y0080452D02*
X0058998Y0080452D01*
X0058998Y0079453D02*
X0020848Y0079453D01*
X0020848Y0078455D02*
X0058998Y0078455D01*
X0058998Y0077456D02*
X0020848Y0077456D01*
X0020848Y0076458D02*
X0058998Y0076458D01*
X0058998Y0075459D02*
X0020848Y0075459D01*
X0020848Y0074461D02*
X0058998Y0074461D01*
X0058998Y0073462D02*
X0021527Y0073462D01*
X0021548Y0072464D02*
X0058998Y0072464D01*
X0058998Y0071465D02*
X0021396Y0071465D01*
X0020397Y0070467D02*
X0058998Y0070467D01*
X0058998Y0069468D02*
X0020148Y0069468D01*
X0020148Y0068470D02*
X0058998Y0068470D01*
X0058998Y0067471D02*
X0020148Y0067471D01*
X0020148Y0066473D02*
X0058998Y0066473D01*
X0058998Y0065474D02*
X0020148Y0065474D01*
X0020148Y0064476D02*
X0058998Y0064476D01*
X0058998Y0063477D02*
X0020148Y0063477D01*
X0020148Y0062479D02*
X0058998Y0062479D01*
X0058998Y0061480D02*
X0020148Y0061480D01*
X0018648Y0059828D02*
X0018348Y0059529D01*
X0022522Y0059828D02*
X0028348Y0054002D01*
X0028348Y0050529D01*
X0039085Y0039513D02*
X0010198Y0039513D01*
X0010198Y0040511D02*
X0039951Y0040511D01*
X0038672Y0038514D02*
X0010198Y0038514D01*
X0010198Y0037516D02*
X0038494Y0037516D01*
X0038494Y0036517D02*
X0010198Y0036517D01*
X0010268Y0035519D02*
X0038816Y0035519D01*
X0039301Y0034520D02*
X0010578Y0034520D01*
X0010962Y0033522D02*
X0040299Y0033522D01*
X0015056Y0030526D02*
X0146144Y0030526D01*
X0108075Y0048345D02*
X0108075Y0048345D01*
X0108075Y0048345D01*
X0089679Y0043507D02*
X0073332Y0043507D01*
X0074131Y0042508D02*
X0088934Y0042508D01*
X0088618Y0041510D02*
X0074131Y0041510D01*
X0075126Y0040511D02*
X0088618Y0040511D01*
X0089008Y0039513D02*
X0076124Y0039513D01*
X0077123Y0038514D02*
X0089858Y0038514D01*
X0062056Y0108410D02*
X0054377Y0108410D01*
D16*
X0156616Y0126876D02*
X0160002Y0126876D01*
X0164561Y0122317D01*
X0164561Y0076104D01*
X0166348Y0073529D01*
X0181348Y0073529D01*
X0184348Y0070529D01*
D17*
X0039348Y0108529D02*
X0039348Y0140529D01*
M02*
