%
M48
M72
T01C0.01200
T02C0.03150
T03C0.03500
T04C0.04000
T05C0.12598
%
T01
X21128Y34891
X184348Y70529
X183152Y91521
X186301Y102545
X167797Y95458
X150348Y94529
X148348Y101529
X141994Y93624
X122923Y98821
X126404Y86135
X132191Y73372
X126679Y48962
X114404Y42135
X107348Y41529
X88097Y51324
X77404Y56135
X71931Y41797
X56404Y56135
X72404Y72135
X92608Y98033
X70545Y102041
X54348Y101529
X39348Y108529
X32348Y107529
X22348Y103529
X17348Y106529
X14348Y117529
X13348Y130529
X13348Y136529
X28404Y128135
X39348Y140529
X44348Y143529
X34348Y143529
X29348Y143529
X12348Y155529
X49404Y159135
X57348Y157529
X59404Y165135
X51404Y172135
X70404Y152135
X73348Y157529
X79191Y144198
X70404Y142135
X79404Y130135
X99404Y162135
X98404Y169135
X103404Y169135
X109404Y169135
X114404Y169135
X119404Y169135
X123404Y169135
X127404Y169135
X121404Y162135
X129585Y142624
X130404Y129135
X164530Y135143
X175278Y164750
X174490Y168687
X173152Y171954
X163624Y171876
X182364Y164750
X92404Y169135
X87404Y169135
X26404Y93135
X38404Y79135
X48404Y79135
X26348Y71529
X19348Y72529
X11128Y69891
X18348Y59529
X28348Y50529
X34404Y41135
T02
X156616Y36876
X156616Y46876
X156616Y56876
X156616Y66876
X156616Y76876
X156616Y86876
X156616Y96876
X156616Y106876
X156616Y116876
X156616Y126876
X156616Y136876
X156616Y146876
X156616Y156876
X156616Y166876
X156616Y176876
X66616Y156876
X66616Y166876
X66616Y176876
X66616Y146876
X66616Y136876
X66616Y126876
X66616Y116876
X66616Y106876
X66616Y96876
X66616Y86876
X66616Y76876
X66616Y66876
X66616Y56876
X66616Y46876
X66616Y36876
X171656Y80576
X171656Y90576
X171656Y100576
X171656Y110576
X171656Y120576
X171656Y130576
T03
X123364Y41100
X91868Y41100
T04
X42994Y37191
T05
X83152Y103726
X83152Y154513
X131971Y154513
X131971Y103726
M30
