G75*
%MOIN*%
%OFA0B0*%
%FSLAX25Y25*%
%IPPOS*%
%LPD*%
%AMOC8*
5,1,8,0,0,1.08239X$1,22.5*
%
%ADD10C,0.00700*%
%ADD11C,0.00000*%
%ADD12C,0.12998*%
%ADD13C,0.03900*%
%ADD14C,0.08000*%
%ADD15C,0.07400*%
D10*
X0016222Y0028529D02*
X0186207Y0028529D01*
X0186397Y0028531D01*
X0186587Y0028538D01*
X0186777Y0028550D01*
X0186967Y0028566D01*
X0187156Y0028586D01*
X0187345Y0028612D01*
X0187533Y0028641D01*
X0187720Y0028676D01*
X0187906Y0028715D01*
X0188091Y0028758D01*
X0188276Y0028806D01*
X0188459Y0028858D01*
X0188640Y0028914D01*
X0188820Y0028975D01*
X0188999Y0029041D01*
X0189176Y0029110D01*
X0189352Y0029184D01*
X0189525Y0029262D01*
X0189697Y0029345D01*
X0189866Y0029431D01*
X0190034Y0029521D01*
X0190199Y0029616D01*
X0190362Y0029714D01*
X0190522Y0029817D01*
X0190680Y0029923D01*
X0190835Y0030033D01*
X0190988Y0030146D01*
X0191138Y0030264D01*
X0191284Y0030385D01*
X0191428Y0030509D01*
X0191569Y0030637D01*
X0191707Y0030768D01*
X0191842Y0030903D01*
X0191973Y0031041D01*
X0192101Y0031182D01*
X0192225Y0031326D01*
X0192346Y0031472D01*
X0192464Y0031622D01*
X0192577Y0031775D01*
X0192687Y0031930D01*
X0192793Y0032088D01*
X0192896Y0032248D01*
X0192994Y0032411D01*
X0193089Y0032576D01*
X0193179Y0032744D01*
X0193265Y0032913D01*
X0193348Y0033085D01*
X0193426Y0033258D01*
X0193500Y0033434D01*
X0193569Y0033611D01*
X0193635Y0033790D01*
X0193696Y0033970D01*
X0193752Y0034151D01*
X0193804Y0034334D01*
X0193852Y0034519D01*
X0193895Y0034704D01*
X0193934Y0034890D01*
X0193969Y0035077D01*
X0193998Y0035265D01*
X0194024Y0035454D01*
X0194044Y0035643D01*
X0194060Y0035833D01*
X0194072Y0036023D01*
X0194079Y0036213D01*
X0194081Y0036403D01*
X0194081Y0217506D01*
X0194080Y0217505D02*
X0194054Y0217719D01*
X0194023Y0217932D01*
X0193986Y0218144D01*
X0193944Y0218356D01*
X0193897Y0218566D01*
X0193845Y0218775D01*
X0193788Y0218983D01*
X0193726Y0219189D01*
X0193659Y0219394D01*
X0193588Y0219597D01*
X0193511Y0219798D01*
X0193429Y0219997D01*
X0193343Y0220195D01*
X0193252Y0220390D01*
X0193156Y0220583D01*
X0193055Y0220773D01*
X0192950Y0220961D01*
X0192841Y0221147D01*
X0192727Y0221329D01*
X0192608Y0221509D01*
X0192486Y0221686D01*
X0192359Y0221860D01*
X0192228Y0222031D01*
X0192092Y0222199D01*
X0191953Y0222363D01*
X0191810Y0222524D01*
X0191663Y0222682D01*
X0191512Y0222835D01*
X0191358Y0222986D01*
X0191200Y0223132D01*
X0191038Y0223275D01*
X0190874Y0223413D01*
X0190705Y0223548D01*
X0190534Y0223678D01*
X0190360Y0223804D01*
X0190182Y0223926D01*
X0190002Y0224044D01*
X0189818Y0224157D01*
X0189633Y0224266D01*
X0189444Y0224371D01*
X0189253Y0224470D01*
X0189060Y0224565D01*
X0188864Y0224656D01*
X0188667Y0224741D01*
X0188467Y0224822D01*
X0188266Y0224898D01*
X0188062Y0224969D01*
X0187857Y0225035D01*
X0187651Y0225097D01*
X0187443Y0225153D01*
X0187234Y0225204D01*
X0187023Y0225250D01*
X0186812Y0225291D01*
X0186599Y0225327D01*
X0186386Y0225358D01*
X0186172Y0225383D01*
X0185958Y0225404D01*
X0185743Y0225419D01*
X0185528Y0225429D01*
X0185313Y0225434D01*
X0185097Y0225433D01*
X0184882Y0225428D01*
X0184667Y0225417D01*
X0184452Y0225401D01*
X0184238Y0225379D01*
X0184238Y0225380D02*
X0016222Y0225380D01*
X0016032Y0225378D01*
X0015842Y0225371D01*
X0015652Y0225359D01*
X0015462Y0225343D01*
X0015273Y0225323D01*
X0015084Y0225297D01*
X0014896Y0225268D01*
X0014709Y0225233D01*
X0014523Y0225194D01*
X0014338Y0225151D01*
X0014153Y0225103D01*
X0013970Y0225051D01*
X0013789Y0224995D01*
X0013609Y0224934D01*
X0013430Y0224868D01*
X0013253Y0224799D01*
X0013077Y0224725D01*
X0012904Y0224647D01*
X0012732Y0224564D01*
X0012563Y0224478D01*
X0012395Y0224388D01*
X0012230Y0224293D01*
X0012067Y0224195D01*
X0011907Y0224092D01*
X0011749Y0223986D01*
X0011594Y0223876D01*
X0011441Y0223763D01*
X0011291Y0223645D01*
X0011145Y0223524D01*
X0011001Y0223400D01*
X0010860Y0223272D01*
X0010722Y0223141D01*
X0010587Y0223006D01*
X0010456Y0222868D01*
X0010328Y0222727D01*
X0010204Y0222583D01*
X0010083Y0222437D01*
X0009965Y0222287D01*
X0009852Y0222134D01*
X0009742Y0221979D01*
X0009636Y0221821D01*
X0009533Y0221661D01*
X0009435Y0221498D01*
X0009340Y0221333D01*
X0009250Y0221165D01*
X0009164Y0220996D01*
X0009081Y0220824D01*
X0009003Y0220651D01*
X0008929Y0220475D01*
X0008860Y0220298D01*
X0008794Y0220119D01*
X0008733Y0219939D01*
X0008677Y0219758D01*
X0008625Y0219575D01*
X0008577Y0219390D01*
X0008534Y0219205D01*
X0008495Y0219019D01*
X0008460Y0218832D01*
X0008431Y0218644D01*
X0008405Y0218455D01*
X0008385Y0218266D01*
X0008369Y0218076D01*
X0008357Y0217886D01*
X0008350Y0217696D01*
X0008348Y0217506D01*
X0008348Y0036403D01*
X0008350Y0036213D01*
X0008357Y0036023D01*
X0008369Y0035833D01*
X0008385Y0035643D01*
X0008405Y0035454D01*
X0008431Y0035265D01*
X0008460Y0035077D01*
X0008495Y0034890D01*
X0008534Y0034704D01*
X0008577Y0034519D01*
X0008625Y0034334D01*
X0008677Y0034151D01*
X0008733Y0033970D01*
X0008794Y0033790D01*
X0008860Y0033611D01*
X0008929Y0033434D01*
X0009003Y0033258D01*
X0009081Y0033085D01*
X0009164Y0032913D01*
X0009250Y0032744D01*
X0009340Y0032576D01*
X0009435Y0032411D01*
X0009533Y0032248D01*
X0009636Y0032088D01*
X0009742Y0031930D01*
X0009852Y0031775D01*
X0009965Y0031622D01*
X0010083Y0031472D01*
X0010204Y0031326D01*
X0010328Y0031182D01*
X0010456Y0031041D01*
X0010587Y0030903D01*
X0010722Y0030768D01*
X0010860Y0030637D01*
X0011001Y0030509D01*
X0011145Y0030385D01*
X0011291Y0030264D01*
X0011441Y0030146D01*
X0011594Y0030033D01*
X0011749Y0029923D01*
X0011907Y0029817D01*
X0012067Y0029714D01*
X0012230Y0029616D01*
X0012395Y0029521D01*
X0012563Y0029431D01*
X0012732Y0029345D01*
X0012904Y0029262D01*
X0013077Y0029184D01*
X0013253Y0029110D01*
X0013430Y0029041D01*
X0013609Y0028975D01*
X0013789Y0028914D01*
X0013970Y0028858D01*
X0014153Y0028806D01*
X0014338Y0028758D01*
X0014523Y0028715D01*
X0014709Y0028676D01*
X0014896Y0028641D01*
X0015084Y0028612D01*
X0015273Y0028586D01*
X0015462Y0028566D01*
X0015652Y0028550D01*
X0015842Y0028538D01*
X0016032Y0028531D01*
X0016222Y0028529D01*
D11*
X0076853Y0103726D02*
X0076855Y0103884D01*
X0076861Y0104042D01*
X0076871Y0104200D01*
X0076885Y0104358D01*
X0076903Y0104515D01*
X0076924Y0104672D01*
X0076950Y0104828D01*
X0076980Y0104984D01*
X0077013Y0105139D01*
X0077051Y0105292D01*
X0077092Y0105445D01*
X0077137Y0105597D01*
X0077186Y0105748D01*
X0077239Y0105897D01*
X0077295Y0106045D01*
X0077355Y0106191D01*
X0077419Y0106336D01*
X0077487Y0106479D01*
X0077558Y0106621D01*
X0077632Y0106761D01*
X0077710Y0106898D01*
X0077792Y0107034D01*
X0077876Y0107168D01*
X0077965Y0107299D01*
X0078056Y0107428D01*
X0078151Y0107555D01*
X0078248Y0107680D01*
X0078349Y0107802D01*
X0078453Y0107921D01*
X0078560Y0108038D01*
X0078670Y0108152D01*
X0078783Y0108263D01*
X0078898Y0108372D01*
X0079016Y0108477D01*
X0079137Y0108579D01*
X0079260Y0108679D01*
X0079386Y0108775D01*
X0079514Y0108868D01*
X0079644Y0108958D01*
X0079777Y0109044D01*
X0079912Y0109128D01*
X0080048Y0109207D01*
X0080187Y0109284D01*
X0080328Y0109356D01*
X0080470Y0109426D01*
X0080614Y0109491D01*
X0080760Y0109553D01*
X0080907Y0109611D01*
X0081056Y0109666D01*
X0081206Y0109717D01*
X0081357Y0109764D01*
X0081509Y0109807D01*
X0081662Y0109846D01*
X0081817Y0109882D01*
X0081972Y0109913D01*
X0082128Y0109941D01*
X0082284Y0109965D01*
X0082441Y0109985D01*
X0082599Y0110001D01*
X0082756Y0110013D01*
X0082915Y0110021D01*
X0083073Y0110025D01*
X0083231Y0110025D01*
X0083389Y0110021D01*
X0083548Y0110013D01*
X0083705Y0110001D01*
X0083863Y0109985D01*
X0084020Y0109965D01*
X0084176Y0109941D01*
X0084332Y0109913D01*
X0084487Y0109882D01*
X0084642Y0109846D01*
X0084795Y0109807D01*
X0084947Y0109764D01*
X0085098Y0109717D01*
X0085248Y0109666D01*
X0085397Y0109611D01*
X0085544Y0109553D01*
X0085690Y0109491D01*
X0085834Y0109426D01*
X0085976Y0109356D01*
X0086117Y0109284D01*
X0086256Y0109207D01*
X0086392Y0109128D01*
X0086527Y0109044D01*
X0086660Y0108958D01*
X0086790Y0108868D01*
X0086918Y0108775D01*
X0087044Y0108679D01*
X0087167Y0108579D01*
X0087288Y0108477D01*
X0087406Y0108372D01*
X0087521Y0108263D01*
X0087634Y0108152D01*
X0087744Y0108038D01*
X0087851Y0107921D01*
X0087955Y0107802D01*
X0088056Y0107680D01*
X0088153Y0107555D01*
X0088248Y0107428D01*
X0088339Y0107299D01*
X0088428Y0107168D01*
X0088512Y0107034D01*
X0088594Y0106898D01*
X0088672Y0106761D01*
X0088746Y0106621D01*
X0088817Y0106479D01*
X0088885Y0106336D01*
X0088949Y0106191D01*
X0089009Y0106045D01*
X0089065Y0105897D01*
X0089118Y0105748D01*
X0089167Y0105597D01*
X0089212Y0105445D01*
X0089253Y0105292D01*
X0089291Y0105139D01*
X0089324Y0104984D01*
X0089354Y0104828D01*
X0089380Y0104672D01*
X0089401Y0104515D01*
X0089419Y0104358D01*
X0089433Y0104200D01*
X0089443Y0104042D01*
X0089449Y0103884D01*
X0089451Y0103726D01*
X0089449Y0103568D01*
X0089443Y0103410D01*
X0089433Y0103252D01*
X0089419Y0103094D01*
X0089401Y0102937D01*
X0089380Y0102780D01*
X0089354Y0102624D01*
X0089324Y0102468D01*
X0089291Y0102313D01*
X0089253Y0102160D01*
X0089212Y0102007D01*
X0089167Y0101855D01*
X0089118Y0101704D01*
X0089065Y0101555D01*
X0089009Y0101407D01*
X0088949Y0101261D01*
X0088885Y0101116D01*
X0088817Y0100973D01*
X0088746Y0100831D01*
X0088672Y0100691D01*
X0088594Y0100554D01*
X0088512Y0100418D01*
X0088428Y0100284D01*
X0088339Y0100153D01*
X0088248Y0100024D01*
X0088153Y0099897D01*
X0088056Y0099772D01*
X0087955Y0099650D01*
X0087851Y0099531D01*
X0087744Y0099414D01*
X0087634Y0099300D01*
X0087521Y0099189D01*
X0087406Y0099080D01*
X0087288Y0098975D01*
X0087167Y0098873D01*
X0087044Y0098773D01*
X0086918Y0098677D01*
X0086790Y0098584D01*
X0086660Y0098494D01*
X0086527Y0098408D01*
X0086392Y0098324D01*
X0086256Y0098245D01*
X0086117Y0098168D01*
X0085976Y0098096D01*
X0085834Y0098026D01*
X0085690Y0097961D01*
X0085544Y0097899D01*
X0085397Y0097841D01*
X0085248Y0097786D01*
X0085098Y0097735D01*
X0084947Y0097688D01*
X0084795Y0097645D01*
X0084642Y0097606D01*
X0084487Y0097570D01*
X0084332Y0097539D01*
X0084176Y0097511D01*
X0084020Y0097487D01*
X0083863Y0097467D01*
X0083705Y0097451D01*
X0083548Y0097439D01*
X0083389Y0097431D01*
X0083231Y0097427D01*
X0083073Y0097427D01*
X0082915Y0097431D01*
X0082756Y0097439D01*
X0082599Y0097451D01*
X0082441Y0097467D01*
X0082284Y0097487D01*
X0082128Y0097511D01*
X0081972Y0097539D01*
X0081817Y0097570D01*
X0081662Y0097606D01*
X0081509Y0097645D01*
X0081357Y0097688D01*
X0081206Y0097735D01*
X0081056Y0097786D01*
X0080907Y0097841D01*
X0080760Y0097899D01*
X0080614Y0097961D01*
X0080470Y0098026D01*
X0080328Y0098096D01*
X0080187Y0098168D01*
X0080048Y0098245D01*
X0079912Y0098324D01*
X0079777Y0098408D01*
X0079644Y0098494D01*
X0079514Y0098584D01*
X0079386Y0098677D01*
X0079260Y0098773D01*
X0079137Y0098873D01*
X0079016Y0098975D01*
X0078898Y0099080D01*
X0078783Y0099189D01*
X0078670Y0099300D01*
X0078560Y0099414D01*
X0078453Y0099531D01*
X0078349Y0099650D01*
X0078248Y0099772D01*
X0078151Y0099897D01*
X0078056Y0100024D01*
X0077965Y0100153D01*
X0077876Y0100284D01*
X0077792Y0100418D01*
X0077710Y0100554D01*
X0077632Y0100691D01*
X0077558Y0100831D01*
X0077487Y0100973D01*
X0077419Y0101116D01*
X0077355Y0101261D01*
X0077295Y0101407D01*
X0077239Y0101555D01*
X0077186Y0101704D01*
X0077137Y0101855D01*
X0077092Y0102007D01*
X0077051Y0102160D01*
X0077013Y0102313D01*
X0076980Y0102468D01*
X0076950Y0102624D01*
X0076924Y0102780D01*
X0076903Y0102937D01*
X0076885Y0103094D01*
X0076871Y0103252D01*
X0076861Y0103410D01*
X0076855Y0103568D01*
X0076853Y0103726D01*
X0076853Y0154513D02*
X0076855Y0154671D01*
X0076861Y0154829D01*
X0076871Y0154987D01*
X0076885Y0155145D01*
X0076903Y0155302D01*
X0076924Y0155459D01*
X0076950Y0155615D01*
X0076980Y0155771D01*
X0077013Y0155926D01*
X0077051Y0156079D01*
X0077092Y0156232D01*
X0077137Y0156384D01*
X0077186Y0156535D01*
X0077239Y0156684D01*
X0077295Y0156832D01*
X0077355Y0156978D01*
X0077419Y0157123D01*
X0077487Y0157266D01*
X0077558Y0157408D01*
X0077632Y0157548D01*
X0077710Y0157685D01*
X0077792Y0157821D01*
X0077876Y0157955D01*
X0077965Y0158086D01*
X0078056Y0158215D01*
X0078151Y0158342D01*
X0078248Y0158467D01*
X0078349Y0158589D01*
X0078453Y0158708D01*
X0078560Y0158825D01*
X0078670Y0158939D01*
X0078783Y0159050D01*
X0078898Y0159159D01*
X0079016Y0159264D01*
X0079137Y0159366D01*
X0079260Y0159466D01*
X0079386Y0159562D01*
X0079514Y0159655D01*
X0079644Y0159745D01*
X0079777Y0159831D01*
X0079912Y0159915D01*
X0080048Y0159994D01*
X0080187Y0160071D01*
X0080328Y0160143D01*
X0080470Y0160213D01*
X0080614Y0160278D01*
X0080760Y0160340D01*
X0080907Y0160398D01*
X0081056Y0160453D01*
X0081206Y0160504D01*
X0081357Y0160551D01*
X0081509Y0160594D01*
X0081662Y0160633D01*
X0081817Y0160669D01*
X0081972Y0160700D01*
X0082128Y0160728D01*
X0082284Y0160752D01*
X0082441Y0160772D01*
X0082599Y0160788D01*
X0082756Y0160800D01*
X0082915Y0160808D01*
X0083073Y0160812D01*
X0083231Y0160812D01*
X0083389Y0160808D01*
X0083548Y0160800D01*
X0083705Y0160788D01*
X0083863Y0160772D01*
X0084020Y0160752D01*
X0084176Y0160728D01*
X0084332Y0160700D01*
X0084487Y0160669D01*
X0084642Y0160633D01*
X0084795Y0160594D01*
X0084947Y0160551D01*
X0085098Y0160504D01*
X0085248Y0160453D01*
X0085397Y0160398D01*
X0085544Y0160340D01*
X0085690Y0160278D01*
X0085834Y0160213D01*
X0085976Y0160143D01*
X0086117Y0160071D01*
X0086256Y0159994D01*
X0086392Y0159915D01*
X0086527Y0159831D01*
X0086660Y0159745D01*
X0086790Y0159655D01*
X0086918Y0159562D01*
X0087044Y0159466D01*
X0087167Y0159366D01*
X0087288Y0159264D01*
X0087406Y0159159D01*
X0087521Y0159050D01*
X0087634Y0158939D01*
X0087744Y0158825D01*
X0087851Y0158708D01*
X0087955Y0158589D01*
X0088056Y0158467D01*
X0088153Y0158342D01*
X0088248Y0158215D01*
X0088339Y0158086D01*
X0088428Y0157955D01*
X0088512Y0157821D01*
X0088594Y0157685D01*
X0088672Y0157548D01*
X0088746Y0157408D01*
X0088817Y0157266D01*
X0088885Y0157123D01*
X0088949Y0156978D01*
X0089009Y0156832D01*
X0089065Y0156684D01*
X0089118Y0156535D01*
X0089167Y0156384D01*
X0089212Y0156232D01*
X0089253Y0156079D01*
X0089291Y0155926D01*
X0089324Y0155771D01*
X0089354Y0155615D01*
X0089380Y0155459D01*
X0089401Y0155302D01*
X0089419Y0155145D01*
X0089433Y0154987D01*
X0089443Y0154829D01*
X0089449Y0154671D01*
X0089451Y0154513D01*
X0089449Y0154355D01*
X0089443Y0154197D01*
X0089433Y0154039D01*
X0089419Y0153881D01*
X0089401Y0153724D01*
X0089380Y0153567D01*
X0089354Y0153411D01*
X0089324Y0153255D01*
X0089291Y0153100D01*
X0089253Y0152947D01*
X0089212Y0152794D01*
X0089167Y0152642D01*
X0089118Y0152491D01*
X0089065Y0152342D01*
X0089009Y0152194D01*
X0088949Y0152048D01*
X0088885Y0151903D01*
X0088817Y0151760D01*
X0088746Y0151618D01*
X0088672Y0151478D01*
X0088594Y0151341D01*
X0088512Y0151205D01*
X0088428Y0151071D01*
X0088339Y0150940D01*
X0088248Y0150811D01*
X0088153Y0150684D01*
X0088056Y0150559D01*
X0087955Y0150437D01*
X0087851Y0150318D01*
X0087744Y0150201D01*
X0087634Y0150087D01*
X0087521Y0149976D01*
X0087406Y0149867D01*
X0087288Y0149762D01*
X0087167Y0149660D01*
X0087044Y0149560D01*
X0086918Y0149464D01*
X0086790Y0149371D01*
X0086660Y0149281D01*
X0086527Y0149195D01*
X0086392Y0149111D01*
X0086256Y0149032D01*
X0086117Y0148955D01*
X0085976Y0148883D01*
X0085834Y0148813D01*
X0085690Y0148748D01*
X0085544Y0148686D01*
X0085397Y0148628D01*
X0085248Y0148573D01*
X0085098Y0148522D01*
X0084947Y0148475D01*
X0084795Y0148432D01*
X0084642Y0148393D01*
X0084487Y0148357D01*
X0084332Y0148326D01*
X0084176Y0148298D01*
X0084020Y0148274D01*
X0083863Y0148254D01*
X0083705Y0148238D01*
X0083548Y0148226D01*
X0083389Y0148218D01*
X0083231Y0148214D01*
X0083073Y0148214D01*
X0082915Y0148218D01*
X0082756Y0148226D01*
X0082599Y0148238D01*
X0082441Y0148254D01*
X0082284Y0148274D01*
X0082128Y0148298D01*
X0081972Y0148326D01*
X0081817Y0148357D01*
X0081662Y0148393D01*
X0081509Y0148432D01*
X0081357Y0148475D01*
X0081206Y0148522D01*
X0081056Y0148573D01*
X0080907Y0148628D01*
X0080760Y0148686D01*
X0080614Y0148748D01*
X0080470Y0148813D01*
X0080328Y0148883D01*
X0080187Y0148955D01*
X0080048Y0149032D01*
X0079912Y0149111D01*
X0079777Y0149195D01*
X0079644Y0149281D01*
X0079514Y0149371D01*
X0079386Y0149464D01*
X0079260Y0149560D01*
X0079137Y0149660D01*
X0079016Y0149762D01*
X0078898Y0149867D01*
X0078783Y0149976D01*
X0078670Y0150087D01*
X0078560Y0150201D01*
X0078453Y0150318D01*
X0078349Y0150437D01*
X0078248Y0150559D01*
X0078151Y0150684D01*
X0078056Y0150811D01*
X0077965Y0150940D01*
X0077876Y0151071D01*
X0077792Y0151205D01*
X0077710Y0151341D01*
X0077632Y0151478D01*
X0077558Y0151618D01*
X0077487Y0151760D01*
X0077419Y0151903D01*
X0077355Y0152048D01*
X0077295Y0152194D01*
X0077239Y0152342D01*
X0077186Y0152491D01*
X0077137Y0152642D01*
X0077092Y0152794D01*
X0077051Y0152947D01*
X0077013Y0153100D01*
X0076980Y0153255D01*
X0076950Y0153411D01*
X0076924Y0153567D01*
X0076903Y0153724D01*
X0076885Y0153881D01*
X0076871Y0154039D01*
X0076861Y0154197D01*
X0076855Y0154355D01*
X0076853Y0154513D01*
X0125672Y0154513D02*
X0125674Y0154671D01*
X0125680Y0154829D01*
X0125690Y0154987D01*
X0125704Y0155145D01*
X0125722Y0155302D01*
X0125743Y0155459D01*
X0125769Y0155615D01*
X0125799Y0155771D01*
X0125832Y0155926D01*
X0125870Y0156079D01*
X0125911Y0156232D01*
X0125956Y0156384D01*
X0126005Y0156535D01*
X0126058Y0156684D01*
X0126114Y0156832D01*
X0126174Y0156978D01*
X0126238Y0157123D01*
X0126306Y0157266D01*
X0126377Y0157408D01*
X0126451Y0157548D01*
X0126529Y0157685D01*
X0126611Y0157821D01*
X0126695Y0157955D01*
X0126784Y0158086D01*
X0126875Y0158215D01*
X0126970Y0158342D01*
X0127067Y0158467D01*
X0127168Y0158589D01*
X0127272Y0158708D01*
X0127379Y0158825D01*
X0127489Y0158939D01*
X0127602Y0159050D01*
X0127717Y0159159D01*
X0127835Y0159264D01*
X0127956Y0159366D01*
X0128079Y0159466D01*
X0128205Y0159562D01*
X0128333Y0159655D01*
X0128463Y0159745D01*
X0128596Y0159831D01*
X0128731Y0159915D01*
X0128867Y0159994D01*
X0129006Y0160071D01*
X0129147Y0160143D01*
X0129289Y0160213D01*
X0129433Y0160278D01*
X0129579Y0160340D01*
X0129726Y0160398D01*
X0129875Y0160453D01*
X0130025Y0160504D01*
X0130176Y0160551D01*
X0130328Y0160594D01*
X0130481Y0160633D01*
X0130636Y0160669D01*
X0130791Y0160700D01*
X0130947Y0160728D01*
X0131103Y0160752D01*
X0131260Y0160772D01*
X0131418Y0160788D01*
X0131575Y0160800D01*
X0131734Y0160808D01*
X0131892Y0160812D01*
X0132050Y0160812D01*
X0132208Y0160808D01*
X0132367Y0160800D01*
X0132524Y0160788D01*
X0132682Y0160772D01*
X0132839Y0160752D01*
X0132995Y0160728D01*
X0133151Y0160700D01*
X0133306Y0160669D01*
X0133461Y0160633D01*
X0133614Y0160594D01*
X0133766Y0160551D01*
X0133917Y0160504D01*
X0134067Y0160453D01*
X0134216Y0160398D01*
X0134363Y0160340D01*
X0134509Y0160278D01*
X0134653Y0160213D01*
X0134795Y0160143D01*
X0134936Y0160071D01*
X0135075Y0159994D01*
X0135211Y0159915D01*
X0135346Y0159831D01*
X0135479Y0159745D01*
X0135609Y0159655D01*
X0135737Y0159562D01*
X0135863Y0159466D01*
X0135986Y0159366D01*
X0136107Y0159264D01*
X0136225Y0159159D01*
X0136340Y0159050D01*
X0136453Y0158939D01*
X0136563Y0158825D01*
X0136670Y0158708D01*
X0136774Y0158589D01*
X0136875Y0158467D01*
X0136972Y0158342D01*
X0137067Y0158215D01*
X0137158Y0158086D01*
X0137247Y0157955D01*
X0137331Y0157821D01*
X0137413Y0157685D01*
X0137491Y0157548D01*
X0137565Y0157408D01*
X0137636Y0157266D01*
X0137704Y0157123D01*
X0137768Y0156978D01*
X0137828Y0156832D01*
X0137884Y0156684D01*
X0137937Y0156535D01*
X0137986Y0156384D01*
X0138031Y0156232D01*
X0138072Y0156079D01*
X0138110Y0155926D01*
X0138143Y0155771D01*
X0138173Y0155615D01*
X0138199Y0155459D01*
X0138220Y0155302D01*
X0138238Y0155145D01*
X0138252Y0154987D01*
X0138262Y0154829D01*
X0138268Y0154671D01*
X0138270Y0154513D01*
X0138268Y0154355D01*
X0138262Y0154197D01*
X0138252Y0154039D01*
X0138238Y0153881D01*
X0138220Y0153724D01*
X0138199Y0153567D01*
X0138173Y0153411D01*
X0138143Y0153255D01*
X0138110Y0153100D01*
X0138072Y0152947D01*
X0138031Y0152794D01*
X0137986Y0152642D01*
X0137937Y0152491D01*
X0137884Y0152342D01*
X0137828Y0152194D01*
X0137768Y0152048D01*
X0137704Y0151903D01*
X0137636Y0151760D01*
X0137565Y0151618D01*
X0137491Y0151478D01*
X0137413Y0151341D01*
X0137331Y0151205D01*
X0137247Y0151071D01*
X0137158Y0150940D01*
X0137067Y0150811D01*
X0136972Y0150684D01*
X0136875Y0150559D01*
X0136774Y0150437D01*
X0136670Y0150318D01*
X0136563Y0150201D01*
X0136453Y0150087D01*
X0136340Y0149976D01*
X0136225Y0149867D01*
X0136107Y0149762D01*
X0135986Y0149660D01*
X0135863Y0149560D01*
X0135737Y0149464D01*
X0135609Y0149371D01*
X0135479Y0149281D01*
X0135346Y0149195D01*
X0135211Y0149111D01*
X0135075Y0149032D01*
X0134936Y0148955D01*
X0134795Y0148883D01*
X0134653Y0148813D01*
X0134509Y0148748D01*
X0134363Y0148686D01*
X0134216Y0148628D01*
X0134067Y0148573D01*
X0133917Y0148522D01*
X0133766Y0148475D01*
X0133614Y0148432D01*
X0133461Y0148393D01*
X0133306Y0148357D01*
X0133151Y0148326D01*
X0132995Y0148298D01*
X0132839Y0148274D01*
X0132682Y0148254D01*
X0132524Y0148238D01*
X0132367Y0148226D01*
X0132208Y0148218D01*
X0132050Y0148214D01*
X0131892Y0148214D01*
X0131734Y0148218D01*
X0131575Y0148226D01*
X0131418Y0148238D01*
X0131260Y0148254D01*
X0131103Y0148274D01*
X0130947Y0148298D01*
X0130791Y0148326D01*
X0130636Y0148357D01*
X0130481Y0148393D01*
X0130328Y0148432D01*
X0130176Y0148475D01*
X0130025Y0148522D01*
X0129875Y0148573D01*
X0129726Y0148628D01*
X0129579Y0148686D01*
X0129433Y0148748D01*
X0129289Y0148813D01*
X0129147Y0148883D01*
X0129006Y0148955D01*
X0128867Y0149032D01*
X0128731Y0149111D01*
X0128596Y0149195D01*
X0128463Y0149281D01*
X0128333Y0149371D01*
X0128205Y0149464D01*
X0128079Y0149560D01*
X0127956Y0149660D01*
X0127835Y0149762D01*
X0127717Y0149867D01*
X0127602Y0149976D01*
X0127489Y0150087D01*
X0127379Y0150201D01*
X0127272Y0150318D01*
X0127168Y0150437D01*
X0127067Y0150559D01*
X0126970Y0150684D01*
X0126875Y0150811D01*
X0126784Y0150940D01*
X0126695Y0151071D01*
X0126611Y0151205D01*
X0126529Y0151341D01*
X0126451Y0151478D01*
X0126377Y0151618D01*
X0126306Y0151760D01*
X0126238Y0151903D01*
X0126174Y0152048D01*
X0126114Y0152194D01*
X0126058Y0152342D01*
X0126005Y0152491D01*
X0125956Y0152642D01*
X0125911Y0152794D01*
X0125870Y0152947D01*
X0125832Y0153100D01*
X0125799Y0153255D01*
X0125769Y0153411D01*
X0125743Y0153567D01*
X0125722Y0153724D01*
X0125704Y0153881D01*
X0125690Y0154039D01*
X0125680Y0154197D01*
X0125674Y0154355D01*
X0125672Y0154513D01*
X0125672Y0103726D02*
X0125674Y0103884D01*
X0125680Y0104042D01*
X0125690Y0104200D01*
X0125704Y0104358D01*
X0125722Y0104515D01*
X0125743Y0104672D01*
X0125769Y0104828D01*
X0125799Y0104984D01*
X0125832Y0105139D01*
X0125870Y0105292D01*
X0125911Y0105445D01*
X0125956Y0105597D01*
X0126005Y0105748D01*
X0126058Y0105897D01*
X0126114Y0106045D01*
X0126174Y0106191D01*
X0126238Y0106336D01*
X0126306Y0106479D01*
X0126377Y0106621D01*
X0126451Y0106761D01*
X0126529Y0106898D01*
X0126611Y0107034D01*
X0126695Y0107168D01*
X0126784Y0107299D01*
X0126875Y0107428D01*
X0126970Y0107555D01*
X0127067Y0107680D01*
X0127168Y0107802D01*
X0127272Y0107921D01*
X0127379Y0108038D01*
X0127489Y0108152D01*
X0127602Y0108263D01*
X0127717Y0108372D01*
X0127835Y0108477D01*
X0127956Y0108579D01*
X0128079Y0108679D01*
X0128205Y0108775D01*
X0128333Y0108868D01*
X0128463Y0108958D01*
X0128596Y0109044D01*
X0128731Y0109128D01*
X0128867Y0109207D01*
X0129006Y0109284D01*
X0129147Y0109356D01*
X0129289Y0109426D01*
X0129433Y0109491D01*
X0129579Y0109553D01*
X0129726Y0109611D01*
X0129875Y0109666D01*
X0130025Y0109717D01*
X0130176Y0109764D01*
X0130328Y0109807D01*
X0130481Y0109846D01*
X0130636Y0109882D01*
X0130791Y0109913D01*
X0130947Y0109941D01*
X0131103Y0109965D01*
X0131260Y0109985D01*
X0131418Y0110001D01*
X0131575Y0110013D01*
X0131734Y0110021D01*
X0131892Y0110025D01*
X0132050Y0110025D01*
X0132208Y0110021D01*
X0132367Y0110013D01*
X0132524Y0110001D01*
X0132682Y0109985D01*
X0132839Y0109965D01*
X0132995Y0109941D01*
X0133151Y0109913D01*
X0133306Y0109882D01*
X0133461Y0109846D01*
X0133614Y0109807D01*
X0133766Y0109764D01*
X0133917Y0109717D01*
X0134067Y0109666D01*
X0134216Y0109611D01*
X0134363Y0109553D01*
X0134509Y0109491D01*
X0134653Y0109426D01*
X0134795Y0109356D01*
X0134936Y0109284D01*
X0135075Y0109207D01*
X0135211Y0109128D01*
X0135346Y0109044D01*
X0135479Y0108958D01*
X0135609Y0108868D01*
X0135737Y0108775D01*
X0135863Y0108679D01*
X0135986Y0108579D01*
X0136107Y0108477D01*
X0136225Y0108372D01*
X0136340Y0108263D01*
X0136453Y0108152D01*
X0136563Y0108038D01*
X0136670Y0107921D01*
X0136774Y0107802D01*
X0136875Y0107680D01*
X0136972Y0107555D01*
X0137067Y0107428D01*
X0137158Y0107299D01*
X0137247Y0107168D01*
X0137331Y0107034D01*
X0137413Y0106898D01*
X0137491Y0106761D01*
X0137565Y0106621D01*
X0137636Y0106479D01*
X0137704Y0106336D01*
X0137768Y0106191D01*
X0137828Y0106045D01*
X0137884Y0105897D01*
X0137937Y0105748D01*
X0137986Y0105597D01*
X0138031Y0105445D01*
X0138072Y0105292D01*
X0138110Y0105139D01*
X0138143Y0104984D01*
X0138173Y0104828D01*
X0138199Y0104672D01*
X0138220Y0104515D01*
X0138238Y0104358D01*
X0138252Y0104200D01*
X0138262Y0104042D01*
X0138268Y0103884D01*
X0138270Y0103726D01*
X0138268Y0103568D01*
X0138262Y0103410D01*
X0138252Y0103252D01*
X0138238Y0103094D01*
X0138220Y0102937D01*
X0138199Y0102780D01*
X0138173Y0102624D01*
X0138143Y0102468D01*
X0138110Y0102313D01*
X0138072Y0102160D01*
X0138031Y0102007D01*
X0137986Y0101855D01*
X0137937Y0101704D01*
X0137884Y0101555D01*
X0137828Y0101407D01*
X0137768Y0101261D01*
X0137704Y0101116D01*
X0137636Y0100973D01*
X0137565Y0100831D01*
X0137491Y0100691D01*
X0137413Y0100554D01*
X0137331Y0100418D01*
X0137247Y0100284D01*
X0137158Y0100153D01*
X0137067Y0100024D01*
X0136972Y0099897D01*
X0136875Y0099772D01*
X0136774Y0099650D01*
X0136670Y0099531D01*
X0136563Y0099414D01*
X0136453Y0099300D01*
X0136340Y0099189D01*
X0136225Y0099080D01*
X0136107Y0098975D01*
X0135986Y0098873D01*
X0135863Y0098773D01*
X0135737Y0098677D01*
X0135609Y0098584D01*
X0135479Y0098494D01*
X0135346Y0098408D01*
X0135211Y0098324D01*
X0135075Y0098245D01*
X0134936Y0098168D01*
X0134795Y0098096D01*
X0134653Y0098026D01*
X0134509Y0097961D01*
X0134363Y0097899D01*
X0134216Y0097841D01*
X0134067Y0097786D01*
X0133917Y0097735D01*
X0133766Y0097688D01*
X0133614Y0097645D01*
X0133461Y0097606D01*
X0133306Y0097570D01*
X0133151Y0097539D01*
X0132995Y0097511D01*
X0132839Y0097487D01*
X0132682Y0097467D01*
X0132524Y0097451D01*
X0132367Y0097439D01*
X0132208Y0097431D01*
X0132050Y0097427D01*
X0131892Y0097427D01*
X0131734Y0097431D01*
X0131575Y0097439D01*
X0131418Y0097451D01*
X0131260Y0097467D01*
X0131103Y0097487D01*
X0130947Y0097511D01*
X0130791Y0097539D01*
X0130636Y0097570D01*
X0130481Y0097606D01*
X0130328Y0097645D01*
X0130176Y0097688D01*
X0130025Y0097735D01*
X0129875Y0097786D01*
X0129726Y0097841D01*
X0129579Y0097899D01*
X0129433Y0097961D01*
X0129289Y0098026D01*
X0129147Y0098096D01*
X0129006Y0098168D01*
X0128867Y0098245D01*
X0128731Y0098324D01*
X0128596Y0098408D01*
X0128463Y0098494D01*
X0128333Y0098584D01*
X0128205Y0098677D01*
X0128079Y0098773D01*
X0127956Y0098873D01*
X0127835Y0098975D01*
X0127717Y0099080D01*
X0127602Y0099189D01*
X0127489Y0099300D01*
X0127379Y0099414D01*
X0127272Y0099531D01*
X0127168Y0099650D01*
X0127067Y0099772D01*
X0126970Y0099897D01*
X0126875Y0100024D01*
X0126784Y0100153D01*
X0126695Y0100284D01*
X0126611Y0100418D01*
X0126529Y0100554D01*
X0126451Y0100691D01*
X0126377Y0100831D01*
X0126306Y0100973D01*
X0126238Y0101116D01*
X0126174Y0101261D01*
X0126114Y0101407D01*
X0126058Y0101555D01*
X0126005Y0101704D01*
X0125956Y0101855D01*
X0125911Y0102007D01*
X0125870Y0102160D01*
X0125832Y0102313D01*
X0125799Y0102468D01*
X0125769Y0102624D01*
X0125743Y0102780D01*
X0125722Y0102937D01*
X0125704Y0103094D01*
X0125690Y0103252D01*
X0125680Y0103410D01*
X0125674Y0103568D01*
X0125672Y0103726D01*
X0121614Y0041100D02*
X0121616Y0041183D01*
X0121622Y0041266D01*
X0121632Y0041349D01*
X0121646Y0041431D01*
X0121663Y0041513D01*
X0121685Y0041593D01*
X0121710Y0041672D01*
X0121739Y0041750D01*
X0121772Y0041827D01*
X0121809Y0041902D01*
X0121848Y0041975D01*
X0121892Y0042046D01*
X0121938Y0042115D01*
X0121988Y0042182D01*
X0122041Y0042246D01*
X0122097Y0042308D01*
X0122156Y0042367D01*
X0122218Y0042423D01*
X0122282Y0042476D01*
X0122349Y0042526D01*
X0122418Y0042572D01*
X0122489Y0042616D01*
X0122562Y0042655D01*
X0122637Y0042692D01*
X0122714Y0042725D01*
X0122792Y0042754D01*
X0122871Y0042779D01*
X0122951Y0042801D01*
X0123033Y0042818D01*
X0123115Y0042832D01*
X0123198Y0042842D01*
X0123281Y0042848D01*
X0123364Y0042850D01*
X0123447Y0042848D01*
X0123530Y0042842D01*
X0123613Y0042832D01*
X0123695Y0042818D01*
X0123777Y0042801D01*
X0123857Y0042779D01*
X0123936Y0042754D01*
X0124014Y0042725D01*
X0124091Y0042692D01*
X0124166Y0042655D01*
X0124239Y0042616D01*
X0124310Y0042572D01*
X0124379Y0042526D01*
X0124446Y0042476D01*
X0124510Y0042423D01*
X0124572Y0042367D01*
X0124631Y0042308D01*
X0124687Y0042246D01*
X0124740Y0042182D01*
X0124790Y0042115D01*
X0124836Y0042046D01*
X0124880Y0041975D01*
X0124919Y0041902D01*
X0124956Y0041827D01*
X0124989Y0041750D01*
X0125018Y0041672D01*
X0125043Y0041593D01*
X0125065Y0041513D01*
X0125082Y0041431D01*
X0125096Y0041349D01*
X0125106Y0041266D01*
X0125112Y0041183D01*
X0125114Y0041100D01*
X0125112Y0041017D01*
X0125106Y0040934D01*
X0125096Y0040851D01*
X0125082Y0040769D01*
X0125065Y0040687D01*
X0125043Y0040607D01*
X0125018Y0040528D01*
X0124989Y0040450D01*
X0124956Y0040373D01*
X0124919Y0040298D01*
X0124880Y0040225D01*
X0124836Y0040154D01*
X0124790Y0040085D01*
X0124740Y0040018D01*
X0124687Y0039954D01*
X0124631Y0039892D01*
X0124572Y0039833D01*
X0124510Y0039777D01*
X0124446Y0039724D01*
X0124379Y0039674D01*
X0124310Y0039628D01*
X0124239Y0039584D01*
X0124166Y0039545D01*
X0124091Y0039508D01*
X0124014Y0039475D01*
X0123936Y0039446D01*
X0123857Y0039421D01*
X0123777Y0039399D01*
X0123695Y0039382D01*
X0123613Y0039368D01*
X0123530Y0039358D01*
X0123447Y0039352D01*
X0123364Y0039350D01*
X0123281Y0039352D01*
X0123198Y0039358D01*
X0123115Y0039368D01*
X0123033Y0039382D01*
X0122951Y0039399D01*
X0122871Y0039421D01*
X0122792Y0039446D01*
X0122714Y0039475D01*
X0122637Y0039508D01*
X0122562Y0039545D01*
X0122489Y0039584D01*
X0122418Y0039628D01*
X0122349Y0039674D01*
X0122282Y0039724D01*
X0122218Y0039777D01*
X0122156Y0039833D01*
X0122097Y0039892D01*
X0122041Y0039954D01*
X0121988Y0040018D01*
X0121938Y0040085D01*
X0121892Y0040154D01*
X0121848Y0040225D01*
X0121809Y0040298D01*
X0121772Y0040373D01*
X0121739Y0040450D01*
X0121710Y0040528D01*
X0121685Y0040607D01*
X0121663Y0040687D01*
X0121646Y0040769D01*
X0121632Y0040851D01*
X0121622Y0040934D01*
X0121616Y0041017D01*
X0121614Y0041100D01*
X0090118Y0041100D02*
X0090120Y0041183D01*
X0090126Y0041266D01*
X0090136Y0041349D01*
X0090150Y0041431D01*
X0090167Y0041513D01*
X0090189Y0041593D01*
X0090214Y0041672D01*
X0090243Y0041750D01*
X0090276Y0041827D01*
X0090313Y0041902D01*
X0090352Y0041975D01*
X0090396Y0042046D01*
X0090442Y0042115D01*
X0090492Y0042182D01*
X0090545Y0042246D01*
X0090601Y0042308D01*
X0090660Y0042367D01*
X0090722Y0042423D01*
X0090786Y0042476D01*
X0090853Y0042526D01*
X0090922Y0042572D01*
X0090993Y0042616D01*
X0091066Y0042655D01*
X0091141Y0042692D01*
X0091218Y0042725D01*
X0091296Y0042754D01*
X0091375Y0042779D01*
X0091455Y0042801D01*
X0091537Y0042818D01*
X0091619Y0042832D01*
X0091702Y0042842D01*
X0091785Y0042848D01*
X0091868Y0042850D01*
X0091951Y0042848D01*
X0092034Y0042842D01*
X0092117Y0042832D01*
X0092199Y0042818D01*
X0092281Y0042801D01*
X0092361Y0042779D01*
X0092440Y0042754D01*
X0092518Y0042725D01*
X0092595Y0042692D01*
X0092670Y0042655D01*
X0092743Y0042616D01*
X0092814Y0042572D01*
X0092883Y0042526D01*
X0092950Y0042476D01*
X0093014Y0042423D01*
X0093076Y0042367D01*
X0093135Y0042308D01*
X0093191Y0042246D01*
X0093244Y0042182D01*
X0093294Y0042115D01*
X0093340Y0042046D01*
X0093384Y0041975D01*
X0093423Y0041902D01*
X0093460Y0041827D01*
X0093493Y0041750D01*
X0093522Y0041672D01*
X0093547Y0041593D01*
X0093569Y0041513D01*
X0093586Y0041431D01*
X0093600Y0041349D01*
X0093610Y0041266D01*
X0093616Y0041183D01*
X0093618Y0041100D01*
X0093616Y0041017D01*
X0093610Y0040934D01*
X0093600Y0040851D01*
X0093586Y0040769D01*
X0093569Y0040687D01*
X0093547Y0040607D01*
X0093522Y0040528D01*
X0093493Y0040450D01*
X0093460Y0040373D01*
X0093423Y0040298D01*
X0093384Y0040225D01*
X0093340Y0040154D01*
X0093294Y0040085D01*
X0093244Y0040018D01*
X0093191Y0039954D01*
X0093135Y0039892D01*
X0093076Y0039833D01*
X0093014Y0039777D01*
X0092950Y0039724D01*
X0092883Y0039674D01*
X0092814Y0039628D01*
X0092743Y0039584D01*
X0092670Y0039545D01*
X0092595Y0039508D01*
X0092518Y0039475D01*
X0092440Y0039446D01*
X0092361Y0039421D01*
X0092281Y0039399D01*
X0092199Y0039382D01*
X0092117Y0039368D01*
X0092034Y0039358D01*
X0091951Y0039352D01*
X0091868Y0039350D01*
X0091785Y0039352D01*
X0091702Y0039358D01*
X0091619Y0039368D01*
X0091537Y0039382D01*
X0091455Y0039399D01*
X0091375Y0039421D01*
X0091296Y0039446D01*
X0091218Y0039475D01*
X0091141Y0039508D01*
X0091066Y0039545D01*
X0090993Y0039584D01*
X0090922Y0039628D01*
X0090853Y0039674D01*
X0090786Y0039724D01*
X0090722Y0039777D01*
X0090660Y0039833D01*
X0090601Y0039892D01*
X0090545Y0039954D01*
X0090492Y0040018D01*
X0090442Y0040085D01*
X0090396Y0040154D01*
X0090352Y0040225D01*
X0090313Y0040298D01*
X0090276Y0040373D01*
X0090243Y0040450D01*
X0090214Y0040528D01*
X0090189Y0040607D01*
X0090167Y0040687D01*
X0090150Y0040769D01*
X0090136Y0040851D01*
X0090126Y0040934D01*
X0090120Y0041017D01*
X0090118Y0041100D01*
D12*
X0083152Y0103726D03*
X0083152Y0154513D03*
X0131971Y0154513D03*
X0131971Y0103726D03*
D13*
X0123364Y0041100D03*
X0091868Y0041100D03*
D14*
X0066616Y0036876D03*
X0066616Y0046876D03*
X0066616Y0056876D03*
X0066616Y0066876D03*
X0066616Y0076876D03*
X0066616Y0086876D03*
X0066616Y0096876D03*
X0066616Y0106876D03*
X0066616Y0116876D03*
X0066616Y0126876D03*
X0066616Y0136876D03*
X0066616Y0146876D03*
X0066616Y0156876D03*
X0066616Y0166876D03*
X0066616Y0176876D03*
X0156616Y0176876D03*
X0156616Y0166876D03*
X0156616Y0156876D03*
X0156616Y0146876D03*
X0156616Y0136876D03*
X0156616Y0126876D03*
X0156616Y0116876D03*
X0156616Y0106876D03*
X0156616Y0096876D03*
X0156616Y0086876D03*
X0156616Y0076876D03*
X0156616Y0066876D03*
X0156616Y0056876D03*
X0156616Y0046876D03*
X0156616Y0036876D03*
D15*
X0171656Y0080576D03*
X0171656Y0090576D03*
X0171656Y0100576D03*
X0171656Y0110576D03*
X0171656Y0120576D03*
X0171656Y0130576D03*
X0042994Y0037191D03*
M02*
